<svg width="36" height="36" viewBox="0 0 36 36" fill="none" xmlns="http://www.w3.org/2000/svg">
<path fill-rule="evenodd" clip-rule="evenodd" d="M18 36C8.05894 36 0 27.9411 0 18C0 8.05888 8.05894 0 18 0C27.9411 0 36 8.05888 36 18C36 27.9411 27.9411 36 18 36ZM16.027 9.15326C16.6141 8.60095 17.5376 8.6291 18.0899 9.21616C18.6424 9.80321 18.6141 10.7269 18.027 11.2792L12.4348 16.5405H25.7838C26.5898 16.5405 27.2432 17.194 27.2432 18C27.2432 18.806 26.5898 19.4595 25.7838 19.4595H12.4348L18.027 24.7209C18.6141 25.2732 18.6424 26.1967 18.0899 26.7838C17.5376 27.3709 16.6141 27.3991 16.027 26.8467L8.5894 19.8492C7.51524 18.8387 7.51524 17.1613 8.5894 16.1508L16.027 9.15326Z" fill="#5C4033"/>
</svg>
