<svg width="365" height="476" viewBox="0 0 365 476" fill="none" xmlns="http://www.w3.org/2000/svg">
<g clip-path="url(#clip0_79_265)">
<path d="M129.307 288.497L138.403 319.291C143.508 344.139 146.551 369.459 149.214 394.623C149.814 400.299 148.786 406.019 149.325 411.746C150.243 421.563 155.686 429.417 154.224 439.435C153.907 441.621 153.57 445.765 150.707 443.288C147.993 440.944 143.694 430.722 140.763 426.577C129.322 410.384 114.127 396.38 102.078 380.699C85.4209 359.028 72.5241 328.922 63.1214 303.283C61.2076 298.06 60.0619 292.635 58.1371 287.422C55.8586 292.464 53.5274 297.552 50.8509 302.404C39.5829 322.851 21.0218 336.745 6.73633 354.72C4.87384 357.066 -5.13366 372.311 -6.40296 371.995C-6.86417 371.406 -7.36556 371.034 -7.67539 370.324C-15.2708 353.045 -7.50111 310.807 -2.81371 292.47C5.35131 260.525 19.6846 234.45 49.0135 218.248C54.7346 215.089 61.9983 214.073 67.448 210.239C57.9108 205.608 49.7534 198.743 40.7584 193.229C32.9056 188.414 23.0213 182.392 14.9331 178.226C-2.1289 169.438 -24.6765 161.298 -40.2706 150.459C-48.4375 144.78 -47.7308 135.113 -37.3618 135.079C-8.86262 152.209 18.7006 171.323 47.567 187.821C50.5614 189.532 71.1214 200.976 72.3681 200.362C73.251 194.475 71.9396 188.55 72.3434 182.393C76.0596 125.635 128.178 96.1984 172.806 72.5612C178.016 69.8025 182.956 65.0209 189.181 65.1843L190.966 67.072C190.858 73.6879 178.353 86.6343 174.362 92.5176C163.208 108.961 158.625 127.269 149.984 144.537C144.22 156.052 135.464 166.8 127.769 177.05C128.276 178.047 136.097 174.284 137.256 173.901C163.936 165.018 193.244 163.812 221.106 167.282C229.755 168.361 238.085 170.909 246.965 171.888C259.466 173.269 273.445 172.263 285.644 174.11C293.154 175.247 298.681 178.267 305.667 179.988C312.687 181.713 319.655 178.955 326.6 181.64C321.728 190.2 309.199 191.049 300.559 193.937C282.227 200.061 263.943 206.71 245.386 212.132C220.477 219.405 194.911 224.331 169.547 229.777C169.102 230.94 183.474 239.073 185.415 240.414C212.276 258.962 229.353 282.375 248.157 308.046C258.955 322.781 271.187 336.164 284.679 348.519L285.366 350.927C285.041 352.226 284.299 352.603 283.138 352.993C277.433 354.926 266.209 346.39 260.567 343.967C230.247 330.945 198.565 325.178 167.998 309.945C154.832 303.381 142.069 295.732 129.307 288.497ZM281.54 351.359C282.147 350.355 281.711 349.941 281.125 349.148C278.953 346.189 272.497 341.183 269.454 338.1C265.956 334.553 262.78 330.444 259.259 326.881L257.699 330.581L264.315 335.194L265.272 337.682C262.737 334.952 259.179 334.637 256.425 333.069C246.196 327.245 235.606 314.214 225.753 308.58C224.053 307.607 224.979 309.831 224.232 310.967C223.724 311.731 216.711 318.445 215.983 316.754L224.153 307.779L217.547 302.141C216.775 303.326 206.681 314.887 205.864 312.477L216.549 300.703L212.372 298.098C209.985 303.015 204.945 307.812 200.692 311.197C199.542 312.113 199.769 311.88 198.297 311.255L211.599 298.189L206.785 295.434L196.289 307.643C194.762 305.6 197.273 305.213 198.238 303.849C199.855 301.561 199.29 302.508 200.641 301.039C202.51 299.006 204.419 296.981 206.198 294.873L203.118 293.385C203.822 291.089 205.626 292.033 207.227 292.726C221.189 298.78 234.049 313.457 246.409 322.334L247.914 322.826L252.526 317.262C246.222 310.084 241.675 301.457 234.756 295.078L231.59 296.112C223.508 288.411 210.589 287.869 200.217 285.119L201.292 283.257C211.774 283.066 220.857 287.872 230.582 290.706C231.327 290.924 232.205 291.754 232.41 290.63C229.021 287.252 226.323 282.999 223.097 279.258C202.432 255.289 176.138 233.366 147.138 220.104C127.022 210.911 103.939 204.235 82.7118 213.474L81.2877 215.069C78.4416 224.499 83.0798 234.644 88.1546 242.449C98.5433 258.432 120.71 283.399 138.266 290.926C139.547 291.477 140.805 292.114 142.15 291.18C137.503 287.099 132.37 282.854 130.574 276.614L141.711 287.011C140.829 290.434 146.646 292.295 147.512 288.359C142.483 286.361 140.172 281.484 136.333 277.875C135.421 277.018 130.613 272.59 130.135 272.256C128.761 271.288 126.812 271.379 125.565 270.151L124.564 264.726L127.271 265.314L124.889 265.913L128.736 268.09L129.281 270.282L131.502 270.576L153.105 291.047C152.835 293.409 150.381 291.214 148.559 291.089C147.699 291.034 143.431 291.731 143.236 292.286L144.078 294.024C154.133 299.127 163.502 305.497 173.626 310.464C201.517 324.156 232.186 329.973 260.602 341.798C263.707 343.091 279.861 352.024 281.542 351.353L281.54 351.359ZM164.057 212.273L181.838 218.516L182.038 220.036C180.176 221.346 169.692 215.875 167.154 214.81C157.561 210.812 147.935 206.889 139.448 200.756C136.874 200.041 114.583 203.891 110.879 204.968C110.182 205.173 107.843 206.229 107.482 206.906C112.268 207.63 117.303 208.412 121.987 206.904C124.683 206.031 127.212 203.585 130.274 204.029L124.458 209.235C129.668 212.623 132 207.904 136.515 206.938C139.364 208.794 132.78 209.86 132.22 211.953L135.052 212.824L144.175 208.91L139.977 214.684L147.089 217.181L148.061 212.158L150.839 212.706L148.086 217.61L158.535 222.707C159.997 223.423 161.014 224.809 162.673 225.566C168.75 228.323 178.898 225.051 185.402 223.652C224.558 215.25 258.579 205.668 296.416 192.787C303.147 190.497 311.047 189.364 317.342 186.348C318.504 185.792 320.527 184.436 321.288 183.385C306.239 186.262 292.514 180.009 277.734 177.733C262.608 175.409 247.056 175.993 231.95 173.031C192.119 165.215 164.648 165.203 126.508 180.558C114.709 185.308 114.625 186.996 106.657 196.245C104.742 198.472 101.659 198.172 100.55 200.834C103.502 202.211 106.322 197.135 107.246 196.821C112.025 195.187 110.56 194.6 114.089 191.585C116.93 189.161 120.235 187.132 123.218 184.882C124.005 185.723 122.523 186.385 122.014 186.844C119.681 188.917 109.628 197.795 108.961 199.736C108.798 200.2 108.637 202.188 109.136 202.421L187.166 191.591C188.968 187.266 194.803 183.719 198.91 181.392C201.166 180.118 213.704 174.424 215.479 174.518C216.436 174.564 216.654 175.018 216.096 175.8C214.348 178.216 202.316 182.117 198.627 184.163C193.9 186.787 187.758 190.711 187.713 196.653L187.197 194.979L171.376 196.68L168.489 201.863C164.571 200.176 168.518 204.903 169.041 206.413C169.324 207.222 170.113 211.015 169.504 211.279C166.64 210.832 167.567 208.026 166.685 205.926C166.365 205.162 164.067 199.854 163.175 200.367C160.947 204.767 164.442 208.176 164.07 212.278L164.057 212.273ZM256.292 330.181L255.603 328.192C256.208 327.607 258.242 325.227 256.813 324.58L253.512 327.755L256.29 330.187L256.292 330.181ZM252.491 324.498L255.851 323.141L253.43 319.754L248.154 324.418L251.807 326.425L251.651 322.753L252.5 324.494L252.491 324.498ZM152.337 440.092C153.166 439.593 148.362 426.447 147.875 424.254C146.252 416.857 145.071 409.361 144.336 402.311C144.136 400.378 143.285 394.651 144.008 393.419L145.806 392.579C144.079 364.047 140.825 333.927 132.941 306.342C131.474 301.21 128.686 291.36 125.604 287.314C122.592 283.357 116.866 280.448 113.165 277.17C107.949 272.541 102.16 265.384 97.7238 259.877C88.8477 248.853 79.8529 236.657 76.9261 222.568C73.7728 221.041 70.6072 223.583 69.062 226.432C53.0634 255.989 62.8682 295.171 74.4871 324.676C83.1254 346.597 93.0175 364.305 107.548 382.909C119.186 397.816 133.731 411.975 144.345 427.544C145.112 428.669 151.146 440.797 152.333 440.083L152.337 440.092ZM146.239 399.537C146.577 398.452 147.593 395.888 146.316 395.222L145.063 397.653L146.239 399.537ZM167.385 200.207L169.714 196.14C165.304 195.998 160.155 200.176 167.385 200.207ZM162.339 210.938C163.27 209.011 160.846 207.848 160.446 206.215C160.083 204.725 160.695 202.548 160.75 200.965L151.057 204.803L155.583 199.151C154.805 197.624 145.741 199.465 144.207 200.586L162.342 210.932L162.339 210.938ZM156.691 198.105L156.984 200.353L161.022 198.162L156.694 198.099L156.691 198.105ZM97.4248 191.054C97.8143 191.517 97.456 192.703 97.9352 192.683C108.072 187.392 120.05 183.726 127.367 174.575C150.286 145.889 157.387 114.245 177.072 84.7787C178.76 82.2474 189.302 69.8872 188.573 67.9498C186.709 67.5491 184.419 69.0645 182.795 69.8857C156.052 83.4365 134.125 95.8077 111.39 115.737C99.6705 126.01 88.7396 138.009 82.6308 152.513C83.9015 152.596 87.8906 153.171 86.6974 155.39L82.7456 153.365C81.0301 153.183 79.8235 157.985 79.748 159.524C80.2137 161.093 85.1312 161.32 83.7459 163.776L78.902 161.003L78.3945 167.703C81.6172 168.515 81.7154 165.919 83.8359 164.554L85.0731 168.25L82.9336 168.158C80.1091 170.783 75.0318 167.682 76.765 174.371L85.2717 170.849C86.2963 171.013 86.4162 171.251 85.9018 172.158C85.0066 173.735 78.6723 176.469 76.6242 175.786L77.3006 180.024L75.3585 181.481L76.2902 182.902L77.2153 181.777L79.3426 182.524C80.223 180.637 80.6617 178.725 77.9899 179.157L78.1109 177.757L82.3475 177.027L83.6212 178.612L80.8825 182.007L81.4675 184.705L75.6235 184.842L77.5127 202.176C80.3928 199.454 79.9309 195.081 81.0305 192.177C82.534 188.225 85.5269 181.666 87.6433 178.017C88.213 177.035 90.4976 173.445 91.2697 173.252C92.3175 173.743 93.3494 174.28 94.4101 174.775C93.6414 175.165 92.4302 175.305 91.9085 175.694C89.9073 177.195 85.4774 185.758 84.5231 188.373C84.0076 189.779 84.2583 191.237 83.8366 192.459C83.0136 194.844 79.4529 203.538 79.7359 205.152C80.1345 207.431 82.6012 203.549 83.0989 203.166C86.1995 200.768 93.5988 197.111 95.7125 194.773C96.6845 193.701 97.0102 192.38 97.4119 191.05L97.4248 191.054ZM100.253 205.796C101.865 208.051 110.229 203.943 106.917 200.199L104.976 202.294L102.25 201.888L100.253 205.796ZM101.197 198.909C102.301 195.412 107.003 194.721 106.644 190.674C100.265 195.19 91.7347 199.421 85.7108 204.105C84.6209 204.954 83.3649 205.47 83.1025 207.045C83.74 208.435 96.8338 203.929 98.2981 202.262L99.4985 197.581L101.197 198.909ZM98.0626 205.767L98.5134 204.483L96.8868 204.999L98.0626 205.767ZM25.9954 328.329C26.401 329.015 35.3541 319.816 36.2009 318.852C42.0948 312.18 57.2572 290.693 57.1632 282.521C57.1336 280.061 55.9747 277.197 56.4159 274.554L52.0618 274.895L51.4075 280.71L49.5897 273.6C50.8921 273.593 57.5649 271.116 56.7761 269.556L43.9805 270.855C44.1335 269.488 45.1876 269.568 46.1021 269.135C48.0686 268.21 55.9097 266.273 56.5632 265.198C57.2166 264.123 57.3165 264.107 56.5603 262.972C54.9458 262.274 45.4622 265.062 44.4536 267.397C39.4114 262.996 48.9038 262.893 51.7427 261.882C53.453 261.272 54.4915 259.39 56.4992 260.022L56.1364 254.829C54.8311 254.885 52.3745 253.566 52.239 255.627C52.3912 256.021 57.1083 259.011 55.2037 259.575L51.7147 258.466C50.0637 258.451 48.8352 261.992 45.417 259.792L44.8294 258.114L43.5054 259.816C41.2922 248.95 57.5876 256.715 58.6261 247.737C57.8274 245.978 49.164 250.112 47.4197 250.674C46.773 250.882 45.5621 251.993 45.2534 250.638C49.1086 245.512 58.9391 247.673 60.2407 241.049L50.1505 241.841L50.2907 240.469L61.4091 237.328C63.4939 233.624 64.7229 229.337 66.4902 225.565C67.245 223.953 70.9418 220.54 69.1372 218.812C68.3854 218.099 66.0016 220.523 65.4101 221.091C57.4802 228.7 49.2927 238.843 43.5632 248.233C42.0298 250.738 39.1795 255.05 38.3639 257.663C37.6825 259.852 40.0833 270.929 40.4459 274.427C41.4493 284.208 42.8379 294.589 39.566 304.095L36.346 302.964C39.8519 299.702 39.6964 295.842 39.9018 291.326C40.3026 282.675 38.2922 273.569 37.1312 265.022C35.2813 261.292 22.3828 263.649 21.5762 262.264L25.8458 254.406C26.8421 254.009 33.1096 257.072 34.5105 257.427C37.2259 258.112 39.0505 251.012 40.1941 249.057C41.8029 246.296 43.651 243.473 45.7315 241.043C45.1995 240.262 37.2899 241.007 35.9392 241.338C31.3065 242.473 27.9926 246.781 23.3313 246.942C23.5109 245.541 24.2207 245.319 25.1841 244.665C28.1313 242.663 32.7546 240.872 35.9442 239.027L35.3099 235.579C37.6875 234.269 38.9789 231.294 40.9679 229.745C41.9853 228.957 45.1625 229.631 43.2032 226.399L40.8765 226.51C38.5935 229.289 34.7398 230.77 31.9636 233.071C10.529 250.804 0.753941 286.446 -4.86174 312.785C-5.77426 317.06 -9.13453 333.768 -7.17259 336.972C-6.43901 338.171 -5.58844 338.521 -4.24244 338.638L-2.61052 337.486C-2.06843 335.901 -4.56969 334.667 -5.26784 332.849C-5.53661 332.146 -6.13215 329.002 -4.45445 329.25L0.958392 335.492L1.63801 333.556L0.128975 333.758C2.82128 330 -3.78682 327.39 -3.36376 324.944C-3.2167 324.111 -2.8454 322.785 -1.79484 323.661L1.11175 328.146L3.45908 328.39L4.62029 323.014C4.02586 322.348 -0.742485 322.856 0.860458 321.331C2.45516 320.202 4.08411 321.231 5.22997 322.394C7.99425 323.002 5.56272 316.213 2.41097 316.853C2.03636 311.445 7.01329 307.778 10.6369 304.76C11.3063 304.197 11.452 302.893 11.9772 302.556C12.9114 301.963 18.0788 302.284 18.4575 304.309L13.6691 303.86C12.2922 308.175 5.45191 310.839 5.23639 315.446C5.17324 316.743 7.04757 320.858 7.98054 317.373C9.29903 312.48 9.82164 306.068 16.9808 308.494C16.6408 311.035 13.4289 308.516 12.1428 310.152C11.6293 311.573 7.94222 319.882 9.54709 320.359L21.2431 312.883C21.4559 316.828 10.4037 320.877 9.89629 322.322L12.6016 339.565C9.95601 340.832 9.61983 329.502 9.26983 328.016C9.09061 327.265 7.83374 322.446 6.79112 323.037L-2.7608 352.291C-5.32529 351.797 -2.58001 348.115 -3.65037 346.55L-7.6037 343.351C-9.35902 350.171 -8.59291 357.898 -6.70036 364.65L-5.68155 365.762C1.63349 357.835 7.60459 348.378 14.7471 340.115C17.1933 337.285 21.3098 335.904 21.1767 331.711L21.7796 334.09C22.4401 332.271 24.3655 331.193 25.4206 329.925C26.7827 328.28 23.4635 329.956 24.5909 328.213C24.8571 327.807 25.7001 327.515 25.8019 326.812L25.9977 328.323L25.9954 328.329ZM37.1079 238.733L47.3578 238.273C51.646 233.588 55.342 228.522 59.8229 223.993C64.2071 219.553 69.3088 216.234 73.4829 211.647C73.0622 210.673 55.0205 218.081 53.5494 218.775C51.6004 219.693 42.8123 224.181 44.2316 226.738L51.1684 225.557C49.7244 228.884 46.4376 229.991 43.4034 231.166L46.473 232.642L45.9753 235.714L43.5794 235.96L43.0161 232.124C40.8695 230.936 36.782 237.944 37.1167 238.729L37.1079 238.733ZM49.669 196.749C50.0819 197.807 67.2021 207.753 69.2344 208.337C72.3843 209.232 76.4364 207.951 73.2821 204.503L53.8467 193.911C52.6924 193.868 49.1724 195.495 49.6603 196.753L49.669 196.749ZM50.623 257.872C51.0087 256.877 52.3581 255.495 50.7024 255.226C48.5517 254.876 45.4021 254.807 44.4158 257.244L50.6272 257.881L50.623 257.872ZM24.4287 260.367C25.0093 261.36 32.7118 260.274 34.0651 259.771C34.9343 257.626 24.9791 256.813 24.4287 260.367ZM49.4603 195.233L51.0237 192.89L47.3707 190.883L46.835 192.761L49.4603 195.233ZM-0.855849 340.639C-0.328949 339.055 1.04686 336.936 -0.552595 335.679C-0.944559 336.94 -2.23456 339.684 -0.855849 340.639ZM-2.66817 345.801L-1.80109 341.097L-6.47748 340.122C-7.60033 340.858 -3.72692 346.313 -2.66817 345.801ZM45.3979 191.227C45.9545 190.966 46.6291 191.485 46.6131 190.972C46.4283 190.444 46.2516 190.099 45.7822 189.76C35.8889 182.626 24.9246 176.806 14.6159 170.338C-0.691463 160.731 -19.5599 146.641 -35.1514 138.899C-38.4353 137.267 -41.4828 136.473 -43.2195 140.654C-44.6277 144.045 -40.1571 146.288 -37.8208 147.681C-31.9243 151.201 -25.0788 153.59 -18.9886 156.909C-6.6815 163.622 5.095 171.453 17.4329 178.14L18.8744 177.965C19.7253 177.3 18.3446 174.343 20.7245 175.715L20.4632 179.066L27.1429 182.941L31.037 181.51L31.2382 184.371L44.3637 191.98C44.7326 192.088 45.0335 191.396 45.3915 191.225L45.3979 191.227Z" fill="#CE9C7D"/>
<path d="M97.4252 191.054C96.8486 190.359 95.765 189.804 95.2984 188.858C94.8443 190.358 93.3852 191.969 91.5751 191.167L94.8081 185.061C91.4358 185.958 90.4106 191.65 86.5959 190.869L97.7822 177.749L97.7264 176.584C96.7761 175.671 95.5789 175.315 94.4234 174.779C96.4456 173.757 98.0812 172.077 100.727 173.376C97.0167 178.357 99.065 185.556 97.4252 191.054Z" fill="#CE9C7D"/>
<path d="M162.823 299.032C161.798 300.774 154.356 297.538 153.359 296.572C152.721 295.949 152.343 294.729 152.848 293.87L162.545 297.26C162.618 295.191 159.885 295.217 158.539 294.085C149.974 286.852 142.251 276.183 132.722 268.344C130.021 266.127 127.083 263.429 123.624 263.309L123.983 261.253L128.337 260.745C130.977 264.151 134.433 266.843 137.536 269.693C142.671 274.41 147.998 280.295 153.41 285.276C153.844 285.675 158.817 290.233 158.677 287.589L148.564 277.131L149.312 275.973C152.61 276.986 152.692 278.819 154.374 280.526C155.637 281.81 162.261 287.456 161.048 289.132C159.051 289.546 158.909 289.432 158.172 291.304C162.646 293.744 165.121 297.287 167.567 301.574L162.823 299.032Z" fill="#CE9C7D"/>
<path d="M171.336 288.75C164.627 281.98 158.087 272.204 157.343 262.448C148.235 257.381 138.742 252.83 130.033 247.084C127.497 245.411 123.463 243.683 122.879 240.586C139.937 251.061 158.609 259.008 174.635 271.078C173.969 272.127 173.038 271.945 172.029 271.569C168.629 270.31 164.081 266.054 160.625 264.086C159.813 263.627 159.519 263.531 159.479 264.641C159.249 270.714 167.252 278.887 170.011 284.291C170.373 284.998 172.27 288.345 171.336 288.75Z" fill="#CE9C7D"/>
<path d="M97.6048 236.054C97.4417 238.36 96.0834 240.325 98.0303 243.096C97.1053 244.076 94.4787 239.414 94.3621 238.96C94.0469 237.747 94.7189 236.599 94.4995 235.92C93.889 234.039 92.4145 231.557 91.9001 229.485L90.7784 228.584C90.6634 230.152 90.7163 234.781 90.9991 236.127C91.2276 237.193 93.0921 237.695 92.1265 239.204C88.6426 237.336 88.9108 233.821 86.7056 230.792L90.7697 228.588C90.8307 227.711 91.3205 226.853 91.027 225.786C95.2047 226.92 94.4976 231.933 95.9369 234.454C96.5215 235.478 97.3094 235.675 97.5896 236.056C97.7371 233.919 98.205 228.676 97.1709 226.863C94.9047 222.871 85.4477 223.059 84.6578 217.034L114.157 233.219L115.618 232.245L115.56 236.567C110.721 234.505 106.139 230.592 101.256 228.653C100.586 228.389 99.4104 227.498 99.3327 229.043C99.1869 231.92 103.277 243.916 104.773 246.833C105.192 247.647 111.386 255.924 110.06 256.372C105.291 254.459 105.979 247.764 100.518 246.187C101.232 241.466 100.165 239.519 97.5831 236.054L97.6048 236.054Z" fill="#CE9C7D"/>
<path d="M163.208 239.517L139.373 234.091L116.301 232.471C114.47 228.501 129.77 230.517 131.303 230.722C138.647 231.713 154.787 233.9 161.25 235.908C163.379 236.569 164.347 237.307 163.208 239.517Z" fill="#CE9C7D"/>
<path d="M185.74 253.951L187.592 254.942C188.487 254.4 192.604 252.251 191.897 255.011L176.148 265.796C175.032 264.093 175.809 264.612 176.775 263.784C180.773 260.361 183.672 259.074 185.746 253.953L174.239 262.959C173.368 261.798 173.965 261.442 174.619 260.49C177.689 255.987 186.588 254.553 186.496 247.7C188.847 247.852 186.221 252.786 185.753 253.955L185.74 253.951Z" fill="#CE9C7D"/>
<path d="M154.371 250.185C150.616 249.44 149.095 245.042 149.267 241.616C149.303 240.933 148.53 240.655 149.877 240.251L158.301 242.135L154.38 250.181L154.371 250.185ZM152.763 242.373C150.59 247.176 154.668 250.435 155.501 244.008L152.763 242.373Z" fill="#CE9C7D"/>
<path d="M132.691 240.174C132.172 238.55 133.538 236.044 135.213 235.494L136.691 236.455C136.474 238.727 134.644 240.259 136.409 242.429L138.542 237.409C140.08 238.014 142.658 236.484 143.167 238.634L137.255 243.082C135.641 243.522 133.14 241.564 132.697 240.177L132.691 240.174Z" fill="#CE9C7D"/>
<path d="M114.096 220.093C110.105 216.626 105.626 220.178 100.684 219.008C101.195 215.795 103.364 214.81 106.339 214.528L107.15 216.045L113.151 217.55L114.098 220.086L114.096 220.093Z" fill="#CE9C7D"/>
<path d="M183.377 266.885C182.952 265.946 195.59 254.546 196.952 257.162L186.066 266.343L183.377 266.885Z" fill="#CE9C7D"/>
<path d="M169.185 259.728C168.726 258.595 177.89 251.216 179.433 250.337C180.338 249.829 180.988 249.093 182.113 249.778L171.769 258.968L169.185 259.728Z" fill="#CE9C7D"/>
<path d="M150.076 247.96C148.255 249.712 145.253 246.883 143.464 246.023L144.895 238.886L146.841 239.569L146.529 245.628L150.076 247.96Z" fill="#CE9C7D"/>
<path d="M224.767 322.744L223.683 323.805L223.594 321.948L225.505 320.437L228.918 321.287L228.591 318.991L232.012 316.59L229.659 322.279L224.767 322.744Z" fill="#CE9C7D"/>
<path d="M186.834 281.862C187.2 280.614 186.99 280.446 188.268 280.902C189.777 281.446 197.095 285.53 196.598 287.11C195.244 288.091 194.934 287.569 193.753 286.879C192.818 286.333 187.011 282.25 186.837 281.856L186.834 281.862Z" fill="#CE9C7D"/>
<path d="M165.112 256.848L172.196 248.898L174.321 249.217C173.182 252.129 170.288 254.498 167.709 256.115C166.833 256.663 166.357 257.626 165.112 256.848Z" fill="#CE9C7D"/>
<path d="M162.979 240.169C164.766 240.477 164.046 240.833 163.964 242.08C163.771 245.071 162.727 248.415 159.909 249.948C158.718 248.457 159.849 248.318 160.243 247.34C161.201 244.966 162.272 242.638 162.983 240.177L162.979 240.169Z" fill="#CE9C7D"/>
<path d="M210.934 312.93C213.393 312.981 214.542 306.876 218.047 308.788L212.227 315.101L210.705 314.183L210.934 312.93Z" fill="#CE9C7D"/>
<path d="M195.605 302.351C192.128 300.898 196.726 299.345 197.3 298.662C198.322 297.427 199.552 295.206 199.433 293.599L202.234 293.814L195.596 302.355L195.605 302.351Z" fill="#CE9C7D"/>
<path d="M180.19 304.905L175.652 297.165L177.408 297.376C178.295 298.282 181.901 303.962 180.19 304.905Z" fill="#CE9C7D"/>
<path d="M193.032 267.933L191.174 267.455C190.566 266.249 195.677 263.462 196.756 262.913C198.223 265.291 194.124 266.541 193.03 267.94L193.032 267.933Z" fill="#CE9C7D"/>
<path d="M221.803 318.797C222.827 317.141 224.311 314.009 226.842 314.767L223.51 320.121L221.803 318.797C221.485 319.308 221.435 320.153 221.123 320.732L219.19 320.054L221.809 318.799L221.803 318.797Z" fill="#CE9C7D"/>
<path d="M193.341 297.671C193.259 297.759 191.025 299.344 191.013 297.847C191.625 295.938 193.285 294.521 194.496 292.996L196.621 293.293C195.294 294.61 194.625 296.31 193.341 297.671Z" fill="#CE9C7D"/>
<path d="M122.663 255.723L122.873 253.202L118.683 251.463L119.296 248.743L124.979 254.34L122.663 255.723Z" fill="#CE9C7D"/>
<path d="M143.86 271.87L147.711 275.382L144.738 274.128L143.86 271.87Z" fill="#CE9C7D"/>
<path d="M233.628 324.398L230.755 322.302L233.556 321.481L233.628 324.398Z" fill="#CE9C7D"/>
<path d="M178.46 245.516L176.661 245.675L176.037 244.39L178.44 242.697L179.399 243.027L178.46 245.516Z" fill="#CE9C7D"/>
<path d="M205.001 269.403L202.421 268.497L203.325 265.923C204.65 266.12 204.815 267.41 205.336 268.448L205.001 269.403Z" fill="#CE9C7D"/>
<path d="M117.562 220.585L118.768 219.196L121.463 219.794L120.257 221.183L117.562 220.585Z" fill="#CE9C7D"/>
<path d="M169.184 245.232L167.248 244.559L168.154 241.978L169.109 242.321L169.745 243.631L169.184 245.232Z" fill="#CE9C7D"/>
<path d="M135.938 265.45C135.181 265.808 132.782 262.566 133.387 262.395L135.871 263.615L135.945 265.453L135.938 265.45Z" fill="#CE9C7D"/>
<path d="M137.852 268.296L138.302 267.012C139.574 267.343 140.796 267.75 141.189 269.113L137.852 268.296Z" fill="#CE9C7D"/>
<path d="M236.604 328.335L235.647 327.999L234.699 325.506L236.309 326.071L236.939 327.38L236.604 328.335Z" fill="#CE9C7D"/>
<path d="M208.621 273.573L207.664 273.237L206.716 270.745L209.067 272.302L208.621 273.573Z" fill="#CE9C7D"/>
<path d="M156.526 293.697L156.748 293.065L154.814 292.386L154.592 293.018L156.526 293.697Z" fill="#CE9C7D"/>
<path d="M109.737 335.985L104.467 354.843L102.067 355.761C103.659 347.855 105.736 340.865 109.505 333.686L105.344 317.425L106.753 317.55C109.179 326.403 112.927 335.214 115.928 344.023C118.149 350.543 119.672 358.391 122.216 364.633C124.814 371.01 125.866 368.364 129.997 372.177C132.58 374.563 134.812 378.796 137.03 381.684C139.554 384.962 141.365 384.583 141.886 390.093C142.509 396.654 141.488 403.659 141.493 410.141C141.498 413.911 144.115 417.773 143.523 421.776C140.685 422.765 139.038 410.388 138.329 408.436C135.121 399.576 129.765 390.027 126.251 380.944C121.241 368.009 117.803 351.9 112.387 339.815C111.735 338.361 110.975 337.029 109.726 335.996L109.737 335.985ZM140.062 406.79L140.153 393.87C135.818 393.123 134.458 388.638 133.847 384.814C133.532 382.855 134.62 381.331 133.475 379.088C132.909 377.99 126.901 371.808 126.086 372.166C125.631 375.529 127.391 379.329 128.621 382.486C131.059 388.742 135.175 399.008 138.25 404.711C138.515 405.196 139.931 406.874 140.062 406.79ZM139.84 392.941C141.361 391.96 138.667 382.795 135.224 383.355C134.96 387.125 137.094 390.585 139.84 392.941Z" fill="#CE9C7D"/>
<path d="M81.2436 257.852C77.6571 268.378 73.1821 278.766 72.0083 289.928L70.0111 290.88C69.3555 290.679 70.8962 283.435 71.2309 282.234C71.822 280.136 77.808 266.582 74.2893 266.282L70.2488 268.502L70.8168 273.028C67.8843 271.658 64.6081 270.088 66.5874 266.477C66.8387 266.341 71.0412 269.969 69.362 265.277L66.1146 262.673L66.5911 258.151C67.4834 257.326 67.7365 258.488 68.1117 259.032C69.3728 260.881 71.4163 263.708 71.1553 265.899C71.6757 265.596 76.2264 265.005 75.5122 263.812C72.4249 263.359 67.0156 256.176 67.5154 253.387C67.7732 251.97 69.0792 252.719 69.9407 252.499C68.8448 254.731 76.2467 262.258 76.8278 262.093L80.7815 256.189C77.9169 246.682 71.5749 237.004 73.2631 226.776C75.9976 233.592 76.9309 241.153 79.5647 248.173C81.1138 252.305 87.4696 263.35 87.0978 267.119C86.9749 268.358 87.0046 268.398 85.7283 268.827L81.2307 257.847L81.2436 257.852Z" fill="#CE9C7D"/>
<path d="M129.388 325.483C128.277 325.999 119.485 313.888 117.992 312.429C113.77 308.279 106.323 304.273 102.878 299.81C102.164 298.885 101.267 297.468 101.886 296.265L118.359 309.296L119.038 307.36L120.978 308.041L120.313 311.86L127.2 320.358L130.573 317.948L129.377 325.493L129.388 325.483Z" fill="#CE9C7D"/>
<path d="M118.205 305.618C113.466 302.65 114.795 296.774 113.098 292.236C111.74 291.904 110.084 299.723 108.811 297.247C108.482 293.384 112.1 292.472 114.195 290.084L114.853 284.154C118.847 285.999 114.433 292.241 114.66 293.371C114.719 293.66 115.957 294.457 116.294 295.525C116.761 296.986 116.486 299.093 116.333 300.627L118.489 300.651L116.944 303.001C118.451 304.233 119.668 301.283 119.68 300.381C119.691 299.378 116.156 291.512 116.685 291.328C119.603 292.077 118.935 296.213 121.39 297.952L123.954 297.497L118.196 305.622L118.205 305.618Z" fill="#CE9C7D"/>
<path d="M94.7936 296.978C93.4142 293.233 91.3501 288.065 90.4563 284.301C90.208 283.25 89.5893 282.612 90.4165 281.373C91.3301 280.861 93.5872 286.161 93.9177 286.937C95.8536 291.559 99.8135 301.567 100.905 306.133C101.198 307.366 101.35 308.63 101.461 309.887C99.1099 310.75 95.4281 298.709 94.7914 296.985L94.7936 296.978Z" fill="#CE9C7D"/>
<path d="M124.602 341.204L121.795 340.219L121.802 338.794L119.13 339.269L116.337 331.976C117.686 327.492 121.975 329.882 123.537 332.858C124.34 334.379 124.008 336.256 125.782 337.408L124.604 341.198L124.602 341.204ZM122.042 338.131C122.636 336.999 122.359 335.843 122.055 334.701C121.895 334.101 120.504 330.887 119.895 330.862C118.131 331.315 118.708 332.09 119.048 333.398C119.512 335.199 120.678 336.884 122.042 338.131Z" fill="#CE9C7D"/>
<path d="M116.888 377.635C112.193 374.791 109.231 369.243 103.473 368.265L103.109 361.896C103.49 361.66 107.861 361.434 108.353 361.628C109.175 361.953 109.665 363.227 110.58 363.766C111.411 364.253 115.641 366.108 115.758 366.374C115.997 366.914 115.286 368.027 114.353 367.417C110.991 367.208 108.654 364.887 106.622 362.42C104.285 361.092 105.655 366.871 106.458 367.334C108.748 367.08 120.434 375.77 116.882 377.633L116.888 377.635Z" fill="#CE9C7D"/>
<path d="M77.5349 301.494C78.3184 301.124 86.3872 313.372 87.4893 314.701C88.9531 316.469 91.5774 317.165 92.0844 320.003C90.5515 321.205 90.0113 319.681 88.9954 318.81C87.3442 317.39 78.3013 306.365 77.7935 304.853C77.4472 303.833 77.6875 302.569 77.5349 301.494Z" fill="#CE9C7D"/>
<path d="M105.825 293.299C100.573 288.15 102.082 281.019 104.389 274.675C108.404 277.534 104.495 284.301 104.444 287.386C104.436 287.738 106.74 291.953 105.825 293.299Z" fill="#CE9C7D"/>
<path d="M93.3722 314.288L79.2944 299.937L79.543 297.843C80.8644 297.162 91.7163 309.633 92.791 311.619C93.28 312.523 94.081 313.138 93.3722 314.288Z" fill="#CE9C7D"/>
<path d="M88.9358 335.198C86.9616 334.926 88.1717 333.444 87.1116 332.058C86.4594 331.205 74.8326 320.238 77.04 319.433L89.2246 330.9L88.9381 335.192L88.9358 335.198Z" fill="#CE9C7D"/>
<path d="M90.9747 329.391L77.304 313.778L77.605 311.658C78.6189 310.963 89.691 324.483 90.6615 326.063C91.4354 327.313 91.746 327.981 90.9724 329.398L90.9747 329.391Z" fill="#CE9C7D"/>
<path d="M90.951 302.566C90.0549 302.925 79.4566 293.145 82.2615 290.1C83.0799 290.996 93.4277 301.572 90.951 302.566Z" fill="#CE9C7D"/>
<path d="M71.809 237.144L71.4826 250.714C72.8598 251.052 78.9021 254.819 75.7259 255.922L71.2554 253.243C68.5588 250.332 71.7582 241.033 71.8132 237.153L71.809 237.144Z" fill="#CE9C7D"/>
<path d="M108.411 294.207C107.452 294.044 107.868 292.734 107.933 292.032C108.257 288.71 108.541 285.128 108.994 281.851C109.146 280.737 108.325 280.159 110.27 279.646C113.26 280.087 110.297 292.456 108.411 294.207Z" fill="#CE9C7D"/>
<path d="M117.02 382.929C117.493 383.856 117.383 385.078 116.026 385.283L106.218 374.969C107.636 373.952 107.737 374.574 108.839 375.302C109.942 376.03 116.641 382.187 117.016 382.92L117.02 382.929Z" fill="#CE9C7D"/>
<path d="M78.8541 328.767L81.4237 330.488C81.9167 331.691 87.8175 335.922 86.852 336.997C85.8975 338.06 85.0726 337.307 84.2153 336.687C83.1993 335.961 76.2395 329.987 78.8541 328.767Z" fill="#CE9C7D"/>
<path d="M109.597 351.338C109.683 351.281 111.63 351.052 111.659 351.156L110.612 355.152L113.702 359.839L108.568 357.747C107.449 356.093 108.114 352.419 109.604 351.341L109.597 351.338Z" fill="#CE9C7D"/>
<path d="M101.009 274.351L99.2711 283.026C97.8768 283.087 97.5163 280.018 97.5162 279.315C97.5152 277.538 98.0883 275.906 98.2169 274.154L100.501 272.738L103.318 273.589L101.013 274.36L101.009 274.351Z" fill="#CE9C7D"/>
<path d="M122.658 311.53L123.685 309.68C122.357 307.815 121.171 306.623 122.348 304.181L126.642 312.574L122.65 311.535L122.658 311.53Z" fill="#CE9C7D"/>
<path d="M94.0467 341.349C94.0729 344.315 97.6419 346.003 94.502 347.292L91.3897 342.793L92.1004 340.666C92.7571 340.802 93.4243 341.239 94.0402 341.347C94.0169 338.62 94.857 335.11 95.0432 332.284L97.1231 333.724C95.903 336.144 95.5816 337.184 96.5705 339.829L95.24 341.674C94.8086 341.827 94.3946 341.413 94.0315 341.351L94.0467 341.349Z" fill="#CE9C7D"/>
<path d="M82.7498 286.64C82.9979 285.582 83.5982 284.72 84.4705 284.077C88.0209 281.453 87.2538 288.83 82.7498 286.64Z" fill="#CE9C7D"/>
<path d="M135.198 356.514L134.241 356.178L133.184 353.995L134.723 352.738L135.682 353.067L135.198 356.514Z" fill="#CE9C7D"/>
<path d="M100.513 329.116L98.6733 328.129L98.2794 327.245L98.8371 325.636L100.683 326.356L100.513 329.116Z" fill="#CE9C7D"/>
<path d="M134.341 327.946L131.754 327.038L132.096 326.085L133.406 325.458L135.011 326.015L134.341 327.946Z" fill="#CE9C7D"/>
<path d="M129.704 347.337L127.124 346.431L127.802 344.502L129.409 345.074L130.039 346.382L129.704 347.337Z" fill="#CE9C7D"/>
<path d="M284.562 195.872L283.982 191.32L280.277 191.983C279.417 193.378 278.886 195.242 277.486 196.229C276.801 196.713 264.825 200.373 266.219 198.492C269.357 195.303 275.874 196.787 277.899 192.076C275.015 192.636 266.566 192.084 264.827 194.532L263.093 199.721L258.366 201.164L263.35 194.231L260.636 193.604C258.244 194.17 256.623 202.82 254.584 200.561C257.679 198.777 250.425 198.854 249.915 198.943C248.7 199.155 247.549 201.215 245.926 201.036C243.244 199.138 240.062 198.666 237.246 197.337C235.987 196.743 235.338 195.282 233.785 194.658C232.06 193.965 229.793 194.423 228.055 193.414C228.684 192.533 229.91 192.29 230.912 192.105C237.524 190.918 251.516 192.997 256.357 191.392C258.091 190.819 261.763 185.904 264.299 184.453C266.725 183.065 271.119 182.281 273.658 180.447C275.076 180.648 274.578 181.386 273.982 182.235C272.084 184.91 265.775 186.269 262.94 188.324C261.671 189.249 259.269 190.856 260.682 192.54L301.066 187.178L301.48 189.121L300.361 190.156L285.778 191.189L284.567 195.86L284.562 195.872ZM237.559 195.308C245.245 199.108 250.568 199.049 257.077 193.478L239.267 193.857L237.552 195.306L237.559 195.308Z" fill="#CE9C7D"/>
<path d="M256.378 183.078L255.087 182.618L256.185 181.561L257.476 182.021L256.378 183.078Z" fill="#CE9C7D"/>
<path d="M256.185 181.561C250.449 182.113 248.542 181.277 242.81 184.468C241.673 185.098 241.08 186.477 240.055 186.791C239.199 187.056 237.824 186.755 238.035 185.676C238.974 180.954 261.465 175.333 266.084 179.223C266.579 180.274 264.357 182.321 263.673 182.842C261.251 184.673 245.968 189.353 244.198 186.76L246.912 184.038C250.644 184.827 253.183 183.616 256.387 183.074C258.225 182.763 261.074 183.647 262.69 181.67C261.351 181.265 259.968 180.446 258.561 180.358C257.288 180.281 256.426 181.537 256.193 181.557L256.185 181.561Z" fill="#CE9C7D"/>
<path d="M165.424 179.419C164.649 180.923 165.1 180.444 165.849 181.084C169.102 183.878 170.855 181.348 174.478 182.591C172.702 184.794 169.95 183.429 167.752 183.629C166.762 183.716 166.438 184.762 165.557 184.75C164.985 184.745 159.079 183.28 158.268 182.981C156.379 182.281 154.377 181.405 153.85 179.328L166.628 178.016C166.269 175.542 161.503 176.644 162.901 174.171C166.123 173.91 167.669 176.54 169.418 177.227C172.376 178.381 177.511 177.655 180.59 179.663C178.133 182.091 167.146 178.589 165.426 179.413L165.424 179.419Z" fill="#CE9C7D"/>
<path d="M114.659 197.822C115.068 195.748 117.26 197.032 118.685 195.582C119.963 194.277 121.691 192.086 123.201 190.456C124.921 188.596 126.491 184.124 129.793 185.747C129.312 187.304 128.182 188.494 127.109 189.647C125.778 191.079 121.465 195.442 120.146 196.385C118.827 197.328 116.352 198.192 114.665 197.824L114.659 197.822Z" fill="#CE9C7D"/>
<path d="M184.504 176.624L169.407 174.28C169.675 172.751 171.405 172.684 172.616 172.588C176.998 172.227 180.914 174.457 185.209 174.762L184.504 176.624Z" fill="#CE9C7D"/>
<path d="M218.032 194.925L210.142 195.823L210.364 187.95L212.179 189.007L211.695 193.469L218.418 192.959L218.032 194.925Z" fill="#CE9C7D"/>
<path d="M207.219 209.299C203.894 207.951 207.578 203.642 207.925 201.248L206.067 200.19L211.268 199.856C207.802 201.64 209.227 206.105 207.221 209.293L207.219 209.299Z" fill="#CE9C7D"/>
<path d="M189.886 209.02L188.636 202.362L190.027 202.205L190.034 200.468L192.741 199.875L189.886 209.02Z" fill="#CE9C7D"/>
<path d="M196.159 209.772C193.401 208.855 195.582 205.83 195.767 203.793C195.952 201.756 194.756 199.017 196.867 198.446C198.84 202.176 197.117 206.05 196.15 209.776L196.159 209.772Z" fill="#CE9C7D"/>
<path d="M176.145 215.06L176.051 212.947L174.242 212.225C174.523 210.888 175.868 210.926 176.547 209.758C177.623 207.911 177.306 204.864 179.672 203.999C181.871 204.771 175.974 213.311 176.145 215.06Z" fill="#CE9C7D"/>
<path d="M201.364 209.425L199.429 208.753L201.307 199.266L203.243 199.938L201.364 209.425Z" fill="#CE9C7D"/>
<path d="M178.558 170.97C179.391 167.233 188.999 170.048 188.382 171.889L178.558 170.97Z" fill="#CE9C7D"/>
<path d="M170.176 209.348C171.419 207.233 171.286 201.881 174.495 202.174C176.348 203.288 172.158 209.536 170.176 209.348Z" fill="#CE9C7D"/>
<path d="M145.799 187.736C144.991 186.147 154.84 184.742 156.008 185.529L153.61 186.673L145.799 187.736Z" fill="#CE9C7D"/>
<path d="M185.395 205.261C184.606 204.759 185.618 201.295 185.863 200.598C186.266 199.45 187.132 198.493 187.478 197.302C188.922 199.375 186.605 203.388 185.395 205.261Z" fill="#CE9C7D"/>
<path d="M216.467 199.507L214.569 203.9L214.039 200.568L216.467 199.507Z" fill="#CE9C7D"/>
<path d="M229.204 188.033L228.271 185.56L230.248 184.066L229.204 188.033Z" fill="#CE9C7D"/>
<path d="M187.503 211.858L189.398 212.479L189.058 213.426L186.662 215.121L186.044 213.839L187.503 211.858Z" fill="#CE9C7D"/>
<path d="M218.346 190.02L217.438 188.57L217.866 187.351L219.166 186.691L220.123 187.027L218.346 190.02Z" fill="#CE9C7D"/>
<path d="M183.356 211.086L182.057 210.628L180.918 213.859L182.217 214.317L183.356 211.086Z" fill="#CE9C7D"/>
<path d="M153.586 217.294L154.387 215.075L155.678 214.419L156.082 216.351L153.586 217.294Z" fill="#CE9C7D"/>
<path d="M223.096 205.451C220.986 206.37 220.273 201.597 222.797 203.179C223.297 203.492 223.567 205.247 223.096 205.451Z" fill="#CE9C7D"/>
<path d="M194.162 213.423L192.87 212.967L191.956 215.552L193.248 216.009L194.162 213.423Z" fill="#CE9C7D"/>
<path d="M161.719 223.049L162.17 221.765L160.237 221.086L159.786 222.37L161.719 223.049Z" fill="#CE9C7D"/>
<path d="M116.802 142.048L115.887 140.705C121.819 130.364 129.011 120.742 137.414 112.32C136.714 111.067 128.321 110.396 126.484 111.368C124.133 111.484 128.238 107.613 128.758 107.165C133.216 103.323 134.752 101.76 138.626 97.5324C139.583 96.4838 144.945 94.8006 145.958 93.7789C146.858 92.8701 147.006 91.1245 147.695 90.5475C148.544 89.8455 152.64 88.3771 153.362 89.6524C151.324 91.6912 152.289 92.6461 152.207 95.0309C150.234 93.8668 149.414 95.6229 148.137 96.0734C145.516 97.0015 142.923 97.4173 140.253 98.669C139.391 99.0766 138.197 98.6502 138.044 100.205C142.247 101.391 144.164 95.454 148.343 99.8929C149.706 99.632 159.426 87.44 161.764 85.3326C162.326 84.827 166.871 80.8198 167.554 82.3065L141.558 110.861C142.743 113.176 156.898 106.578 159.494 106.258L160.988 107.174C160.572 108.194 152.078 111.743 150.498 112.145C147.444 112.921 141.38 112.611 139.067 114.067C136.24 115.851 130.584 123.15 128.201 126.089C124.111 131.14 120.282 136.544 116.8 142.033L116.802 142.048ZM149.649 91.9729L151.387 91.1406L150.1 90.6889L149.649 91.9729ZM136.021 106.069L135.562 109.177C138.934 113.825 145.536 102.944 147.338 100.584C143.28 102.71 139.678 100.743 137.844 106.586L136.021 106.069Z" fill="#CE9C7D"/>
<path d="M108.847 166.797C111.103 163.226 114.208 160.257 114.209 155.641C113.271 155.456 111.791 157.191 111.25 157.842C110.239 159.045 106.028 164.937 106.935 166.119L108.855 166.793C107.356 167.194 106.15 167.466 104.527 166.73C105.503 160.535 110.036 157.741 113.623 153.253L116.108 155.546L115.128 160.305C118.187 158.769 118.528 155.316 118.901 152.309L117.22 151.262C119.333 150.126 121.57 151.057 123.286 152.377C122.986 158.135 113.905 165.463 108.86 166.801L108.847 166.797Z" fill="#CE9C7D"/>
<path d="M101.761 162.135C99.5032 161.966 101.21 159.484 101.77 158.239C103.454 154.539 106.759 152.387 108.071 150.036C110.275 146.076 104.073 128.222 108.441 122.442C110.077 122.538 109.749 124.134 109.745 125.285C109.713 133.195 108.002 140.364 110.959 148.389L101.761 162.135Z" fill="#CE9C7D"/>
<path d="M108.029 174.069C107.501 174.188 107.789 175.167 106.614 174.624C105.952 174.318 104.291 173.09 105.829 172.246L130.116 164.117C124.862 169.194 115.236 172.41 108.025 174.061L108.029 174.069Z" fill="#CE9C7D"/>
<path d="M131.421 143.397C129.136 144.465 125.19 142.05 124.861 142.138C124.533 142.225 124.601 143.996 123.081 142.803L125.621 139.643L130.68 141.846L130.994 139.732L126.837 138.33L128.779 136.214L133.773 138.765L133.586 140.787C132.928 141.462 132.165 143.057 131.419 143.403L131.421 143.397Z" fill="#CE9C7D"/>
<path d="M103.984 186.833L102.508 184.873L100.964 187.222C100.882 182.635 102.361 179.747 105.459 176.487L107.781 178.664L114.109 176.632C111.727 181.369 104.289 176.924 103.474 182.595C103.326 183.616 105.262 185.282 103.988 186.842L103.984 186.833Z" fill="#CE9C7D"/>
<path d="M140.504 136.598C137.267 134.628 134.807 133.069 131.012 134.715L131.958 131.895L141.19 134.665L140.513 136.594L140.504 136.598Z" fill="#CE9C7D"/>
<path d="M127.65 147.828C126.885 148.125 126.121 148.088 125.349 147.825L120.99 144.62L129.085 146.368C129.142 146.453 127.888 147.73 127.644 147.826L127.65 147.828Z" fill="#CE9C7D"/>
<path d="M145.528 120.242L147.976 121.211C148.42 127.063 143.743 125.138 145.528 120.242Z" fill="#CE9C7D"/>
<path d="M125.106 116.595L124.649 111.463L127.91 116.594L125.106 116.595Z" fill="#CE9C7D"/>
<path d="M131.773 155.262C129.355 155.218 126.966 156.147 124.631 154.936C126.613 153.139 129.567 154.263 131.913 153.891L131.773 155.262Z" fill="#CE9C7D"/>
<path d="M88.7366 149.582L86.1567 148.676L86.725 147.078L88.0347 146.451L89.6405 147.008L88.7366 149.582Z" fill="#CE9C7D"/>
<path d="M142.319 131.43L139.843 130.206L139.767 128.374L143.003 129.503L142.319 131.43Z" fill="#CE9C7D"/>
<path d="M118.815 123.903L116.741 122.486L116.501 120.191C117.199 121.473 119.929 122.156 118.824 123.898L118.815 123.903Z" fill="#CE9C7D"/>
<path d="M115.676 130.773L114.719 130.437L114.192 128.817L116.125 129.496L115.676 130.773Z" fill="#CE9C7D"/>
<path d="M17.1076 332.565L12.1775 324.224C17.1224 323.648 20.6401 318.201 24.0921 314.926C24.6791 314.371 24.1776 313.586 25.761 314.476L24.9156 319.18C25.5405 320.254 30.7343 319.983 29.6676 322.008C27.1265 325.233 23.532 327.341 20.7756 330.33C19.6189 331.577 19.2498 333.332 17.947 334.498C16.1106 336.129 15.6225 333.754 17.1118 332.574L17.1076 332.565ZM18.4868 327.106L23.0797 320.065C21.3337 319.038 21.8549 320.243 21.1223 320.965C19.5362 322.524 17.8715 323.976 16.3665 325.615L18.0344 331.332L20.3396 327.807L18.4803 327.104L18.4868 327.106Z" fill="#CE9C7D"/>
<path d="M20.9221 288.808L19.0247 288.193C20.2604 283.183 24.2811 279.137 26.0894 274.38C29.8228 264.594 16.1789 268.371 10.6566 268.584C12.6388 265.214 18.092 267.535 19.1922 262.891L20.2877 264.798L27.199 266.564C26.8909 268.435 28.7844 271.151 28.709 272.545C28.6335 273.939 21.8003 288.623 20.9198 288.814L20.9221 288.808Z" fill="#CE9C7D"/>
<path d="M26.4206 300.226C29.572 300.6 30.5656 295.412 32.6911 293.722L33.5189 296.557L30.3047 301.575L34.9376 302.839L29.2882 303.436L26.4206 300.226Z" fill="#CE9C7D"/>
<path d="M12.2804 274.779C11.9721 273.257 11.8762 271.586 13.7488 271.134L16.6874 275.652L20.2765 276.311C19.1554 280.911 14.4891 276.576 12.2804 274.779Z" fill="#CE9C7D"/>
<path d="M24.6925 298.88L23.7578 297.508C24.2799 296.662 31.219 288.669 31.9743 290.572L24.6925 298.88Z" fill="#CE9C7D"/>
<path d="M22.4823 274.186L15.3634 271.686L16.0426 269.772C18.528 270.203 20.8498 270.126 22.7986 272.064L22.4823 274.186Z" fill="#CE9C7D"/>
<path d="M54.7338 234.041C56.718 232.093 59.8163 232.825 62.0949 233.741L59.4905 235.574L54.7315 234.048L54.7338 234.041Z" fill="#CE9C7D"/>
<path d="M10.2319 282.206C9.8373 281.655 10.5055 278.2 12.3193 279.322C14.8479 280.892 11.7596 284.33 10.2319 282.206Z" fill="#CE9C7D"/>
<path d="M34.268 310.932L32.2182 309.509L32.592 307.452L34.646 308.883L34.268 310.932Z" fill="#CE9C7D"/>
<path d="M56.7755 199.244L57.4528 197.314L56.1661 196.862L55.4887 198.792L56.7755 199.244Z" fill="#CE9C7D"/>
</g>
<defs>
<clipPath id="clip0_79_265">
<rect width="369.788" height="382.218" fill="white" transform="translate(364.134 126.615) rotate(109.345)"/>
</clipPath>
</defs>
</svg>
