<svg width="440" height="140" viewBox="0 0 440 140" fill="none" xmlns="http://www.w3.org/2000/svg">
<path d="M215.35 24.6414C275.719 19.1618 336.27 18.3069 389.708 25.6355C442.6 32.8892 491.772 48.5866 526.15 78.9648L491.351 118.344C468.298 97.973 431.207 84.3699 382.568 77.6995C334.476 71.104 278.229 71.7012 220.1 76.9773C103.814 87.5323 -16.0944 116.432 -85.4017 139.535L-102.02 89.6803C-29.2512 65.4242 94.6397 35.5979 215.35 24.6414Z" fill="#F39F29"/>
<path d="M-76.1475 112.227L-70.9452 110.619L-76.1325 102.52L-76.2615 102.559L-76.1475 112.227ZM-82.931 94.5409L-75.192 92.1496C-74.2891 91.8707 -73.5411 92.1576 -72.9181 92.9542L-55.609 117.42C-55.2643 117.925 -55.1314 118.355 -55.2401 118.766C-55.3918 119.189 -55.6826 119.468 -56.1986 119.627L-62.7337 121.646C-63.7656 121.965 -64.5136 121.678 -65.0638 120.812L-67.0327 117.794L-75.2446 120.331L-75.1245 123.921C-75.0902 124.946 -75.589 125.619 -76.5779 125.924L-83.113 127.943C-83.6289 128.103 -84.069 128.05 -84.3903 127.773C-84.7545 127.509 -84.8874 127.079 -84.8451 126.453L-84.3546 96.488C-84.3326 95.4921 -83.8768 94.8332 -82.931 94.5409ZM-48.8775 91.6536L-50.2952 86.443C-50.5788 85.4009 -50.1995 84.7381 -49.1574 84.4546L-28.5756 78.8546C-27.5335 78.5711 -26.8706 78.9504 -26.5871 79.9925L-25.1694 85.2031C-24.8858 86.2452 -25.2651 86.908 -26.3072 87.1915L-31.8652 88.7038L-26.1944 109.546C-25.9108 110.588 -26.2901 111.251 -27.3322 111.535L-33.6718 113.259C-34.7139 113.543 -35.3767 113.164 -35.6603 112.122L-41.3311 91.2793L-46.889 92.7915C-47.9311 93.075 -48.594 92.6957 -48.8775 91.6536ZM-12.3223 94.2642L-7.04336 92.9299L-11.8018 84.5711L-11.9327 84.6042L-12.3223 94.2642ZM-18.1755 76.2493L-10.3225 74.2643C-9.40632 74.0327 -8.67423 74.3582 -8.09362 75.1862L7.91785 100.52C8.23572 101.043 8.346 101.479 8.21608 101.883C8.04254 102.299 7.73762 102.561 7.21409 102.694L0.582652 104.37C-0.464416 104.635 -1.19651 104.309 -1.70089 103.415L-3.50983 100.299L-11.8428 102.405L-11.9098 105.996C-11.929 107.022 -12.4621 107.667 -13.4655 107.921L-20.097 109.597C-20.6205 109.729 -21.0573 109.654 -21.3636 109.36C-21.7136 109.077 -21.8239 108.641 -21.7491 108.019L-19.6986 78.1196C-19.6248 77.1262 -19.1353 76.4919 -18.1755 76.2493ZM31.8209 87.2958C32.35 89.5752 32.1635 91.5587 31.3697 93.3136C30.5321 95.0787 29.2859 96.4766 27.6749 97.4972C26.0639 98.5179 24.1086 99.2489 21.873 99.7677C17.4456 100.795 13.6884 100.928 10.6247 100.068C9.64631 99.8336 9.18686 99.2472 9.33407 98.2892L9.92217 93.8564C10.0827 92.7567 10.669 92.2972 11.7249 92.4679C14.0325 92.8563 16.2383 92.8063 18.2547 92.3384C21.1916 91.6567 22.5396 90.6972 22.2547 89.4698C22.1327 88.9438 21.6802 88.5868 20.9312 88.3449C20.1484 88.157 18.9406 87.9291 17.2405 87.7694C16.0194 87.6832 14.9736 87.5563 14.1572 87.4224C13.297 87.2987 12.3624 87.0536 11.2994 86.6536C10.2028 86.3076 9.31519 85.8668 8.6264 85.2875C7.89377 84.7184 7.20812 83.9536 6.61328 82.983C5.9746 82.0225 5.5144 80.8358 5.19903 79.4769C3.7951 73.4277 7.08211 69.4773 15.0601 67.6258C18.9175 66.7305 22.2364 66.6994 24.9964 67.4447C25.985 67.7234 26.4006 68.3199 26.2871 69.224L25.6919 73.4274C25.5212 74.4833 24.9349 74.9427 23.8892 74.8159C21.9057 74.6295 19.9057 74.7703 17.8893 75.2382C16.7496 75.5027 15.9473 75.8275 15.4181 76.1351C14.8553 76.4967 14.694 76.9961 14.8364 77.6098C14.9585 78.1358 15.3773 78.5468 16.1264 78.7887C16.8856 79.0745 18.1372 79.2921 19.8475 79.4958L21.9492 79.7933C22.3304 79.8434 22.9511 79.9304 23.8216 80.0979C24.692 80.2655 25.279 80.4064 25.6806 80.5442C26.0923 80.7258 26.6019 80.9309 27.3071 81.183C27.9787 81.4891 28.5086 81.7819 28.8632 82.1154C29.2279 82.4927 29.6028 82.9138 30.0318 83.3686C30.4709 83.8673 30.8325 84.4301 31.1267 85.1009C31.3772 85.7819 31.6378 86.5068 31.8209 87.2958ZM29.7748 71.9421L28.6348 66.6638C28.4068 65.6082 28.8206 64.9663 29.8762 64.7383L50.7255 60.2352C51.7811 60.0071 52.423 60.421 52.651 61.4766L53.791 66.7549C54.019 67.8106 53.6052 68.4524 52.5495 68.6804L46.9194 69.8965L51.4795 91.0096C51.7075 92.0653 51.2937 92.7071 50.2381 92.9351L43.8161 94.3221C42.7605 94.5502 42.1186 94.1363 41.8906 93.0807L37.3305 71.9675L31.7003 73.1836C30.6446 73.4116 30.0028 72.9978 29.7748 71.9421ZM78.7941 74.5706L68.8634 76.545L69.6795 80.6496L80.537 78.4909C81.5963 78.2803 82.2312 78.7047 82.4418 79.7639L83.3895 84.5306C83.6002 85.5899 83.1758 86.2248 82.1166 86.4354L63.4029 90.1561C62.3436 90.3667 61.7086 89.9424 61.498 88.8831L55.917 60.8126C55.7064 59.7533 56.1307 59.1184 57.19 58.9078L75.6389 55.2397C76.6981 55.0291 77.3331 55.4534 77.5437 56.5127L78.4914 61.2794C78.702 62.3387 78.2777 62.9736 77.2184 63.1842L66.6257 65.2903L67.3541 68.9536L77.2847 66.9791C78.2998 66.7773 78.9348 67.2016 79.1454 68.2609L80.0317 72.7187C80.2423 73.7779 79.8092 74.3687 78.7941 74.5706ZM107.227 49.005C111.75 48.2252 115.527 48.9439 118.558 51.1612C121.544 53.3862 123.534 57.2442 124.482 62.7431C125.438 68.2863 124.855 72.5879 122.786 75.6844C120.673 78.7886 117.347 80.6863 112.823 81.4661C108.256 82.2536 104.486 81.5792 101.5 79.3543C98.4692 77.137 96.5241 73.2713 95.5684 67.7281C94.6204 62.2292 95.1587 57.9353 97.272 54.8311C99.3409 51.7346 102.659 49.7925 107.227 49.005ZM111.401 73.2178C112.953 72.9502 113.999 72.1306 114.584 70.7513C115.123 69.3796 115.171 67.2709 114.681 64.4328C114.192 61.5947 113.441 59.6236 112.473 58.5119C111.461 57.4078 110.201 56.9858 108.649 57.2533C107.052 57.5286 106.007 58.3482 105.467 59.7199C104.883 61.0992 104.88 63.2002 105.369 66.0384C105.858 68.8765 106.565 70.8552 107.577 71.9593C108.545 73.071 109.805 73.4931 111.401 73.2178ZM148.221 63.881L138.389 65.3786L139.832 74.8543C139.995 75.922 139.543 76.5371 138.475 76.6998L132.069 77.6756C131.001 77.8382 130.386 77.3857 130.223 76.318L125.913 48.0244C125.751 46.9567 126.203 46.3416 127.271 46.1789L145.688 43.3734C146.756 43.2108 147.371 43.6633 147.534 44.731L148.266 49.5356C148.428 50.6032 147.976 51.2184 146.908 51.381L136.498 52.9668L137.196 57.5489L147.028 56.0513C148.051 55.8954 148.666 56.3479 148.829 57.4156L149.54 62.0867C149.703 63.1544 149.244 63.7251 148.221 63.881ZM184.032 68.8492L182.79 58.71L175.643 59.5854L176.885 69.7246C177.017 70.7966 176.546 71.3982 175.474 71.5295L168.953 72.3283C167.881 72.4596 167.279 71.9893 167.148 70.9173L163.668 42.5096C163.537 41.4376 164.007 40.836 165.079 40.7046L171.601 39.9059C172.673 39.7746 173.274 40.2449 173.406 41.3169L174.593 51.0095L181.739 50.1341L180.552 40.4415C180.421 39.3695 180.891 38.7679 181.963 38.6366L188.484 37.8378C189.556 37.7065 190.158 38.1768 190.289 39.2488L193.769 67.6565C193.9 68.7285 193.43 69.3302 192.358 69.4615L185.837 70.2602C184.765 70.3915 184.163 69.9212 184.032 68.8492ZM208.671 35.2375C213.239 34.7944 216.953 35.7906 219.811 38.226C222.625 40.6658 224.324 44.6604 224.862 50.2144C225.405 55.8131 224.506 60.0597 222.214 62.9948C219.877 65.9341 216.419 67.5806 211.851 68.0237C207.237 68.4711 203.528 67.5198 200.715 65.08C197.856 62.6446 196.202 58.6456 195.659 53.0469C195.121 47.4929 195.975 43.2506 198.312 40.3113C200.605 37.3762 204.057 35.685 208.671 35.2375ZM211.043 59.6928C212.61 59.5407 213.714 58.8007 214.399 57.4684C215.039 56.1404 215.242 54.041 214.964 51.1745C214.686 48.3079 214.083 46.2867 213.2 45.1064C212.272 43.9305 211.046 43.4164 209.479 43.5684C207.866 43.7248 206.763 44.4648 206.123 45.7928C205.438 47.1251 205.28 49.2202 205.558 52.0868C205.836 54.9533 206.394 56.9789 207.322 58.1548C208.205 59.3351 209.43 59.8492 211.043 59.6928ZM245.489 58.8678C244.95 58.9034 244.576 58.7027 244.277 58.2715L237.891 48.9975L238.856 63.5907C238.928 64.6683 238.424 65.2428 237.347 65.314L231.15 65.7237C230.073 65.795 229.498 65.2918 229.427 64.2141L227.539 35.6565C227.467 34.5788 227.971 34.0044 229.048 33.9331L235.02 33.5383C235.873 33.4819 236.523 33.7546 236.921 34.3146L244.622 45.7564L250.75 33.4002C251.071 32.7927 251.634 32.4398 252.532 32.3804L258.504 31.9856C259.582 31.9144 260.156 32.4175 260.227 33.4952L262.115 62.0528C262.187 63.1305 261.684 63.7049 260.606 63.7762L254.409 64.1859C253.332 64.2571 252.757 63.7539 252.686 62.6763L251.721 48.0832L246.612 58.1171C246.372 58.5839 245.983 58.8351 245.489 58.8678ZM285.485 50.5431L275.366 50.8797L275.505 55.0623L286.569 54.6944C287.648 54.6585 288.206 55.1803 288.242 56.2597L288.403 61.117C288.439 62.1964 287.917 62.754 286.838 62.7899L267.768 63.4241C266.689 63.46 266.131 62.9383 266.095 61.8588L265.144 33.2547C265.108 32.1753 265.63 31.6176 266.709 31.5817L285.509 30.9565C286.588 30.9206 287.146 31.4424 287.182 32.5218L287.344 37.3791C287.379 38.4585 286.858 39.0161 285.778 39.052L274.984 39.411L275.108 43.1439L285.228 42.8074C286.262 42.773 286.82 43.2948 286.856 44.3742L287.007 48.9166C287.043 49.9961 286.52 50.5087 285.485 50.5431ZM311.691 57.4359C309.621 57.4171 307.917 56.7267 306.535 55.2741C305.108 53.8661 304.449 52.15 304.467 50.0801C304.486 48.0552 305.176 46.3514 306.629 44.9245C308.037 43.5422 309.753 42.8377 311.823 42.8565C313.848 42.8749 315.551 43.6104 316.979 45.0184C318.361 46.471 319.065 48.1874 319.047 50.2123C319.028 52.2823 318.292 53.9857 316.885 55.3679C315.432 56.7948 313.716 57.4543 311.691 57.4359ZM346.986 51.0551L352.419 51.4186L350.479 41.998L350.344 41.989L346.986 51.0551ZM346.991 32.1131L355.073 32.6539C356.016 32.717 356.611 33.2529 356.907 34.2198L364.3 63.2631C364.441 63.8589 364.411 64.3079 364.162 64.652C363.869 64.9932 363.497 65.1488 362.959 65.1127L356.134 64.6561C355.056 64.584 354.461 64.048 354.257 63.0422L353.501 59.5189L344.925 58.9451L343.751 62.3393C343.415 63.309 342.709 63.7579 341.676 63.6888L334.851 63.2321C334.313 63.1961 333.921 62.9894 333.72 62.6152C333.475 62.238 333.505 61.789 333.768 61.2203L344.964 33.4207C345.342 32.4989 346.003 32.047 346.991 32.1131ZM380.155 41.9595L380.923 36.6143C381.076 35.5453 381.687 35.0875 382.756 35.2411L403.87 38.2732C404.939 38.4267 405.397 39.038 405.243 40.107L404.475 45.4522C404.322 46.5212 403.711 46.979 402.642 46.8255L396.94 46.0067L393.87 67.3873C393.716 68.4563 393.105 68.9141 392.036 68.7606L385.532 67.8266C384.463 67.6731 384.006 67.0618 384.159 65.9928L387.23 44.6121L381.528 43.7933C380.459 43.6398 380.001 43.0285 380.155 41.9595ZM412.386 59.5141L417.708 60.6656L417.161 51.0628L417.029 51.0343L412.386 59.5141ZM415.152 40.7751L423.068 42.4881C423.992 42.688 424.503 43.305 424.655 44.3048L427.735 74.1155C427.787 74.7253 427.692 75.1651 427.396 75.4694C427.056 75.7642 426.666 75.8639 426.138 75.7497L419.453 74.3032C418.398 74.0748 417.887 73.4577 417.832 72.433L417.597 68.837L409.197 67.0193L407.54 70.2061C407.067 71.1166 406.303 71.4576 405.291 71.2387L398.606 69.7922C398.078 69.678 397.72 69.4164 397.576 69.0169C397.389 68.608 397.484 68.1682 397.827 67.644L412.956 41.7733C413.464 40.9163 414.184 40.5657 415.152 40.7751ZM454.039 74.6159C453.333 76.8468 452.162 78.4587 450.585 79.5645C448.965 80.6567 447.181 81.2248 445.275 81.2825C443.369 81.3401 441.314 80.973 439.125 80.2807C434.792 78.9096 431.491 77.11 429.293 74.8096C428.571 74.109 428.474 73.3705 429.089 72.621L431.853 69.1061C432.551 68.2415 433.29 68.1448 434.111 68.8296C435.899 70.3393 437.823 71.4199 439.796 72.0444C442.671 72.9539 444.32 72.8148 444.7 71.6135C444.863 71.0987 444.655 70.5611 444.134 69.9713C443.556 69.4109 442.633 68.5996 441.251 67.596C440.244 66.8998 439.409 66.2579 438.775 65.7268C438.097 65.1821 437.418 64.4952 436.707 63.6095C435.94 62.753 435.4 61.9216 435.103 61.0723C434.762 60.2093 434.562 59.2019 434.544 58.0636C434.484 56.9118 434.693 55.6562 435.113 54.3262C436.987 48.4055 441.828 46.6805 449.636 49.1512C453.412 50.3458 456.283 52.0097 458.279 54.057C458.988 54.8005 459.041 55.5255 458.483 56.2456L455.83 59.5596C455.145 60.3813 454.406 60.478 453.571 59.8361C451.959 58.6653 450.166 57.7676 448.193 57.1432C447.077 56.7902 446.222 56.661 445.609 56.6561C444.941 56.6806 444.548 57.0282 444.358 57.6288C444.195 58.1437 444.346 58.7106 444.867 59.3004C445.375 59.933 446.341 60.7579 447.709 61.8044L449.366 63.1311C449.669 63.3684 450.159 63.7594 450.822 64.347C451.486 64.9345 451.919 65.3549 452.195 65.678C452.456 66.044 452.79 66.4801 453.269 67.0563C453.691 67.6618 453.998 68.1837 454.133 68.6513C454.255 69.1617 454.363 69.7151 454.5 70.325C454.624 70.9778 454.648 71.6463 454.56 72.3735C454.429 73.0871 454.284 73.8436 454.039 74.6159ZM460.874 60.7681L463.078 55.8386C463.519 54.8527 464.233 54.5802 465.218 55.0211L484.69 63.729C485.676 64.1699 485.948 64.8833 485.508 65.8692L483.303 70.7987C482.862 71.7846 482.149 72.0571 481.163 71.6162L475.905 69.2647L467.087 88.9828C466.646 89.9687 465.932 90.2412 464.946 89.8003L458.949 87.1181C457.963 86.6772 457.69 85.9638 458.131 84.9779L466.949 65.2598L461.691 62.9083C460.705 62.4674 460.433 61.754 460.874 60.7681ZM496.962 94.2409L488.442 88.7695L486.181 92.2908L495.495 98.2729C496.404 98.8565 496.567 99.6027 495.983 100.511L493.357 104.601C492.773 105.509 492.027 105.672 491.118 105.088L475.064 94.7778C474.155 94.1942 473.993 93.4481 474.576 92.5393L490.042 68.4579C490.626 67.5492 491.372 67.3866 492.281 67.9702L508.108 78.1349C509.016 78.7185 509.179 79.4647 508.595 80.3734L505.969 84.4627C505.385 85.3714 504.639 85.534 503.73 84.9504L494.643 79.1142L492.625 82.2569L501.144 87.7283C502.015 88.2876 502.178 89.0338 501.594 89.9425L499.138 93.7667C498.554 94.6755 497.833 94.8002 496.962 94.2409Z" fill="#5C4033"/>
</svg>
