<svg width="1440" height="324" viewBox="0 0 1440 324" fill="none" xmlns="http://www.w3.org/2000/svg">
<path d="M740.359 17.0297C901.189 2.4316 1062.5 0.154127 1204.86 19.6781C1345.77 39.0024 1476.77 80.8215 1568.35 161.751L1475.65 266.661C1414.23 212.39 1315.42 176.151 1185.84 158.38C1057.72 140.809 907.874 142.4 753.016 156.456C443.221 184.576 123.775 261.567 -60.8643 323.114L-105.136 190.298C88.7246 125.678 418.779 46.2188 740.359 17.0297Z" fill="#F39F29"/>
<path d="M-61.2764 254.801L-52.865 252.104L-61.4182 239.054L-61.6268 239.121L-61.2764 254.801ZM-72.5828 226.228L-60.0701 222.217C-58.6103 221.749 -57.3919 222.202 -56.3678 223.483L-27.8713 262.873C-27.3035 263.688 -27.0807 264.383 -27.2499 265.05C-27.4887 265.74 -27.9557 266.197 -28.7899 266.464L-39.3562 269.851C-41.0246 270.386 -42.2429 269.934 -43.1503 268.538L-46.3956 263.676L-59.673 267.932L-59.4168 273.753C-59.3436 275.416 -60.1412 276.515 -61.7401 277.027L-72.3064 280.415C-73.1405 280.682 -73.8553 280.605 -74.3812 280.16C-74.9765 279.738 -75.1994 279.043 -75.1415 278.027L-74.8588 229.411C-74.8402 227.795 -74.1121 226.719 -72.5828 226.228ZM-17.5754 220.884L-20.0542 212.482C-20.55 210.802 -19.9577 209.714 -18.2773 209.218L14.9104 199.427C16.5908 198.931 17.6789 199.523 18.1747 201.204L20.6535 209.605C21.1493 211.286 20.557 212.374 18.8766 212.87L9.91451 215.514L19.83 249.122C20.3257 250.802 19.7334 251.89 18.053 252.386L7.83064 255.402C6.15025 255.898 5.06217 255.305 4.5664 253.625L-5.34904 220.017L-14.3111 222.661C-15.9915 223.157 -17.0796 222.565 -17.5754 220.884ZM41.7972 223.759L50.3021 221.375L42.2355 208.018L42.0246 208.078L41.7972 223.759ZM31.5511 194.79L44.2031 191.242C45.6791 190.828 46.88 191.326 47.8562 192.644L74.8822 233.057C75.4195 233.892 75.6166 234.595 75.4229 235.256C75.1588 235.936 74.6753 236.375 73.8319 236.611L63.148 239.607C61.461 240.08 60.2602 239.583 59.4048 238.155L56.3408 233.176L42.9156 236.941L42.9572 242.767C42.9691 244.432 42.1316 245.501 40.5149 245.954L29.831 248.95C28.9875 249.186 28.2761 249.082 27.767 248.619C27.1876 248.175 26.9905 247.472 27.0857 246.459L29.1593 197.887C29.2375 196.273 30.0047 195.224 31.5511 194.79ZM113.09 210.338C114.066 214.006 113.867 217.232 112.671 220.118C111.405 223.024 109.457 225.355 106.898 227.094C104.339 228.833 101.207 230.12 97.6092 231.077C90.4842 232.974 84.3992 233.384 79.3871 232.15C77.7884 231.82 77.013 230.893 77.2018 229.332L77.9247 222.115C78.1277 220.323 79.0544 219.548 80.7754 219.769C84.537 220.279 88.1109 220.083 91.3559 219.22C96.0824 217.962 98.218 216.336 97.6923 214.36C97.4669 213.514 96.7148 212.959 95.4877 212.605C94.2088 212.341 92.2386 212.035 89.4737 211.864C87.4894 211.788 85.7872 211.637 84.4565 211.462C83.0553 211.306 81.5272 210.958 79.7829 210.364C77.9868 209.86 76.5247 209.192 75.3778 208.289C74.1603 207.404 73.0088 206.2 71.9938 204.657C70.9083 203.133 70.1003 201.233 69.5183 199.046C66.9272 189.311 72.0511 182.734 84.8901 179.317C91.098 177.665 96.4775 177.442 100.991 178.506C102.609 178.907 103.314 179.852 103.177 181.324L102.43 188.17C102.209 189.891 101.282 190.667 99.5797 190.516C96.3539 190.317 93.1186 190.649 89.8736 191.513C88.0394 192.001 86.7554 192.569 85.9134 193.095C85.0197 193.711 84.7842 194.529 85.0471 195.517C85.2724 196.363 85.9727 197.008 87.1999 197.361C88.4458 197.785 90.4865 198.073 93.2702 198.314L96.6933 198.687C97.314 198.748 98.3249 198.857 99.7449 199.083C101.165 199.31 102.124 199.508 102.782 199.71C103.459 199.983 104.296 200.289 105.453 200.661C106.558 201.123 107.432 201.57 108.024 202.092C108.635 202.685 109.265 203.348 109.984 204.063C110.722 204.849 111.338 205.743 111.85 206.815C112.291 207.906 112.752 209.068 113.09 210.338ZM108.91 185.558L106.749 177.069C106.317 175.371 106.95 174.306 108.648 173.874L142.18 165.339C143.878 164.907 144.943 165.54 145.375 167.238L147.536 175.727C147.968 177.425 147.335 178.49 145.638 178.922L136.582 181.227L145.225 215.184C145.657 216.882 145.024 217.947 143.326 218.379L132.998 221.008C131.3 221.44 130.235 220.808 129.803 219.11L121.16 185.152L112.105 187.457C110.407 187.889 109.342 187.256 108.91 185.558ZM188.517 186.697L172.558 190.583L174.164 197.179L191.613 192.931C193.315 192.517 194.373 193.161 194.788 194.863L196.653 202.523C197.067 204.225 196.423 205.284 194.721 205.698L164.648 213.02C162.945 213.435 161.887 212.791 161.472 211.089L150.489 165.978C150.075 164.276 150.719 163.218 152.421 162.803L182.069 155.585C183.771 155.17 184.829 155.814 185.244 157.516L187.109 165.177C187.523 166.879 186.879 167.937 185.177 168.352L168.155 172.496L169.588 178.383L185.547 174.498C187.178 174.101 188.236 174.745 188.651 176.447L190.395 183.611C190.809 185.313 190.148 186.3 188.517 186.697ZM232.512 143.01C239.774 141.365 245.954 142.211 251.051 145.548C256.076 148.901 259.625 154.983 261.624 163.812C263.639 172.711 263.058 179.729 259.967 184.92C256.805 190.127 251.577 193.481 244.315 195.126C236.981 196.787 230.818 196.012 225.792 192.659C220.696 189.322 217.219 183.224 215.203 174.324C213.204 165.496 213.714 158.494 216.876 153.287C219.967 148.096 225.179 144.67 232.512 143.01ZM241.316 181.883C243.808 181.319 245.433 179.903 246.263 177.619C247.022 175.352 246.921 171.931 245.889 167.375C244.857 162.818 243.475 159.688 241.813 157.969C240.08 156.266 238.003 155.688 235.511 156.252C232.948 156.833 231.323 158.249 230.564 160.516C229.734 162.8 229.906 166.204 230.938 170.761C231.97 175.317 233.281 178.463 235.014 180.167C236.676 181.886 238.753 182.464 241.316 181.883ZM300.179 163.33L284.408 166.725L287.68 181.926C288.048 183.639 287.376 184.679 285.663 185.048L275.387 187.26C273.674 187.629 272.633 186.957 272.265 185.244L262.495 139.855C262.126 138.143 262.798 137.102 264.511 136.733L294.056 130.374C295.769 130.005 296.81 130.677 297.178 132.39L298.837 140.097C299.206 141.81 298.534 142.851 296.821 143.219L280.122 146.814L281.704 154.165L297.476 150.77C299.117 150.416 300.158 151.088 300.527 152.801L302.139 160.295C302.508 162.007 301.821 162.977 300.179 163.33ZM358.863 167.236L355.628 150.984L344.173 153.264L347.408 169.516C347.75 171.234 347.062 172.265 345.344 172.607L334.891 174.687C333.173 175.029 332.142 174.341 331.8 172.623L322.736 127.088C322.394 125.37 323.082 124.34 324.801 123.998L335.254 121.917C336.972 121.575 338.002 122.263 338.344 123.981L341.437 139.518L352.892 137.237L349.799 121.701C349.457 119.983 350.145 118.953 351.864 118.611L362.317 116.53C364.035 116.188 365.065 116.876 365.407 118.594L374.471 164.129C374.813 165.847 374.125 166.877 372.407 167.219L361.954 169.3C360.236 169.642 359.206 168.954 358.863 167.236ZM394.247 109.601C401.567 108.234 407.709 109.315 412.675 112.844C417.57 116.385 420.883 122.599 422.545 131.497C424.22 140.467 423.372 147.457 420.085 152.527C416.727 157.609 411.375 160.762 404.056 162.129C396.664 163.509 390.535 162.5 385.641 158.958C380.675 155.43 377.433 149.203 375.758 140.233C374.096 131.335 374.873 124.358 378.231 119.275C381.517 114.206 386.856 110.981 394.247 109.601ZM401.563 148.782C404.075 148.313 405.753 146.96 406.669 144.709C407.514 142.472 407.544 139.051 406.686 134.458C405.828 129.866 404.566 126.685 402.971 124.904C401.304 123.136 399.251 122.479 396.739 122.948C394.156 123.431 392.478 124.784 391.633 127.021C390.717 129.271 390.759 132.679 391.617 137.272C392.474 141.865 393.665 145.058 395.331 146.827C396.927 148.608 398.98 149.264 401.563 148.782ZM457.306 141.972C456.443 142.122 455.805 141.861 455.249 141.217L443.364 127.346L447.412 150.723C447.71 152.449 446.997 153.462 445.27 153.761L435.344 155.479C433.618 155.778 432.605 155.065 432.306 153.338L424.386 107.591C424.088 105.864 424.801 104.852 426.528 104.553L436.094 102.897C437.461 102.66 438.555 102.989 439.292 103.825L453.67 120.969L461.447 99.9893C461.86 98.9546 462.708 98.2892 464.147 98.0402L473.714 96.384C475.44 96.0851 476.453 96.7988 476.751 98.5252L484.671 144.273C484.97 145.999 484.257 147.012 482.53 147.31L472.604 149.029C470.878 149.328 469.865 148.614 469.566 146.888L465.519 123.51L458.989 140.569C458.682 141.363 458.097 141.835 457.306 141.972ZM520.421 120.985L504.202 123.582L505.276 130.286L523.008 127.446C524.738 127.169 525.741 127.896 526.018 129.626L527.265 137.411C527.542 139.141 526.815 140.144 525.085 140.421L494.523 145.315C492.793 145.592 491.789 144.865 491.512 143.135L484.172 97.2912C483.895 95.5612 484.621 94.5577 486.351 94.2807L516.481 89.4563C518.211 89.1793 519.215 89.9058 519.492 91.6358L520.738 99.4206C521.015 101.151 520.289 102.154 518.559 102.431L501.259 105.201L502.217 111.184L518.436 108.587C520.093 108.322 521.097 109.048 521.374 110.778L522.54 118.058C522.817 119.788 522.079 120.72 520.421 120.985ZM564.374 125.941C561.05 126.424 558.148 125.738 555.573 123.752C552.936 121.848 551.454 119.26 550.972 115.937C550.5 112.686 551.185 109.783 553.161 107.136C555.076 104.571 557.653 103.017 560.976 102.535C564.227 102.063 567.14 102.82 569.777 104.724C572.352 106.711 573.907 109.288 574.378 112.539C574.861 115.863 574.103 118.776 572.189 121.34C570.212 123.987 567.624 125.47 564.374 125.941ZM619.445 105.773L628.206 104.652L622.169 90.2637L621.952 90.2915L619.445 105.773ZM613.524 75.621L626.557 73.9524C628.078 73.7577 629.194 74.4244 629.968 75.8709L650.824 119.787C651.234 120.691 651.327 121.415 651.039 122.041C650.679 122.676 650.137 123.04 649.268 123.151L638.262 124.56C636.524 124.782 635.408 124.116 634.77 122.578L632.463 117.207L618.633 118.977L617.826 124.747C617.596 126.396 616.611 127.332 614.946 127.545L603.94 128.954C603.071 129.065 602.382 128.859 601.946 128.326C601.437 127.802 601.345 127.078 601.586 126.091L610.707 78.3367C611.019 76.7512 611.931 75.8249 613.524 75.621ZM668.505 80.2867L667.553 71.5786C667.363 69.837 668.138 68.871 669.88 68.6805L704.277 64.9198C706.018 64.7294 706.984 65.505 707.175 67.2466L708.127 75.9547C708.317 77.6964 707.542 78.6624 705.8 78.8528L696.512 79.8684L700.32 114.701C700.51 116.442 699.735 117.408 697.993 117.599L687.398 118.757C685.657 118.948 684.691 118.172 684.5 116.43L680.692 81.598L671.403 82.6135C669.662 82.8039 668.695 82.0283 668.505 80.2867ZM726.433 93.6129L735.225 92.7652L729.64 78.196L729.422 78.217L726.433 93.6129ZM721.456 63.2906L734.535 62.0296C736.061 61.8824 737.155 62.5837 737.884 64.0535L757.36 108.599C757.741 109.516 757.811 110.242 757.504 110.859C757.124 111.482 756.571 111.829 755.699 111.913L744.654 112.978C742.91 113.146 741.816 112.445 741.226 110.888L739.088 105.447L725.209 106.785L724.223 112.527C723.941 114.168 722.928 115.072 721.257 115.233L710.212 116.298C709.34 116.382 708.658 116.155 708.239 115.609C707.747 115.069 707.676 114.343 707.949 113.363L718.555 65.9171C718.917 64.3421 719.857 63.4447 721.456 63.2906ZM798.957 93.0789C799.262 96.8626 798.489 100.001 796.797 102.627C795.032 105.259 792.698 107.205 789.87 108.458C787.041 109.712 783.729 110.418 780.018 110.717C772.669 111.309 766.609 110.626 761.898 108.515C760.384 107.905 759.787 106.855 760.252 105.352L762.253 98.3801C762.773 96.6537 763.824 96.0564 765.477 96.5823C769.087 97.7561 772.638 98.2023 775.986 97.9326C780.861 97.5398 783.253 96.3217 783.088 94.2843C783.018 93.4112 782.377 92.7304 781.233 92.1635C780.022 91.6752 778.138 91.0214 775.449 90.3593C773.51 89.9296 771.862 89.4765 770.584 89.0668C769.233 88.663 767.792 88.0468 766.182 87.1512C764.505 86.3343 763.186 85.4153 762.219 84.3214C761.179 83.2334 760.261 81.8426 759.539 80.1432C758.743 78.4496 758.288 76.4357 758.106 74.18C757.297 64.1385 763.514 58.5842 776.757 57.5171C783.16 57.0011 788.493 57.7432 792.744 59.5977C794.263 60.2809 794.788 61.3372 794.39 62.7607L792.432 69.3633C791.906 71.0169 790.856 71.6142 789.208 71.1611C786.07 70.3887 782.827 70.1373 779.48 70.407C777.588 70.5595 776.223 70.8892 775.301 71.2564C774.311 71.7024 773.933 72.4652 774.015 73.4839C774.086 74.357 774.66 75.1164 775.804 75.6833C776.954 76.323 778.91 76.971 781.606 77.7058L784.907 78.6848C785.507 78.8562 786.482 79.1438 787.839 79.6204C789.196 80.0969 790.104 80.4632 790.715 80.7801C791.333 81.1698 792.101 81.6205 793.173 82.1933C794.177 82.8447 794.958 83.4409 795.447 84.0606C795.942 84.7531 796.444 85.5183 797.023 86.3504C797.609 87.2553 798.055 88.2447 798.367 89.3913C798.606 90.5438 798.851 91.7691 798.957 93.0789ZM799.33 67.954L798.756 59.2129C798.641 57.4647 799.457 56.5331 801.206 56.4182L835.733 54.1493C837.481 54.0344 838.413 54.8511 838.528 56.5993L839.102 65.3404C839.217 67.0887 838.4 68.0202 836.652 68.1351L827.328 68.7478L829.626 103.712C829.741 105.461 828.924 106.392 827.176 106.507L816.541 107.206C814.793 107.321 813.861 106.504 813.746 104.756L811.449 69.7913L802.125 70.4041C800.376 70.5189 799.445 69.7023 799.33 67.954ZM877.369 83.8115L860.964 84.6258L861.301 91.4065L879.236 90.5162C880.986 90.4293 881.905 91.2608 881.992 93.0107L882.382 100.885C882.469 102.635 881.638 103.553 879.888 103.64L848.974 105.174C847.224 105.261 846.306 104.43 846.219 102.68L843.917 56.3091C843.83 54.5592 844.662 53.6409 846.412 53.554L876.888 52.0413C878.638 51.9544 879.556 52.7859 879.643 54.5358L880.034 62.4101C880.121 64.1599 879.289 65.0783 877.54 65.1651L860.041 66.0337L860.342 72.0852L876.746 71.271C878.423 71.1877 879.342 72.0192 879.428 73.7691L879.794 81.133C879.881 82.8828 879.046 83.7283 877.369 83.8115ZM929.112 49.5505C936.556 49.3859 942.443 51.4463 946.772 55.7317C951.029 60.0186 953.294 66.6862 953.494 75.736C953.696 84.8588 951.728 91.6199 947.665 96.0908C943.528 100.563 937.737 102.809 930.292 102.973C922.775 103.14 916.89 101.152 912.633 96.8652C908.303 92.5798 906.111 85.9106 905.91 76.7878C905.71 67.7381 907.605 60.9785 911.741 56.506C915.804 52.0351 921.594 49.7166 929.112 49.5505ZM929.992 89.3987C932.547 89.3423 934.422 88.2786 935.69 86.206C936.886 84.1351 937.468 80.7634 937.365 76.0925C937.262 71.4217 936.531 68.079 935.245 66.0629C933.886 64.0485 931.966 63.0687 929.412 63.1251C926.784 63.1832 924.909 64.2469 923.714 66.3178C922.445 68.3904 921.936 71.7605 922.039 76.4313C922.142 81.1022 922.8 84.4464 924.159 86.4609C925.445 88.477 927.365 89.4568 929.992 89.3987ZM991.293 83.3232L975.16 83.3375L975.174 98.8865C975.176 100.638 974.3 101.515 972.548 101.517L962.036 101.526C960.284 101.528 959.408 100.652 959.406 98.9003L959.365 52.4724C959.364 50.7204 960.239 49.8436 961.991 49.8421L992.213 49.8154C993.965 49.8139 994.842 50.6891 994.843 52.4411L994.85 60.3251C994.852 62.0771 993.976 62.9539 992.224 62.9554L975.142 62.9705L975.149 70.4895L991.282 70.4752C992.961 70.4738 993.838 71.349 993.839 73.101L993.846 80.766C993.848 82.518 992.972 83.3218 991.293 83.3232ZM1047.41 100.17L1047.96 83.6077L1036.29 83.2204L1035.74 99.7823C1035.68 101.533 1034.77 102.38 1033.02 102.322L1022.37 101.968C1020.62 101.91 1019.77 101.006 1019.83 99.2546L1021.37 52.8521C1021.43 51.1011 1022.33 50.2546 1024.08 50.3127L1034.74 50.6661C1036.49 50.7242 1037.33 51.6288 1037.28 53.3798L1036.75 69.2121L1048.42 69.5994L1048.95 53.7671C1049.01 52.0161 1049.91 51.1696 1051.66 51.2277L1062.32 51.5811C1064.07 51.6392 1064.91 52.5438 1064.85 54.2948L1063.31 100.697C1063.26 102.448 1062.35 103.295 1060.6 103.237L1049.95 102.883C1048.2 102.825 1047.35 101.921 1047.41 100.17ZM1095.44 52.6025C1102.87 53.072 1108.56 55.6259 1112.51 60.2642C1116.39 64.8978 1118.08 71.734 1117.5 80.768C1116.93 89.8748 1114.39 96.4439 1109.96 100.553C1105.46 104.657 1099.5 106.402 1092.07 105.932C1084.57 105.458 1078.87 102.977 1074.99 98.3434C1071.04 93.7051 1069.43 86.8736 1070 77.7667C1070.57 68.7327 1073.04 62.159 1077.54 58.0547C1081.97 53.9458 1087.94 52.1284 1095.44 52.6025ZM1092.93 92.3812C1095.48 92.5423 1097.43 91.642 1098.87 89.6849C1100.24 87.7233 1101.11 84.4134 1101.4 79.7507C1101.7 75.088 1101.25 71.6952 1100.15 69.577C1098.96 67.4542 1097.13 66.3146 1094.58 66.1535C1091.96 65.9878 1090 66.8881 1088.63 68.8497C1087.19 70.8068 1086.4 74.1213 1086.1 78.784C1085.81 83.4467 1086.18 86.8349 1087.36 88.9577C1088.47 91.0758 1090.3 92.2155 1092.93 92.3812ZM1148.16 100.161C1147.29 100.073 1146.75 99.6509 1146.39 98.8804L1138.68 82.3224L1136.28 105.926C1136.1 107.669 1135.14 108.452 1133.4 108.275L1123.38 107.259C1121.63 107.082 1120.85 106.122 1121.03 104.379L1125.72 58.1878C1125.89 56.4448 1126.85 55.6617 1128.6 55.8385L1138.25 56.8186C1139.63 56.9586 1140.6 57.5702 1141.08 58.5733L1150.32 78.9543L1163.45 60.843C1164.13 59.9578 1165.13 59.5452 1166.58 59.6926L1176.24 60.6727C1177.98 60.8496 1178.76 61.8095 1178.59 63.5526L1173.9 109.743C1173.72 111.486 1172.76 112.27 1171.02 112.093L1161 111.076C1159.26 110.899 1158.47 109.939 1158.65 108.196L1161.04 84.5921L1150.16 99.2636C1149.65 99.9457 1148.96 100.243 1148.16 100.161ZM1214.32 97.8726L1198.05 95.5704L1197.1 102.292L1214.88 104.809C1216.62 105.055 1217.36 106.045 1217.11 107.78L1216.01 115.586C1215.76 117.321 1214.77 118.065 1213.04 117.82L1182.39 113.481C1180.66 113.236 1179.91 112.246 1180.16 110.511L1186.67 64.5412C1186.91 62.8065 1187.9 62.062 1189.64 62.3075L1219.85 66.5845C1221.58 66.8301 1222.33 67.8203 1222.08 69.555L1220.98 77.3611C1220.73 79.0958 1219.74 79.8404 1218.01 79.5948L1200.66 77.1391L1199.81 83.1383L1216.07 85.4405C1217.74 85.6759 1218.48 86.666 1218.24 88.4007L1217.2 95.7009C1216.96 97.4356 1215.98 98.1079 1214.32 97.8726ZM1254.03 116.488C1250.73 115.844 1248.22 114.237 1246.45 111.51C1244.59 108.841 1244.05 105.908 1244.69 102.613C1245.32 99.3887 1246.93 96.8763 1249.67 95.0318C1252.32 93.245 1255.27 92.6309 1258.57 93.2751C1261.79 93.9053 1264.29 95.5837 1266.15 98.2529C1267.92 100.98 1268.53 103.926 1267.9 107.15C1267.26 110.446 1265.58 112.944 1262.93 114.731C1260.18 116.575 1257.25 117.118 1254.03 116.488ZM1312.07 117.126L1320.6 119.421L1320.49 103.819L1320.27 103.762L1312.07 117.126ZM1318.06 86.9883L1330.75 90.4029C1332.23 90.8012 1333.01 91.8422 1333.17 93.4743L1335.76 142.023C1335.79 143.015 1335.6 143.72 1335.1 144.189C1334.52 144.639 1333.88 144.769 1333.04 144.542L1322.32 141.658C1320.63 141.203 1319.85 140.162 1319.85 138.497L1319.76 132.652L1306.29 129.029L1303.35 134.058C1302.51 135.495 1301.25 135.986 1299.62 135.55L1288.91 132.666C1288.06 132.439 1287.51 131.986 1287.3 131.327C1287.03 130.65 1287.22 129.945 1287.82 129.123L1314.42 88.4283C1315.31 87.0808 1316.51 86.5709 1318.06 86.9883ZM1367.84 113.387L1370.87 105.165C1371.47 103.521 1372.6 103.001 1374.24 103.606L1406.72 115.554C1408.36 116.158 1408.88 117.283 1408.28 118.927L1405.25 127.149C1404.65 128.793 1403.52 129.313 1401.88 128.708L1393.11 125.481L1381.01 158.366C1380.4 160.011 1379.28 160.53 1377.64 159.925L1367.63 156.246C1365.99 155.641 1365.47 154.516 1366.07 152.872L1378.17 119.987L1369.4 116.76C1367.76 116.156 1367.24 115.031 1367.84 113.387ZM1412.96 152.25L1420.99 155.93L1423.47 140.526L1423.27 140.434L1412.96 152.25ZM1423.88 123.526L1435.82 129.001C1437.21 129.639 1437.81 130.795 1437.7 132.432L1432.19 180.735C1432.06 181.72 1431.75 182.383 1431.18 182.762C1430.54 183.11 1429.88 183.133 1429.09 182.768L1419 178.145C1417.41 177.415 1416.81 176.259 1417.08 174.616L1417.96 168.837L1405.29 163.028L1401.55 167.5C1400.49 168.777 1399.16 169.051 1397.63 168.351L1387.54 163.728C1386.75 163.363 1386.27 162.824 1386.18 162.141C1386.03 161.428 1386.33 160.764 1387.06 160.054L1420.05 124.342C1421.15 123.161 1422.42 122.857 1423.88 123.526ZM1473.56 190.824C1471.65 194.105 1469.23 196.241 1466.34 197.431C1463.39 198.585 1460.36 198.85 1457.32 198.265C1454.28 197.679 1451.16 196.369 1447.94 194.496C1441.57 190.787 1436.99 186.767 1434.32 182.345C1433.43 180.98 1433.54 179.776 1434.78 178.808L1440.4 174.226C1441.81 173.105 1443.01 173.214 1444.07 174.59C1446.37 177.614 1449.03 180.008 1451.93 181.697C1456.16 184.157 1458.82 184.522 1459.84 182.756C1460.29 181.999 1460.15 181.074 1459.53 179.955C1458.82 178.863 1457.64 177.251 1455.81 175.172C1454.47 173.713 1453.37 172.4 1452.56 171.334C1451.68 170.232 1450.85 168.903 1450.03 167.249C1449.12 165.621 1448.57 164.113 1448.4 162.663C1448.16 161.176 1448.2 159.51 1448.58 157.702C1448.89 155.858 1449.67 153.944 1450.81 151.988C1455.88 143.282 1464.15 142.27 1475.63 148.953C1481.19 152.184 1485.14 155.838 1487.57 159.787C1488.43 161.215 1488.26 162.382 1487.12 163.324L1481.74 167.627C1480.37 168.685 1479.16 168.576 1478.07 167.263C1475.93 164.837 1473.41 162.78 1470.51 161.091C1468.87 160.136 1467.56 159.628 1466.59 159.403C1465.53 159.204 1464.78 159.615 1464.27 160.498C1463.83 161.255 1463.87 162.206 1464.48 163.325C1465.06 164.507 1466.3 166.155 1468.09 168.297L1470.24 170.986C1470.64 171.469 1471.27 172.262 1472.12 173.427C1472.96 174.593 1473.49 175.412 1473.82 176.021C1474.1 176.694 1474.47 177.503 1475.03 178.584C1475.48 179.693 1475.78 180.628 1475.83 181.416C1475.84 182.267 1475.81 183.182 1475.81 184.196C1475.78 185.273 1475.58 186.34 1475.18 187.459C1474.72 188.542 1474.22 189.688 1473.56 190.824ZM1489.21 171.251L1494.39 164.188C1495.43 162.776 1496.65 162.588 1498.07 163.625L1525.96 184.096C1527.37 185.133 1527.56 186.357 1526.53 187.77L1521.34 194.832C1520.31 196.245 1519.08 196.433 1517.67 195.396L1510.14 189.868L1489.41 218.117C1488.37 219.53 1487.14 219.718 1485.73 218.681L1477.14 212.376C1475.73 211.339 1475.54 210.114 1476.58 208.702L1497.31 180.453L1489.77 174.924C1488.36 173.888 1488.17 172.663 1489.21 171.251Z" fill="#5C4033"/>
</svg>
