<svg width="60" height="60" viewBox="0 0 60 60" fill="none" xmlns="http://www.w3.org/2000/svg">
<path d="M30.8683 37.9745C25.3411 36.8888 20.2581 33.1629 18.0374 28.5981C16.9023 26.2293 16.7543 25.415 17.4945 25.415C17.8153 25.415 18.4815 26.0812 19.3698 27.241C22.4048 31.2876 26.2048 33.9772 30.1034 34.9148C32.1761 35.3837 36.0007 35.3837 37.876 34.9148C42.1941 33.8292 45.7966 30.8682 48.3628 26.3527C49.2511 24.7488 49.5225 24.5021 49.9173 24.8969C50.2628 25.2423 49.8433 26.6734 48.7329 28.9929C46.0434 34.5447 39.998 38.2953 33.8046 38.2213C32.793 38.1966 31.4605 38.0979 30.8683 37.9745Z" fill="#CE9C7D"/>
<path d="M21.4919 22.6517C16.7543 20.3816 15.792 19.5427 15.792 17.6921C15.792 15.3233 18.3088 13.2259 20.4802 13.8181C21.023 13.9662 21.5165 14.1882 21.5906 14.3116C21.788 14.6324 22.2074 14.6324 22.2074 14.2869C22.2074 13.6207 23.071 12.2883 23.7126 11.9675C24.6502 11.474 26.1061 11.4987 27.1177 12.0415C28.2774 12.6584 28.8696 13.8675 28.8696 15.5947C28.8696 16.8531 28.6969 17.3466 27.4879 19.666C25.9827 22.5777 25.1684 23.8855 24.7983 24.0335C24.6502 24.0828 23.1697 23.466 21.4919 22.6517Z" fill="#CE9C7D"/>
<path d="M36.7162 20.406C34.9396 16.6554 34.5448 15.4957 34.5448 14.2126C34.5695 12.1892 35.9266 10.3633 37.4318 10.3633C38.1474 10.3633 39.4305 11.2763 39.8499 12.0905L40.2447 12.8554L40.8616 12.3619C41.7992 11.6217 42.9096 11.4983 44.1187 11.9671C45.994 12.7321 46.7095 14.9775 45.6732 16.9761C44.8836 18.4813 39.3564 23.441 38.4681 23.441C38.2707 23.441 37.4811 22.0838 36.7162 20.406Z" fill="#CE9C7D"/>
<path d="M24.7931 59.3339C18.2542 58.1495 13.3685 55.6327 8.85303 51.0925C4.31285 46.5523 1.40122 41.0252 0.364878 35.0785C-0.177968 31.9695 -0.103943 26.8865 0.512928 23.8516C2.98041 11.7115 12.0608 2.82858 24.4722 0.459799C28.0748 -0.231098 33.3059 -0.132399 36.415 0.681873C48.703 3.91427 57.2652 13.0193 59.3379 25.0112C62.0521 40.9512 50.9485 56.521 34.8604 59.3339C32.3189 59.7781 27.1866 59.7781 24.7931 59.3339ZM36.0202 56.2989C41.0538 54.9665 44.9771 52.7457 48.5303 49.1926C56.7964 40.9758 58.7951 28.4163 53.49 17.8802C50.4796 11.8596 45.2979 7.31941 38.6357 4.80257C33.454 2.85325 26.8411 2.7052 21.6593 4.43245C17.2918 5.88826 14.0841 7.83758 10.7777 11.07C5.37387 16.3257 2.68431 22.6178 2.68431 30.0942C2.68431 37.8915 5.47257 44.3316 11.1971 49.7848C15.0711 53.4613 19.3398 55.6327 24.5462 56.6197C27.3593 57.1379 33.528 56.9651 36.0202 56.2989Z" fill="#CE9C7D"/>
</svg>
