<svg width="11" height="19" viewBox="0 0 11 19" fill="none" xmlns="http://www.w3.org/2000/svg">
<path d="M6.375 0C5.36055 0 4.38764 0.40299 3.67032 1.12032C2.95299 1.83764 2.55 2.81055 2.55 3.825V6.8H0.425C0.312283 6.8 0.204183 6.84478 0.12448 6.92448C0.0447767 7.00418 0 7.11228 0 7.225V10.625C0 10.7377 0.0447767 10.8458 0.12448 10.9255C0.204183 11.0052 0.312283 11.05 0.425 11.05H2.55V18.275C2.55 18.3877 2.59478 18.4958 2.67448 18.5755C2.75418 18.6552 2.86228 18.7 2.975 18.7H6.375C6.48772 18.7 6.59582 18.6552 6.67552 18.5755C6.75522 18.4958 6.8 18.3877 6.8 18.275V11.05H8.925C9.0198 11.05 9.11187 11.0183 9.18657 10.9599C9.26127 10.9015 9.31431 10.8198 9.33725 10.7279L10.1873 7.32785C10.2029 7.26521 10.204 7.19984 10.1906 7.13669C10.1772 7.07354 10.1496 7.01428 10.1098 6.9634C10.0701 6.91253 10.0193 6.87137 9.96128 6.84305C9.90326 6.81474 9.83956 6.80002 9.775 6.8H6.8V5.525C6.8 5.18685 6.93433 4.86255 7.17344 4.62344C7.41255 4.38433 7.73685 4.25 8.075 4.25H9.775C9.88772 4.25 9.99582 4.20522 10.0755 4.12552C10.1552 4.04582 10.2 3.93772 10.2 3.825V0.425C10.2 0.312283 10.1552 0.204183 10.0755 0.12448C9.99582 0.0447766 9.88772 0 9.775 0H6.375Z" fill="#5C4033"/>
</svg>
