<svg width="1439" height="195" viewBox="0 0 1439 195" fill="none" xmlns="http://www.w3.org/2000/svg">
<g clip-path="url(#clip0_93_834)">
<path d="M274.203 9.74765C279.128 -7.59481 300.59 -1.23535 307.257 24.2025C314.21 49.6236 291.895 83.7243 259.695 83.7243C227.494 83.7243 216.772 69.5699 184.572 69.5699C170.935 69.5699 170.935 82.5726 170.935 86.612V192.953C170.935 219.543 192.982 222.13 192.982 238.037C192.982 246.416 186.884 251.324 178.776 251.324C169.494 251.324 153.545 248.436 141.365 248.436C129.185 248.436 113.521 251.324 104.24 251.324C96.1143 251.324 90.0328 246.416 90.0328 238.037C90.0328 222.147 112.08 219.543 112.08 192.953V87.4799C112.08 70.7217 85.1073 62.0588 66.5445 66.9661C36.6732 74.761 46.8258 88.3479 63.0598 101.067C82.7786 116.673 79.0091 136.319 67.1142 148.17C50.5785 164.645 21.2936 157.417 6.50034 130.26C-16.1 88.0641 22.7511 45.0001 83.0801 45.0001C96.131 45.0001 130.358 47.8877 141.382 47.8877C203.453 47.8877 269.579 27.0901 274.22 9.74765H274.203Z" fill="#5C4033"/>
<path d="M349.61 146.718C353.095 159.721 345.556 164.345 335.403 170.12L274.203 205.372C282.027 212.6 293.051 217.223 306.973 217.223C344.383 217.223 359.176 181.387 366.715 188.614C375.712 197.861 346.712 252.192 284.054 252.192C239.976 252.192 204.291 220.695 204.291 181.687C204.291 142.679 239.959 111.182 284.054 111.182C324.363 111.182 346.125 133.716 349.593 146.718H349.61ZM286.969 173.007C311.044 159.137 290.739 129.092 271.305 134.283C255.925 138.322 251.586 165.496 261.437 187.746L286.952 173.007H286.969Z" fill="#5C4033"/>
<path d="M619.038 325C539.862 325 505.634 261.722 481.275 171.572C476.634 154.229 471.709 146.718 462.997 146.718C452.56 146.718 443.563 158.569 443.563 173.591V192.953C443.563 219.242 458.926 222.13 458.926 238.037C458.926 246.132 453.129 251.324 444.719 251.324C436.309 251.324 427.027 248.436 415.719 248.152C404.695 248.436 395.414 251.324 386.719 251.324C378.593 251.324 372.512 246.116 372.512 238.037C372.512 222.147 388.176 219.259 388.176 192.953V104.539C388.176 85.4602 372.512 80.8367 372.512 72.758C372.512 64.6793 380.336 58.0194 402.668 51.9604C413.105 49.3565 430.797 42.9971 435.438 42.9971C443.563 43.2808 443.563 49.924 443.563 59.1711V138.923C454 125.637 467.353 114.937 487.641 114.937C517.228 114.937 529.123 136.035 534.919 157.417C552.611 223.015 545.357 282.236 576.686 290.632C594.662 295.539 610.326 271.854 640.483 271.854C673.252 271.854 668.913 325.016 619.021 325.016L619.038 325Z" fill="#5C4033"/>
<path d="M590.625 251.324C582.499 251.324 576.418 246.116 576.418 238.037C576.418 222.147 592.082 219.259 592.082 192.953V176.195C592.082 157.117 576.418 152.493 576.418 144.415C576.418 136.336 584.241 129.676 606.574 123.617C617.011 121.013 634.703 114.654 639.343 114.954C647.469 114.954 647.469 121.597 647.469 130.844V192.97C647.469 219.259 662.832 222.147 662.832 238.054C662.832 246.149 657.035 251.34 648.625 251.34C640.215 251.34 630.933 248.453 619.909 248.169C608.601 248.453 599.32 251.34 590.625 251.34V251.324ZM621.367 43.2642C630.648 43.2642 634.703 53.9634 641.371 59.1545C647.754 64.0618 657.906 67.5336 657.906 75.3285C657.906 83.1234 647.754 86.879 641.371 91.803C634.703 97.0108 630.632 107.693 621.367 107.693C612.102 107.693 608.031 96.9941 601.363 91.803C594.98 86.8957 584.543 83.4239 584.543 75.3285C584.543 67.2331 594.98 64.0618 601.363 59.1545C608.031 53.9467 612.102 43.2642 621.367 43.2642Z" fill="#5C4033"/>
<path d="M687.191 104.522C687.191 85.744 671.527 80.82 671.527 73.0251C671.527 65.2302 679.35 58.2865 701.984 52.2275C712.422 49.3399 730.113 43.2642 734.754 43.2642C742.578 43.2642 742.578 50.1911 742.578 59.4382V192.937C742.578 219.526 758.242 222.113 758.242 238.02C758.242 246.116 752.144 251.307 744.035 251.307C735.34 251.307 726.344 248.703 715.035 248.419C703.727 248.703 694.73 251.307 686.035 251.307C677.34 251.307 671.828 246.099 671.828 238.02C671.828 222.13 687.208 219.526 687.208 192.937V104.522H687.191Z" fill="#5C4033"/>
<path d="M782.618 104.522C782.618 85.744 766.954 80.82 766.954 73.0251C766.954 65.2302 774.778 58.2865 797.412 52.2275C807.849 49.3399 825.541 43.2642 830.181 43.2642C838.005 43.2642 838.005 50.1911 838.005 59.4382V192.937C838.005 219.526 853.67 222.113 853.67 238.02C853.67 246.116 847.571 251.307 839.463 251.307C830.768 251.307 821.771 248.703 810.463 248.419C799.154 248.703 790.158 251.307 781.462 251.307C772.767 251.307 767.256 246.099 767.256 238.02C767.256 222.13 782.618 219.526 782.618 192.937V104.522Z" fill="#5C4033"/>
<path d="M1028.26 198.729C1028.26 217.223 1035.51 215.203 1040.72 224.15C1045.65 232.813 1026.21 251.891 991.701 251.891C978.65 251.891 972.552 241.776 972.552 231.093V227.338C956.016 246.984 927.887 251.891 917.148 251.891C817.382 251.891 867.843 110.881 957.172 110.881C1004.74 110.881 1028.22 125.036 1028.22 135.735V198.729H1028.26ZM972.585 150.474C972.585 139.774 965.331 132.263 955.179 132.263C938.073 132.263 918.338 158.268 918.338 194.389C918.338 232.813 972.569 222.998 972.569 179.934V150.457L972.585 150.474Z" fill="#5C4033"/>
<path d="M1007.38 40.6772C1069.45 40.6772 1110.63 71.0224 1119.63 141.527C1130.37 127.072 1144.27 114.938 1165.74 114.938C1195.02 114.938 1207.22 136.036 1212.71 157.418L1225.18 202.785C1230.1 221.863 1239.68 219.259 1244.9 227.922C1249.82 236.886 1230.69 255.947 1195.87 255.947C1175.85 255.947 1177.9 240.641 1175.28 231.094L1159.34 171.572C1154.69 154.229 1149.47 146.718 1140.77 146.718C1130.62 146.718 1121.62 158.569 1121.62 173.592V192.954C1121.62 219.243 1136.99 222.13 1136.99 238.037C1136.99 246.133 1131.19 251.324 1122.78 251.324C1114.37 251.324 1105.09 248.436 1093.78 248.152C1082.47 248.436 1073.47 251.324 1064.78 251.324C1056.65 251.324 1050.57 246.116 1050.57 238.037C1050.57 222.147 1065.95 219.259 1065.95 192.954V172.724C1065.95 16.4078 1042.46 93.8396 985.904 93.8396C953.419 93.8396 957.49 40.6772 1007.37 40.6772H1007.38Z" fill="#5C4033"/>
<path d="M1431.16 136.887C1441.9 155.665 1432.9 161.44 1425.36 161.44C1412.6 161.44 1392.01 133.699 1364.16 133.699C1354.88 133.699 1348.78 134.567 1348.78 141.494C1348.78 154.78 1438.98 178.766 1438.98 215.17C1438.98 241.459 1411.42 256.782 1386.19 256.782C1365.32 256.782 1340.66 248.119 1333.99 248.119C1327.32 248.119 1325.29 252.158 1318.33 252.158C1311.36 252.158 1310.2 249.271 1299.18 230.493C1288.44 211.715 1297.43 205.939 1305.27 205.939C1318.04 205.939 1349.94 238.02 1377.48 238.02C1386.76 238.02 1392.84 237.153 1392.84 230.509C1392.84 210.58 1302.64 203.069 1302.64 156.833C1302.64 130.244 1330.19 115.221 1355.43 115.221C1371.1 115.221 1389.66 119.261 1396.33 119.261C1403 119.261 1405.02 115.221 1411.99 115.221C1418.96 115.221 1420.12 118.109 1431.14 136.887H1431.16Z" fill="#5C4033"/>
<path d="M1309.55 41.5449C1319.48 81.9884 1290.87 121.297 1249.05 123.934C1248.43 123.984 1247.14 124.051 1246.5 124.034C1246.32 123.417 1246.05 122.198 1245.93 121.564C1237.36 80.7032 1267.78 42.7467 1309.55 41.5449Z" fill="#F39F29"/>
</g>
<defs>
<clipPath id="clip0_93_834">
<rect width="1439" height="325" fill="white"/>
</clipPath>
</defs>
</svg>
