<svg width="586" height="216" viewBox="0 0 586 216" fill="none" xmlns="http://www.w3.org/2000/svg">
<path d="M562.172 13.0531C383.375 -4.33439 203.324 -4.35101 24.5268 13.0032L23.9796 13.0586C9.03882 13.8895 -1.94426 27.4328 0.288836 42.2611L7.23134 88.275C16.8712 152.153 69.7138 200.615 134.059 204.587C150.796 205.617 167.544 206.486 184.293 207.195C186.089 212.33 190.964 216.008 196.702 216.008H389.29C395.022 216.008 399.897 212.33 401.693 207.201C418.497 206.492 435.289 205.622 452.076 204.587C516.422 200.615 569.264 152.158 578.904 88.275L585.692 43.308C587.953 28.3301 577.213 14.5154 562.167 13.0531H562.172Z" fill="#5C4033"/>
<path d="M146.087 54.0542C147.712 48.299 154.793 50.4094 156.993 58.8511C159.287 67.2873 151.924 78.6038 141.3 78.6038C130.676 78.6038 127.139 73.9066 116.515 73.9066C112.016 73.9066 112.016 78.2216 112.016 79.5621V114.852C112.016 123.676 119.29 124.535 119.29 129.813C119.29 132.594 117.278 134.223 114.602 134.223C111.54 134.223 106.278 133.264 102.26 133.264C98.2412 133.264 93.073 134.223 90.0108 134.223C87.33 134.223 85.3235 132.594 85.3235 129.813C85.3235 124.54 92.5976 123.676 92.5976 114.852V79.8501C92.5976 74.2888 83.6984 71.4139 77.574 73.0425C67.7185 75.6293 71.0682 80.1381 76.4243 84.359C82.9301 89.5381 81.6864 96.0577 77.7619 99.9905C72.3063 105.458 62.6443 103.059 57.7635 94.047C50.3015 80.0495 63.1197 65.7585 83.0241 65.7585C87.33 65.7585 98.6226 66.7167 102.26 66.7167C122.739 66.7167 144.556 59.8149 146.087 54.0597V54.0542Z" fill="#EFE5D5"/>
<path d="M170.966 99.5086C172.116 103.824 169.628 105.358 166.279 107.275L146.087 118.973C148.668 121.372 152.305 122.906 156.899 122.906C169.242 122.906 174.122 111.013 176.61 113.412C179.578 116.481 170.01 134.511 149.337 134.511C134.794 134.511 123.021 124.058 123.021 111.113C123.021 98.1681 134.789 87.7157 149.337 87.7157C162.636 87.7157 169.816 95.1936 170.961 99.5086H170.966ZM150.293 108.233C158.236 103.63 151.537 93.6593 145.125 95.3819C140.051 96.7224 138.619 105.74 141.869 113.124L150.288 108.233H150.293Z" fill="#EFE5D5"/>
<path d="M259.859 158.673C233.736 158.673 222.443 137.674 214.406 107.756C212.875 102.001 211.25 99.5086 208.376 99.5086C204.932 99.5086 201.964 103.441 201.964 108.427V114.852C201.964 123.576 207.033 124.535 207.033 129.813C207.033 132.5 205.12 134.223 202.346 134.223C199.571 134.223 196.509 133.264 192.777 133.17C189.14 133.264 186.078 134.223 183.209 134.223C180.529 134.223 178.522 132.494 178.522 129.813C178.522 124.54 183.69 123.582 183.69 114.852V85.5111C183.69 79.1799 178.522 77.6455 178.522 74.9646C178.522 72.2836 181.103 70.0735 188.472 68.0627C191.915 67.1986 197.752 65.0882 199.283 65.0882C201.964 65.1824 201.964 67.387 201.964 70.4557V96.9218C205.408 92.5127 209.813 88.962 216.507 88.962C226.268 88.962 230.193 95.9636 232.105 103.059C237.942 124.828 235.549 144.481 245.885 147.267C251.816 148.896 256.985 141.036 266.934 141.036C277.746 141.036 276.314 158.678 259.853 158.678L259.859 158.673Z" fill="#EFE5D5"/>
<path d="M250.479 134.217C247.798 134.217 245.791 132.489 245.791 129.808C245.791 124.535 250.96 123.576 250.96 114.847V109.285C250.96 102.954 245.791 101.42 245.791 98.7387C245.791 96.0577 248.373 93.8476 255.741 91.8369C259.184 90.9728 265.021 88.8623 266.553 88.962C269.233 88.962 269.233 91.1666 269.233 94.2353V114.852C269.233 123.576 274.302 124.535 274.302 129.813C274.302 132.5 272.39 134.223 269.615 134.223C266.84 134.223 263.778 133.264 260.141 133.17C256.41 133.264 253.347 134.223 250.479 134.223V134.217ZM260.622 65.1768C263.684 65.1768 265.021 68.7274 267.221 70.4501C269.327 72.0786 272.677 73.2308 272.677 75.8176C272.677 78.4044 269.327 79.6507 267.221 81.2847C265.021 83.013 263.678 86.558 260.622 86.558C257.565 86.558 256.222 83.0074 254.022 81.2847C251.916 79.6562 248.472 78.5041 248.472 75.8176C248.472 73.1311 251.916 72.0786 254.022 70.4501C256.222 68.7219 257.565 65.1768 260.622 65.1768Z" fill="#EFE5D5"/>
<path d="M282.345 85.5056C282.345 79.274 277.176 77.64 277.176 75.0532C277.176 72.4664 279.758 70.1621 287.225 68.1514C290.669 67.1931 296.506 65.1768 298.037 65.1768C300.618 65.1768 300.618 67.4756 300.618 70.5443V114.847C300.618 123.67 305.787 124.529 305.787 129.808C305.787 132.494 303.775 134.217 301.099 134.217C298.23 134.217 295.262 133.353 291.531 133.259C287.8 133.353 284.832 134.217 281.963 134.217C279.094 134.217 277.276 132.489 277.276 129.808C277.276 124.535 282.35 123.67 282.35 114.847V85.5056H282.345Z" fill="#EFE5D5"/>
<path d="M313.823 85.5056C313.823 79.274 308.655 77.64 308.655 75.0532C308.655 72.4664 311.237 70.1621 318.704 68.1514C322.148 67.1931 327.985 65.1768 329.516 65.1768C332.097 65.1768 332.097 67.4756 332.097 70.5443V114.847C332.097 123.67 337.265 124.529 337.265 129.808C337.265 132.494 335.253 134.217 332.578 134.217C329.709 134.217 326.741 133.353 323.01 133.259C319.279 133.353 316.311 134.217 313.442 134.217C310.573 134.217 308.755 132.489 308.755 129.808C308.755 124.535 313.823 123.67 313.823 114.847V85.5056Z" fill="#EFE5D5"/>
<path d="M394.873 116.769C394.873 122.906 397.266 122.236 398.985 125.205C400.61 128.08 394.198 134.411 382.812 134.411C378.506 134.411 376.494 131.054 376.494 127.509V126.263C371.038 132.782 361.758 134.411 358.215 134.411C325.299 134.411 341.947 87.616 371.42 87.616C387.112 87.616 394.862 92.3132 394.862 95.8638V116.769H394.873ZM376.499 100.755C376.499 97.2043 374.106 94.7117 370.756 94.7117C365.113 94.7117 358.602 103.342 358.602 115.328C358.602 128.08 376.494 124.823 376.494 110.532V100.749L376.499 100.755Z" fill="#EFE5D5"/>
<path d="M387.98 64.3127C408.459 64.3127 422.046 74.3829 425.014 97.7804C428.557 92.9835 433.145 88.9565 440.226 88.9565C449.888 88.9565 453.912 95.958 455.725 103.054L459.837 118.109C461.462 124.44 464.624 123.576 466.343 126.451C467.968 129.426 461.656 135.751 450.169 135.751C443.564 135.751 444.239 130.672 443.376 127.504L438.114 107.751C436.583 101.996 434.858 99.5031 431.99 99.5031C428.64 99.5031 425.672 103.436 425.672 108.421V114.847C425.672 123.571 430.74 124.529 430.74 129.808C430.74 132.494 428.828 134.217 426.053 134.217C423.278 134.217 420.216 133.259 416.485 133.165C412.754 133.259 409.786 134.217 406.917 134.217C404.236 134.217 402.23 132.489 402.23 129.808C402.23 124.535 407.304 123.576 407.304 114.847V108.133C407.304 56.2588 399.554 81.955 380.894 81.955C370.176 81.955 371.519 64.3127 387.974 64.3127H387.98Z" fill="#EFE5D5"/>
<path d="M527.803 96.2461C531.346 102.478 528.378 104.394 525.89 104.394C521.678 104.394 514.885 95.1881 505.698 95.1881C502.636 95.1881 500.624 95.4761 500.624 97.7749C500.624 102.184 530.384 110.144 530.384 122.225C530.384 130.949 521.291 136.034 512.967 136.034C506.08 136.034 497.943 133.159 495.743 133.159C493.544 133.159 492.875 134.5 490.575 134.5C488.276 134.5 487.894 133.541 484.257 127.31C480.714 121.078 483.683 119.162 486.269 119.162C490.481 119.162 501.006 129.808 510.093 129.808C513.155 129.808 515.161 129.52 515.161 127.315C515.161 120.701 485.402 118.209 485.402 102.865C485.402 94.0415 494.489 89.0562 502.819 89.0562C507.987 89.0562 514.111 90.3967 516.311 90.3967C518.511 90.3967 519.18 89.0562 521.479 89.0562C523.779 89.0562 524.16 90.0145 527.797 96.2461H527.803Z" fill="#EFE5D5"/>
<path d="M487.679 64.6063C490.957 78.0277 481.516 91.0725 467.719 91.9477C467.515 91.9643 467.089 91.9864 466.879 91.9809C466.818 91.7759 466.73 91.3716 466.691 91.1611C463.861 77.6012 473.899 65.0051 487.679 64.6063Z" fill="#F39F29"/>
</svg>
