<svg width="125" height="61" viewBox="0 0 125 61" fill="none" xmlns="http://www.w3.org/2000/svg">
<path d="M117.182 23.5574C116.056 24.2604 115.066 26.4267 114.356 28.4367C113.438 31.0252 112.928 33.7512 112.954 36.4957C112.973 38.5534 113.226 40.9045 114.133 42.3575M114.133 42.3575C113.226 40.9045 111.224 39.643 109.385 38.7234C106.929 37.496 104.256 36.7567 101.53 36.4434C99.4114 36.199 97.029 36.1381 95.9043 36.8402M114.133 42.3575L103.222 24.8794C96.935 14.8074 83.6711 11.739 73.5992 18.0265L66 22.7704" stroke="#5C4033"/>
<path d="M19.157 45.6211C18.6186 45.6626 18.1005 45.5772 17.6027 45.3649C17.1049 45.1526 16.6891 44.8337 16.3554 44.4081C16.0209 43.9725 15.8294 43.4407 15.7809 42.8126C15.7401 42.2841 15.8262 41.7108 16.0393 41.0926C16.2615 40.4636 16.5582 39.8239 16.9292 39.1734C17.3094 38.5122 17.7273 37.8832 18.1827 37.2863C18.6373 36.6795 19.087 36.1383 19.5317 35.6627C19.9757 35.1771 20.3721 34.7904 20.721 34.5027C21.0699 34.215 21.3191 34.0654 21.4687 34.0539C21.6581 34.0392 21.8269 34.0814 21.9749 34.1803C22.1322 34.2684 22.2238 34.4168 22.25 34.6254C22.2577 34.7251 22.2316 34.8425 22.1718 34.9775C22.1113 35.1025 21.9863 35.2375 21.7969 35.3825C21.5883 35.5391 21.3253 35.77 21.0079 36.0753C20.6904 36.3807 20.3523 36.7427 19.9935 37.1616C19.6339 37.5705 19.2819 38.0139 18.9377 38.4918C18.5927 38.9597 18.2788 39.4403 17.9959 39.9336C17.7122 40.4168 17.4926 40.8851 17.337 41.3384C17.1815 41.7917 17.1183 42.2078 17.1475 42.5867C17.193 43.175 17.3921 43.6109 17.745 43.8946C18.0979 44.1783 18.5634 44.2978 19.1417 44.2532C19.4408 44.2301 19.7882 44.118 20.1839 43.917C20.5796 43.7159 20.9811 43.4593 21.3882 43.147C21.8054 42.834 22.2007 42.4976 22.5741 42.1378C22.9467 41.768 23.2599 41.4078 23.5137 41.0572C23.7775 40.7059 23.9438 40.3922 24.0128 40.116C23.7681 40.1951 23.4591 40.2842 23.0856 40.3832C22.7121 40.4822 22.3233 40.5774 21.9191 40.6688C21.5249 40.7594 21.1648 40.8374 20.8389 40.9026C20.5129 40.9679 20.2752 41.0063 20.1256 41.0179C19.8166 41.0417 19.5661 40.9808 19.3743 40.8351C19.1925 40.6887 19.0955 40.5357 19.0832 40.3762C19.0747 40.2665 19.1115 40.1584 19.1935 40.0517C19.2756 39.9451 19.4101 39.8695 19.5973 39.825C19.8143 39.7782 20.1 39.711 20.4543 39.6234C20.8178 39.5252 21.1967 39.4307 21.5909 39.3401C21.9943 39.2388 22.3635 39.1501 22.6987 39.0741C23.0438 38.9973 23.3061 38.952 23.4855 38.9381C24.004 38.8981 24.3998 39.023 24.6729 39.3129C24.9453 39.5927 25.103 40.0118 25.1461 40.5702C25.1669 40.8394 25.0576 41.1788 24.8185 41.5884C24.5793 41.998 24.2465 42.4299 23.8202 42.8841C23.4031 43.3275 22.9292 43.7502 22.3986 44.1522C21.8779 44.5535 21.3373 44.8911 20.7767 45.1651C20.2154 45.429 19.6755 45.581 19.157 45.6211ZM28.3628 45.2866C28.2033 45.2989 28.0637 45.2445 27.944 45.1233C27.8244 45.0022 27.7557 44.827 27.738 44.5976C27.7249 44.4281 27.7382 44.1463 27.778 43.7521C27.827 43.3471 27.876 42.8769 27.9249 42.3416C27.9838 41.8054 28.0262 41.2505 28.0522 40.6768C28.0773 40.0932 28.0695 39.5371 28.0287 39.0087C28.0087 38.7495 28.0589 38.555 28.1793 38.4254C28.3088 38.285 28.4584 38.2083 28.6279 38.1952C28.7874 38.1829 28.9147 38.2733 29.0099 38.4666C29.1051 38.6598 29.1508 39.0575 29.1471 39.6595C29.5273 38.6072 29.9676 37.7507 30.4683 37.0903C30.9782 36.419 31.4969 35.9276 32.0245 35.6161C32.5513 35.2946 33.034 35.1169 33.4727 35.0831C33.7619 35.0608 33.9759 35.1044 34.1147 35.2141C34.2628 35.313 34.3422 35.4322 34.353 35.5718C34.3676 35.7612 34.2994 35.9169 34.1483 36.0389C34.0064 36.1502 33.7515 36.2902 33.3834 36.459C32.9578 36.6624 32.5693 36.893 32.2181 37.1508C31.8761 37.3978 31.5545 37.7135 31.2532 38.0978C30.9618 38.4814 30.6832 38.9643 30.4172 39.5465C30.1504 40.1187 29.8937 40.8205 29.6469 41.652C29.4002 42.4834 29.1462 43.481 28.885 44.6445C28.8421 44.8685 28.7743 45.0292 28.6815 45.1266C28.5987 45.2233 28.4925 45.2766 28.3628 45.2866ZM35.7165 44.1473C35.3376 44.1765 35.0101 44.0263 34.7339 43.6966C34.4669 43.3561 34.3114 42.9017 34.2676 42.3334C34.2291 41.8349 34.3168 41.3467 34.5306 40.8688C34.7437 40.381 35.0381 39.9069 35.4138 39.4466C35.7995 38.9856 36.2327 38.556 36.7135 38.1578C37.1935 37.7496 37.6812 37.376 38.1765 37.0369C38.6819 36.697 39.1608 36.4042 39.6132 36.1587C40.0756 35.9124 40.4721 35.7213 40.8026 35.5855C41.1324 35.4396 41.3621 35.3617 41.4917 35.3517C41.711 35.3348 41.8299 35.446 41.8484 35.6853C41.8646 35.8946 41.7941 36.0856 41.6369 36.2583C41.4897 36.4301 41.3056 36.5797 41.0848 36.7071C40.6822 36.9488 40.2229 37.235 39.7068 37.5657C39.1999 37.8856 38.6857 38.2413 38.1643 38.6325C37.6521 39.0131 37.1767 39.4159 36.7381 39.8409C36.3095 40.2651 35.9721 40.7024 35.726 41.1527C35.4792 41.593 35.3727 42.0325 35.4066 42.4712C35.4166 42.6008 35.4492 42.6986 35.5044 42.7645C35.5696 42.8297 35.672 42.8569 35.8116 42.8461C35.9911 42.8322 36.2139 42.7298 36.4799 42.5388C36.7552 42.337 37.0512 42.0784 37.3679 41.7631C37.6938 41.4371 38.0123 41.0815 38.3236 40.6964C38.6449 40.3105 38.9408 39.9216 39.2115 39.5296C39.4813 39.1277 39.6983 38.7549 39.8623 38.4112C39.9581 38.2233 40.0712 38.0641 40.2016 37.9337C40.3312 37.7933 40.4757 37.7169 40.6352 37.7046C40.8546 37.6877 40.9743 37.8088 40.9943 38.0681C41.0004 38.1478 40.9863 38.3545 40.9519 38.6882C40.9274 39.021 40.9034 39.4241 40.8797 39.8973C40.8553 40.3606 40.8627 40.8464 40.9019 41.3549C40.9858 42.4417 41.287 42.9651 41.8055 42.925C42.0946 42.9027 42.3852 42.77 42.6774 42.5268C42.9795 42.2828 43.267 41.9798 43.54 41.6177C43.8221 41.2449 44.0778 40.854 44.307 40.4452C44.5362 40.0363 44.7271 39.6505 44.8796 39.2877C45.0322 38.9249 45.1353 38.6361 45.1889 38.4213C45.2622 37.2923 45.4246 36.4724 45.676 35.9615C45.9374 35.4499 46.2227 35.1821 46.5318 35.1583C46.7312 35.1429 46.8949 35.1854 47.023 35.2858C47.1504 35.3763 47.2275 35.596 47.2544 35.945C47.2729 36.1843 47.2059 36.5505 47.0534 37.0437C46.9009 37.5369 46.6871 38.08 46.4119 38.6729C46.3614 39.1883 46.352 39.7156 46.3835 40.2548C46.4151 40.794 46.5081 41.2833 46.6623 41.7227C46.9116 41.5731 47.1527 41.3188 47.3858 40.9598C47.6181 40.5908 47.8511 40.1666 48.0849 39.6872C48.3187 39.2078 48.5464 38.7138 48.7679 38.2052C48.9994 37.6959 49.2289 37.2268 49.4566 36.798C49.6935 36.3585 49.9266 35.9995 50.1558 35.721C50.395 35.4418 50.6393 35.2926 50.8885 35.2733C51.2076 35.2487 51.4795 35.328 51.7043 35.5113C51.9283 35.6845 52.1139 36.0112 52.2613 36.4913C52.4079 36.9614 52.5151 37.6351 52.5828 38.5125C52.619 38.9811 52.6977 39.4164 52.819 39.8182C52.9503 40.2193 53.1302 40.5364 53.3588 40.7695C53.5967 40.9919 53.8851 41.09 54.2241 41.0638C54.7325 41.0245 55.1793 40.8998 55.5642 40.6895C55.9484 40.4693 56.2762 40.2334 56.5477 39.9818C56.8283 39.7194 57.0614 39.4908 57.247 39.2959C57.4317 39.0911 57.579 38.9844 57.6886 38.976C57.918 38.9583 58.0419 39.0691 58.0603 39.3083C58.068 39.4081 58.0056 39.5734 57.8729 39.8042C57.7495 40.0244 57.5686 40.2791 57.3301 40.5683C57.1009 40.8468 56.8314 41.1233 56.5216 41.398C56.221 41.6619 55.8924 41.8878 55.5358 42.0758C55.1892 42.2631 54.8315 42.3709 54.4625 42.3994C53.7746 42.4525 53.2009 42.3614 52.7414 42.1261C52.2919 41.8899 51.9386 41.4709 51.6815 40.8689C51.4344 40.2661 51.2708 39.4463 51.1908 38.4094C51.1469 37.8411 51.095 37.4288 51.0351 37.1727C50.9745 36.9066 50.8609 36.7348 50.6945 36.6574C50.591 36.876 50.4545 37.1874 50.2852 37.5916C50.125 37.9851 49.9383 38.4258 49.7252 38.9136C49.5221 39.4007 49.2994 39.8943 49.0572 40.3944C48.8142 40.8846 48.5635 41.3402 48.3052 41.7614C48.0461 42.1725 47.7815 42.5139 47.5116 42.7855C47.241 43.0471 46.976 43.1879 46.7168 43.2079C46.5473 43.221 46.3659 43.1447 46.1726 42.9791C45.9785 42.8035 45.8101 42.5708 45.6673 42.2809C45.5238 41.9811 45.4386 41.6567 45.4117 41.3077C45.394 41.0784 45.3824 40.8637 45.377 40.6635C45.0129 41.2733 44.6257 41.8448 44.2155 42.378C43.8046 42.9011 43.3863 43.3296 42.9607 43.6633C42.5351 43.9971 42.1279 44.179 41.7391 44.209C41.43 44.2328 41.1324 44.1455 40.8463 43.9469C40.5594 43.7384 40.3104 43.3714 40.0993 42.8461C39.8975 42.3101 39.7504 41.5742 39.6581 40.6385C39.2671 41.2906 38.8459 41.8747 38.3942 42.391C37.9426 42.9073 37.4883 43.3235 37.0313 43.6396C36.5735 43.9457 36.1352 44.115 35.7165 44.1473ZM59.0054 42.7859C58.4172 42.8313 57.9362 42.6428 57.5626 42.2203C57.189 41.7978 56.9745 41.2276 56.9191 40.5097C56.899 40.2505 56.9128 39.9736 56.9603 39.6791C57.0169 39.3738 57.0959 39.0969 57.197 38.8484C57.1218 38.784 57.0597 38.6935 57.0106 38.577C56.9607 38.4504 56.9284 38.2924 56.9138 38.103C56.8684 37.5148 56.9266 36.9687 57.0883 36.4647C57.2499 35.9608 57.4815 35.5167 57.7828 35.1323C58.0833 34.738 58.4253 34.4258 58.8087 34.1956C59.2021 33.9646 59.6082 33.833 60.0269 33.8007C60.7149 33.7476 61.2925 33.9537 61.7597 34.4191C62.2261 34.8746 62.4982 35.6058 62.5759 36.6128C62.6167 37.1413 62.5785 37.6858 62.4613 38.2465C62.3541 38.8064 62.1855 39.351 61.9555 39.8803C61.7356 40.4088 61.4665 40.8859 61.1483 41.3116C60.8401 41.7366 60.5008 42.0838 60.1304 42.3531C59.7693 42.6116 59.3943 42.7559 59.0054 42.7859ZM58.1448 38.2637C58.2108 38.3389 58.2488 38.4413 58.2588 38.5709C58.2704 38.7204 58.252 38.8723 58.2037 39.0265C58.1654 39.1799 58.1263 39.3885 58.0865 39.6524C58.0467 39.9162 58.0453 40.2874 58.0822 40.766C58.1192 41.2446 58.3271 41.4692 58.7059 41.44C59.1247 41.4077 59.5008 41.2131 59.8344 40.8564C60.1671 40.4897 60.4527 40.0314 60.6911 39.4814C60.9295 38.9314 61.1004 38.3516 61.2037 37.7418C61.3163 37.1213 61.3518 36.5418 61.3103 36.0034C61.2833 35.6545 61.1997 35.4152 61.0593 35.2856C60.9181 35.1461 60.6781 35.0894 60.3391 35.1155C59.9901 35.1425 59.6354 35.2902 59.275 35.5587C58.9238 35.8165 58.639 36.1545 58.4205 36.5725C58.202 36.9906 58.112 37.4489 58.1505 37.9474C58.159 38.057 58.1571 38.1625 58.1448 38.2637ZM67.558 42.5771C66.7903 42.6364 66.1679 42.4337 65.6907 41.969C65.2227 41.4936 64.9537 40.8023 64.8837 39.895C64.8406 39.3366 64.865 38.6778 64.9568 37.9185C65.0578 37.1484 65.1957 36.3354 65.3703 35.4794C65.5541 34.6127 65.7587 33.7544 65.984 32.9046C66.2092 32.0547 66.4291 31.2654 66.6437 30.5368C66.8675 29.7973 67.0656 29.1803 67.238 28.6855C67.3369 28.4071 67.496 28.2594 67.7153 28.2425C68.0144 28.2194 68.1782 28.3923 68.2067 28.7612C68.2159 28.8808 68.1799 29.1294 68.0987 29.5067C68.0175 29.8841 67.9084 30.3539 67.7712 30.9161C67.6333 31.4684 67.4851 32.0816 67.3265 32.7558C67.1679 33.43 67.0059 34.1245 66.8404 34.8394C66.6841 35.5435 66.5424 36.2415 66.4153 36.9333C66.2874 37.6152 66.1913 38.2545 66.127 38.8512C66.0628 39.4479 66.0468 39.9556 66.0791 40.3744C66.0999 40.6436 66.1862 40.8526 66.3381 41.0013C66.4992 41.1393 66.7044 41.1987 66.9537 41.1795C67.4123 41.1441 67.864 41.0189 68.3088 40.8041C68.7628 40.5785 69.1938 40.3145 69.6017 40.0122C70.0089 39.7 70.3766 39.3958 70.7047 39.0996C71.0421 38.7927 71.3285 38.54 71.5639 38.3412C71.7986 38.1326 71.9657 38.0244 72.0654 38.0167C72.2848 37.9998 72.4037 38.1109 72.4222 38.3502C72.4283 38.43 72.3601 38.5857 72.2175 38.8174C72.0741 39.039 71.879 39.3049 71.6321 39.6148C71.3853 39.9247 71.0943 40.248 70.7592 40.5848C70.4333 40.9109 70.0864 41.2235 69.7183 41.5227C69.3594 41.8112 68.9917 42.0502 68.6152 42.2397C68.2494 42.4385 67.897 42.5509 67.558 42.5771ZM72.9468 41.9505C72.5679 41.9798 72.2404 41.8295 71.9642 41.4998C71.6972 41.1593 71.5417 40.705 71.4979 40.1367C71.4571 39.6082 71.5463 39.0748 71.7655 38.5363C71.9947 37.9971 72.3102 37.4712 72.7119 36.9588C73.1137 36.4464 73.5584 35.9707 74.0461 35.5319C74.533 35.0831 75.0241 34.6891 75.5195 34.35C76.0248 34.0101 76.4903 33.7385 76.9159 33.5351C77.3415 33.3317 77.6839 33.2201 77.9432 33.2001C78.0827 33.1893 78.1997 33.2103 78.2941 33.2632C78.3876 33.3062 78.4398 33.3974 78.4506 33.537C78.4575 33.6267 78.4292 33.7142 78.3655 33.7993C78.3755 33.7986 78.3855 33.7978 78.3954 33.797C78.6148 33.7801 78.7345 33.9012 78.7545 34.1605C78.7614 34.2502 78.7407 34.4373 78.6925 34.7219C78.6435 34.9965 78.5899 35.3416 78.5317 35.7573C78.4735 36.1731 78.4288 36.6329 78.3975 37.1368C78.3654 37.6307 78.369 38.1319 78.4082 38.6404C78.4413 39.0691 78.6224 39.2708 78.9514 39.2454C79.3203 39.2169 79.6876 39.1033 80.0534 38.9046C80.4192 38.7058 80.7723 38.473 81.1128 38.206C81.4525 37.929 81.7627 37.6593 82.0433 37.397C82.3232 37.1246 82.5613 36.8956 82.7576 36.7099C82.9538 36.5243 83.0969 36.428 83.1866 36.4211C83.2664 36.4149 83.3381 36.4345 83.4017 36.4797C83.4654 36.5249 83.5015 36.6024 83.5099 36.712C83.5176 36.8118 83.4318 36.9989 83.2524 37.2735C83.073 37.5482 82.8315 37.8627 82.5279 38.2171C82.2242 38.5715 81.88 38.919 81.495 39.2597C81.1101 39.6003 80.711 39.8869 80.2976 40.1194C79.8843 40.3519 79.4832 40.4831 79.0944 40.5131C78.7953 40.5362 78.5142 40.4677 78.251 40.3074C77.9971 40.1365 77.7781 39.8324 77.5939 39.3953C77.4197 38.9574 77.3022 38.3446 77.2414 37.557L77.2125 37.1831C76.7863 38.0284 76.3298 38.8058 75.843 39.5154C75.3661 40.2242 74.8788 40.7984 74.3812 41.238C73.8935 41.6769 73.4154 41.9144 72.9468 41.9505ZM77.7421 34.2988C77.6938 34.3226 77.6263 34.3579 77.5397 34.4047C77.0972 34.6495 76.6386 34.9456 76.164 35.2932C75.6993 35.64 75.2472 36.0209 74.8079 36.4359C74.3785 36.8502 73.9951 37.276 73.6578 37.7132C73.3204 38.1505 73.0582 38.587 72.8712 39.0227C72.6842 39.4583 72.6061 39.8756 72.6369 40.2744C72.6469 40.404 72.6795 40.5018 72.7347 40.5677C72.7999 40.6329 72.9023 40.6601 73.0419 40.6493C73.2413 40.634 73.4909 40.4893 73.7907 40.2154C74.0898 39.9316 74.4126 39.5656 74.7591 39.1176C75.1156 38.6689 75.4687 38.1752 75.8183 37.6367C76.1679 37.0982 76.4972 36.5563 76.8061 36.0109C77.125 35.4647 77.3972 34.9623 77.6225 34.5036C77.657 34.4307 77.6969 34.3625 77.7421 34.2988Z" fill="#5C4033"/>
</svg>
