<svg width="120" height="59" viewBox="0 0 120 59" fill="none" xmlns="http://www.w3.org/2000/svg">
<path d="M7.59013 23.5577C8.71633 24.2607 9.70638 26.4269 10.4158 28.437C11.3345 31.0254 11.8442 33.7514 11.8185 36.4959C11.7991 38.5537 11.5459 40.9048 10.6388 42.3577M10.6388 42.3577C11.5459 40.9048 13.5479 39.6432 15.3871 38.7236C17.843 37.4962 20.5159 36.757 23.2418 36.4437C25.3607 36.1992 27.7432 36.1383 28.8679 36.8404M10.6388 42.3577L21.5497 24.8796C27.8372 14.8076 41.101 11.7393 51.173 18.0268L58.7722 22.7706" stroke="#5C4033"/>
<path d="M50.4232 39.9249C50.5329 39.9164 50.641 39.9532 50.7477 40.0352C50.8543 40.1173 50.9153 40.258 50.9307 40.4574C50.943 40.6169 50.838 40.8156 50.6156 41.0534C50.3925 41.2813 50.0992 41.5095 49.7357 41.7382C49.3822 41.966 48.9961 42.1613 48.5774 42.324C48.1594 42.4967 47.761 42.5977 47.3821 42.6269C46.8437 42.6685 46.3245 42.5681 45.8243 42.3259C45.3342 42.0829 44.9192 41.7087 44.5793 41.2034C44.2386 40.6881 44.0386 40.0466 43.9794 39.2789C43.927 38.6009 43.9993 37.9133 44.1963 37.2161C44.3932 36.5188 44.6718 35.8404 45.0321 35.1807C45.4024 34.5202 45.816 33.9016 46.2729 33.3247C46.7399 32.747 47.2122 32.2392 47.6899 31.8011C48.1676 31.3631 48.6173 31.0174 49.0391 30.7642C49.4701 30.5003 49.8301 30.3571 50.1193 30.3348C50.3187 30.3194 50.484 30.3819 50.6151 30.5222C50.7555 30.6518 50.8323 30.8013 50.8454 30.9708C50.853 31.0705 50.8308 31.1725 50.7787 31.2769C50.7366 31.3804 50.653 31.4671 50.528 31.5369C49.9045 31.906 49.278 32.3656 48.6485 32.9157C48.019 33.4657 47.4447 34.0818 46.9256 34.7637C46.4058 35.4357 45.9999 36.1541 45.7079 36.9188C45.4151 37.6736 45.2999 38.4548 45.3622 39.2624C45.4161 39.9603 45.6218 40.481 45.9793 40.8245C46.336 41.1581 46.7985 41.3029 47.3668 41.259C47.6659 41.236 47.9708 41.1573 48.2814 41.023C48.6019 40.8879 48.9014 40.7394 49.1797 40.5775C49.4673 40.4049 49.7165 40.2552 49.9274 40.1286C50.1483 40.0013 50.3135 39.9333 50.4232 39.9249ZM56.0777 41.8655C55.4894 41.9109 55.0085 41.7223 54.6349 41.2998C54.2612 40.8773 54.0467 40.3071 53.9913 39.5893C53.9713 39.33 53.985 39.0532 54.0325 38.7586C54.0892 38.4534 54.1681 38.1765 54.2693 37.928C54.1941 37.8635 54.132 37.7731 54.0828 37.6565C54.033 37.53 54.0007 37.372 53.9861 37.1825C53.9407 36.5943 53.9988 36.0482 54.1605 35.5443C54.3222 35.0403 54.5537 34.5962 54.855 34.2119C55.1556 33.8176 55.4976 33.5053 55.881 33.2751C56.2744 33.0442 56.6804 32.9125 57.0992 32.8802C57.7872 32.8271 58.3647 33.0332 58.8319 33.4987C59.2984 33.9541 59.5705 34.6854 59.6482 35.6924C59.689 36.2208 59.6508 36.7653 59.5336 37.326C59.4263 37.8859 59.2578 38.4305 59.0278 38.9598C58.8078 39.4883 58.5388 39.9654 58.2206 40.3912C57.9124 40.8161 57.5731 41.1633 57.2027 41.4326C56.8415 41.6912 56.4665 41.8354 56.0777 41.8655ZM55.2171 37.3433C55.2831 37.4184 55.3211 37.5208 55.3311 37.6504C55.3426 37.8 55.3243 37.9518 55.276 38.106C55.2377 38.2594 55.1986 38.468 55.1588 38.7319C55.119 38.9957 55.1175 39.3669 55.1545 39.8455C55.1914 40.3241 55.3993 40.5488 55.7782 40.5195C56.197 40.4872 56.5731 40.2927 56.9066 39.9359C57.2394 39.5692 57.525 39.1109 57.7634 38.5609C58.0017 38.0109 58.1726 37.4311 58.276 36.8213C58.3886 36.2008 58.4241 35.6214 58.3825 35.083C58.3556 34.734 58.2719 34.4947 58.1315 34.3651C57.9904 34.2256 57.7503 34.1689 57.4113 34.1951C57.0624 34.222 56.7077 34.3697 56.3473 34.6383C55.9961 34.8961 55.7112 35.234 55.4928 35.652C55.2743 36.0701 55.1843 36.5284 55.2228 37.0269C55.2312 37.1366 55.2293 37.242 55.2171 37.3433ZM64.2091 41.298C63.7206 41.3357 63.2883 41.2587 62.9125 41.0671C62.5458 40.8647 62.2539 40.5914 62.0368 40.247C61.8196 39.9027 61.6964 39.5411 61.6672 39.1623C61.6056 38.3646 61.689 37.626 61.9174 36.9464C62.145 36.2569 62.4486 35.6417 62.8281 35.1009C63.2168 34.5493 63.6216 34.0768 64.0426 33.6832C64.4735 33.2889 64.8665 32.9877 65.2215 32.7798C65.5858 32.5611 65.8477 32.4456 66.0072 32.4333C66.3263 32.4087 66.4981 32.5559 66.5227 32.8749C66.5343 33.0245 66.448 33.2067 66.264 33.4215C66.0792 33.6263 65.8423 33.8703 65.5532 34.1533C65.2642 34.4364 64.9578 34.756 64.6343 35.1119C64.3099 35.4579 64.009 35.8472 63.7315 36.2799C63.4532 36.7025 63.2336 37.1708 63.0727 37.6847C62.911 38.1887 62.8528 38.7348 62.8982 39.323C62.9444 39.9212 63.2118 40.2015 63.7003 40.1638C64.149 40.1291 64.6011 40.009 65.0566 39.8033C65.5221 39.5969 65.9738 39.3414 66.4116 39.0368C66.8587 38.7214 67.285 38.3977 67.6906 38.0655C68.0963 37.7332 68.4632 37.4191 68.7914 37.1229C69.1188 36.8168 69.3956 36.5698 69.6218 36.3818C69.848 36.1939 70.011 36.096 70.1107 36.0883C70.3101 36.073 70.4182 36.1749 70.4352 36.3943C70.4483 36.5638 70.3509 36.797 70.1431 37.0938C69.9354 37.3907 69.6498 37.7186 69.2863 38.0777C68.9229 38.4367 68.5149 38.8042 68.0625 39.1801C67.6094 39.5461 67.1493 39.8875 66.6823 40.2044C66.2145 40.5113 65.7628 40.7668 65.3272 40.971C64.9009 41.1643 64.5281 41.2734 64.2091 41.298ZM78.5071 40.5253C78.2179 40.5476 78.0062 40.4687 77.872 40.2885C77.7377 40.1083 77.6529 39.7889 77.6175 39.3302C77.589 38.9613 77.5985 38.4992 77.6459 37.9439C77.7032 37.3879 77.7763 36.7754 77.8651 36.1066C77.9531 35.4278 78.0446 34.7287 78.1395 34.0093C77.5952 34.8838 76.9734 35.5987 76.2741 36.1542C75.5839 36.6989 74.801 37.0803 73.9251 37.2984C73.7535 37.8031 73.5484 38.2652 73.31 38.6848C73.0716 39.1044 72.8021 39.4462 72.5015 39.7101C72.201 39.974 71.8762 40.1194 71.5272 40.1464C71.0985 40.1795 70.7211 40.0331 70.3951 39.7072C70.079 39.3805 69.8952 38.8832 69.8436 38.2152C69.8082 37.7566 69.8365 37.3432 69.9284 36.975C70.0196 36.5969 70.1338 36.3223 70.271 36.1512C70.103 35.7931 70.0005 35.3747 69.9635 34.8961C69.9181 34.3079 70.0127 33.779 70.2473 33.3096C70.4811 32.8302 70.8127 32.4485 71.2421 32.1646C71.6708 31.8708 72.1443 31.7038 72.6628 31.6638C73.0815 31.6315 73.4704 31.7971 73.8295 32.1605C74.1885 32.5239 74.3961 33.0696 74.4523 33.7974C74.5046 34.4754 74.4431 35.2374 74.2677 36.0834C74.7999 35.8317 75.3236 35.4703 75.8389 34.9993C76.3641 34.5274 76.8629 33.9724 77.3352 33.3342C77.8075 32.6959 78.2249 31.9967 78.5875 31.2366C78.6833 31.0486 78.8309 30.947 79.0303 30.9316C79.2098 30.9177 79.3536 30.9618 79.4618 31.0638C79.5791 31.155 79.6447 31.2904 79.6586 31.4698C79.6624 31.5197 79.6456 31.6915 79.6081 31.9853C79.5806 32.2782 79.5393 32.6525 79.4842 33.1081C79.439 33.5629 79.3874 34.0634 79.3292 34.6095C79.2711 35.1556 79.2133 35.7067 79.156 36.2627C79.1086 36.818 79.073 37.3323 79.0494 37.8055C79.2448 37.3491 79.4671 36.8505 79.7162 36.3098C79.9654 35.769 80.2202 35.2378 80.4809 34.7162C80.7507 34.1838 81.009 33.6975 81.2559 33.2572C81.5127 32.8161 81.7412 32.4625 81.9413 32.1963C82.1506 31.9194 82.32 31.7759 82.4497 31.7659C82.6889 31.7474 82.9045 31.811 83.0963 31.9567C83.288 32.1024 83.3905 32.26 83.4035 32.4295C83.4212 32.6588 83.4233 33.0097 83.4096 33.4821C83.3951 33.9446 83.3753 34.4677 83.3502 35.0514C83.325 35.635 83.2999 36.2187 83.2747 36.8024C83.2495 37.386 83.2301 37.9141 83.2164 38.3865C83.2028 38.859 83.2048 39.2099 83.2225 39.4392C83.234 39.5888 83.1796 39.7284 83.0592 39.858C82.9388 39.9877 82.7989 40.0586 82.6394 40.0709C82.5297 40.0794 82.4323 40.0518 82.3471 39.9882C82.2727 39.9338 82.2071 39.7984 82.1503 39.5821C82.0935 39.3659 82.0474 39.0284 82.012 38.5698C81.9773 38.1211 81.9546 37.6314 81.9437 37.1007C81.9321 36.56 81.9308 36.0235 81.9398 35.4912C81.9581 34.9482 81.9856 34.4596 82.0223 34.0255C81.8222 34.4221 81.593 34.8961 81.3347 35.4476C81.0863 35.9984 80.8242 36.5652 80.5482 37.1482C80.2723 37.7312 80.0036 38.2785 79.7422 38.7901C79.4808 39.3017 79.242 39.7164 79.0258 40.0339C78.8096 40.3515 78.6367 40.5153 78.5071 40.5253ZM72.97 36.4243C73.0604 36.0362 73.124 35.6251 73.1607 35.191C73.2066 34.7461 73.2126 34.3043 73.1788 33.8656C73.1587 33.6064 73.0927 33.4009 72.9807 33.249C72.8687 33.0972 72.7279 33.0278 72.5584 33.0409C72.2992 33.0609 72.0507 33.1553 71.813 33.3241C71.5745 33.483 71.3806 33.6985 71.2311 33.9708C71.0916 34.2424 71.0356 34.5576 71.0634 34.9165C71.098 35.3652 71.2971 35.736 71.6607 36.0289C72.0336 36.311 72.47 36.4428 72.97 36.4243ZM72.6459 37.4874C71.9656 37.5098 71.4018 37.3527 70.9546 37.0161C70.9447 37.1473 70.9344 37.2735 70.9237 37.3947C70.9122 37.5059 70.9107 37.6163 70.9191 37.726C70.943 38.0351 71.0117 38.2755 71.1253 38.4473C71.248 38.6083 71.4191 38.6803 71.6384 38.6634C71.8179 38.6496 71.9946 38.5356 72.1687 38.3216C72.3427 38.1076 72.5018 37.8295 72.6459 37.4874ZM91.2249 39.3631C91.0554 39.3762 90.9051 39.3126 90.7739 39.1722C90.6427 39.0319 90.566 38.8172 90.5436 38.5281C90.5175 38.1891 90.53 37.7017 90.5812 37.0658C90.6424 36.4292 90.7377 35.5844 90.867 34.5313C90.6471 35.1902 90.3945 35.8165 90.1094 36.4102C89.8342 37.0031 89.531 37.4929 89.1997 37.8796C88.8685 38.2662 88.5135 38.4741 88.1346 38.5034C87.7657 38.5319 87.4255 38.4127 87.1141 38.1459C86.8126 37.8783 86.6337 37.3806 86.5776 36.6527C86.546 36.2439 86.5455 35.7826 86.576 35.2687C86.6058 34.7449 86.6559 34.2245 86.7263 33.7075C86.7968 33.1906 86.8714 32.7285 86.9503 32.3212C87.0284 31.9039 87.105 31.5971 87.1802 31.4008C87.2376 31.2359 87.2993 31.1258 87.3653 31.0705C87.4305 31.0053 87.5229 30.9681 87.6425 30.9589C87.7821 30.9481 87.9363 30.9964 88.105 31.1037C88.2738 31.211 88.3689 31.4043 88.3905 31.6835C88.3959 31.7533 88.3737 31.9205 88.3239 32.1851C88.2833 32.439 88.2274 32.7542 88.1562 33.1308C88.0942 33.4966 88.0295 33.8928 87.9621 34.3193C87.8947 34.7457 87.8423 35.171 87.8048 35.5951C87.7773 36.0185 87.777 36.4047 87.804 36.7536C87.8186 36.9431 87.8504 37.0961 87.8996 37.2126C87.9487 37.3292 88.053 37.3813 88.2125 37.369C88.3521 37.3583 88.5158 37.2052 88.7036 36.9099C88.9014 36.6138 89.1073 36.2268 89.3211 35.7489C89.5442 35.2603 89.7684 34.7214 89.9937 34.1323C90.229 33.5425 90.4532 32.9384 90.6662 32.3202C90.8893 31.7012 91.0897 31.114 91.2675 30.5587C91.3334 30.3731 91.4097 30.2569 91.4963 30.2101C91.5822 30.1533 91.68 30.1207 91.7897 30.1122C91.9691 30.0984 92.1344 30.1608 92.2855 30.2996C92.4459 30.4276 92.5349 30.6063 92.5526 30.8356C92.5641 30.9852 92.5542 31.2467 92.5229 31.6202C92.5015 31.993 92.4602 32.4325 92.399 32.9387C92.347 33.4342 92.2823 33.9607 92.205 34.5183C92.1376 35.0751 92.0699 35.627 92.0018 36.1739C91.9329 36.7108 91.8655 37.2024 91.7997 37.6488C91.7438 38.0944 91.6964 38.4541 91.6573 38.7279C91.6267 38.9811 91.5692 39.146 91.4849 39.2227C91.4113 39.3086 91.3246 39.3554 91.2249 39.3631ZM93.6885 33.9976C93.4178 33.9984 93.2797 33.8336 93.2742 33.503C93.278 33.4225 93.3256 33.3235 93.4168 33.2062C93.5073 33.0788 93.6169 33.0052 93.7458 32.9852C94.0525 32.9314 94.428 32.8573 94.872 32.7629C95.3253 32.6577 95.8226 32.539 96.364 32.407C96.426 31.9107 96.506 31.388 96.6041 30.8388C96.7021 30.2897 96.8162 29.7543 96.9465 29.2327C97.076 28.7012 97.2193 28.2187 97.3764 27.7854C97.5335 27.352 97.7075 27.0076 97.8984 26.7521C97.9996 26.634 98.0935 26.5515 98.1802 26.5047C98.2661 26.4479 98.3439 26.4168 98.4137 26.4114C98.5533 26.4007 98.6676 26.452 98.7566 26.5655C98.8555 26.6782 98.9108 26.8094 98.9223 26.9589C98.9285 27.0387 98.9197 27.1196 98.896 27.2017C98.7396 27.7754 98.5784 28.4799 98.4122 29.3152C98.246 30.1504 98.0706 31.0616 97.886 32.0488C98.7917 31.8284 99.6967 31.5981 100.601 31.3578C101.505 31.1175 102.281 30.9022 102.928 30.7118C103.111 30.6174 103.257 30.6212 103.365 30.7232C103.483 30.8244 103.547 30.9298 103.555 31.0395C103.566 31.1791 103.534 31.2868 103.46 31.3628C103.395 31.438 103.325 31.5036 103.249 31.5596L103.235 31.5757C103.042 31.6708 102.75 31.7886 102.36 31.9291C101.969 32.0596 101.519 32.2047 101.01 32.3643C100.5 32.514 99.9547 32.6664 99.3749 32.8215C98.8051 32.9758 98.2395 33.1198 97.6781 33.2534C97.5165 34.1484 97.3518 35.0688 97.1841 36.0146C97.0256 36.9495 96.8659 37.8695 96.7051 38.7746C96.6331 39.1412 96.5358 39.3744 96.4131 39.4742C96.3011 39.5831 96.1754 39.6429 96.0358 39.6537C95.8763 39.666 95.7321 39.617 95.6032 39.5066C95.4843 39.3954 95.4505 39.1523 95.5017 38.7772L96.1998 33.5931C95.6085 33.729 95.0851 33.8346 94.6296 33.9099C94.184 33.9844 93.8703 34.0137 93.6885 33.9976Z" fill="#5C4033"/>
</svg>
