<svg width="130" height="87" viewBox="0 0 130 87" fill="none" xmlns="http://www.w3.org/2000/svg">
<path d="M9.55223 73.45C10.7989 72.9933 13.1163 73.543 15.1382 74.2182C17.7449 75.0836 20.2088 76.3562 22.3585 78.0627C23.9702 79.3422 25.6697 80.9865 26.2588 82.5948M26.2588 82.5948C25.6697 80.9865 25.9043 78.6318 26.3086 76.6157C26.8491 73.9238 27.9079 71.3607 29.3354 69.0175C30.4444 67.1954 31.8601 65.2782 33.105 64.8221M26.2588 82.5948L19.1717 63.2479C15.0876 52.099 20.8156 39.7485 31.9645 35.6645L40.3762 32.5831" stroke="#5C4033"/>
<path d="M38.633 20.8401C38.3838 20.8593 38.1495 20.8122 37.9301 20.6987C37.7115 20.5953 37.5097 20.3852 37.3248 20.0685C37.1391 19.7418 36.9779 19.2778 36.8412 18.6765C36.7137 18.0645 36.6119 17.265 36.5357 16.2779C36.5242 16.1284 36.5126 15.9788 36.5011 15.8293C36.4888 15.6697 36.4814 15.5098 36.4791 15.3495C36.2568 15.9785 35.9978 16.5853 35.7019 17.1698C35.4159 17.7535 35.1051 18.274 34.7693 18.7312C34.4434 19.1876 34.1057 19.5547 33.756 19.8324C33.4163 20.1094 33.082 20.2606 32.7529 20.2859C32.1647 20.3314 31.6688 20.144 31.2653 19.7238C30.8717 19.3028 30.6353 18.5789 30.556 17.5519C30.5091 16.9437 30.5039 16.2922 30.5405 15.5973C30.5872 14.9017 30.6648 14.2187 30.7735 13.5483C30.8823 12.8779 31.0056 12.2666 31.1435 11.7144C31.2914 11.1614 31.4477 10.718 31.6125 10.3843C31.7773 10.0507 31.9345 9.87806 32.0841 9.86652C32.3333 9.84728 32.5228 9.89785 32.6524 10.0182C32.7913 10.1279 32.8684 10.2824 32.8838 10.4818C32.8946 10.6214 32.8601 10.8898 32.7805 11.2871C32.7008 11.6844 32.6024 12.1634 32.4852 12.7241C32.3672 13.2748 32.2474 13.8658 32.1256 14.4971C32.0138 15.1275 31.9265 15.7511 31.8638 16.3678C31.8003 16.9744 31.7878 17.527 31.8262 18.0256C31.8655 18.5341 32.0895 18.7725 32.4983 18.741C32.9769 18.704 33.4098 18.465 33.797 18.0239C34.1834 17.5728 34.5295 16.9894 34.8353 16.2738C35.1412 15.5581 35.4109 14.765 35.6446 13.8944C35.8875 13.0131 36.0994 12.1192 36.2801 11.2126C36.2632 11.1236 36.2505 11.0243 36.2421 10.9146C36.2336 10.805 36.2228 10.6654 36.2098 10.4959C36.1928 10.2765 36.2346 10.0376 36.335 9.77911C36.4446 9.50988 36.5818 9.27362 36.7466 9.07033C36.9115 8.86704 37.0836 8.75847 37.2631 8.74462C37.6021 8.71845 37.7901 8.94466 37.827 9.42323C37.8362 9.54288 37.8213 9.73961 37.7823 10.0134C37.7532 10.2865 37.7184 10.6803 37.6779 11.195C37.6474 11.7088 37.6341 12.3819 37.6382 13.214C37.6522 14.0454 37.7073 15.0842 37.8035 16.3305C37.8851 17.3874 37.9973 18.1259 38.14 18.5462C38.292 18.9557 38.4826 19.1516 38.712 19.1339C39.0111 19.1108 39.2867 18.914 39.539 18.5435C39.8012 18.1722 40.0327 17.6629 40.2334 17.0155C40.4442 16.3674 40.6169 15.6169 40.7517 14.764C40.8957 13.9003 41.0043 12.9692 41.0777 11.9706C41.1603 10.9613 41.2052 9.91972 41.2126 8.84596C41.2286 8.40342 41.2991 8.08204 41.424 7.88183C41.549 7.68162 41.6863 7.57574 41.8358 7.5642C41.9256 7.55727 42.0272 7.5745 42.1407 7.61589C42.2634 7.64654 42.3701 7.72857 42.4606 7.862C42.5511 7.99543 42.6079 8.2117 42.631 8.51081C42.7503 10.0562 42.7442 11.4709 42.6126 12.7548C42.4902 14.028 42.2819 15.1624 41.9877 16.158C41.6926 17.1436 41.3512 17.9824 40.9633 18.6743C40.5746 19.3562 40.174 19.8836 39.7615 20.2565C39.3581 20.6186 38.982 20.8131 38.633 20.8401ZM46.2236 20.4798C46.0042 20.4968 45.8297 20.445 45.7001 20.3247C45.5712 20.2142 45.4879 19.9148 45.4502 19.4262C45.4156 18.9776 45.4503 18.3881 45.5544 17.658C45.6578 16.9178 45.8098 16.0937 46.0105 15.1855C46.2112 14.2774 46.4445 13.3366 46.7104 12.3633C46.9755 11.38 47.2571 10.4154 47.5552 9.46969C47.8625 8.5132 48.161 7.63763 48.4507 6.84298C48.5587 6.55381 48.6783 6.349 48.8095 6.22855C48.9406 6.1081 49.1009 6.04056 49.2903 6.02594C49.4199 6.01594 49.5327 6.04735 49.6285 6.12019C49.7336 6.18229 49.7927 6.29808 49.8058 6.46758C49.8104 6.5274 49.7606 6.72682 49.6564 7.06585C49.5622 7.40411 49.4261 7.8509 49.2484 8.40623C49.0805 8.96079 48.8928 9.58208 48.6851 10.2701C48.4775 10.9581 48.2675 11.6814 48.0553 12.44C47.843 13.1986 47.6461 13.961 47.4645 14.7273C47.2822 15.4835 47.1324 16.2072 47.0153 16.8983C46.8981 17.5893 46.8304 18.2064 46.8121 18.7494C47.0291 18.4418 47.2748 18.0517 47.5493 17.5792C47.8237 17.1067 48.1154 16.5977 48.4243 16.0523C48.7333 15.5069 49.0476 14.9661 49.3673 14.4299C49.687 13.8937 50.0051 13.4028 50.3218 12.9571C50.6384 12.5114 50.9367 12.1524 51.2165 11.8801C51.5056 11.597 51.7648 11.4466 51.9941 11.4289C52.373 11.3996 52.6863 11.4958 52.9341 11.7174C53.1911 11.9282 53.34 12.2979 53.3808 12.8263C53.4039 13.1254 53.3717 13.489 53.2844 13.917C53.2071 14.3442 53.1113 14.7929 52.9972 15.2631C52.883 15.7332 52.7823 16.1823 52.695 16.6103C52.6176 17.0375 52.5905 17.4007 52.6136 17.6998C52.6451 18.1086 52.8154 18.3011 53.1245 18.2772C53.6031 18.2403 54.0736 18.0986 54.536 17.8523C55.0084 17.6052 55.452 17.3102 55.8668 16.9673C56.2809 16.6143 56.6601 16.2641 57.0044 15.9166C57.3479 15.5591 57.6404 15.2557 57.8819 15.0064C58.1418 14.7356 58.3665 14.5928 58.556 14.5782C58.7952 14.5598 58.9245 14.6751 58.9437 14.9244C58.9491 14.9942 58.9403 15.0751 58.9173 15.1672C58.8944 15.2592 58.8235 15.38 58.7046 15.5296C58.5589 15.7214 58.3477 15.9734 58.0709 16.2856C57.8041 16.5971 57.489 16.9323 57.1255 17.2914C56.772 17.6496 56.3821 17.9906 55.9558 18.3144C55.5394 18.6374 55.1042 18.9117 54.6502 19.1373C54.2055 19.3522 53.7637 19.4766 53.325 19.5104C52.7268 19.5566 52.2501 19.4229 51.8949 19.1093C51.5489 18.785 51.3525 18.3187 51.3055 17.7105C51.2763 17.3316 51.3007 16.8684 51.3788 16.3207C51.4569 15.7731 51.5625 15.1933 51.6958 14.5812C51.8383 13.9584 51.982 13.3505 52.1268 12.7576C51.8246 13.0016 51.5011 13.3575 51.1561 13.8255C50.8203 14.2827 50.4691 14.8012 50.1027 15.3812C49.7354 15.9511 49.369 16.531 49.0033 17.1209C48.6476 17.7101 48.2988 18.2585 47.9568 18.7664C47.6241 19.2634 47.3094 19.6689 47.0126 19.9826C46.7159 20.2964 46.4529 20.4621 46.2236 20.4798ZM60.5012 22.5672C60.0027 22.6057 59.5414 22.6062 59.1173 22.5687C58.7038 22.5405 58.2924 22.4719 57.8828 22.3631C57.4739 22.2643 57.0272 22.1283 56.5424 21.9551C56.3974 21.896 56.2662 21.8209 56.1489 21.7297C56.0323 21.6484 55.9694 21.548 55.9601 21.4283C55.9486 21.2788 56.031 21.1119 56.2073 20.9278C56.3745 20.7544 56.5378 20.6616 56.6974 20.6493C56.8668 20.6362 57.0808 20.6798 57.3393 20.7802C57.6078 20.8799 57.9177 20.9964 58.269 21.1297C58.6211 21.2731 59.0061 21.3888 59.4241 21.4769C59.8521 21.5642 60.3054 21.5894 60.784 21.5524C61.3024 21.5124 61.7744 21.2603 62.2 20.7962C62.6255 20.3321 62.9517 19.6851 63.1785 18.8552C63.4061 18.0352 63.4764 17.0619 63.3894 15.9353C63.3632 15.5963 63.3244 15.2232 63.2729 14.8159C63.2306 14.3979 63.1768 13.9608 63.1115 13.5044C62.9122 14.0414 62.6827 14.5756 62.4228 15.1072C62.1729 15.638 61.9042 16.1201 61.6167 16.5535C61.3392 16.9862 61.0406 17.3402 60.7208 17.6156C60.4103 17.8803 60.0855 18.0257 59.7465 18.0519C59.3178 18.085 59.0002 17.9992 58.7939 17.7945C58.5875 17.5897 58.4666 17.258 58.4312 16.7994C58.3943 16.3208 58.3891 15.7997 58.4158 15.236C58.4425 14.6722 58.4888 14.102 58.5546 13.5252C58.6296 12.9377 58.7269 12.3785 58.8464 11.8478C58.9659 11.317 59.1007 10.8553 59.251 10.4625C59.3353 10.2554 59.4771 10.1442 59.6765 10.1288C59.8161 10.118 59.9565 10.1824 60.0976 10.322C60.248 10.4508 60.332 10.6298 60.3497 10.8591C60.3636 11.0386 60.3433 11.2959 60.289 11.6311C60.2346 11.9663 60.1638 12.3479 60.0764 12.7759C59.9891 13.2038 59.9033 13.6518 59.8191 14.1197C59.7341 14.5776 59.6686 15.0289 59.6227 15.4738C59.5761 15.9087 59.5666 16.3056 59.5943 16.6645C59.6058 16.8141 59.7113 16.8811 59.9107 16.8657C60.0204 16.8573 60.1672 16.7456 60.3512 16.5308C60.5445 16.3053 60.753 16.0184 60.9769 15.6701C61.2099 15.3111 61.4407 14.9222 61.6691 14.5034C61.9068 14.0738 62.1348 13.65 62.3533 13.232C62.571 12.804 62.7565 12.4135 62.9098 12.0607C62.8937 11.9817 62.8829 11.9073 62.8775 11.8375C62.8721 11.7677 62.8671 11.7029 62.8625 11.6431C62.8248 11.1545 62.8512 10.8466 62.9417 10.7193C63.0413 10.5812 63.1759 10.5056 63.3454 10.4925C63.6345 10.4702 63.8439 10.5192 63.9736 10.6396C64.1032 10.76 64.1804 10.9797 64.205 11.2987C64.2142 11.4184 64.2093 11.5492 64.1902 11.6911C64.1702 11.823 64.135 12.0163 64.0845 12.2709C64.225 13.0524 64.3445 13.7553 64.4428 14.3796C64.5511 15.0031 64.6299 15.6339 64.6792 16.272C64.7723 17.4784 64.6587 18.5403 64.3383 19.4577C64.0279 20.3743 63.5426 21.1038 62.8824 21.6462C62.2322 22.1879 61.4385 22.4949 60.5012 22.5672ZM75.16 22.0375C74.9905 22.0506 74.8513 22.0011 74.7424 21.8892C74.6434 21.7765 74.5808 21.5506 74.5547 21.2116C74.5169 20.7231 74.508 20.1521 74.5277 19.4986C74.5475 18.8452 74.5891 18.1499 74.6526 17.4128C74.726 16.675 74.8094 15.9364 74.9028 15.197C75.0061 14.4569 75.1172 13.7512 75.2359 13.0801C75.3645 12.4082 75.494 11.8115 75.6242 11.2899C75.7537 10.7584 75.8767 10.3376 75.9932 10.0278C76.1197 9.7171 76.2377 9.55754 76.3474 9.54908C76.5369 9.53445 76.6906 9.57775 76.8088 9.67896C76.9369 9.77939 77.0094 9.93929 77.0263 10.1586C77.0479 10.4378 76.9982 10.898 76.8772 11.5392C76.7554 12.1705 76.5984 12.995 76.4061 14.0128C76.62 13.5349 76.8522 13.0356 77.1029 12.5147C77.3536 11.9939 77.6203 11.4869 77.9032 10.9936C78.1853 10.4904 78.4713 10.0371 78.7611 9.63357C79.0609 9.2293 79.3564 8.90058 79.6478 8.6474C79.9392 8.39423 80.2295 8.25648 80.5186 8.23416C80.8277 8.21031 81.1096 8.28885 81.3642 8.46978C81.6181 8.64075 81.8226 8.88574 81.9776 9.20476C82.1418 9.51303 82.2393 9.86658 82.2701 10.2654C82.334 11.0929 82.2564 11.9063 82.0372 12.7056C81.8173 13.4948 81.4819 14.2178 81.0311 14.8744C80.5895 15.5203 80.0486 16.0485 79.4083 16.459C78.7779 16.8687 78.0789 17.1032 77.3112 17.1625C77.0221 17.1848 76.7617 17.1899 76.5301 17.1776C76.2984 17.1654 76.0963 17.1459 75.9238 17.1191C75.8549 17.7864 75.7926 18.4732 75.7368 19.1796C75.681 19.886 75.6286 20.6373 75.5798 21.4334C75.566 21.6451 75.5273 21.7935 75.4637 21.8787C75.4008 21.9738 75.2996 22.0267 75.16 22.0375ZM80.8755 9.35C80.6662 9.36617 80.4261 9.50505 80.1555 9.76666C79.8948 10.0275 79.6153 10.37 79.3171 10.7942C79.028 11.2077 78.7375 11.6664 78.4454 12.1704C78.1525 12.6644 77.8704 13.1676 77.599 13.68C77.3277 14.1924 77.0785 14.668 76.8516 15.1068C76.6347 15.5448 76.4572 15.9095 76.3193 16.201C77.0954 16.121 77.7665 15.9137 78.3324 15.5792C78.8975 15.2347 79.3718 14.8169 79.7552 14.326C80.1377 13.8251 80.4379 13.2954 80.6555 12.737C80.8824 12.1678 81.036 11.6244 81.1164 11.1067C81.1961 10.579 81.2213 10.1257 81.192 9.74682C81.1705 9.46765 81.065 9.33538 80.8755 9.35ZM89.7102 9.9619C89.7349 10.281 89.6594 10.6027 89.4838 10.9272C89.3075 11.2417 89.0656 11.5512 88.7582 11.8558C88.4499 12.1504 88.1056 12.4327 87.7253 12.7028C87.3449 12.9729 86.9623 13.213 86.5773 13.4233C86.1924 13.6335 85.8396 13.8062 85.519 13.9413C85.4693 14.3363 85.456 14.6833 85.4791 14.9824C85.4937 15.1719 85.5489 15.303 85.6448 15.3758C85.7407 15.4487 85.8834 15.4778 86.0728 15.4632C86.4916 15.4308 86.9295 15.3218 87.3865 15.1361C87.8436 14.9504 88.3072 14.719 88.7772 14.442C89.2473 14.165 89.6963 13.8746 90.1242 13.5707C90.5521 13.2669 90.9412 12.9811 91.2917 12.7134C91.6521 12.4448 91.9511 12.2262 92.1888 12.0574C92.4266 11.8886 92.5853 11.8011 92.6651 11.7949C92.7847 11.7857 92.8775 11.8187 92.9435 11.8938C93.0187 11.9582 93.0601 12.0403 93.0678 12.14C93.074 12.2197 92.9613 12.3839 92.7297 12.6324C92.5081 12.8802 92.2049 13.1744 91.8199 13.5151C91.4342 13.8457 90.9995 14.1902 90.5156 14.5485C90.0317 14.9068 89.5264 15.2467 88.9996 15.5682C88.4827 15.8889 87.9766 16.1537 87.4812 16.3624C86.9958 16.5704 86.5536 16.6898 86.1548 16.7206C85.6364 16.7606 85.2176 16.5973 84.8984 16.2308C84.5793 15.8643 84.3881 15.2722 84.325 14.4547C84.2827 13.9063 84.3098 13.3476 84.4063 12.7784C84.5127 12.2086 84.6709 11.6598 84.881 11.132C85.1002 10.5936 85.3489 10.113 85.6272 9.69032C85.9147 9.25691 86.2241 8.91208 86.5554 8.65583C86.8858 8.3896 87.2156 8.24379 87.5446 8.21839C88.1728 8.16991 88.6798 8.3063 89.0656 8.62755C89.4515 8.94881 89.6664 9.39359 89.7102 9.9619ZM85.7442 12.7654C86.0387 12.5521 86.3423 12.3281 86.6552 12.0933C86.9681 11.8586 87.2556 11.6207 87.5178 11.3798C87.7801 11.1389 87.9867 10.8923 88.1377 10.6399C88.298 10.3768 88.3681 10.1156 88.3481 9.85642C88.3196 9.48752 88.1059 9.31846 87.7071 9.34924C87.4579 9.36848 87.206 9.5484 86.9514 9.889C86.7061 10.2189 86.478 10.6427 86.2673 11.1604C86.0565 11.6782 85.8821 12.2132 85.7442 12.7654ZM94.4515 16.2306C93.8632 16.276 93.3823 16.0875 93.0087 15.665C92.6351 15.2425 92.4205 14.6723 92.3651 13.9544C92.3451 13.6952 92.3589 13.4183 92.4063 13.1238C92.463 12.8185 92.5419 12.5416 92.6431 12.2931C92.5679 12.2287 92.5058 12.1382 92.4567 12.0216C92.4068 11.8951 92.3745 11.7371 92.3599 11.5477C92.3145 10.9594 92.3726 10.4133 92.5343 9.9094C92.696 9.40546 92.9275 8.96133 93.2288 8.577C93.5294 8.1827 93.8714 7.87046 94.2548 7.64026C94.6482 7.4093 95.0543 7.27766 95.473 7.24534C96.161 7.19224 96.7386 7.3984 97.2058 7.86382C97.6722 8.31928 97.9443 9.05051 98.022 10.0575C98.0628 10.5859 98.0246 11.1305 97.9074 11.6912C97.8002 12.2511 97.6316 12.7957 97.4016 13.3249C97.1816 13.8534 96.9126 14.3306 96.5944 14.7563C96.2862 15.1813 95.9469 15.5284 95.5765 15.7977C95.2153 16.0563 94.8403 16.2006 94.4515 16.2306ZM93.5909 11.7084C93.6569 11.7836 93.6949 11.8859 93.7049 12.0156C93.7164 12.1651 93.6981 12.317 93.6498 12.4712C93.6115 12.6246 93.5724 12.8332 93.5326 13.097C93.4928 13.3609 93.4914 13.7321 93.5283 14.2107C93.5652 14.6892 93.7732 14.9139 94.152 14.8847C94.5708 14.8523 94.9469 14.6578 95.2805 14.3011C95.6132 13.9344 95.8988 13.4761 96.1372 12.9261C96.3756 12.3761 96.5464 11.7962 96.6498 11.1865C96.7624 10.566 96.7979 9.98651 96.7564 9.44811C96.7294 9.09915 96.6458 8.85987 96.5054 8.73029C96.3642 8.59074 96.1241 8.53405 95.7851 8.56022C95.4362 8.58715 95.0815 8.73489 94.7211 9.00342C94.3699 9.26122 94.0851 9.59914 93.8666 10.0172C93.6481 10.4352 93.5581 10.8935 93.5966 11.392C93.6051 11.5017 93.6032 11.6072 93.5909 11.7084ZM100.64 20.0707C100.471 20.0838 100.332 20.0343 100.223 19.9224C100.124 19.8097 100.061 19.5838 100.035 19.2448C99.9974 18.7563 99.9884 18.1853 100.008 17.5318C100.028 16.8784 100.07 16.1831 100.133 15.446C100.206 14.7082 100.29 13.9696 100.383 13.2302C100.487 12.4901 100.598 11.7844 100.716 11.1133C100.845 10.4414 100.974 9.84466 101.105 9.32309C101.234 8.79155 101.357 8.37083 101.474 8.06095C101.6 7.7503 101.718 7.59074 101.828 7.58227C102.017 7.56765 102.171 7.61094 102.289 7.71215C102.417 7.81259 102.49 7.97248 102.507 8.19183C102.528 8.471 102.479 8.93119 102.358 9.5724C102.236 10.2036 102.079 11.0282 101.887 12.046C102.1 11.5681 102.333 11.0688 102.583 10.5479C102.834 10.0271 103.101 9.52005 103.384 9.02682C103.666 8.52362 103.952 8.07027 104.242 7.66677C104.541 7.2625 104.837 6.93377 105.128 6.6806C105.42 6.42742 105.71 6.28968 105.999 6.26736C106.308 6.2435 106.59 6.32204 106.845 6.50298C107.099 6.67394 107.303 6.91893 107.458 7.23795C107.622 7.54623 107.72 7.89977 107.751 8.29858C107.814 9.12612 107.737 9.93951 107.518 10.7387C107.298 11.528 106.962 12.251 106.512 12.9076C106.07 13.5535 105.529 14.0817 104.889 14.4922C104.258 14.9019 103.559 15.1364 102.792 15.1957C102.503 15.218 102.242 15.2231 102.011 15.2108C101.779 15.1986 101.577 15.1791 101.404 15.1523C101.335 15.8196 101.273 16.5064 101.217 17.2128C101.161 17.9192 101.109 18.6705 101.06 19.4666C101.046 19.6783 101.008 19.8267 100.944 19.9119C100.881 20.007 100.78 20.0599 100.64 20.0707ZM106.356 7.3832C106.147 7.39936 105.907 7.53824 105.636 7.79985C105.375 8.06069 105.096 8.40321 104.798 8.82742C104.508 9.24089 104.218 9.69961 103.926 10.2036C103.633 10.6976 103.351 11.2008 103.079 11.7132C102.808 12.2256 102.559 12.7012 102.332 13.1399C102.115 13.5779 101.938 13.9427 101.8 14.2342C102.576 14.1542 103.247 13.9469 103.813 13.6124C104.378 13.2679 104.852 12.8501 105.236 12.3592C105.618 11.8582 105.918 11.3286 106.136 10.7702C106.363 10.201 106.516 9.65759 106.597 9.13987C106.677 8.61217 106.702 8.15889 106.672 7.78002C106.651 7.50085 106.545 7.36857 106.356 7.3832ZM112.583 15.2824C111.816 15.3416 111.193 15.1389 110.716 14.6743C110.248 14.1989 109.979 13.5075 109.909 12.6002C109.866 12.0419 109.89 11.3831 109.982 10.6238C110.083 9.85369 110.221 9.04067 110.396 8.18469C110.579 7.31797 110.784 6.45969 111.009 5.60983C111.234 4.75997 111.454 3.97071 111.669 3.24203C111.893 2.50262 112.091 1.88554 112.263 1.39081C112.362 1.11237 112.521 0.964689 112.741 0.947757C113.04 0.924669 113.203 1.09758 113.232 1.46648C113.241 1.58612 113.205 1.83463 113.124 2.212C113.043 2.58937 112.934 3.05916 112.796 3.62138C112.659 4.17363 112.51 4.78686 112.352 5.46107C112.193 6.13527 112.031 6.8298 111.866 7.54466C111.709 8.24877 111.568 8.94675 111.44 9.63858C111.313 10.3204 111.217 10.9597 111.152 11.5565C111.088 12.1532 111.072 12.6609 111.104 13.0797C111.125 13.3489 111.211 13.5578 111.363 13.7066C111.524 13.8446 111.73 13.904 111.979 13.8847C112.438 13.8493 112.889 13.7242 113.334 13.5093C113.788 13.2837 114.219 13.0198 114.627 12.7175C115.034 12.4052 115.402 12.101 115.73 11.8049C116.067 11.498 116.354 11.2452 116.589 11.0465C116.824 10.8378 116.991 10.7297 117.091 10.722C117.31 10.705 117.429 10.8162 117.447 11.0555C117.454 11.1353 117.385 11.291 117.243 11.5226C117.099 11.7443 116.904 12.0101 116.657 12.32C116.41 12.63 116.119 12.9533 115.784 13.2901C115.459 13.6162 115.112 13.9288 114.743 14.228C114.385 14.5165 114.017 14.7555 113.64 14.945C113.275 15.1438 112.922 15.2562 112.583 15.2824ZM122.404 7.43832C122.428 7.75737 122.353 8.07913 122.177 8.40361C122.001 8.71811 121.759 9.02764 121.452 9.33221C121.143 9.62681 120.799 9.90914 120.419 10.1792C120.039 10.4493 119.656 10.6894 119.271 10.8997C118.886 11.1099 118.533 11.2826 118.213 11.4177C118.163 11.8127 118.15 12.1597 118.173 12.4588C118.187 12.6483 118.243 12.7794 118.338 12.8523C118.434 12.9251 118.577 12.9542 118.766 12.9396C119.185 12.9072 119.623 12.7982 120.08 12.6125C120.537 12.4268 121.001 12.1954 121.471 11.9184C121.941 11.6414 122.39 11.351 122.818 11.0472C123.246 10.7433 123.635 10.4575 123.985 10.1898C124.346 9.92124 124.645 9.70258 124.882 9.53378C125.12 9.36499 125.279 9.27751 125.359 9.27136C125.478 9.26212 125.571 9.29507 125.637 9.37022C125.712 9.43463 125.754 9.51668 125.761 9.61638C125.768 9.69615 125.655 9.86031 125.423 10.1089C125.202 10.3567 124.898 10.6509 124.514 10.9915C124.128 11.3222 123.693 11.6666 123.209 12.0249C122.725 12.3832 122.22 12.7231 121.693 13.0446C121.176 13.3654 120.67 13.6301 120.175 13.8389C119.689 14.0468 119.247 14.1662 118.848 14.197C118.33 14.237 117.911 14.0738 117.592 13.7072C117.273 13.3407 117.082 12.7487 117.019 11.9311C116.976 11.3827 117.003 10.824 117.1 10.2549C117.206 9.68499 117.365 9.13618 117.575 8.60845C117.794 8.06999 118.042 7.58942 118.321 7.16674C118.608 6.73333 118.918 6.3885 119.249 6.13225C119.579 5.86602 119.909 5.72021 120.238 5.69482C120.866 5.64633 121.373 5.78272 121.759 6.10397C122.145 6.42523 122.36 6.87001 122.404 7.43832ZM118.438 10.2419C118.732 10.0286 119.036 9.80453 119.349 9.56976C119.662 9.33498 119.949 9.09715 120.211 8.85625C120.474 8.61536 120.68 8.36872 120.831 8.11635C120.992 7.85324 121.062 7.59207 121.042 7.33284C121.013 6.96394 120.8 6.79488 120.401 6.82566C120.151 6.8449 119.9 7.02482 119.645 7.36542C119.4 7.69528 119.172 8.11909 118.961 8.63685C118.75 9.1546 118.576 9.68961 118.438 10.2419ZM56.1508 41.7038C55.3831 41.763 54.7607 41.5603 54.2835 41.0957C53.8155 40.6203 53.5465 39.9289 53.4765 39.0216C53.4334 38.4633 53.4577 37.8045 53.5496 37.0451C53.6506 36.2751 53.7884 35.4621 53.9631 34.6061C54.1469 33.7394 54.3515 32.8811 54.5767 32.0312C54.802 31.1814 55.0219 30.3921 55.2365 29.6634C55.4602 28.924 55.6583 28.3069 55.8308 27.8122C55.9296 27.5338 56.0887 27.3861 56.3081 27.3692C56.6072 27.3461 56.771 27.519 56.7995 27.8879C56.8087 28.0075 56.7727 28.256 56.6915 28.6334C56.6103 29.0108 56.5012 29.4806 56.364 30.0428C56.2261 30.595 56.0779 31.2083 55.9193 31.8825C55.7607 32.5567 55.5987 33.2512 55.4332 33.9661C55.2769 34.6702 55.1352 35.3681 55.0081 36.06C54.8802 36.7418 54.7841 37.3811 54.7198 37.9778C54.6556 38.5746 54.6396 39.0823 54.6719 39.5011C54.6927 39.7703 54.779 39.9792 54.9309 40.128C55.092 40.266 55.2972 40.3254 55.5465 40.3061C56.0051 40.2707 56.4568 40.1456 56.9016 39.9307C57.3556 39.7051 57.7865 39.4412 58.1945 39.1389C58.6017 38.8266 58.9693 38.5224 59.2975 38.2263C59.6349 37.9194 59.9213 37.6666 60.1567 37.4679C60.3913 37.2592 60.5585 37.1511 60.6582 37.1434C60.8776 37.1264 60.9965 37.2376 61.0149 37.4769C61.0211 37.5567 60.9529 37.7124 60.8103 37.944C60.6669 38.1657 60.4718 38.4315 60.2249 38.7414C59.978 39.0514 59.6871 39.3747 59.352 39.7115C59.0261 40.0375 58.6791 40.3502 58.3111 40.6494C57.9522 40.9379 57.5845 41.1769 57.208 41.3664C56.8422 41.5652 56.4898 41.6776 56.1508 41.7038ZM62.3457 40.7743C61.7575 40.8197 61.2765 40.6311 60.9029 40.2086C60.5293 39.7861 60.3148 39.2159 60.2594 38.4981C60.2394 38.2388 60.2531 37.962 60.3006 37.6674C60.3572 37.3622 60.4362 37.0853 60.5373 36.8367C60.4622 36.7723 60.4 36.6819 60.3509 36.5653C60.301 36.4388 60.2688 36.2808 60.2541 36.0913C60.2087 35.5031 60.2669 34.957 60.4286 34.4531C60.5903 33.9491 60.8218 33.505 61.1231 33.1206C61.4236 32.7263 61.7656 32.4141 62.149 32.1839C62.5424 31.953 62.9485 31.8213 63.3673 31.789C64.0552 31.7359 64.6328 31.942 65.1 32.4075C65.5664 32.8629 65.8385 33.5942 65.9162 34.6012C65.957 35.1296 65.9188 35.6741 65.8016 36.2348C65.6944 36.7947 65.5258 37.3393 65.2959 37.8686C65.0759 38.3971 64.8068 38.8742 64.4886 39.3C64.1804 39.7249 63.8411 40.0721 63.4708 40.3414C63.1096 40.6 62.7346 40.7442 62.3457 40.7743ZM61.4852 36.2521C61.5511 36.3272 61.5891 36.4296 61.5991 36.5592C61.6107 36.7088 61.5923 36.8606 61.544 37.0148C61.5057 37.1682 61.4667 37.3768 61.4269 37.6407C61.387 37.9045 61.3856 38.2757 61.4225 38.7543C61.4595 39.2329 61.6674 39.4576 62.0463 39.4283C62.465 39.396 62.8412 39.2015 63.1747 38.8447C63.5075 38.478 63.793 38.0197 64.0314 37.4697C64.2698 36.9197 64.4407 36.3399 64.5441 35.7301C64.6566 35.1096 64.6921 34.5302 64.6506 33.9918C64.6237 33.6428 64.54 33.4035 64.3996 33.2739C64.2584 33.1344 64.0184 33.0777 63.6794 33.1039C63.3304 33.1308 62.9757 33.2785 62.6153 33.5471C62.2641 33.8049 61.9793 34.1428 61.7608 34.5608C61.5423 34.9789 61.4523 35.4372 61.4908 35.9357C61.4993 36.0454 61.4974 36.1508 61.4852 36.2521ZM69.7222 39.6783C69.5727 39.6899 69.4146 39.5917 69.2482 39.3839C69.0916 39.1753 68.9631 38.8743 68.8625 38.4809C68.7604 38.0676 68.6586 37.594 68.5573 37.0602C68.4559 36.5264 68.3652 36.0018 68.2853 35.4865C68.2054 34.9711 68.1401 34.5148 68.0894 34.1175C68.0387 33.7202 68.0079 33.4518 67.9972 33.3122C67.9571 32.7937 68.0073 32.4037 68.1476 32.1421C68.297 31.8698 68.5014 31.7237 68.7606 31.7037C68.9401 31.6898 69.0736 31.7297 69.161 31.8232C69.2477 31.9068 69.3038 32.1131 69.3291 32.4421C69.3461 32.6614 69.373 32.9452 69.4099 33.2934C69.4468 33.6416 69.491 34.0193 69.5425 34.4266C69.6002 34.9136 69.6601 35.4305 69.7224 35.9773C69.7839 36.5142 69.84 37.0464 69.8908 37.5741C70.0993 37.1568 70.3392 36.692 70.6106 36.1796C70.8919 35.6664 71.1775 35.1429 71.4673 34.609C71.7563 34.0651 72.0372 33.547 72.3101 33.0545C72.583 32.562 72.8257 32.1321 73.038 31.7647C73.2504 31.3972 73.4152 31.1287 73.5325 30.9592C73.6866 30.7467 73.8304 30.5952 73.9638 30.5047C74.1072 30.4134 74.2337 30.3635 74.3434 30.355C74.493 30.3435 74.6168 30.3891 74.715 30.4918C74.8232 30.5938 74.885 30.7445 74.9004 30.9439C74.9096 31.0635 74.8951 31.2001 74.8568 31.3535C74.8277 31.4961 74.764 31.6465 74.6659 31.8045C74.4283 32.2341 74.1412 32.7376 73.8046 33.3153C73.4681 33.8929 73.1181 34.4916 72.7547 35.1114C72.3914 35.7312 72.0368 36.3353 71.6911 36.9236C71.3445 37.502 71.0429 38.0117 70.7861 38.4528C70.3361 39.2498 69.9814 39.6583 69.7222 39.6783ZM81.2593 32.6797C81.2839 32.9987 81.2085 33.3205 81.0329 33.6449C80.8566 33.9594 80.6147 34.269 80.3072 34.5735C79.999 34.8681 79.6547 35.1505 79.2744 35.4206C78.894 35.6906 78.5114 35.9308 78.1264 36.141C77.7414 36.3513 77.3887 36.5239 77.0681 36.659C77.0184 37.054 77.005 37.4011 77.0281 37.7002C77.0428 37.8896 77.098 38.0208 77.1939 38.0936C77.2898 38.1664 77.4325 38.1955 77.6219 38.1809C78.0406 38.1486 78.4786 38.0396 78.9356 37.8538C79.3927 37.6681 79.8562 37.4367 80.3263 37.1597C80.7964 36.8828 81.2454 36.5923 81.6733 36.2885C82.1012 35.9847 82.4903 35.6989 82.8407 35.4311C83.2011 35.1626 83.5002 34.9439 83.7379 34.7751C83.9756 34.6063 84.1344 34.5188 84.2141 34.5127C84.3338 34.5035 84.4266 34.5364 84.4926 34.6116C84.5678 34.676 84.6092 34.758 84.6169 34.8577C84.623 34.9375 84.5103 35.1016 84.2788 35.3502C84.0572 35.598 83.7539 35.8922 83.369 36.2328C82.9833 36.5635 82.5485 36.908 82.0647 37.2663C81.5808 37.6246 81.0755 37.9645 80.5487 38.286C80.0318 38.6067 79.5257 38.8714 79.0303 39.0802C78.5448 39.2882 78.1027 39.4075 77.7039 39.4383C77.1854 39.4783 76.7666 39.3151 76.4475 38.9486C76.1283 38.582 75.9372 37.99 75.8741 37.1724C75.8318 36.6241 75.8588 36.0653 75.9553 35.4962C76.0618 34.9263 76.22 34.3775 76.43 33.8498C76.6492 33.3113 76.898 32.8308 77.1763 32.4081C77.4638 31.9747 77.7732 31.6298 78.1044 31.3736C78.4349 31.1074 78.7647 30.9616 79.0937 30.9362C79.7218 30.8877 80.2288 31.0241 80.6147 31.3453C81.0006 31.6666 81.2154 32.1114 81.2593 32.6797ZM77.2933 35.4832C77.5878 35.2699 77.8914 35.0459 78.2043 34.8111C78.5171 34.5763 78.8047 34.3385 79.0669 34.0976C79.3292 33.8567 79.5358 33.6101 79.6868 33.3577C79.847 33.0946 79.9172 32.8334 79.8971 32.5742C79.8687 32.2053 79.655 32.0362 79.2562 32.067C79.007 32.0862 78.7551 32.2662 78.5005 32.6068C78.2552 32.9366 78.0271 33.3604 77.8163 33.8782C77.6056 34.3959 77.4312 34.9309 77.2933 35.4832ZM92.9206 38.6399C92.4719 38.6745 92.0627 38.5707 91.6929 38.3284C91.3324 38.0754 91.0389 37.717 90.8126 37.253C90.5862 36.7891 90.4488 36.243 90.4003 35.6149C90.3495 34.9568 90.3731 34.288 90.4711 33.6085C90.5691 32.9289 90.7112 32.3011 90.8974 31.7251C91.0836 31.149 91.2837 30.6873 91.4976 30.3398C91.7107 29.9823 91.912 29.7963 92.1014 29.7817C92.241 29.7709 92.3591 29.8069 92.4558 29.8897C92.5524 29.9725 92.6073 30.0987 92.6204 30.2682C92.6235 30.308 92.5943 30.4507 92.5331 30.6962C92.471 30.9316 92.3944 31.2384 92.3032 31.6166C92.2113 31.9847 92.1224 32.3928 92.0366 32.8407C91.9508 33.2886 91.8858 33.745 91.8414 34.2098C91.7971 34.6746 91.7906 35.1114 91.8222 35.5202C91.8761 36.2181 91.979 36.7066 92.1309 36.9858C92.292 37.2541 92.5222 37.3768 92.8213 37.3537C93.5491 37.2975 94.2125 37.0558 94.8114 36.6284C95.4194 36.1903 95.9684 35.6364 96.4584 34.9667C96.9575 34.2863 97.4067 33.5445 97.8061 32.7414C97.461 32.8182 97.1251 32.8842 96.7984 32.9395C96.4709 32.9849 96.158 33.0241 95.8596 33.0571C95.5713 33.0894 95.3791 33.0692 95.2832 32.9963C95.1873 32.9235 95.1329 32.8023 95.1198 32.6328C95.0983 32.484 95.1477 32.3448 95.2681 32.2152C95.3984 32.0848 95.538 32.0088 95.6868 31.9873C96.1324 31.9128 96.5871 31.8275 97.0511 31.7315C97.5151 31.6355 97.9734 31.5299 98.4258 31.4148C98.6297 30.9377 98.8233 30.4563 99.0064 29.9708C99.1896 29.4853 99.3544 29.0212 99.5008 28.5786C99.6601 27.9144 99.8329 27.2943 100.019 26.7182C100.205 26.1322 100.398 25.6559 100.601 25.2892C100.802 24.9126 101.003 24.7166 101.202 24.7012C101.541 24.675 101.724 24.8314 101.75 25.1704C101.756 25.2402 101.726 25.4381 101.661 25.7641C101.595 26.09 101.503 26.5134 101.382 27.0342C101.272 27.5543 101.142 28.146 100.993 28.8095C100.843 29.463 100.69 30.1518 100.536 30.8758C101.419 30.6271 102.223 30.3895 102.948 30.163C103.682 29.9259 104.284 29.734 104.754 29.5873C105.223 29.4308 105.503 29.349 105.593 29.3421C105.722 29.3321 105.832 29.3888 105.922 29.5123C106.011 29.6257 106.059 29.7373 106.068 29.847C106.075 29.9367 105.919 30.0691 105.602 30.244C105.295 30.4182 104.864 30.617 104.309 30.8403C103.764 31.0529 103.139 31.2766 102.435 31.5115C101.74 31.7356 101.015 31.9521 100.259 32.1609C100.075 33.0276 99.9002 33.8836 99.7348 34.7289C99.5693 35.5741 99.4334 36.3469 99.327 37.0471C99.2711 37.4927 99.0687 37.729 98.7197 37.756C98.5403 37.7698 98.4022 37.7353 98.3055 37.6525C98.2188 37.569 98.167 37.4175 98.1501 37.1981C98.1478 37.1682 98.1612 37.0168 98.1903 36.7437C98.2285 36.4599 98.2768 36.1102 98.3349 35.6945C98.3923 35.2688 98.4536 34.8278 98.5187 34.3714C98.583 33.9051 98.645 33.474 98.7047 33.0782C98.2486 34.0562 97.7311 34.9537 97.1523 35.7707C96.5734 36.5877 95.9278 37.2543 95.2155 37.7707C94.5131 38.2863 93.7481 38.576 92.9206 38.6399ZM92.3023 28.2918C92.063 28.3102 91.8579 28.2509 91.6868 28.1136C91.5257 27.9756 91.4367 27.7969 91.4197 27.5776C91.399 27.3084 91.4764 27.0767 91.652 26.8826C91.8367 26.6778 92.0587 26.5654 92.318 26.5454C92.6071 26.5231 92.833 26.5909 92.9956 26.7488C93.1575 26.8968 93.2485 27.1004 93.2685 27.3597C93.2846 27.569 93.1999 27.7712 93.0144 27.966C92.8288 28.1609 92.5915 28.2695 92.3023 28.2918Z" fill="#5C4033"/>
</svg>
