<svg width="155" height="77" viewBox="0 0 155 77" fill="none" xmlns="http://www.w3.org/2000/svg">
<path d="M145.306 62.9539C144.06 62.4972 141.742 63.0469 139.72 63.7221C137.114 64.5875 134.65 65.8601 132.5 67.5666C130.888 68.8461 129.189 70.4904 128.6 72.0987M128.6 72.0987C129.189 70.4904 128.954 68.1357 128.55 66.1196C128.01 63.4277 126.951 60.8646 125.523 58.5214C124.414 56.6993 122.999 54.7821 121.754 54.3261M128.6 72.0987L135.687 52.7518C139.771 41.6029 134.043 29.2524 122.894 25.1684L114.482 22.087" stroke="#5C4033"/>
<path d="M8.99974 21.5047C8.86015 21.5154 8.72746 21.4856 8.60166 21.415C8.48583 21.3437 8.38877 21.1908 8.31047 20.9561C8.23141 20.7114 8.17341 20.3498 8.13647 19.8713C8.05951 18.8742 8.07804 17.8799 8.19205 16.8881C8.30607 15.8964 8.50446 14.9584 8.78724 14.074C9.06925 13.1796 9.42414 12.385 9.85193 11.69C10.2889 10.9843 10.7869 10.4193 11.3459 9.99497C11.9149 9.56993 12.5334 9.33162 13.2014 9.28006C13.9292 9.22388 14.5198 9.40396 14.9732 9.8203C15.4258 10.2267 15.6837 10.8386 15.7468 11.6562C15.8053 12.414 15.6394 13.0586 15.2492 13.5902C14.8689 14.1211 14.3049 14.4154 13.5571 14.4731C13.4275 14.4831 13.2871 14.4839 13.136 14.4755C12.9842 14.4571 12.8266 14.4292 12.6632 14.3916C13.3499 15.3617 14.0262 16.1971 14.6921 16.8979C15.358 17.5988 16.0281 18.224 16.7024 18.7738C17.3859 19.3128 18.0779 19.8311 18.7782 20.3286C18.8849 20.4107 18.9666 20.4946 19.0233 20.5805C19.0794 20.6564 19.1116 20.7492 19.1201 20.8589C19.1331 21.0284 19.1029 21.1561 19.0293 21.242C18.9656 21.3272 18.8192 21.3786 18.5898 21.3963C18.3406 21.4155 18.023 21.3297 17.6372 21.1388C17.2613 20.9472 16.8444 20.6785 16.3865 20.3327C15.9285 19.9869 15.4617 19.5917 14.986 19.147C14.5104 18.7023 14.0482 18.2365 13.5994 17.7495C13.1598 17.2519 12.7612 16.7661 12.4037 16.2922C12.0454 15.8084 11.755 15.3594 11.5324 14.9453C11.3199 14.5304 11.2021 14.1734 11.179 13.8743C11.1636 13.6749 11.2015 13.5165 11.2927 13.3992C11.3832 13.2718 11.5132 13.2016 11.6827 13.1885C11.902 13.1716 12.1037 13.1861 12.2878 13.2321C12.4819 13.2773 12.6836 13.2918 12.893 13.2756C13.4413 13.2333 13.8643 13.0603 14.1618 12.7565C14.4685 12.4419 14.5964 11.9556 14.5456 11.2976C14.501 10.7193 14.0898 10.4602 13.3122 10.5202C12.7738 10.5618 12.2719 10.8161 11.8064 11.2834C11.3402 11.7406 10.9282 12.3792 10.5702 13.1992C10.2222 14.0184 9.95634 14.9917 9.77256 16.1192C9.58802 17.2367 9.5082 18.4766 9.5331 19.8387C9.54933 20.3088 9.5314 20.6613 9.47931 20.896C9.43719 21.1299 9.37434 21.2902 9.29077 21.3769C9.21639 21.4528 9.11938 21.4954 8.99974 21.5047ZM21.7219 20.7634C21.5324 20.778 21.3575 20.7213 21.1972 20.5933C21.0361 20.4552 20.9436 20.2317 20.9198 19.9226C20.9028 19.7033 20.9093 19.3969 20.9391 19.0034C20.9681 18.6 21.0144 18.1601 21.0779 17.6838C21.1415 17.2075 21.2104 16.7358 21.2847 16.2687C21.3681 15.7909 21.4554 15.3629 21.5466 14.9847C21.6378 14.6066 21.7213 14.3243 21.7972 14.1379C21.8662 13.9922 21.934 13.8967 22.0007 13.8514C22.0774 13.8054 22.1507 13.7797 22.2205 13.7743C22.36 13.7635 22.4832 13.7991 22.5898 13.8812C22.7064 13.9624 22.7747 14.1327 22.7947 14.3919C22.8062 14.5415 22.7956 14.793 22.7627 15.1466C22.739 15.4895 22.7 15.8937 22.6457 16.3592C22.6005 16.814 22.5466 17.2846 22.4838 17.7709C22.4303 18.2464 22.3752 18.702 22.3185 19.1376C22.2619 19.5733 22.2198 19.9376 22.1923 20.2306C22.1647 20.3932 22.1045 20.5232 22.0117 20.6206C21.9282 20.7073 21.8315 20.7549 21.7219 20.7634ZM22.5491 12.3798C22.3198 12.3976 22.0951 12.3447 21.8749 12.2213C21.6647 12.0971 21.5477 11.8804 21.5239 11.5714C21.5038 11.3121 21.5475 11.0981 21.6548 10.9294C21.7721 10.7598 21.9128 10.6336 22.077 10.5508C22.2503 10.4571 22.4017 10.4053 22.5313 10.3953C22.661 10.3853 22.8078 10.4041 22.972 10.4516C23.1453 10.4884 23.2976 10.5769 23.4288 10.7172C23.5592 10.8476 23.6352 11.0523 23.6567 11.3315C23.6713 11.5209 23.6196 11.6954 23.5016 11.855C23.3827 12.0046 23.2317 12.1266 23.0484 12.221C22.8751 12.3146 22.7086 12.3675 22.5491 12.3798ZM26.3454 24.303C25.5777 24.3623 25.0086 24.331 24.6382 24.2092C24.2677 24.0873 24.0728 23.9018 24.0536 23.6525C24.0413 23.493 24.0811 23.3595 24.1731 23.2521C24.2751 23.1439 24.4059 23.0837 24.5654 23.0714C24.7349 23.0583 24.9811 23.0644 25.304 23.0896C25.6276 23.1248 25.944 23.1305 26.2531 23.1066C27.28 23.0273 28.0991 22.6582 28.7102 21.9992C29.3213 21.3402 29.7528 20.3692 30.0048 19.086C30.256 17.7928 30.3656 16.1595 30.3337 14.1861C30.0815 14.8174 29.7895 15.4517 29.4575 16.0892C29.1348 16.7159 28.7783 17.295 28.3881 17.8266C28.007 18.3475 27.6037 18.7748 27.1782 19.1086C26.7526 19.4423 26.3204 19.6261 25.8817 19.66C25.463 19.6923 25.1458 19.6115 24.9303 19.4175C24.7247 19.2227 24.6034 18.886 24.5665 18.4075C24.5334 17.9787 24.618 17.5159 24.8203 17.0188C25.0219 16.5118 25.3033 15.9986 25.6644 15.4793C26.0255 14.96 26.4284 14.4625 26.8731 13.9868C27.317 13.5012 27.7652 13.0705 28.2176 12.6945C28.6792 12.3079 29.1117 11.9987 29.5151 11.7669C29.9184 11.5352 30.2497 11.4093 30.509 11.3893C30.7682 11.3693 30.9745 11.4437 31.128 11.6123C31.2814 11.781 31.3774 12.1146 31.4158 12.6132C31.5059 13.7797 31.5537 14.9194 31.5594 16.0323C31.5743 17.1344 31.5086 18.1675 31.3623 19.1316C31.2161 20.0957 30.951 20.9487 30.5669 21.6904C30.1936 22.4414 29.6634 23.044 28.9763 23.4982C28.2892 23.9524 27.4123 24.2207 26.3454 24.303ZM29.9513 12.7412C29.4775 13.0988 28.9917 13.4973 28.494 13.9369C27.9964 14.3765 27.5356 14.8384 27.1116 15.3225C26.6975 15.8057 26.3694 16.2975 26.1272 16.7976C25.885 17.2977 25.7823 17.7871 25.8193 18.2656C25.8308 18.4152 25.9313 18.4827 26.1207 18.468C26.2703 18.4565 26.4658 18.3261 26.7073 18.0767C26.9581 17.8167 27.2329 17.4795 27.5319 17.0653C27.8302 16.6411 28.1307 16.1816 28.4335 15.6868C28.7456 15.1813 29.0323 14.6727 29.2937 14.1611C29.5551 13.6494 29.7743 13.1762 29.9513 12.7412ZM35.1563 20.3282C34.9369 20.3451 34.7624 20.2934 34.6328 20.173C34.5039 20.0626 34.4206 19.7631 34.3829 19.2746C34.3483 18.8259 34.383 18.2365 34.4871 17.5063C34.5905 16.7662 34.7425 15.942 34.9432 15.0339C35.1439 14.1257 35.3772 13.185 35.6431 12.2116C35.9082 11.2283 36.1898 10.2638 36.4879 9.31804C36.7952 8.36156 37.0937 7.48599 37.3834 6.69134C37.4914 6.40216 37.611 6.19735 37.7422 6.0769C37.8733 5.95645 38.0336 5.88892 38.223 5.8743C38.3526 5.86429 38.4654 5.89571 38.5612 5.96854C38.6663 6.03064 38.7254 6.14644 38.7385 6.31593C38.7431 6.37575 38.6933 6.57518 38.5891 6.9142C38.4949 7.25246 38.3588 7.69925 38.1811 8.25458C38.0132 8.80914 37.8255 9.43043 37.6178 10.1185C37.4102 10.8065 37.2002 11.5298 36.988 12.2884C36.7757 13.047 36.5788 13.8094 36.3972 14.5756C36.2149 15.3319 36.0651 16.0556 35.948 16.7466C35.8308 17.4377 35.7631 18.0547 35.7448 18.5978C35.9618 18.2901 36.2075 17.9001 36.482 17.4276C36.7564 16.955 37.0481 16.4461 37.357 15.9007C37.666 15.3553 37.9803 14.8145 38.3 14.2783C38.6197 13.7421 38.9378 13.2512 39.2545 12.8055C39.5711 12.3598 39.8694 12.0008 40.1492 11.7284C40.4383 11.4453 40.6975 11.2949 40.9268 11.2772C41.3057 11.248 41.619 11.3442 41.8668 11.5657C42.1238 11.7766 42.2727 12.1462 42.3135 12.6747C42.3366 12.9738 42.3044 13.3373 42.2171 13.7653C42.1398 14.1925 42.044 14.6412 41.9299 15.1114C41.8157 15.5816 41.715 16.0307 41.6277 16.4587C41.5503 16.8859 41.5232 17.249 41.5463 17.5482C41.5778 17.9569 41.7481 18.1494 42.0572 18.1255C42.5358 18.0886 43.0063 17.947 43.4687 17.7007C43.9411 17.4536 44.3847 17.1586 44.7995 16.8156C45.2136 16.4627 45.5928 16.1125 45.9371 15.765C46.2806 15.4075 46.5731 15.104 46.8146 14.8547C47.0745 14.5839 47.2992 14.4412 47.4887 14.4266C47.7279 14.4081 47.8572 14.5235 47.8764 14.7728C47.8818 14.8426 47.873 14.9235 47.85 15.0155C47.8271 15.1076 47.7562 15.2284 47.6373 15.378C47.4916 15.5697 47.2804 15.8217 47.0036 16.134C46.7368 16.4454 46.4217 16.7807 46.0582 17.1397C45.7047 17.498 45.3148 17.839 44.8885 18.1628C44.4721 18.4858 44.0369 18.7601 43.5829 18.9857C43.1382 19.2005 42.6964 19.3249 42.2577 19.3588C41.6595 19.405 41.1828 19.2712 40.8276 18.9576C40.4816 18.6333 40.2852 18.1671 40.2382 17.5589C40.209 17.18 40.2334 16.7167 40.3115 16.1691C40.3896 15.6215 40.4952 15.0416 40.6285 14.4295C40.771 13.8067 40.9147 13.1989 41.0595 12.606C40.7573 12.8499 40.4338 13.2059 40.0888 13.6738C39.753 14.131 39.4018 14.6496 39.0354 15.2295C38.6681 15.7995 38.3017 16.3794 37.936 16.9693C37.5803 17.5584 37.2315 18.1069 36.8895 18.6147C36.5568 19.1118 36.2421 19.5172 35.9453 19.831C35.6486 20.1447 35.3856 20.3105 35.1563 20.3282ZM45.6911 14.0237C45.4204 14.0246 45.2823 13.8597 45.2768 13.5291C45.2806 13.4486 45.3282 13.3497 45.4194 13.2323C45.5099 13.1049 45.6195 13.0313 45.7484 13.0113C46.0551 12.9575 46.4305 12.8834 46.8746 12.789C47.3278 12.6838 47.8252 12.5652 48.3666 12.4331C48.4286 11.9369 48.5086 11.4141 48.6067 10.865C48.7047 10.3158 48.8188 9.78043 48.9491 9.25886C49.0785 8.72731 49.2218 8.24486 49.3789 7.81148C49.5361 7.3781 49.7101 7.03369 49.901 6.77824C50.0022 6.6601 50.0961 6.57763 50.1828 6.53082C50.2687 6.47404 50.3465 6.44296 50.4163 6.43757C50.5559 6.4268 50.6702 6.47815 50.7592 6.59164C50.8581 6.70436 50.9134 6.83549 50.9249 6.98505C50.9311 7.06481 50.9223 7.14573 50.8985 7.2278C50.7422 7.80153 50.581 8.50603 50.4148 9.3413C50.2485 10.1766 50.0732 11.0878 49.8886 12.0749C50.7943 11.8545 51.6993 11.6242 52.6034 11.3839C53.5076 11.1436 54.2834 10.9283 54.9306 10.7379C55.1139 10.6435 55.2596 10.6473 55.3678 10.7493C55.4859 10.8505 55.5492 10.9559 55.5577 11.0656C55.5685 11.2052 55.5367 11.313 55.4623 11.3889C55.3979 11.4641 55.3277 11.5297 55.2518 11.5857L55.238 11.6018C55.0448 11.697 54.753 11.8148 54.3626 11.9552C53.9715 12.0857 53.5213 12.2308 53.0121 12.3905C52.5021 12.5401 51.9572 12.6925 51.3775 12.8476C50.8076 13.0019 50.242 13.1459 49.6807 13.2795C49.5191 14.1746 49.3544 15.095 49.1867 16.0407C49.0282 16.9757 48.8685 17.8957 48.7077 18.8007C48.6357 19.1674 48.5383 19.4005 48.4157 19.5003C48.3037 19.6092 48.1779 19.6691 48.0384 19.6799C47.8788 19.6922 47.7346 19.6431 47.6058 19.5327C47.4868 19.4215 47.453 19.1784 47.5043 18.8034L48.2024 13.6192C47.6111 13.7552 47.0877 13.8608 46.6321 13.936C46.1866 14.0106 45.8729 14.0398 45.6911 14.0237ZM62.6165 17.9227C62.2376 17.952 61.9101 17.8017 61.6339 17.472C61.3669 17.1315 61.2115 16.6771 61.1676 16.1088C61.1268 15.5804 61.216 15.047 61.4352 14.5085C61.6644 13.9693 61.9799 13.4434 62.3816 12.931C62.7834 12.4185 63.2281 11.9429 63.7158 11.5041C64.2027 11.0553 64.6938 10.6613 65.1892 10.3222C65.6945 9.98227 66.16 9.71064 66.5856 9.50729C67.0112 9.30393 67.3536 9.19224 67.6129 9.17223C67.7525 9.16146 67.8694 9.18252 67.9638 9.23542C68.0574 9.27834 68.1095 9.3696 68.1203 9.50918C68.1272 9.59891 68.0989 9.68636 68.0352 9.77151C68.0452 9.77074 68.0552 9.76997 68.0652 9.7692C68.2845 9.75227 68.4042 9.87341 68.4242 10.1326C68.4311 10.2224 68.4105 10.4095 68.3622 10.6941C68.3132 10.9687 68.2596 11.3138 68.2014 11.7295C68.1432 12.1452 68.0985 12.605 68.0672 13.1089C68.0351 13.6029 68.0387 14.1041 68.0779 14.6126C68.111 15.0413 68.2921 15.243 68.6211 15.2176C68.99 15.1891 69.3574 15.0755 69.7231 14.8767C70.0889 14.678 70.4421 14.4451 70.7825 14.1781C71.1222 13.9012 71.4324 13.6315 71.713 13.3691C71.9929 13.0968 72.231 12.8678 72.4273 12.6821C72.6236 12.4965 72.7666 12.4002 72.8563 12.3933C72.9361 12.3871 73.0078 12.4066 73.0715 12.4519C73.1351 12.4971 73.1712 12.5746 73.1797 12.6842C73.1874 12.7839 73.1015 12.9711 72.9221 13.2457C72.7427 13.5203 72.5012 13.8349 72.1976 14.1893C71.894 14.5437 71.5497 14.8912 71.1647 15.2319C70.7798 15.5725 70.3807 15.8591 69.9674 16.0916C69.554 16.3241 69.1529 16.4553 68.7641 16.4853C68.465 16.5084 68.1839 16.4398 67.9208 16.2796C67.6669 16.1087 67.4478 15.8046 67.2636 15.3675C67.0894 14.9296 66.9719 14.3168 66.9111 13.5292L66.8822 13.1553C66.456 14.0006 65.9995 14.778 65.5127 15.4876C65.0358 16.1964 64.5485 16.7706 64.0509 17.2102C63.5632 17.649 63.0851 17.8865 62.6165 17.9227ZM67.4118 10.271C67.3635 10.2948 67.296 10.3301 67.2094 10.3769C66.7669 10.6216 66.3083 10.9178 65.8337 11.2654C65.369 11.6122 64.917 11.9931 64.4776 12.4081C64.0482 12.8224 63.6648 13.2482 63.3275 13.6854C62.9901 14.1227 62.728 14.5592 62.5409 14.9948C62.3539 15.4305 62.2758 15.8478 62.3066 16.2466C62.3166 16.3762 62.3492 16.474 62.4044 16.5399C62.4696 16.6051 62.572 16.6323 62.7116 16.6215C62.911 16.6061 63.1606 16.4615 63.4605 16.1876C63.7595 15.9038 64.0823 15.5378 64.4288 15.0898C64.7854 14.6411 65.1384 14.1474 65.488 13.6089C65.8376 13.0704 66.1669 12.5285 66.4758 11.9831C66.7947 11.4369 67.0669 10.9345 67.2922 10.4758C67.3267 10.4029 67.3666 10.3346 67.4118 10.271ZM73.1284 17.006C72.9689 17.0183 72.8293 16.9639 72.7096 16.8427C72.59 16.7216 72.5213 16.5464 72.5036 16.317C72.4905 16.1475 72.5038 15.8657 72.5436 15.4714C72.5926 15.0665 72.6415 14.5963 72.6905 14.061C72.7494 13.5248 72.7918 12.9699 72.8177 12.3962C72.8429 11.8126 72.8351 11.2565 72.7943 10.7281C72.7743 10.4689 72.8245 10.2744 72.9449 10.1448C73.0744 10.0044 73.224 9.92764 73.3935 9.91456C73.553 9.90225 73.6803 9.99272 73.7755 10.186C73.8706 10.3792 73.9164 10.7769 73.9127 11.3789C74.2928 10.3266 74.7332 9.47013 75.2339 8.80965C75.7437 8.13842 76.2625 7.64704 76.7901 7.33551C77.3169 7.01401 77.7996 6.83633 78.2383 6.80247C78.5275 6.78015 78.7415 6.82381 78.8803 6.93345C79.0284 7.03235 79.1078 7.15159 79.1186 7.29118C79.1332 7.48062 79.065 7.63633 78.9139 7.75831C78.772 7.86956 78.5171 8.0096 78.149 8.17843C77.7233 8.38179 77.3349 8.61236 76.9837 8.87016C76.6417 9.11721 76.3201 9.4329 76.0188 9.81723C75.7274 10.2008 75.4488 10.6837 75.1828 11.2659C74.916 11.8381 74.6593 12.5399 74.4125 13.3714C74.1658 14.2028 73.9118 15.2003 73.6506 16.3639C73.6077 16.5879 73.5398 16.7486 73.4471 16.846C73.3643 16.9427 73.2581 16.996 73.1284 17.006ZM81.3979 16.2323C80.8097 16.2777 80.3287 16.0891 79.9551 15.6666C79.5815 15.2441 79.367 14.674 79.3116 13.9561C79.2915 13.6969 79.3053 13.42 79.3527 13.1255C79.4094 12.8202 79.4883 12.5433 79.5895 12.2948C79.5143 12.2304 79.4522 12.1399 79.4031 12.0233C79.3532 11.8968 79.3209 11.7388 79.3063 11.5494C79.2609 10.9611 79.3191 10.415 79.4807 9.91107C79.6424 9.40714 79.874 8.963 80.1753 8.57867C80.4758 8.18437 80.8178 7.87213 81.2012 7.64194C81.5946 7.41098 82.0007 7.27934 82.4194 7.24701C83.1074 7.19391 83.685 7.40007 84.1522 7.8655C84.6186 8.32095 84.8907 9.05218 84.9684 10.0592C85.0092 10.5876 84.971 11.1322 84.8538 11.6928C84.7466 12.2528 84.578 12.7974 84.348 13.3266C84.1281 13.8551 83.859 14.3322 83.5408 14.758C83.2326 15.183 82.8933 15.5301 82.5229 15.7994C82.1618 16.058 81.7868 16.2023 81.3979 16.2323ZM80.5373 11.7101C80.6033 11.7852 80.6413 11.8876 80.6513 12.0172C80.6629 12.1668 80.6445 12.3187 80.5962 12.4728C80.5579 12.6262 80.5188 12.8349 80.479 13.0987C80.4392 13.3625 80.4378 13.7338 80.4747 14.2123C80.5117 14.6909 80.7196 14.9156 81.0984 14.8863C81.5172 14.854 81.8933 14.6595 82.2269 14.3028C82.5596 13.9361 82.8452 13.4777 83.0836 12.9277C83.322 12.3778 83.4929 11.7979 83.5962 11.1881C83.7088 10.5676 83.7443 9.98818 83.7028 9.44978C83.6758 9.10082 83.5922 8.86155 83.4518 8.73197C83.3106 8.59242 83.0705 8.53572 82.7316 8.56189C82.3826 8.58883 82.0279 8.73656 81.6675 9.00509C81.3163 9.26289 81.0315 9.60081 80.813 10.0189C80.5945 10.4369 80.5045 10.8952 80.543 11.3937C80.5515 11.5034 80.5496 11.6089 80.5373 11.7101ZM91.764 15.6428C91.5945 15.6558 91.4441 15.5922 91.313 15.4519C91.1818 15.3116 91.105 15.0969 91.0827 14.8077C91.0565 14.4687 91.0691 13.9813 91.1203 13.3455C91.1815 12.7089 91.2767 11.864 91.4061 10.811C91.1861 11.4699 90.9336 12.0961 90.6484 12.6899C90.3732 13.2828 90.07 13.7726 89.7388 14.1592C89.4076 14.5459 89.0525 14.7538 88.6737 14.783C88.3048 14.8115 87.9646 14.6923 87.6531 14.4255C87.3516 14.1579 87.1728 13.6602 87.1166 12.9324C87.0851 12.5236 87.0846 12.0623 87.1151 11.5484C87.1449 11.0245 87.195 10.5041 87.2654 9.98719C87.3358 9.47024 87.4105 9.00813 87.4894 8.60085C87.5675 8.1836 87.6441 7.87679 87.7192 7.68043C87.7767 7.51551 87.8384 7.40544 87.9043 7.3502C87.9695 7.28499 88.0619 7.24777 88.1816 7.23853C88.3212 7.22776 88.4753 7.27604 88.6441 7.38337C88.8129 7.4907 88.908 7.68395 88.9296 7.96312C88.9349 8.03291 88.9127 8.20011 88.863 8.46473C88.8224 8.71861 88.7665 9.03384 88.6952 9.41044C88.6332 9.7763 88.5685 10.1725 88.5011 10.5989C88.4338 11.0254 88.3813 11.4507 88.3439 11.8748C88.3164 12.2982 88.3161 12.6843 88.343 13.0333C88.3576 13.2227 88.3895 13.3757 88.4386 13.4923C88.4877 13.6089 88.5921 13.661 88.7516 13.6487C88.8912 13.6379 89.0549 13.4848 89.2427 13.1895C89.4405 12.8934 89.6463 12.5064 89.8602 12.0286C90.0832 11.5399 90.3074 11.0011 90.5328 10.412C90.7681 9.82214 90.9923 9.21809 91.2053 8.59986C91.4283 7.98086 91.6287 7.3937 91.8065 6.83837C91.8724 6.65275 91.9487 6.53653 92.0354 6.48972C92.1213 6.43295 92.219 6.40032 92.3287 6.39186C92.5082 6.37801 92.6735 6.44047 92.8246 6.57925C92.9849 6.70729 93.0739 6.88597 93.0917 7.11529C93.1032 7.26484 93.0933 7.52638 93.0619 7.8999C93.0406 8.27265 92.9993 8.71213 92.938 9.21835C92.886 9.71382 92.8214 10.2404 92.744 10.798C92.6767 11.3548 92.609 11.9066 92.5408 12.4535C92.472 12.9904 92.4046 13.482 92.3388 13.9284C92.2829 14.3741 92.2354 14.7338 92.1964 15.0076C92.1658 15.2607 92.1083 15.4256 92.024 15.5023C91.9503 15.5883 91.8637 15.6351 91.764 15.6428ZM96.6879 14.5556C96.3988 14.5779 96.1269 14.4334 95.8721 14.1221C95.6174 13.8108 95.4701 13.3959 95.43 12.8774C95.3862 12.3091 95.414 11.6951 95.5135 11.0355C95.623 10.3751 95.7667 9.70209 95.9444 9.01638C96.1214 8.32069 96.2953 7.65032 96.4662 7.00526C96.506 6.87179 96.5685 6.77169 96.6536 6.70494C96.748 6.62745 96.8948 6.58101 97.0942 6.56562C97.4532 6.53791 97.6461 6.69854 97.673 7.04751C97.6792 7.12727 97.6532 7.30981 97.5949 7.59514C97.5367 7.88047 97.4586 8.23252 97.3605 8.65131C97.2724 9.06933 97.1821 9.52263 97.0894 10.0112C96.9959 10.4898 96.9178 10.9723 96.8551 11.4585C96.7923 11.9448 96.7568 12.3939 96.7484 12.8057C96.8949 12.6239 97.0543 12.3508 97.2268 11.9865C97.4093 11.6214 97.6032 11.2102 97.8086 10.7531C98.0133 10.2859 98.2279 9.81802 98.4525 9.34934C98.6763 8.8707 98.9032 8.43194 99.1332 8.03305C99.3724 7.62343 99.6078 7.29434 99.8393 7.04578C100.08 6.78648 100.31 6.64837 100.529 6.63144C100.849 6.60681 101.125 6.68574 101.36 6.86821C101.604 7.03995 101.805 7.36547 101.962 7.84478C102.129 8.31335 102.246 8.98634 102.314 9.86373C102.35 10.3323 102.428 10.7676 102.55 11.1694C102.681 11.5705 102.861 11.8876 103.09 12.1207C103.327 12.3431 103.616 12.4412 103.955 12.415C104.463 12.3757 104.91 12.251 105.295 12.0407C105.679 11.8205 106.007 11.5846 106.278 11.3329C106.559 11.0706 106.792 10.842 106.978 10.6471C107.162 10.4423 107.31 10.3356 107.419 10.3272C107.649 10.3095 107.773 10.4203 107.791 10.6595C107.799 10.7592 107.736 10.9245 107.604 11.1554C107.48 11.3756 107.299 11.6303 107.061 11.9195C106.832 12.1979 106.562 12.4745 106.252 12.7492C105.952 13.0131 105.623 13.239 105.267 13.427C104.92 13.6143 104.562 13.7221 104.193 13.7506C103.505 13.8037 102.932 13.7126 102.472 13.4772C102.023 13.2411 101.669 12.8221 101.412 12.2201C101.165 11.6173 101.002 10.7975 100.921 9.76055C100.878 9.19224 100.811 8.78117 100.721 8.52733C100.64 8.26274 100.512 8.09213 100.335 8.01548C100.232 8.23409 100.1 8.54513 99.9411 8.9486C99.7809 9.34209 99.5942 9.78276 99.3811 10.2706C99.178 10.7577 98.9603 11.2509 98.7281 11.7503C98.505 12.2389 98.2743 12.693 98.0359 13.1126C97.7975 13.5322 97.5632 13.8762 97.3332 14.1447C97.1024 14.4032 96.8873 14.5402 96.6879 14.5556ZM112.192 6.13741C112.411 5.46856 112.614 4.78092 112.8 4.0745C112.996 3.36731 113.166 2.64708 113.31 1.91382C113.355 1.7098 113.432 1.54335 113.543 1.41447C113.662 1.27485 113.807 1.1985 113.976 1.18542C114.096 1.17618 114.199 1.21335 114.286 1.29693C114.383 1.37973 114.437 1.49591 114.448 1.64547C114.463 1.83491 114.413 2.1697 114.3 2.64985C114.197 3.12923 114.063 3.73632 113.899 4.47111C113.745 5.20514 113.595 6.04922 113.448 7.00337C113.31 7.94677 113.21 8.98757 113.147 10.1258C113.094 11.2632 113.117 12.47 113.216 13.7462C113.237 14.0254 113.195 14.2593 113.089 14.448C112.984 14.6467 112.847 14.7526 112.678 14.7656C112.578 14.7733 112.481 14.7557 112.388 14.7128C112.294 14.6699 112.205 14.5564 112.121 14.3723C112.047 14.1975 111.975 13.9172 111.905 13.5314C111.835 13.1357 111.773 12.5988 111.721 11.9208C111.681 11.4024 111.667 10.8367 111.68 10.2239C111.285 11.0869 110.843 11.8482 110.352 12.5079C109.871 13.1569 109.393 13.6651 108.92 14.0326C108.457 14.3994 108.051 14.5962 107.702 14.6232C107.273 14.6562 106.913 14.5386 106.622 14.2702C106.341 14.0111 106.179 13.6023 106.136 13.044C106.098 12.5555 106.174 12.0431 106.363 11.5069C106.552 10.9708 106.817 10.4388 107.158 9.91106C107.497 9.37333 107.879 8.86243 108.303 8.37836C108.727 7.89429 109.155 7.46506 109.588 7.09067C110.029 6.70554 110.442 6.40286 110.827 6.18264C111.21 5.95245 111.526 5.82774 111.776 5.8085C111.875 5.8008 111.968 5.82877 112.053 5.8924C112.138 5.95604 112.184 6.03771 112.192 6.13741ZM112.034 6.61604C111.969 6.69122 111.89 6.76755 111.795 6.84504C111.701 6.92253 111.597 7.00577 111.484 7.09477C111.069 7.43772 110.613 7.83397 110.116 8.28355C109.629 8.72238 109.164 9.19955 108.722 9.71507C108.29 10.2198 107.944 10.743 107.685 11.2846C107.426 11.8261 107.317 12.3711 107.36 12.9194C107.378 13.1587 107.507 13.2691 107.746 13.2507C108.075 13.2253 108.422 13.043 108.787 12.7039C109.162 12.3541 109.537 11.8838 109.912 11.2932C110.287 10.6925 110.655 9.99719 111.015 9.20712C111.374 8.40708 111.714 7.54339 112.034 6.61604ZM18.2443 38.2077C17.9736 38.2086 17.8355 38.0437 17.83 37.7132C17.8339 37.6326 17.8814 37.5337 17.9726 37.4163C18.0631 37.289 18.1728 37.2153 18.3016 37.1953C18.6084 37.1416 18.9838 37.0675 19.4278 36.973C19.8811 36.8678 20.3784 36.7492 20.9199 36.6171C20.9819 36.1209 21.0619 35.5982 21.1599 35.049C21.2579 34.4998 21.3721 33.9645 21.5023 33.4429C21.6318 32.9113 21.7751 32.4289 21.9322 31.9955C22.0893 31.5621 22.2633 31.2177 22.4542 30.9623C22.5554 30.8441 22.6494 30.7617 22.736 30.7148C22.8219 30.6581 22.8997 30.627 22.9695 30.6216C23.1091 30.6108 23.2234 30.6622 23.3124 30.7757C23.4114 30.8884 23.4666 31.0195 23.4782 31.1691C23.4843 31.2488 23.4755 31.3298 23.4518 31.4118C23.2955 31.9856 23.1342 32.6901 22.968 33.5253C22.8018 34.3606 22.6264 35.2718 22.4418 36.2589C23.3475 36.0386 24.2525 35.8082 25.1567 35.5679C26.0609 35.3276 26.8366 35.1123 27.4839 34.9219C27.6671 34.8275 27.8129 34.8313 27.921 34.9333C28.0392 35.0345 28.1025 35.14 28.1109 35.2496C28.1217 35.3892 28.0899 35.497 28.0155 35.5729C27.9511 35.6481 27.881 35.7137 27.8051 35.7697L27.7913 35.7858C27.598 35.881 27.3062 35.9988 26.9159 36.1393C26.5248 36.2697 26.0746 36.4148 25.5654 36.5745C25.0554 36.7242 24.5105 36.8766 23.9307 37.0316C23.3609 37.1859 22.7953 37.3299 22.2339 37.4635C22.0723 38.3586 21.9076 39.279 21.7399 40.2247C21.5814 41.1597 21.4217 42.0797 21.2609 42.9848C21.1889 43.3514 21.0916 43.5846 20.9689 43.6843C20.8569 43.7932 20.7312 43.8531 20.5916 43.8639C20.4321 43.8762 20.2879 43.8271 20.159 43.7167C20.0401 43.6056 20.0063 43.3624 20.0576 42.9874L20.7557 37.8033C20.1644 37.9392 19.6409 38.0448 19.1854 38.1201C18.7398 38.1946 18.4261 38.2238 18.2443 38.2077ZM27.4227 42.9906C27.2034 43.0075 27.0289 42.9558 26.8992 42.8354C26.7704 42.725 26.6871 42.4255 26.6494 41.937C26.6147 41.4883 26.6495 40.8989 26.7536 40.1687C26.8569 39.4285 27.0089 38.6044 27.2097 37.6963C27.4104 36.7881 27.6436 35.8474 27.9095 34.874C28.1746 33.8907 28.4562 32.9262 28.7543 31.9804C29.0616 31.0239 29.3601 30.1484 29.6498 29.3537C29.7579 29.0645 29.8775 28.8597 30.0086 28.7393C30.1397 28.6188 30.3 28.5513 30.4895 28.5367C30.6191 28.5267 30.7318 28.5581 30.8277 28.6309C30.9328 28.693 30.9919 28.8088 31.005 28.9783C31.0096 29.0381 30.9598 29.2376 30.8556 29.5766C30.7613 29.9148 30.6253 30.3616 30.4475 30.917C30.2797 31.4715 30.092 32.0928 29.8843 32.7808C29.6766 33.4689 29.4667 34.1922 29.2544 34.9508C29.0422 35.7093 28.8453 36.4718 28.6637 37.238C28.4814 37.9943 28.3316 38.7179 28.2144 39.409C28.0973 40.1001 28.0296 40.7171 28.0113 41.2601C28.2283 40.9525 28.474 40.5625 28.7484 40.0899C29.0229 39.6174 29.3146 39.1085 29.6235 38.5631C29.9325 38.0177 30.2468 37.4769 30.5665 36.9407C30.8861 36.4045 31.2043 35.9135 31.5209 35.4679C31.8376 35.0222 32.1358 34.6631 32.4157 34.3908C32.7048 34.1077 32.964 33.9573 33.1933 33.9396C33.5722 33.9104 33.8855 34.0065 34.1333 34.2281C34.3903 34.439 34.5392 34.8086 34.5799 35.337C34.603 35.6362 34.5709 35.9997 34.4836 36.4277C34.4062 36.8549 34.3105 37.3036 34.1963 37.7738C34.0822 38.244 33.9814 38.6931 33.8941 39.121C33.8168 39.5483 33.7896 39.9114 33.8127 40.2105C33.8443 40.6193 34.0146 40.8118 34.3237 40.7879C34.8023 40.751 35.2728 40.6094 35.7352 40.363C36.2076 40.116 36.6512 39.8209 37.066 39.478C37.4801 39.1251 37.8592 38.7749 38.2035 38.4273C38.547 38.0698 38.8395 37.7664 39.0811 37.5171C39.341 37.2463 39.5657 37.1036 39.7551 37.089C39.9944 37.0705 40.1237 37.1859 40.1429 37.4351C40.1483 37.5049 40.1395 37.5859 40.1165 37.6779C40.0935 37.7699 40.0226 37.8908 39.9038 38.0403C39.7581 38.2321 39.5469 38.4841 39.2701 38.7964C39.0033 39.1078 38.6881 39.4431 38.3247 39.8021C37.9712 40.1604 37.5813 40.5014 37.1549 40.8252C36.7386 41.1482 36.3034 41.4225 35.8494 41.6481C35.4046 41.8629 34.9629 41.9873 34.5242 42.0212C33.926 42.0673 33.4493 41.9336 33.0941 41.62C32.7481 41.2957 32.5516 40.8294 32.5047 40.2212C32.4754 39.8424 32.4999 39.3791 32.5779 38.8315C32.656 38.2839 32.7617 37.704 32.895 37.0919C33.0375 36.4691 33.1811 35.8613 33.3259 35.2683C33.0238 35.5123 32.7003 35.8683 32.3552 36.3362C32.0194 36.7934 31.6683 37.312 31.3018 37.8919C30.9346 38.4619 30.5682 39.0418 30.2025 39.6317C29.8468 40.2208 29.4979 40.7693 29.156 41.2771C28.8233 41.7742 28.5085 42.1796 28.2118 42.4934C27.9151 42.8071 27.6521 42.9729 27.4227 42.9906ZM44.7717 34.4902C44.7963 34.8092 44.7209 35.131 44.5453 35.4555C44.369 35.77 44.1271 36.0795 43.8196 36.3841C43.5114 36.6787 43.1671 36.961 42.7868 37.2311C42.4064 37.5011 42.0238 37.7413 41.6388 37.9515C41.2539 38.1618 40.9011 38.3345 40.5805 38.4695C40.5308 38.8645 40.5175 39.2116 40.5405 39.5107C40.5552 39.7001 40.6104 39.8313 40.7063 39.9041C40.8022 39.9769 40.9449 40.006 41.1343 39.9914C41.5531 39.9591 41.991 39.8501 42.448 39.6644C42.9051 39.4786 43.3687 39.2473 43.8387 38.9703C44.3088 38.6933 44.7578 38.4029 45.1857 38.099C45.6136 37.7952 46.0027 37.5094 46.3532 37.2416C46.7136 36.9731 47.0126 36.7544 47.2503 36.5856C47.4881 36.4168 47.6468 36.3294 47.7266 36.3232C47.8462 36.314 47.939 36.3469 48.005 36.4221C48.0802 36.4865 48.1216 36.5685 48.1293 36.6682C48.1355 36.748 48.0228 36.9122 47.7912 37.1607C47.5696 37.4085 47.2664 37.7027 46.8814 38.0434C46.4957 38.374 46.061 38.7185 45.5771 39.0768C45.0932 39.4351 44.5879 39.775 44.0611 40.0965C43.5442 40.4172 43.0381 40.682 42.5427 40.8907C42.0573 41.0987 41.6151 41.2181 41.2163 41.2488C40.6979 41.2889 40.2791 41.1256 39.9599 40.7591C39.6407 40.3926 39.4496 39.8005 39.3865 38.9829C39.3442 38.4346 39.3713 37.8758 39.4677 37.3067C39.5742 36.7368 39.7324 36.188 39.9424 35.6603C40.1617 35.1218 40.4104 34.6413 40.6887 34.2186C40.9762 33.7852 41.2856 33.4404 41.6168 33.1841C41.9473 32.9179 42.2771 32.7721 42.6061 32.7467C43.2342 32.6982 43.7412 32.8346 44.1271 33.1558C44.513 33.4771 44.7279 33.9219 44.7717 34.4902ZM40.8057 37.2937C41.1002 37.0804 41.4038 36.8564 41.7167 36.6216C42.0296 36.3868 42.3171 36.149 42.5793 35.9081C42.8416 35.6672 43.0482 35.4206 43.1992 35.1682C43.3595 34.9051 43.4296 34.6439 43.4096 34.3847C43.3811 34.0158 43.1674 33.8467 42.7686 33.8775C42.5194 33.8968 42.2675 34.0767 42.0129 34.4173C41.7676 34.7471 41.5395 35.1709 41.3287 35.6887C41.118 36.2065 40.9436 36.7415 40.8057 37.2937ZM56.9288 40.2466C56.4402 40.2844 56.008 40.2074 55.6321 40.0157C55.2655 39.8134 54.9736 39.54 54.7564 39.1957C54.5393 38.8514 54.4161 38.4898 54.3869 38.1109C54.3253 37.3133 54.4087 36.5747 54.6371 35.8951C54.8647 35.2055 55.1682 34.5904 55.5477 34.0495C55.9364 33.498 56.3413 33.0254 56.7622 32.6319C57.1932 32.2375 57.5862 31.9364 57.9412 31.7285C58.3055 31.5098 58.5673 31.3943 58.7269 31.382C59.0459 31.3573 59.2178 31.5046 59.2424 31.8236C59.2539 31.9732 59.1677 32.1553 58.9837 32.3701C58.7989 32.575 58.562 32.8189 58.2729 33.102C57.9838 33.3851 57.6775 33.7046 57.3539 34.0606C57.0296 34.4066 56.7287 34.7959 56.4511 35.2285C56.1729 35.6512 55.9532 36.1195 55.7923 36.6334C55.6306 37.1373 55.5725 37.6834 55.6179 38.2717C55.6641 38.8699 55.9314 39.1501 56.42 39.1124C56.8686 39.0778 57.3207 38.9577 57.7762 38.752C58.2417 38.5456 58.6934 38.29 59.1313 37.9854C59.5783 37.6701 60.0047 37.3463 60.4103 37.0141C60.8159 36.6819 61.1829 36.3677 61.511 36.0716C61.8385 35.7655 62.1153 35.5185 62.3415 35.3305C62.5677 35.1425 62.7306 35.0447 62.8303 35.037C63.0297 35.0216 63.1379 35.1236 63.1548 35.3429C63.1679 35.5124 63.0706 35.7456 62.8628 36.0425C62.655 36.3394 62.3694 36.6673 62.006 37.0264C61.6425 37.3854 61.2346 37.7529 60.7822 38.1288C60.329 38.4948 59.8689 38.8362 59.4019 39.1531C58.9342 39.46 58.4825 39.7155 58.0469 39.9196C57.6205 40.113 57.2478 40.222 56.9288 40.2466ZM64.6841 39.5878C64.0958 39.6332 63.6149 39.4447 63.2413 39.0222C62.8676 38.5997 62.6531 38.0295 62.5977 37.3117C62.5777 37.0524 62.5914 36.7756 62.6389 36.481C62.6956 36.1758 62.7745 35.8989 62.8757 35.6503C62.8005 35.5859 62.7383 35.4954 62.6892 35.3789C62.6393 35.2523 62.6071 35.0944 62.5925 34.9049C62.5471 34.3167 62.6052 33.7706 62.7669 33.2666C62.9286 32.7627 63.1601 32.3186 63.4614 31.9342C63.762 31.5399 64.1039 31.2277 64.4874 30.9975C64.8808 30.7665 65.2868 30.6349 65.7056 30.6026C66.3935 30.5495 66.9711 30.7556 67.4383 31.2211C67.9048 31.6765 68.1768 32.4077 68.2546 33.4147C68.2954 33.9432 68.2572 34.4877 68.14 35.0484C68.0327 35.6083 67.8641 36.1529 67.6342 36.6822C67.4142 37.2107 67.1451 37.6878 66.827 38.1136C66.5188 38.5385 66.1795 38.8857 65.8091 39.155C65.4479 39.4135 65.0729 39.5578 64.6841 39.5878ZM63.8235 35.0657C63.8895 35.1408 63.9275 35.2432 63.9375 35.3728C63.949 35.5224 63.9306 35.6742 63.8824 35.8284C63.8441 35.9818 63.805 36.1904 63.7652 36.4543C63.7254 36.7181 63.7239 37.0893 63.7609 37.5679C63.7978 38.0465 64.0057 38.2711 64.3846 38.2419C64.8033 38.2096 65.1795 38.015 65.513 37.6583C65.8458 37.2916 66.1314 36.8333 66.3697 36.2833C66.6081 35.7333 66.779 35.1535 66.8824 34.5437C66.995 33.9232 67.0305 33.3437 66.9889 32.8053C66.962 32.4564 66.8783 32.2171 66.7379 32.0875C66.5968 31.948 66.3567 31.8913 66.0177 31.9175C65.6687 31.9444 65.3141 32.0921 64.9537 32.3607C64.6025 32.6185 64.3176 32.9564 64.0991 33.3744C63.8807 33.7925 63.7907 34.2508 63.8292 34.7493C63.8376 34.859 63.8357 34.9644 63.8235 35.0657ZM70.797 39.2514C70.6375 39.2637 70.4979 39.2093 70.3782 39.0881C70.2585 38.967 70.1898 38.7918 70.1721 38.5624C70.159 38.3929 70.1724 38.1111 70.2122 37.7169C70.2612 37.3119 70.3101 36.8417 70.3591 36.3064C70.418 35.7702 70.4604 35.2153 70.4863 34.6416C70.5115 34.058 70.5037 33.5019 70.4629 32.9735C70.4429 32.7143 70.493 32.5198 70.6134 32.3902C70.743 32.2498 70.8925 32.173 71.062 32.16C71.2216 32.1477 71.3489 32.2381 71.4441 32.4314C71.5392 32.6246 71.5849 33.0223 71.5813 33.6243C71.9614 32.572 72.4018 31.7155 72.9025 31.055C73.4123 30.3838 73.931 29.8924 74.4586 29.5809C74.9854 29.2594 75.4682 29.0817 75.9069 29.0479C76.196 29.0256 76.41 29.0692 76.5489 29.1789C76.6969 29.2778 76.7763 29.397 76.7871 29.5366C76.8017 29.726 76.7335 29.8817 76.5825 30.0037C76.4406 30.115 76.1856 30.255 75.8175 30.4238C75.3919 30.6272 75.0035 30.8578 74.6523 31.1156C74.3103 31.3626 73.9886 31.6783 73.6873 32.0626C73.396 32.4462 73.1173 32.9291 72.8513 33.5113C72.5846 34.0835 72.3278 34.7853 72.0811 35.6168C71.8344 36.4482 71.5804 37.4458 71.3191 38.6093C71.2762 38.8333 71.2084 38.994 71.1156 39.0914C71.0328 39.1881 70.9266 39.2414 70.797 39.2514ZM78.2507 38.0442C77.9616 38.0665 77.6896 37.922 77.4349 37.6107C77.1802 37.2994 77.0328 36.8845 76.9928 36.366C76.9489 35.7977 76.9768 35.1837 77.0763 34.5241C77.1858 33.8637 77.3294 33.1907 77.5072 32.505C77.6842 31.8093 77.8581 31.1389 78.029 30.4938C78.0688 30.3604 78.1313 30.2603 78.2164 30.1935C78.3107 30.116 78.4576 30.0696 78.657 30.0542C79.0159 30.0265 79.2089 30.1871 79.2358 30.5361C79.242 30.6159 79.2159 30.7984 79.1577 31.0837C79.0995 31.3691 79.0214 31.7211 78.9233 32.1399C78.8352 32.5579 78.7448 33.0112 78.6522 33.4998C78.5587 33.9784 78.4806 34.4609 78.4178 34.9471C78.3551 35.4334 78.3195 35.8825 78.3112 36.2943C78.4577 36.1125 78.6171 35.8394 78.7896 35.4751C78.972 35.11 79.166 34.6988 79.3714 34.2417C79.576 33.7745 79.7907 33.3066 80.0153 32.8379C80.2391 32.3593 80.466 31.9205 80.696 31.5216C80.9352 31.112 81.1705 30.7829 81.4021 30.5344C81.6429 30.2751 81.8729 30.137 82.0923 30.12C82.4113 30.0954 82.6882 30.1743 82.9229 30.3568C83.1669 30.5285 83.3675 30.8541 83.5249 31.3334C83.6914 31.8019 83.8086 32.4749 83.8763 33.3523C83.9125 33.8209 83.9912 34.2562 84.1125 34.658C84.2437 35.0591 84.4237 35.3762 84.6523 35.6093C84.8901 35.8316 85.1785 35.9297 85.5175 35.9036C86.026 35.8643 86.4727 35.7396 86.8577 35.5293C87.2419 35.3091 87.5697 35.0732 87.8411 34.8215C88.1218 34.5592 88.3549 34.3305 88.5404 34.1357C88.7252 33.9309 88.8724 33.8242 88.9821 33.8157C89.2114 33.798 89.3353 33.9088 89.3538 34.1481C89.3615 34.2478 89.299 34.4131 89.1664 34.644C89.043 34.8642 88.862 35.1189 88.6236 35.4081C88.3943 35.6865 88.1248 35.9631 87.815 36.2377C87.5145 36.5017 87.1859 36.7276 86.8293 36.9156C86.4827 37.1029 86.1249 37.2107 85.756 37.2392C85.0681 37.2923 84.4943 37.2012 84.0349 36.9658C83.5854 36.7297 83.2321 36.3107 82.975 35.7087C82.7278 35.1059 82.5643 34.2861 82.4842 33.2491C82.4404 32.6808 82.3735 32.2698 82.2837 32.0159C82.2031 31.7513 82.0746 31.5807 81.8982 31.5041C81.7947 31.7227 81.6633 32.0337 81.5038 32.4372C81.3436 32.8307 81.157 33.2714 80.9439 33.7592C80.7408 34.2463 80.5231 34.7395 80.2909 35.2388C80.0678 35.7275 79.8371 36.1816 79.5986 36.6012C79.3602 37.0208 79.126 37.3648 78.896 37.6333C78.6652 37.8918 78.4501 38.0288 78.2507 38.0442ZM93.5073 30.4876C93.5565 31.1257 93.3002 31.7674 92.7381 32.4125C92.1761 33.0577 91.2912 33.6776 90.0834 34.2723C90.0628 34.5247 90.059 34.7356 90.0721 34.9051C90.1029 35.3039 90.175 35.5892 90.2886 35.761C90.4121 35.932 90.5985 36.0079 90.8478 35.9886C91.2167 35.9601 91.6216 35.8135 92.0625 35.5488C92.5027 35.2741 92.9528 34.9335 93.4129 34.5269C93.8722 34.1103 94.32 33.6745 94.7562 33.2196C95.2025 32.7639 95.6108 32.3362 95.9811 31.9365C96.3507 31.5269 96.6662 31.1966 96.9277 30.9457C97.1884 30.6849 97.3686 30.5506 97.4683 30.5429C97.6079 30.5322 97.7275 30.5881 97.8273 30.7108C97.9262 30.8235 97.9838 30.9846 98 31.194C98.02 31.4532 98.0281 31.7535 98.0244 32.0948C98.0199 32.4261 98.0119 32.7777 98.0005 33.1497C98.2035 32.4019 98.4787 31.7437 98.826 31.1753C99.1825 30.5962 99.5712 30.1098 99.9922 29.7163C100.413 29.3227 100.831 29.0196 101.246 28.8071C101.661 28.5945 102.023 28.4763 102.332 28.4524C102.621 28.4301 102.84 28.4684 102.988 28.5673C103.136 28.6662 103.215 28.7904 103.227 28.94C103.238 29.0796 103.183 29.2142 103.063 29.3439C102.951 29.4628 102.683 29.6289 102.259 29.8422C101.765 30.0809 101.305 30.3521 100.877 30.6559C100.459 30.959 100.079 31.3595 99.7362 31.8573C99.3927 32.3452 99.101 32.9845 98.8612 33.7753C98.6213 34.5661 98.4433 35.5728 98.327 36.7954C98.3056 37.0378 98.2489 37.2127 98.1569 37.32C98.0657 37.4374 97.9503 37.5015 97.8107 37.5123C97.711 37.52 97.6078 37.4828 97.5012 37.4008C97.3953 37.3287 97.3005 37.1404 97.2169 36.836C97.1324 36.5215 97.064 36.0253 97.0117 35.3473C96.9763 34.8887 96.9577 34.3886 96.9561 33.8472C96.9644 33.3049 96.9907 32.7362 97.035 32.141C96.6148 32.6749 96.1468 33.2376 95.6307 33.8291C95.114 34.4106 94.5746 34.9587 94.0125 35.4735C93.4497 35.9783 92.8903 36.3976 92.3343 36.7314C91.7784 37.0652 91.2511 37.2513 90.7526 37.2898C90.2242 37.3306 89.7862 37.1788 89.4387 36.8346C89.0912 36.4903 88.8893 35.9542 88.8331 35.2264C88.7685 34.3889 88.8189 33.6127 88.9844 32.8979C89.1498 32.183 89.3874 31.5579 89.6971 31.0224C90.0061 30.477 90.3492 30.0494 90.7265 29.7394C91.1037 29.4295 91.4768 29.2602 91.8457 29.2318C92.3442 29.1933 92.7381 29.2933 93.0273 29.5317C93.3157 29.7602 93.4757 30.0788 93.5073 30.4876ZM90.2384 33.1621C90.5214 32.9297 90.8273 32.6703 91.1563 32.3842C91.4952 32.0972 91.7789 31.8096 92.0074 31.5211C92.2451 31.2219 92.355 30.9577 92.3373 30.7284C92.3266 30.5888 92.284 30.4918 92.2096 30.4373C92.1352 30.3829 92.0132 30.3622 91.8437 30.3753C91.5745 30.3961 91.3356 30.5499 91.1271 30.8368C90.9178 31.1138 90.7392 31.4635 90.5913 31.8862C90.4426 32.2989 90.325 32.7242 90.2384 33.1621ZM103.532 36.6644C103.313 36.6814 103.093 36.6281 102.873 36.5047C102.663 36.3805 102.545 36.1589 102.521 35.8398C102.501 35.5806 102.549 35.3662 102.667 35.1967C102.784 35.0272 102.925 34.901 103.089 34.8181C103.252 34.7252 103.399 34.6738 103.528 34.6638C103.658 34.6538 103.805 34.6726 103.969 34.7201C104.143 34.7668 104.296 34.8603 104.427 35.0006C104.557 35.131 104.633 35.3358 104.655 35.6149C104.676 35.8941 104.574 36.1326 104.349 36.3306C104.123 36.5285 103.851 36.6398 103.532 36.6644Z" fill="#5C4033"/>
</svg>
