<svg width="164" height="98" viewBox="0 0 164 98" fill="none" xmlns="http://www.w3.org/2000/svg">
<path d="M19.9216 87.2C20.8465 86.2477 23.173 85.7373 25.2875 85.4682C28.0116 85.1167 30.7837 85.1941 33.4609 85.7986C35.4682 86.2521 37.7128 86.996 38.9415 88.1893M38.9415 88.1893C37.7128 86.996 36.9024 84.7728 36.3918 82.7808C35.7106 80.1211 35.5523 77.3524 35.8216 74.6219C36.0301 72.4991 36.4736 70.1574 37.3973 69.2063M38.9415 88.1893L24.161 73.8343C15.6436 65.562 15.4448 51.9493 23.717 43.4319L29.9584 37.0056" stroke="#5C4033"/>
<path d="M18.9582 23.8654C18.4198 23.907 17.9017 23.8216 17.4039 23.6093C16.9061 23.397 16.4903 23.078 16.1565 22.6524C15.822 22.2169 15.6305 21.685 15.582 21.0569C15.5412 20.5285 15.6274 19.9552 15.8404 19.3369C16.0627 18.708 16.3593 18.0682 16.7304 17.4177C17.1106 16.7565 17.5284 16.1275 17.9839 15.5307C18.4385 14.9239 18.8882 14.3827 19.3329 13.907C19.7768 13.4214 20.1733 13.0348 20.5222 12.7471C20.8711 12.4594 21.1203 12.3097 21.2698 12.2982C21.4593 12.2836 21.628 12.3257 21.7761 12.4246C21.9333 12.5128 22.025 12.6612 22.0511 12.8698C22.0588 12.9695 22.0328 13.0868 21.973 13.2218C21.9124 13.3469 21.7875 13.4819 21.5981 13.6269C21.3895 13.7834 21.1265 14.0143 20.809 14.3197C20.4916 14.625 20.1535 14.9871 19.7946 15.4059C19.435 15.8148 19.0831 16.2582 18.7389 16.7361C18.3939 17.2041 18.0799 17.6847 17.797 18.1779C17.5134 18.6612 17.2938 19.1295 17.1382 19.5828C16.9826 20.0361 16.9195 20.4522 16.9487 20.8311C16.9941 21.4193 17.1933 21.8553 17.5461 22.139C17.899 22.4226 18.3646 22.5422 18.9429 22.4975C19.242 22.4744 19.5894 22.3624 19.9851 22.1613C20.3808 21.9603 20.7822 21.7036 21.1894 21.3914C21.6066 21.0783 22.0018 20.7419 22.3752 20.3821C22.7479 20.0123 23.0611 19.6522 23.3149 19.3016C23.5786 18.9502 23.745 18.6365 23.8139 18.3604C23.5693 18.4394 23.2602 18.5285 22.8867 18.6275C22.5132 18.7266 22.1244 18.8218 21.7203 18.9132C21.3261 19.0038 20.966 19.0817 20.64 19.147C20.3141 19.2123 20.0764 19.2507 19.9268 19.2622C19.6177 19.2861 19.3673 19.2252 19.1755 19.0795C18.9937 18.933 18.8966 18.7801 18.8843 18.6205C18.8759 18.5109 18.9126 18.4027 18.9947 18.2961C19.0767 18.1895 19.2113 18.1139 19.3984 18.0693C19.6155 18.0225 19.9011 17.9553 20.2555 17.8678C20.619 17.7695 20.9978 17.6751 21.392 17.5845C21.7954 17.4831 22.1647 17.3944 22.4998 17.3184C22.845 17.2416 23.1072 17.1963 23.2867 17.1825C23.8052 17.1424 24.201 17.2674 24.4741 17.5572C24.7464 17.8371 24.9041 18.2562 24.9472 18.8145C24.968 19.0837 24.8588 19.4231 24.6196 19.8327C24.3804 20.2424 24.0477 20.6743 23.6214 21.1284C23.2043 21.5718 22.7304 21.9946 22.1998 22.3966C21.6791 22.7978 21.1385 23.1354 20.5779 23.4094C20.0166 23.6734 19.4766 23.8254 18.9582 23.8654ZM29.7315 23.2745C29.1433 23.3199 28.6624 23.1314 28.2887 22.7089C27.9151 22.2864 27.7006 21.7162 27.6452 20.9984C27.6252 20.7391 27.6389 20.4622 27.6864 20.1677C27.7431 19.8625 27.822 19.5856 27.9231 19.337C27.848 19.2726 27.7858 19.1821 27.7367 19.0656C27.6868 18.939 27.6546 18.7811 27.6399 18.5916C27.5945 18.0034 27.6527 17.4573 27.8144 16.9533C27.9761 16.4494 28.2076 16.0053 28.5089 15.6209C28.8094 15.2266 29.1514 14.9144 29.5348 14.6842C29.9282 14.4532 30.3343 14.3216 30.7531 14.2893C31.441 14.2362 32.0186 14.4423 32.4858 14.9078C32.9522 15.3632 33.2243 16.0944 33.3021 17.1014C33.3428 17.6299 33.3046 18.1744 33.1874 18.7351C33.0802 19.295 32.9116 19.8396 32.6817 20.3689C32.4617 20.8974 32.1926 21.3745 31.8744 21.8003C31.5662 22.2252 31.2269 22.5724 30.8566 22.8417C30.4954 23.1002 30.1204 23.2445 29.7315 23.2745ZM28.871 18.7524C28.9369 18.8275 28.9749 18.9299 28.9849 19.0595C28.9965 19.2091 28.9781 19.3609 28.9298 19.5151C28.8915 19.6685 28.8525 19.8771 28.8127 20.141C28.7728 20.4048 28.7714 20.776 28.8084 21.2546C28.8453 21.7332 29.0532 21.9578 29.4321 21.9286C29.8508 21.8963 30.227 21.7017 30.5605 21.345C30.8933 20.9783 31.1788 20.52 31.4172 19.97C31.6556 19.42 31.8265 18.8402 31.9299 18.2304C32.0424 17.6099 32.078 17.0304 32.0364 16.492C32.0095 16.1431 31.9258 15.9038 31.7854 15.7742C31.6443 15.6347 31.4042 15.578 31.0652 15.6042C30.7162 15.6311 30.3615 15.7788 30.0011 16.0474C29.6499 16.3052 29.3651 16.6431 29.1466 17.0611C28.9281 17.4792 28.8382 17.9375 28.8766 18.436C28.8851 18.5457 28.8832 18.6511 28.871 18.7524ZM37.339 22.6873C36.7507 22.7327 36.2698 22.5442 35.8962 22.1217C35.5226 21.6992 35.308 21.129 35.2526 20.4111C35.2326 20.1519 35.2464 19.875 35.2938 19.5805C35.3505 19.2752 35.4294 18.9983 35.5306 18.7498C35.4554 18.6854 35.3933 18.5949 35.3442 18.4784C35.2943 18.3518 35.262 18.1938 35.2474 18.0044C35.202 17.4162 35.2601 16.8701 35.4218 16.3661C35.5835 15.8622 35.815 15.4181 36.1163 15.0337C36.4169 14.6394 36.7589 14.3272 37.1423 14.097C37.5357 13.866 37.9418 13.7344 38.3605 13.7021C39.0485 13.649 39.626 13.8551 40.0933 14.3205C40.5597 14.776 40.8318 15.5072 40.9095 16.5142C40.9503 17.0427 40.9121 17.5872 40.7949 18.1479C40.6877 18.7078 40.5191 19.2524 40.2891 19.7817C40.0691 20.3102 39.8001 20.7873 39.4819 21.213C39.1737 21.638 38.8344 21.9852 38.464 22.2545C38.1028 22.513 37.7278 22.6573 37.339 22.6873ZM36.4784 18.1651C36.5444 18.2403 36.5824 18.3427 36.5924 18.4723C36.6039 18.6218 36.5856 18.7737 36.5373 18.9279C36.499 19.0813 36.4599 19.2899 36.4201 19.5538C36.3803 19.8176 36.3789 20.1888 36.4158 20.6674C36.4527 21.146 36.6606 21.3706 37.0395 21.3414C37.4583 21.3091 37.8344 21.1145 38.168 20.7578C38.5007 20.3911 38.7863 19.9328 39.0247 19.3828C39.2631 18.8328 39.4339 18.253 39.5373 17.6432C39.6499 17.0227 39.6854 16.4432 39.6438 15.9048C39.6169 15.5559 39.5332 15.3166 39.3929 15.187C39.2517 15.0475 39.0116 14.9908 38.6726 15.0169C38.3237 15.0439 37.969 15.1916 37.6086 15.4601C37.2574 15.7179 36.9725 16.0559 36.7541 16.4739C36.5356 16.892 36.4456 17.3503 36.4841 17.8488C36.4925 17.9584 36.4907 18.0639 36.4784 18.1651ZM48.1717 14.1333C48.3909 13.4644 48.5936 12.7768 48.7798 12.0704C48.9759 11.3632 49.146 10.6429 49.29 9.90968C49.3344 9.70566 49.4119 9.53921 49.5223 9.41033C49.6419 9.27071 49.7864 9.19436 49.9559 9.18128C50.0756 9.17204 50.1787 9.20921 50.2654 9.29279C50.3621 9.37559 50.4162 9.49177 50.4277 9.64133C50.4424 9.83077 50.393 10.1656 50.2796 10.6457C50.1762 11.1251 50.0425 11.7322 49.8786 12.467C49.7246 13.201 49.5741 14.0451 49.4271 14.9992C49.2893 15.9426 49.1891 16.9834 49.1265 18.1216C49.0739 19.259 49.0968 20.4659 49.1954 21.7421C49.2169 22.0212 49.1748 22.2552 49.069 22.4439C48.964 22.6425 48.8267 22.7484 48.6572 22.7615C48.5575 22.7692 48.4609 22.7516 48.3673 22.7087C48.2737 22.6657 48.1847 22.5522 48.1003 22.3682C48.0266 22.1933 47.9548 21.913 47.8849 21.5273C47.8143 21.1315 47.7528 20.5947 47.7004 19.9167C47.6604 19.3982 47.6468 18.8326 47.6597 18.2198C47.265 19.0827 46.8222 19.8441 46.3316 20.5038C45.8501 21.1528 45.3728 21.661 44.8997 22.0285C44.4365 22.3952 44.0305 22.5921 43.6815 22.619C43.2528 22.6521 42.8926 22.5345 42.6011 22.2661C42.3203 22.0069 42.1584 21.5982 42.1153 21.0399C42.0776 20.5513 42.1534 20.039 42.3427 19.5028C42.532 18.9666 42.7968 18.4347 43.1372 17.9069C43.4769 17.3692 43.8587 16.8583 44.2827 16.3742C44.7067 15.8902 45.1349 15.4609 45.5674 15.0865C46.0091 14.7014 46.422 14.3987 46.8062 14.1785C47.1896 13.9483 47.5059 13.8236 47.7552 13.8044C47.8549 13.7967 47.9473 13.8246 48.0325 13.8883C48.1176 13.9519 48.164 14.0336 48.1717 14.1333ZM48.0131 14.6119C47.9487 14.6871 47.8693 14.7634 47.775 14.8409C47.6807 14.9184 47.5768 15.0016 47.4633 15.0906C47.0485 15.4336 46.5926 15.8298 46.0958 16.2794C45.6081 16.7182 45.1434 17.1954 44.7018 17.7109C44.2694 18.2157 43.9236 18.7389 43.6645 19.2804C43.4054 19.822 43.297 20.3669 43.3394 20.9153C43.3578 21.1546 43.4867 21.265 43.726 21.2465C44.055 21.2211 44.402 21.0389 44.767 20.6998C45.1412 20.3499 45.5161 19.8797 45.8918 19.289C46.2667 18.6884 46.6342 17.993 46.9945 17.203C47.354 16.4029 47.6935 15.5392 48.0131 14.6119ZM60.6067 22.0798C60.4372 22.0929 60.298 22.0435 60.189 21.9316C60.0801 21.8196 60.0148 21.624 59.9933 21.3449C59.9548 20.8464 59.9401 20.331 59.9492 19.7987C59.9674 19.2557 59.9589 18.7548 59.9235 18.2962C59.8427 17.2493 59.6814 16.3942 59.4396 15.7308C59.207 15.0567 58.7774 14.6235 58.1508 14.4312C58.0073 14.3921 57.9034 14.345 57.8389 14.2898C57.7645 14.2353 57.7223 14.1433 57.7123 14.0137C57.7015 13.8741 57.7475 13.7552 57.8503 13.657C57.9431 13.5596 58.129 13.5001 58.4082 13.4785C58.6375 13.4608 58.9424 13.4473 59.3228 13.438C59.7032 13.4287 60.1135 13.4171 60.5538 13.4032C60.7774 12.2726 61.0556 11.3284 61.3882 10.5706C61.7209 9.81272 62.1004 9.20671 62.5267 8.75256C62.963 8.29763 63.4334 7.96043 63.938 7.74094C64.4526 7.52069 64.9941 7.38863 65.5624 7.34476C65.8116 7.32552 65.9738 7.3481 66.049 7.41251C66.1234 7.46694 66.1656 7.55897 66.1756 7.68858C66.188 7.84811 66.1512 8.02145 66.0653 8.20861C65.9787 8.3858 65.7828 8.51125 65.4776 8.58496C64.8088 8.75694 64.2225 9.02285 63.7187 9.38269C63.2149 9.74253 62.7921 10.2416 62.4502 10.8798C62.1075 11.508 61.8443 12.3207 61.6605 13.3178C62.6161 13.2239 63.4348 13.1106 64.1166 12.9777C64.7976 12.8349 65.3636 12.6959 65.8145 12.5608C66.2747 12.415 66.6416 12.2964 66.9154 12.205C67.1884 12.1037 67.3997 12.0473 67.5493 12.0358C67.7188 12.0227 67.8269 12.0595 67.8737 12.1461C67.9205 12.2328 67.9478 12.3259 67.9555 12.4257C67.9701 12.6151 67.8049 12.8134 67.4598 13.0206C67.114 13.2178 66.6523 13.4089 66.0748 13.5939C65.5065 13.7681 64.8765 13.922 64.1847 14.0557C63.493 14.1893 62.8081 14.2823 62.1301 14.3346C62.0205 14.3431 61.9108 14.3516 61.8011 14.36C61.7014 14.3677 61.5967 14.3758 61.487 14.3843C61.4725 14.4556 61.4633 14.5315 61.4595 14.6121C61.4044 15.198 61.352 15.8189 61.3024 16.4747C61.2619 17.1197 61.2256 17.7544 61.1936 18.3787C61.1707 18.9923 61.1586 19.5499 61.1572 20.0515C61.1558 20.5531 61.1666 20.9534 61.1897 21.2525C61.209 21.5018 61.1638 21.6958 61.0541 21.8347C60.9453 21.9835 60.7961 22.0652 60.6067 22.0798ZM60.3757 14.4099C60.0843 14.4023 59.812 14.3832 59.5589 14.3526C59.7 14.4921 59.8232 14.6581 59.9283 14.8506C60.0434 15.0423 60.1447 15.2501 60.2322 15.4741C60.2735 15.0998 60.3213 14.7451 60.3757 14.4099ZM68.0901 20.3137C67.5018 20.3591 67.0209 20.1705 66.6473 19.748C66.2737 19.3256 66.0591 18.7554 66.0037 18.0375C65.9837 17.7783 65.9975 17.5014 66.0449 17.2069C66.1016 16.9016 66.1805 16.6247 66.2817 16.3762C66.2065 16.3118 66.1444 16.2213 66.0953 16.1047C66.0454 15.9782 66.0131 15.8202 65.9985 15.6308C65.9531 15.0425 66.0112 14.4964 66.1729 13.9925C66.3346 13.4885 66.5661 13.0444 66.8674 12.6601C67.168 12.2658 67.51 11.9535 67.8934 11.7233C68.2868 11.4924 68.6929 11.3607 69.1116 11.3284C69.7996 11.2753 70.3772 11.4815 70.8444 11.9469C71.3108 12.4024 71.5829 13.1336 71.6606 14.1406C71.7014 14.669 71.6632 15.2136 71.546 15.7743C71.4388 16.3342 71.2702 16.8788 71.0402 17.408C70.8202 17.9365 70.5512 18.4136 70.233 18.8394C69.9248 19.2644 69.5855 19.6115 69.2151 19.8808C68.8539 20.1394 68.4789 20.2837 68.0901 20.3137ZM67.2295 15.7915C67.2955 15.8667 67.3335 15.969 67.3435 16.0986C67.355 16.2482 67.3367 16.4001 67.2884 16.5542C67.2501 16.7076 67.211 16.9163 67.1712 17.1801C67.1314 17.444 67.13 17.8152 67.1669 18.2937C67.2038 18.7723 67.4118 18.997 67.7906 18.9677C68.2094 18.9354 68.5855 18.7409 68.9191 18.3842C69.2518 18.0175 69.5374 17.5591 69.7758 17.0092C70.0142 16.4592 70.185 15.8793 70.2884 15.2695C70.401 14.649 70.4365 14.0696 70.395 13.5312C70.368 13.1822 70.2844 12.943 70.144 12.8134C70.0028 12.6738 69.7627 12.6171 69.4237 12.6433C69.0748 12.6702 68.7201 12.818 68.3597 13.0865C68.0085 13.3443 67.7237 13.6822 67.5052 14.1003C67.2867 14.5183 67.1967 14.9766 67.2352 15.4751C67.2437 15.5848 67.2418 15.6903 67.2295 15.7915ZM75.6975 19.7265C75.1093 19.7719 74.6284 19.5833 74.2547 19.1608C73.8811 18.7383 73.6666 18.1682 73.6112 17.4503C73.5912 17.1911 73.6049 16.9142 73.6524 16.6197C73.7091 16.3144 73.788 16.0375 73.8892 15.789C73.814 15.7246 73.7518 15.6341 73.7027 15.5175C73.6528 15.391 73.6206 15.233 73.6059 15.0436C73.5605 14.4553 73.6187 13.9092 73.7804 13.4053C73.9421 12.9013 74.1736 12.4572 74.4749 12.0729C74.7754 11.6786 75.1174 11.3663 75.5008 11.1361C75.8942 10.9052 76.3003 10.7735 76.7191 10.7412C77.407 10.6881 77.9846 10.8943 78.4518 11.3597C78.9182 11.8152 79.1903 12.5464 79.2681 13.5534C79.3088 14.0818 79.2706 14.6264 79.1534 15.187C79.0462 15.747 78.8776 16.2916 78.6477 16.8208C78.4277 17.3493 78.1586 17.8264 77.8404 18.2522C77.5322 18.6772 77.1929 19.0243 76.8226 19.2936C76.4614 19.5522 76.0864 19.6965 75.6975 19.7265ZM74.837 15.2043C74.9029 15.2794 74.9409 15.3818 74.9509 15.5114C74.9625 15.661 74.9441 15.8129 74.8958 15.967C74.8575 16.1204 74.8185 16.3291 74.7787 16.5929C74.7388 16.8567 74.7374 17.228 74.7744 17.7065C74.8113 18.1851 75.0192 18.4098 75.3981 18.3805C75.8168 18.3482 76.193 18.1537 76.5265 17.797C76.8593 17.4303 77.1448 16.9719 77.3832 16.4219C77.6216 15.872 77.7925 15.2921 77.8959 14.6823C78.0084 14.0618 78.044 13.4824 78.0024 12.944C77.9755 12.595 77.8918 12.3557 77.7514 12.2262C77.6103 12.0866 77.3702 12.0299 77.0312 12.0561C76.6822 12.083 76.3275 12.2308 75.9671 12.4993C75.6159 12.7571 75.3311 13.095 75.1126 13.5131C74.8942 13.9311 74.8042 14.3894 74.8426 14.8879C74.8511 14.9976 74.8492 15.1031 74.837 15.2043ZM86.5303 11.1724C86.7495 10.5036 86.9522 9.81593 87.1383 9.10951C87.3345 8.40231 87.5046 7.68209 87.6486 6.94883C87.693 6.74481 87.7704 6.57836 87.8808 6.44948C88.0004 6.30986 88.145 6.23351 88.3145 6.22042C88.4341 6.21119 88.5373 6.24836 88.624 6.33193C88.7206 6.41474 88.7747 6.53092 88.7863 6.68048C88.8009 6.86991 88.7515 7.20471 88.6381 7.68486C88.5347 8.16424 88.4011 8.77133 88.2371 9.50612C88.0832 10.2401 87.9327 11.0842 87.7857 12.0384C87.6479 12.9818 87.5477 14.0226 87.4851 15.1608C87.4325 16.2982 87.4554 17.505 87.5539 18.7812C87.5755 19.0604 87.5333 19.2943 87.4275 19.483C87.3225 19.6817 87.1853 19.7876 87.0158 19.8006C86.9161 19.8083 86.8194 19.7907 86.7258 19.7478C86.6323 19.7049 86.5433 19.5914 86.4588 19.4073C86.3852 19.2325 86.3134 18.9522 86.2435 18.5664C86.1728 18.1707 86.1113 17.6338 86.059 16.9558C86.019 16.4374 86.0054 15.8718 86.0183 15.2589C85.6235 16.1219 85.1808 16.8832 84.6901 17.5429C84.2086 18.1919 83.7313 18.7002 83.2582 19.0677C82.7951 19.4344 82.389 19.6312 82.04 19.6582C81.6113 19.6913 81.2512 19.5736 80.9597 19.3053C80.6789 19.0461 80.517 18.6373 80.4739 18.079C80.4362 17.5905 80.512 17.0781 80.7013 16.5419C80.8905 16.0058 81.1554 15.4738 81.4958 14.9461C81.8354 14.4083 82.2172 13.8974 82.6412 13.4134C83.0652 12.9293 83.4935 12.5001 83.9259 12.1257C84.3676 11.7405 84.7805 11.4379 85.1647 11.2176C85.5482 10.9875 85.8645 10.8627 86.1138 10.8435C86.2135 10.8358 86.3059 10.8638 86.391 10.9274C86.4762 10.991 86.5226 11.0727 86.5303 11.1724ZM86.3717 11.651C86.3073 11.7262 86.2279 11.8026 86.1336 11.8801C86.0393 11.9575 85.9354 12.0408 85.8219 12.1298C85.407 12.4727 84.9512 12.869 84.4543 13.3186C83.9666 13.7574 83.502 14.2346 83.0603 14.7501C82.6279 15.2549 82.2821 15.778 82.0231 16.3196C81.764 16.8611 81.6556 17.4061 81.6979 17.9544C81.7164 18.1937 81.8453 18.3041 82.0845 18.2857C82.4136 18.2603 82.7606 18.078 83.1256 17.7389C83.4997 17.3891 83.8747 16.9188 84.2503 16.3282C84.6252 15.7275 84.9928 15.0322 85.3531 14.2421C85.7125 13.4421 86.0521 12.5784 86.3717 11.651ZM103.352 9.87399C103.571 9.20514 103.774 8.5175 103.96 7.81108C104.156 7.10389 104.326 6.38366 104.47 5.6504C104.514 5.44638 104.592 5.27993 104.702 5.15105C104.822 5.01143 104.966 4.93508 105.136 4.92199C105.256 4.91276 105.359 4.94993 105.445 5.03351C105.542 5.11631 105.596 5.23249 105.608 5.38205C105.622 5.57149 105.573 5.90628 105.46 6.38643C105.356 6.86581 105.223 7.4729 105.059 8.20769C104.905 8.94172 104.754 9.7858 104.607 10.7399C104.469 11.6834 104.369 12.7241 104.307 13.8623C104.254 14.9998 104.277 16.2066 104.375 17.4828C104.397 17.762 104.355 17.9959 104.249 18.1846C104.144 18.3833 104.007 18.4891 103.837 18.5022C103.738 18.5099 103.641 18.4923 103.547 18.4494C103.454 18.4065 103.365 18.293 103.28 18.1089C103.207 17.9341 103.135 17.6538 103.065 17.268C102.994 16.8723 102.933 16.3354 102.88 15.6574C102.84 15.139 102.827 14.5733 102.84 13.9605C102.445 14.8235 102.002 15.5848 101.512 16.2445C101.03 16.8935 100.553 17.4017 100.08 17.7692C99.6165 18.136 99.2105 18.3328 98.8615 18.3597C98.4328 18.3928 98.0726 18.2752 97.7811 18.0068C97.5003 17.7477 97.3384 17.3389 97.2953 16.7806C97.2576 16.292 97.3334 15.7797 97.5227 15.2435C97.712 14.7074 97.9768 14.1754 98.3172 13.6476C98.6569 13.1099 99.0387 12.599 99.4627 12.1149C99.8867 11.6309 100.315 11.2016 100.747 10.8273C101.189 10.4421 101.602 10.1394 101.986 9.91922C102.37 9.68903 102.686 9.56431 102.935 9.54507C103.035 9.53738 103.127 9.56535 103.212 9.62898C103.298 9.69262 103.344 9.77429 103.352 9.87399ZM103.193 10.3526C103.129 10.4278 103.049 10.5041 102.955 10.5816C102.861 10.6591 102.757 10.7424 102.643 10.8314C102.228 11.1743 101.773 11.5706 101.276 12.0201C100.788 12.459 100.323 12.9361 99.8818 13.4517C99.4494 13.9564 99.1036 14.4796 98.8445 15.0211C98.5854 15.5627 98.477 16.1076 98.5194 16.656C98.5378 16.8953 98.6667 17.0057 98.906 16.9872C99.235 16.9618 99.582 16.7796 99.947 16.4405C100.321 16.0907 100.696 15.6204 101.072 15.0298C101.447 14.4291 101.814 13.7338 102.174 12.9437C102.534 12.1437 102.874 11.28 103.193 10.3526ZM112.616 10.2421C112.64 10.5612 112.565 10.883 112.389 11.2074C112.213 11.5219 111.971 11.8315 111.663 12.136C111.355 12.4306 111.011 12.713 110.631 12.983C110.25 13.2531 109.868 13.4933 109.483 13.7035C109.098 13.9138 108.745 14.0864 108.424 14.2215C108.375 14.6165 108.361 14.9636 108.384 15.2627C108.399 15.4521 108.454 15.5832 108.55 15.6561C108.646 15.7289 108.789 15.758 108.978 15.7434C109.397 15.7111 109.835 15.602 110.292 15.4163C110.749 15.2306 111.213 14.9992 111.683 14.7222C112.153 14.4452 112.602 14.1548 113.03 13.851C113.457 13.5472 113.847 13.2614 114.197 12.9936C114.557 12.7251 114.856 12.5064 115.094 12.3376C115.332 12.1688 115.491 12.0813 115.57 12.0752C115.69 12.0659 115.783 12.0989 115.849 12.174C115.924 12.2384 115.965 12.3205 115.973 12.4202C115.979 12.5 115.867 12.6641 115.635 12.9127C115.413 13.1605 115.11 13.4547 114.725 13.7953C114.34 14.126 113.905 14.4705 113.421 14.8288C112.937 15.1871 112.432 15.527 111.905 15.8485C111.388 16.1692 110.882 16.4339 110.387 16.6427C109.901 16.8506 109.459 16.97 109.06 17.0008C108.542 17.0408 108.123 16.8776 107.804 16.5111C107.485 16.1445 107.293 15.5525 107.23 14.7349C107.188 14.1865 107.215 13.6278 107.312 13.0587C107.418 12.4888 107.576 11.94 107.786 11.4123C108.006 10.8738 108.254 10.3932 108.533 9.97056C108.82 9.53715 109.129 9.19232 109.461 8.93607C109.791 8.66984 110.121 8.52403 110.45 8.49864C111.078 8.45015 111.585 8.58654 111.971 8.90779C112.357 9.22905 112.572 9.67383 112.616 10.2421ZM108.65 13.0457C108.944 12.8324 109.248 12.6084 109.561 12.3736C109.873 12.1388 110.161 11.901 110.423 11.6601C110.685 11.4192 110.892 11.1725 111.043 10.9202C111.203 10.6571 111.273 10.3959 111.253 10.1367C111.225 9.76776 111.011 9.5987 110.612 9.62948C110.363 9.64872 110.111 9.82864 109.857 10.1692C109.611 10.4991 109.383 10.9229 109.173 11.4407C108.962 11.9584 108.787 12.4934 108.65 13.0457ZM117.237 16.7006C117.018 16.7175 116.843 16.6658 116.714 16.5454C116.595 16.4343 116.529 16.2989 116.517 16.1394C116.506 15.9998 116.556 15.8656 116.666 15.7367C116.786 15.5971 116.952 15.4689 117.163 15.3523C117.546 15.1121 117.904 14.8739 118.236 14.6376C118.579 14.4005 118.851 14.1539 119.052 13.8976C119.253 13.6414 119.343 13.3787 119.322 13.1095C119.304 12.8802 119.216 12.7115 119.057 12.6034C118.898 12.4853 118.688 12.4363 118.429 12.4563C118.28 12.4678 118.073 12.5139 117.808 12.5945C117.543 12.6651 117.253 12.7477 116.939 12.8421C116.635 12.9258 116.335 13.0091 116.041 13.092C115.746 13.1649 115.493 13.2095 115.284 13.2256C114.905 13.2549 114.614 13.1871 114.411 13.0222C114.207 12.8474 114.092 12.6005 114.068 12.2814C114.055 12.1219 114.132 11.8753 114.296 11.5416C114.461 11.208 114.683 10.8348 114.962 10.4221C115.251 9.99863 115.569 9.57288 115.917 9.14482C116.265 8.71676 116.62 8.31823 116.983 7.94922C117.356 7.57945 117.703 7.27679 118.026 7.04125C118.359 6.80493 118.64 6.67793 118.869 6.66022C119.099 6.64252 119.279 6.70383 119.41 6.84415C119.541 6.98447 119.616 7.16929 119.633 7.39861C119.647 7.57808 119.629 7.73493 119.58 7.86916C119.529 7.99342 119.412 8.09776 119.228 8.18217C119.053 8.26582 118.777 8.32725 118.399 8.36646C118.034 8.70556 117.648 9.09144 117.24 9.52412C116.841 9.94606 116.479 10.3803 116.152 10.8267C115.835 11.2624 115.611 11.6759 115.48 12.0671C115.801 11.932 116.192 11.8065 116.655 11.6906C117.127 11.5639 117.607 11.4817 118.095 11.444C118.863 11.3847 119.445 11.5153 119.841 11.8358C120.246 12.1456 120.47 12.5796 120.513 13.138C120.54 13.4969 120.455 13.8796 120.255 14.2862C120.065 14.682 119.803 15.0582 119.47 15.415C119.136 15.7717 118.773 16.0655 118.38 16.2965C117.987 16.5374 117.606 16.6721 117.237 16.7006ZM127.737 8.83419C127.787 9.47229 127.53 10.1139 126.968 10.7591C126.406 11.4043 125.521 12.0242 124.314 12.6189C124.293 12.8713 124.289 13.0822 124.302 13.2517C124.333 13.6505 124.405 13.9358 124.519 14.1075C124.642 14.2785 124.829 14.3544 125.078 14.3352C125.447 14.3067 125.852 14.1601 126.293 13.8954C126.733 13.6207 127.183 13.28 127.643 12.8734C128.102 12.4569 128.55 12.0211 128.986 11.5662C129.433 11.1105 129.841 10.6828 130.211 10.2831C130.581 9.87344 130.896 9.54318 131.158 9.29231C131.419 9.03148 131.599 8.89721 131.698 8.88951C131.838 8.87874 131.958 8.9347 132.057 9.05738C132.156 9.1701 132.214 9.33115 132.23 9.54053C132.25 9.79975 132.258 10.1 132.255 10.4413C132.25 10.7726 132.242 11.1243 132.231 11.4963C132.434 10.7484 132.709 10.0903 133.056 9.5219C133.413 8.94275 133.801 8.45639 134.222 8.06282C134.643 7.66926 135.061 7.3662 135.476 7.15364C135.891 6.94108 136.253 6.82287 136.562 6.79902C136.851 6.7767 137.07 6.81499 137.218 6.91389C137.366 7.01279 137.446 7.13701 137.457 7.28657C137.468 7.42615 137.413 7.56077 137.293 7.69042C137.182 7.80933 136.914 7.97545 136.489 8.18877C135.996 8.42743 135.535 8.69868 135.107 9.00251C134.689 9.30557 134.309 9.70602 133.966 10.2039C133.623 10.6918 133.331 11.3311 133.091 12.1219C132.851 12.9127 132.673 13.9194 132.557 15.142C132.536 15.3843 132.479 15.5592 132.387 15.6666C132.296 15.784 132.18 15.8481 132.041 15.8588C131.941 15.8665 131.838 15.8294 131.731 15.7473C131.625 15.6753 131.531 15.487 131.447 15.1825C131.363 14.8681 131.294 14.3719 131.242 13.6939C131.206 13.2353 131.188 12.7352 131.186 12.1937C131.195 11.6515 131.221 11.0828 131.265 10.4876C130.845 11.0215 130.377 11.5842 129.861 12.1757C129.344 12.7572 128.805 13.3053 128.243 13.8201C127.68 14.3249 127.12 14.7442 126.564 15.078C126.009 15.4118 125.481 15.5979 124.983 15.6364C124.454 15.6771 124.016 15.5254 123.669 15.1811C123.321 14.8369 123.119 14.3008 123.063 13.573C122.999 12.7355 123.049 11.9593 123.215 11.2444C123.38 10.5296 123.618 9.90442 123.927 9.369C124.236 8.82361 124.579 8.39593 124.957 8.08598C125.334 7.77603 125.707 7.60681 126.076 7.57834C126.574 7.53986 126.968 7.63984 127.257 7.87829C127.546 8.10677 127.706 8.4254 127.737 8.83419ZM124.469 11.5087C124.752 11.2762 125.057 11.0169 125.386 10.7307C125.725 10.4438 126.009 10.1561 126.238 9.86769C126.475 9.56851 126.585 9.30426 126.568 9.07494C126.557 8.93535 126.514 8.83834 126.44 8.78391C126.365 8.72948 126.243 8.7088 126.074 8.72188C125.805 8.74266 125.566 8.8965 125.357 9.1834C125.148 9.46033 124.969 9.81011 124.821 10.2328C124.673 10.6454 124.555 11.0707 124.469 11.5087ZM139.556 14.2708C139.406 14.2823 139.248 14.1842 139.082 13.9764C138.925 13.7678 138.796 13.4668 138.696 13.0734C138.594 12.66 138.492 12.1865 138.391 11.6527C138.289 11.1189 138.199 10.5943 138.119 10.0789C138.039 9.56356 137.974 9.10723 137.923 8.70995C137.872 8.31268 137.841 8.04425 137.831 7.90466C137.791 7.38621 137.841 6.99619 137.981 6.73462C138.13 6.46231 138.335 6.31615 138.594 6.29614C138.774 6.28228 138.907 6.32213 138.994 6.41568C139.081 6.49925 139.137 6.70555 139.163 7.03457C139.179 7.25392 139.206 7.53769 139.243 7.88588C139.28 8.23408 139.324 8.6118 139.376 9.01904C139.434 9.50605 139.494 10.023 139.556 10.5698C139.617 11.1067 139.673 11.6389 139.724 12.1666C139.933 11.7493 140.173 11.2844 140.444 10.772C140.725 10.2589 141.011 9.73534 141.301 9.20145C141.59 8.6576 141.871 8.13944 142.144 7.64698C142.416 7.15451 142.659 6.72456 142.871 6.35713C143.084 5.9897 143.249 5.72122 143.366 5.55169C143.52 5.3392 143.664 5.18768 143.797 5.09715C143.941 5.00584 144.067 4.95595 144.177 4.94749C144.326 4.93594 144.45 4.98155 144.548 5.08429C144.657 5.18627 144.718 5.33696 144.734 5.53637C144.743 5.65601 144.728 5.79254 144.69 5.94594C144.661 6.0886 144.597 6.23895 144.499 6.39697C144.262 6.82653 143.975 7.33012 143.638 7.90773C143.301 8.48535 142.952 9.08405 142.588 9.70386C142.225 10.3237 141.87 10.9277 141.524 11.5161C141.178 12.0945 140.876 12.6042 140.619 13.0453C140.169 13.8423 139.815 14.2508 139.556 14.2708ZM151.093 7.27214C151.117 7.59119 151.042 7.91295 150.866 8.23742C150.69 8.55192 150.448 8.86146 150.141 9.16602C149.832 9.46062 149.488 9.74295 149.108 10.013C148.727 10.2831 148.345 10.5233 147.96 10.7335C147.575 10.9438 147.222 11.1164 146.902 11.2515C146.852 11.6465 146.838 11.9935 146.862 12.2927C146.876 12.4821 146.931 12.6132 147.027 12.6861C147.123 12.7589 147.266 12.788 147.455 12.7734C147.874 12.7411 148.312 12.632 148.769 12.4463C149.226 12.2606 149.69 12.0292 150.16 11.7522C150.63 11.4752 151.079 11.1848 151.507 10.881C151.935 10.5771 152.324 10.2914 152.674 10.0236C153.035 9.75506 153.334 9.53639 153.571 9.3676C153.809 9.1988 153.968 9.11133 154.048 9.10517C154.167 9.09593 154.26 9.12889 154.326 9.20403C154.401 9.26844 154.443 9.35049 154.45 9.4502C154.456 9.52996 154.344 9.69412 154.112 9.94268C153.891 10.1905 153.587 10.4847 153.202 10.8253C152.817 11.156 152.382 11.5005 151.898 11.8588C151.414 12.2171 150.909 12.557 150.382 12.8785C149.865 13.1992 149.359 13.4639 148.864 13.6727C148.378 13.8806 147.936 14 147.537 14.0308C147.019 14.0708 146.6 13.9076 146.281 13.541C145.962 13.1745 145.771 12.5825 145.707 11.7649C145.665 11.2165 145.692 10.6578 145.789 10.0887C145.895 9.5188 146.053 8.96999 146.263 8.44227C146.483 7.9038 146.731 7.42323 147.01 7.00056C147.297 6.56715 147.607 6.22231 147.938 5.96606C148.268 5.69984 148.598 5.55403 148.927 5.52863C149.555 5.48014 150.062 5.61653 150.448 5.93779C150.834 6.25904 151.049 6.70383 151.093 7.27214ZM147.127 10.0757C147.421 9.86238 147.725 9.63835 148.038 9.40357C148.351 9.1688 148.638 8.93096 148.9 8.69007C149.163 8.44917 149.369 8.20254 149.52 7.95016C149.68 7.68705 149.751 7.42588 149.731 7.16665C149.702 6.79775 149.488 6.62869 149.09 6.65948C148.84 6.67872 148.588 6.85864 148.334 7.19924C148.089 7.5291 147.861 7.9529 147.65 8.47066C147.439 8.98842 147.265 9.52342 147.127 10.0757ZM155.714 13.7306C155.495 13.7475 155.321 13.6958 155.191 13.5754C155.072 13.4643 155.006 13.3289 154.994 13.1694C154.983 13.0298 155.033 12.8956 155.144 12.7667C155.263 12.6271 155.429 12.4989 155.64 12.3823C156.023 12.1421 156.381 11.9039 156.714 11.6676C157.056 11.4305 157.328 11.1839 157.529 10.9276C157.73 10.6714 157.82 10.4087 157.799 10.1395C157.782 9.91019 157.693 9.74148 157.534 9.63338C157.375 9.51531 157.166 9.46628 156.906 9.48629C156.757 9.49783 156.55 9.54391 156.285 9.62451C156.02 9.69514 155.73 9.77766 155.417 9.87208C155.112 9.95576 154.813 10.0391 154.518 10.122C154.223 10.1949 153.971 10.2395 153.761 10.2556C153.382 10.2849 153.091 10.2171 152.888 10.0522C152.684 9.87741 152.57 9.63047 152.545 9.31142C152.533 9.1519 152.609 8.9053 152.774 8.57162C152.938 8.23795 153.16 7.86476 153.439 7.45206C153.728 7.02862 154.046 6.60287 154.394 6.17481C154.742 5.74676 155.097 5.34822 155.46 4.97922C155.833 4.60944 156.181 4.30678 156.503 4.07124C156.836 3.83493 157.117 3.70792 157.347 3.69022C157.576 3.67252 157.756 3.73383 157.887 3.87415C158.018 4.01447 158.093 4.19929 158.111 4.4286C158.124 4.60807 158.106 4.76492 158.057 4.89915C158.006 5.02341 157.889 5.12775 157.705 5.21217C157.531 5.29581 157.255 5.35724 156.876 5.39646C156.511 5.73555 156.125 6.12144 155.717 6.55411C155.318 6.97605 154.956 7.41025 154.629 7.85671C154.312 8.29243 154.088 8.70588 153.958 9.09707C154.278 8.962 154.67 8.83649 155.132 8.72056C155.604 8.59389 156.084 8.51169 156.572 8.47398C157.34 8.41472 157.922 8.54534 158.318 8.86583C158.723 9.17557 158.947 9.60962 158.99 10.168C159.018 10.5269 158.932 10.9096 158.733 11.3162C158.542 11.712 158.281 12.0882 157.947 12.445C157.614 12.8017 157.25 13.0955 156.857 13.3265C156.464 13.5674 156.083 13.7021 155.714 13.7306ZM53.2826 42.9203C53.2849 43.0806 53.2301 43.2152 53.1182 43.3242C53.0062 43.4331 52.8705 43.4937 52.711 43.506C52.5315 43.5199 52.3773 43.4716 52.2485 43.3612C52.1196 43.2508 52.0455 43.071 52.0263 42.8217C51.9762 42.1736 51.9519 41.4684 51.9532 40.7061C51.9538 39.9337 51.9701 39.1702 52.0021 38.4155C52.0333 37.6508 52.0692 36.946 52.1097 36.301C51.8168 36.795 51.4979 37.3411 51.1529 37.9394C50.8179 38.537 50.4726 39.1303 50.1169 39.7195C49.7611 40.3086 49.4119 40.8521 49.0692 41.3499C48.7258 41.8378 48.4106 42.2382 48.1239 42.5512C47.8364 42.8543 47.5929 43.0135 47.3935 43.0289C47.0246 43.0573 46.6944 42.9374 46.4028 42.669C46.1106 42.3907 45.9471 42.0272 45.9125 41.5785C45.8986 41.3991 45.8997 41.1533 45.9157 40.8411C45.931 40.519 45.9501 40.1815 45.973 39.8287C45.9959 39.4759 46.0157 39.1484 46.0325 38.8462C46.0486 38.534 46.0508 38.3032 46.0393 38.1536C46.0285 38.014 46.0043 37.8956 45.9667 37.7982C45.9383 37.69 45.8842 37.639 45.8044 37.6452C45.6848 37.6544 45.5307 37.8017 45.3421 38.0871C45.1527 38.3625 44.9442 38.7146 44.7165 39.1434C44.4988 39.5714 44.2731 40.0251 44.0393 40.5045C43.8154 40.9832 43.6046 41.4357 43.4069 41.8622C43.2083 42.2787 43.0382 42.6078 42.8963 42.8494C42.7836 43.0788 42.6763 43.2475 42.5743 43.3557C42.4724 43.4639 42.3416 43.5241 42.1821 43.5364C41.9926 43.5511 41.8105 43.4648 41.6356 43.2777C41.4706 43.0899 41.377 42.8514 41.3547 42.5622C41.3416 42.3927 41.3511 42.1262 41.3832 41.7627C41.4145 41.3891 41.4582 40.9796 41.514 40.5339C41.5799 40.0876 41.6415 39.6515 41.6989 39.2258C41.7655 38.7894 41.8222 38.419 41.8689 38.1145C41.9225 37.7693 42.0045 37.5323 42.1149 37.4034C42.2253 37.2745 42.3503 37.2047 42.4899 37.1939C42.6793 37.1793 42.8343 37.2376 42.9547 37.3687C43.0844 37.4891 43.16 37.6888 43.1815 37.968C43.1853 38.0179 43.1658 38.1548 43.1229 38.3787C43.0793 38.5927 43.0245 38.8577 42.9586 39.1737C42.902 39.479 42.8365 39.8 42.7622 40.1367C42.6978 40.4727 42.6465 40.7825 42.6082 41.0663C42.7991 40.6805 42.9977 40.264 43.2038 39.8168C43.42 39.3688 43.6366 38.9258 43.8535 38.4878C44.0697 38.0399 44.2889 37.6318 44.5112 37.2636C44.7328 36.8854 44.9551 36.5824 45.1783 36.3546C45.4014 36.1267 45.6226 36.0043 45.842 35.9874C46.1012 35.9674 46.3466 36.0287 46.5783 36.1713C46.8199 36.3131 47.0209 36.5132 47.1813 36.7716C47.3417 37.0301 47.4345 37.3238 47.4599 37.6528C47.4776 37.8821 47.4628 38.2092 47.4153 38.6342C47.3671 39.0491 47.3166 39.4993 47.2638 39.9848C47.221 40.4696 47.2062 40.927 47.2193 41.3573C47.227 41.457 47.2608 41.5046 47.3206 41.4999C47.3704 41.4961 47.4276 41.4566 47.492 41.3814C47.7565 41.04 48.0459 40.6315 48.3602 40.1559C48.6738 39.6704 48.9904 39.1595 49.3101 38.6233C49.6398 38.0863 49.9652 37.5597 50.2864 37.0435C50.6069 36.5173 50.9062 36.0428 51.1845 35.6201C51.472 35.1867 51.7262 34.8411 51.947 34.5834C52.1778 34.3249 52.363 34.1902 52.5026 34.1794C52.8017 34.1563 53.0375 34.2234 53.2102 34.3806C53.3828 34.5377 53.4845 34.8157 53.5152 35.2146C53.5399 35.5336 53.5469 35.9493 53.5363 36.4616C53.5356 36.9732 53.5235 37.5308 53.4999 38.1344C53.4863 38.7372 53.463 39.3458 53.4302 39.9602C53.4066 40.5638 53.3799 41.1275 53.3501 41.6514C53.3196 42.1652 53.2971 42.5882 53.2826 42.9203ZM58.2634 43.1376C57.6751 43.183 57.1942 42.9945 56.8206 42.572C56.4469 42.1495 56.2324 41.5793 56.177 40.8615C56.157 40.6022 56.1707 40.3254 56.2182 40.0308C56.2749 39.7256 56.3538 39.4487 56.455 39.2001C56.3798 39.1357 56.3177 39.0452 56.2685 38.9287C56.2187 38.8021 56.1864 38.6442 56.1718 38.4547C56.1264 37.8665 56.1845 37.3204 56.3462 36.8164C56.5079 36.3125 56.7394 35.8684 57.0407 35.484C57.3413 35.0897 57.6833 34.7775 58.0667 34.5473C58.4601 34.3163 58.8662 34.1847 59.2849 34.1524C59.9729 34.0993 60.5504 34.3054 61.0176 34.7709C61.4841 35.2263 61.7562 35.9575 61.8339 36.9645C61.8747 37.493 61.8365 38.0375 61.7193 38.5982C61.612 39.1581 61.4435 39.7027 61.2135 40.232C60.9935 40.7605 60.7245 41.2376 60.4063 41.6634C60.0981 42.0883 59.7588 42.4355 59.3884 42.7048C59.0272 42.9633 58.6522 43.1076 58.2634 43.1376ZM57.4028 38.6155C57.4688 38.6906 57.5068 38.793 57.5168 38.9226C57.5283 39.0722 57.51 39.224 57.4617 39.3782C57.4234 39.5316 57.3843 39.7402 57.3445 40.0041C57.3047 40.2679 57.3032 40.6391 57.3402 41.1177C57.3771 41.5963 57.585 41.8209 57.9639 41.7917C58.3827 41.7594 58.7588 41.5649 59.0923 41.2081C59.4251 40.8414 59.7107 40.3831 59.9491 39.8331C60.1874 39.2831 60.3583 38.7033 60.4617 38.0935C60.5743 37.473 60.6098 36.8935 60.5682 36.3551C60.5413 36.0062 60.4576 35.7669 60.3172 35.6373C60.1761 35.4978 59.936 35.4411 59.597 35.4673C59.2481 35.4942 58.8934 35.6419 58.533 35.9105C58.1818 36.1683 57.8969 36.5062 57.6785 36.9242C57.46 37.3423 57.37 37.8006 57.4085 38.2991C57.4169 38.4088 57.415 38.5142 57.4028 38.6155ZM64.3763 42.8012C64.2168 42.8135 64.0772 42.7591 63.9575 42.6379C63.8378 42.5168 63.7691 42.3416 63.7514 42.1122C63.7384 41.9427 63.7517 41.6609 63.7915 41.2667C63.8405 40.8617 63.8894 40.3915 63.9384 39.8562C63.9973 39.32 64.0397 38.7651 64.0656 38.1914C64.0908 37.6078 64.083 37.0517 64.0422 36.5233C64.0222 36.2641 64.0724 36.0696 64.1927 35.94C64.3223 35.7996 64.4719 35.7228 64.6414 35.7098C64.8009 35.6975 64.9282 35.7879 65.0234 35.9812C65.1185 36.1744 65.1643 36.5721 65.1606 37.1741C65.5407 36.1218 65.9811 35.2653 66.4818 34.6048C66.9916 33.9336 67.5104 33.4422 68.0379 33.1307C68.5648 32.8092 69.0475 32.6315 69.4862 32.5977C69.7754 32.5754 69.9893 32.619 70.1282 32.7287C70.2762 32.8276 70.3557 32.9468 70.3664 33.0864C70.3811 33.2758 70.3128 33.4315 70.1618 33.5535C70.0199 33.6648 69.7649 33.8048 69.3968 33.9736C68.9712 34.177 68.5828 34.4076 68.2316 34.6654C67.8896 34.9124 67.568 35.2281 67.2666 35.6124C66.9753 35.996 66.6966 36.4789 66.4307 37.0611C66.1639 37.6333 65.9072 38.3351 65.6604 39.1666C65.4137 39.998 65.1597 40.9956 64.8985 42.1591C64.8556 42.3831 64.7877 42.5438 64.695 42.6412C64.6121 42.7379 64.5059 42.7912 64.3763 42.8012ZM75.7457 35.1535C75.7703 35.4726 75.6948 35.7943 75.5193 36.1188C75.343 36.4333 75.1011 36.7429 74.7936 37.0474C74.4853 37.342 74.1411 37.6243 73.7607 37.8944C73.3804 38.1645 72.9977 38.4047 72.6128 38.6149C72.2278 38.8252 71.875 38.9978 71.5545 39.1329C71.5047 39.5279 71.4914 39.8749 71.5145 40.174C71.5291 40.3635 71.5844 40.4946 71.6803 40.5675C71.7761 40.6403 71.9188 40.6694 72.1082 40.6548C72.527 40.6225 72.9649 40.5134 73.422 40.3277C73.879 40.142 74.3426 39.9106 74.8127 39.6336C75.2828 39.3566 75.7317 39.0662 76.1596 38.7624C76.5875 38.4585 76.9767 38.1727 77.3271 37.905C77.6875 37.6364 77.9866 37.4178 78.2243 37.249C78.462 37.0802 78.6207 36.9927 78.7005 36.9866C78.8201 36.9773 78.9129 37.0103 78.9789 37.0854C79.0541 37.1498 79.0955 37.2319 79.1032 37.3316C79.1094 37.4114 78.9967 37.5755 78.7651 37.8241C78.5436 38.0719 78.2403 38.3661 77.8554 38.7067C77.4697 39.0374 77.0349 39.3819 76.551 39.7402C76.0672 40.0985 75.5618 40.4384 75.035 40.7598C74.5182 41.0806 74.012 41.3453 73.5166 41.5541C73.0312 41.762 72.5891 41.8814 72.1903 41.9122C71.6718 41.9522 71.253 41.789 70.9338 41.4224C70.6147 41.0559 70.4236 40.4639 70.3605 39.6463C70.3181 39.0979 70.3452 38.5392 70.4417 37.9701C70.5481 37.4002 70.7064 36.8514 70.9164 36.3237C71.1356 35.7852 71.3844 35.3046 71.6626 34.882C71.9501 34.4485 72.2595 34.1037 72.5908 33.8475C72.9213 33.5812 73.251 33.4354 73.5801 33.41C74.2082 33.3615 74.7152 33.4979 75.1011 33.8192C75.4869 34.1404 75.7018 34.5852 75.7457 35.1535ZM71.7797 37.9571C72.0741 37.7438 72.3778 37.5197 72.6906 37.285C73.0035 37.0502 73.291 36.8124 73.5533 36.5715C73.8155 36.3306 74.0222 36.0839 74.1732 35.8316C74.3334 35.5684 74.4035 35.3073 74.3835 35.048C74.355 34.6791 74.1414 34.5101 73.7426 34.5409C73.4933 34.5601 73.2414 34.74 72.9869 35.0806C72.7415 35.4105 72.5135 35.8343 72.3027 36.3521C72.0919 36.8698 71.9176 37.4048 71.7797 37.9571ZM83.2847 36.2416C83.014 36.2424 82.8759 36.0775 82.8704 35.747C82.8742 35.6664 82.9218 35.5675 83.013 35.4501C83.1035 35.3228 83.2131 35.2491 83.342 35.2291C83.6487 35.1754 84.0242 35.1013 84.4682 35.0068C84.9215 34.9016 85.4188 34.783 85.9602 34.6509C86.0222 34.1547 86.1022 33.632 86.2003 33.0828C86.2983 32.5336 86.4124 31.9983 86.5427 31.4767C86.6722 30.9451 86.8155 30.4627 86.9726 30.0293C87.1297 29.5959 87.3037 29.2515 87.4946 28.9961C87.5958 28.8779 87.6897 28.7955 87.7764 28.7486C87.8623 28.6919 87.9401 28.6608 88.0099 28.6554C88.1495 28.6446 88.2638 28.696 88.3528 28.8095C88.4517 28.9222 88.507 29.0533 88.5185 29.2029C88.5247 29.2826 88.5159 29.3636 88.4922 29.4456C88.3358 30.0194 88.1746 30.7239 88.0084 31.5591C87.8422 32.3944 87.6668 33.3056 87.4822 34.2927C88.3879 34.0724 89.2929 33.842 90.1971 33.6017C91.1012 33.3614 91.877 33.1461 92.5242 32.9557C92.7075 32.8613 92.8532 32.8651 92.9614 32.9671C93.0796 33.0683 93.1429 33.1738 93.1513 33.2834C93.1621 33.423 93.1303 33.5308 93.0559 33.6067C92.9915 33.6819 92.9214 33.7475 92.8454 33.8035L92.8316 33.8196C92.6384 33.9148 92.3466 34.0326 91.9562 34.1731C91.5651 34.3035 91.115 34.4486 90.6057 34.6083C90.0957 34.758 89.5509 34.9104 88.9711 35.0654C88.4013 35.2198 87.8357 35.3637 87.2743 35.4973C87.1127 36.3924 86.948 37.3128 86.7803 38.2585C86.6218 39.1935 86.4621 40.1135 86.3013 41.0186C86.2293 41.3852 86.132 41.6184 86.0093 41.7181C85.8973 41.8271 85.7716 41.8869 85.632 41.8977C85.4725 41.91 85.3282 41.8609 85.1994 41.7505C85.0805 41.6394 85.0466 41.3962 85.0979 41.0212L85.796 35.8371C85.2047 35.973 84.6813 36.0786 84.2258 36.1539C83.7802 36.2284 83.4665 36.2576 83.2847 36.2416ZM92.7195 40.7187C92.3406 40.748 92.0131 40.5977 91.7369 40.268C91.4699 39.9276 91.3145 39.4732 91.2706 38.9049C91.2298 38.3764 91.319 37.843 91.5382 37.3045C91.7674 36.7653 92.0829 36.2394 92.4846 35.727C92.8864 35.2146 93.3311 34.7389 93.8188 34.3001C94.3057 33.8513 94.7968 33.4573 95.2922 33.1182C95.7975 32.7783 96.263 32.5067 96.6886 32.3033C97.1142 32.0999 97.4566 31.9883 97.7159 31.9683C97.8555 31.9575 97.9724 31.9785 98.0668 32.0314C98.1604 32.0744 98.2125 32.1656 98.2233 32.3052C98.2302 32.3949 98.2019 32.4824 98.1382 32.5675C98.1482 32.5668 98.1582 32.566 98.1682 32.5652C98.3875 32.5483 98.5072 32.6694 98.5272 32.9287C98.5341 33.0184 98.5135 33.2055 98.4652 33.4901C98.4162 33.7647 98.3626 34.1098 98.3044 34.5255C98.2462 34.9413 98.2015 35.4011 98.1702 35.905C98.1381 36.3989 98.1417 36.9001 98.1809 37.4086C98.214 37.8373 98.3951 38.039 98.7241 38.0136C99.093 37.9851 99.4604 37.8715 99.8261 37.6728C100.192 37.474 100.545 37.2412 100.886 36.9742C101.225 36.6972 101.535 36.4275 101.816 36.1652C102.096 35.8928 102.334 35.6638 102.53 35.4782C102.727 35.2925 102.87 35.1962 102.959 35.1893C103.039 35.1831 103.111 35.2027 103.174 35.2479C103.238 35.2931 103.274 35.3706 103.283 35.4803C103.29 35.58 103.205 35.7671 103.025 36.0417C102.846 36.3164 102.604 36.6309 102.301 36.9853C101.997 37.3397 101.653 37.6872 101.268 38.0279C100.883 38.3685 100.484 38.6551 100.07 38.8876C99.657 39.1201 99.2559 39.2513 98.8671 39.2813C98.568 39.3044 98.2869 39.2359 98.0238 39.0756C97.7699 38.9047 97.5508 38.6006 97.3666 38.1635C97.1924 37.7256 97.0749 37.1128 97.0141 36.3252L96.9852 35.9513C96.559 36.7966 96.1025 37.574 95.6157 38.2836C95.1388 38.9924 94.6516 39.5666 94.1539 40.0062C93.6662 40.4451 93.1881 40.6826 92.7195 40.7187ZM97.5148 33.067C97.4665 33.0908 97.399 33.1261 97.3124 33.1729C96.8699 33.4177 96.4113 33.7138 95.9367 34.0614C95.472 34.4082 95.02 34.7891 94.5806 35.2041C94.1512 35.6184 93.7678 36.0442 93.4305 36.4814C93.0931 36.9187 92.831 37.3552 92.6439 37.7909C92.4569 38.2265 92.3788 38.6438 92.4096 39.0426C92.4196 39.1722 92.4522 39.27 92.5074 39.3359C92.5726 39.4011 92.675 39.4283 92.8146 39.4175C93.014 39.4022 93.2636 39.2575 93.5635 38.9836C93.8625 38.6998 94.1853 38.3338 94.5318 37.8858C94.8884 37.4371 95.2414 36.9434 95.591 36.4049C95.9406 35.8664 96.2699 35.3245 96.5788 34.7791C96.8977 34.2329 97.1699 33.7305 97.3952 33.2718C97.4297 33.1989 97.4696 33.1307 97.5148 33.067ZM103.981 39.4734C103.552 39.5065 103.241 39.4452 103.049 39.2895C102.856 39.1339 102.747 38.8916 102.722 38.5625C102.594 36.9075 102.76 35.1545 103.219 33.3037C103.677 31.4429 104.374 29.5587 105.31 27.651C105.432 27.4109 105.53 27.2579 105.605 27.1919C105.691 27.1252 105.793 27.0872 105.913 27.0779C106.052 27.0672 106.181 27.1074 106.298 27.1986C106.415 27.2899 106.481 27.4202 106.494 27.5897C106.501 27.6795 106.43 27.9307 106.281 28.3433C106.132 28.746 105.941 29.2672 105.71 29.9069C105.478 30.5467 105.233 31.2627 104.973 32.055C104.722 32.8366 104.489 33.652 104.274 34.5011C104.059 35.3501 103.898 36.19 103.791 37.0207C103.995 36.664 104.241 36.2789 104.53 35.8654C104.829 35.4512 105.148 35.0354 105.487 34.6181C105.825 34.2008 106.172 33.818 106.526 33.4697C106.89 33.1206 107.245 32.8375 107.589 32.6204C107.933 32.4032 108.255 32.2831 108.554 32.26C108.943 32.23 109.295 32.3683 109.609 32.675C109.933 32.971 110.12 33.443 110.17 34.0911C110.212 34.6395 110.106 35.2143 109.852 35.8157C109.596 36.4071 109.199 36.9694 108.658 37.5026C108.127 38.025 107.469 38.467 106.684 38.8284C105.899 39.1799 104.998 39.3949 103.981 39.4734ZM103.953 38.3321C104.78 38.2683 105.522 38.0706 106.179 37.7391C106.835 37.4076 107.386 37.009 107.832 36.5433C108.286 36.0669 108.625 35.5844 108.848 35.0958C109.081 34.5964 109.182 34.1523 109.152 33.7635C109.13 33.4843 109.025 33.352 108.835 33.3667C108.606 33.3844 108.32 33.5167 107.978 33.7638C107.636 34.0108 107.27 34.33 106.879 34.7213C106.498 35.1117 106.119 35.5321 105.742 35.9824C105.365 36.4228 105.017 36.8508 104.698 37.2666C104.389 37.6816 104.141 38.0368 103.953 38.3321ZM114.622 39.2387C113.855 39.298 113.232 39.0953 112.755 38.6306C112.287 38.1552 112.018 37.4639 111.948 36.5566C111.905 35.9982 111.929 35.3394 112.021 34.5801C112.122 33.81 112.26 32.997 112.435 32.141C112.618 31.2743 112.823 30.416 113.048 29.5662C113.273 28.7163 113.493 27.927 113.708 27.1984C113.932 26.459 114.13 25.8419 114.302 25.3471C114.401 25.0687 114.56 24.921 114.78 24.9041C115.079 24.881 115.242 25.0539 115.271 25.4228C115.28 25.5425 115.244 25.791 115.163 26.1683C115.082 26.5457 114.973 27.0155 114.835 27.5777C114.698 28.13 114.549 28.7432 114.391 29.4174C114.232 30.0916 114.07 30.7861 113.905 31.501C113.748 32.2051 113.607 32.9031 113.479 33.5949C113.352 34.2768 113.256 34.9161 113.191 35.5128C113.127 36.1095 113.111 36.6172 113.143 37.036C113.164 37.3052 113.25 37.5142 113.402 37.6629C113.563 37.8009 113.769 37.8603 114.018 37.8411C114.477 37.8057 114.928 37.6805 115.373 37.4657C115.827 37.2401 116.258 36.9761 116.666 36.6738C117.073 36.3616 117.441 36.0574 117.769 35.7612C118.106 35.4543 118.393 35.2016 118.628 35.0029C118.863 34.7942 119.03 34.686 119.13 34.6783C119.349 34.6614 119.468 34.7725 119.486 35.0118C119.493 35.0916 119.424 35.2473 119.282 35.479C119.138 35.7007 118.943 35.9665 118.696 36.2764C118.449 36.5863 118.158 36.9097 117.823 37.2464C117.498 37.5725 117.151 37.8851 116.782 38.1843C116.424 38.4728 116.056 38.7118 115.679 38.9013C115.314 39.1001 114.961 39.2125 114.622 39.2387ZM124.443 31.3947C124.467 31.7137 124.392 32.0355 124.216 32.3599C124.04 32.6744 123.798 32.984 123.491 33.2885C123.182 33.5831 122.838 33.8655 122.458 34.1355C122.077 34.4056 121.695 34.6458 121.31 34.856C120.925 35.0663 120.572 35.2389 120.252 35.374C120.202 35.769 120.189 36.1161 120.212 36.4152C120.226 36.6046 120.281 36.7357 120.377 36.8086C120.473 36.8814 120.616 36.9105 120.805 36.8959C121.224 36.8636 121.662 36.7546 122.119 36.5688C122.576 36.3831 123.04 36.1517 123.51 35.8747C123.98 35.5977 124.429 35.3073 124.857 35.0035C125.285 34.6997 125.674 34.4139 126.024 34.1461C126.385 33.8776 126.684 33.6589 126.921 33.4901C127.159 33.3213 127.318 33.2338 127.398 33.2277C127.517 33.2185 127.61 33.2514 127.676 33.3266C127.751 33.391 127.793 33.473 127.8 33.5727C127.807 33.6525 127.694 33.8166 127.462 34.0652C127.241 34.313 126.937 34.6072 126.552 34.9478C126.167 35.2785 125.732 35.623 125.248 35.9813C124.764 36.3396 124.259 36.6795 123.732 37.001C123.215 37.3217 122.709 37.5864 122.214 37.7952C121.728 38.0032 121.286 38.1225 120.887 38.1533C120.369 38.1933 119.95 38.0301 119.631 37.6636C119.312 37.297 119.121 36.705 119.058 35.8874C119.015 35.3391 119.042 34.7803 119.139 34.2112C119.245 33.6413 119.404 33.0925 119.614 32.5648C119.833 32.0263 120.081 31.5457 120.36 31.1231C120.647 30.6897 120.957 30.3448 121.288 30.0886C121.618 29.8224 121.948 29.6765 122.277 29.6511C122.905 29.6027 123.412 29.739 123.798 30.0603C124.184 30.3816 124.399 30.8263 124.443 31.3947ZM120.477 34.1982C120.771 33.9849 121.075 33.7609 121.388 33.5261C121.701 33.2913 121.988 33.0535 122.25 32.8126C122.513 32.5717 122.719 32.3251 122.87 32.0727C123.031 31.8096 123.101 31.5484 123.081 31.2892C123.052 30.9203 122.839 30.7512 122.44 30.782C122.19 30.8012 121.939 30.9812 121.684 31.3218C121.439 31.6516 121.211 32.0754 121 32.5932C120.789 33.1109 120.615 33.6459 120.477 34.1982ZM129.064 37.8531C128.845 37.8701 128.671 37.8183 128.541 37.698C128.422 37.5868 128.356 37.4514 128.344 37.2919C128.333 37.1523 128.383 37.0181 128.494 36.8892C128.613 36.7496 128.779 36.6215 128.99 36.5048C129.373 36.2647 129.731 36.0264 130.064 35.7901C130.406 35.553 130.678 35.3064 130.879 35.0502C131.08 34.7939 131.17 34.5312 131.149 34.262C131.132 34.0327 131.043 33.864 130.885 33.7559C130.725 33.6378 130.516 33.5888 130.256 33.6088C130.107 33.6204 129.9 33.6664 129.635 33.747C129.37 33.8177 129.08 33.9002 128.767 33.9946C128.462 34.0783 128.163 34.1616 127.868 34.2445C127.573 34.3174 127.321 34.362 127.111 34.3781C126.732 34.4074 126.441 34.3396 126.238 34.1747C126.034 33.9999 125.92 33.753 125.895 33.4339C125.883 33.2744 125.959 33.0278 126.124 32.6941C126.289 32.3605 126.51 31.9873 126.79 31.5746C127.078 31.1511 127.396 30.7254 127.744 30.2973C128.092 29.8693 128.448 29.4707 128.81 29.1017C129.183 28.732 129.531 28.4293 129.853 28.1938C130.186 27.9574 130.467 27.8304 130.697 27.8127C130.926 27.795 131.106 27.8563 131.237 27.9967C131.369 28.137 131.443 28.3218 131.461 28.5511C131.475 28.7306 131.457 28.8874 131.407 29.0217C131.356 29.1459 131.239 29.2503 131.055 29.3347C130.881 29.4183 130.605 29.4798 130.227 29.519C129.862 29.8581 129.475 30.244 129.067 30.6766C128.668 31.0986 128.306 31.5328 127.979 31.9792C127.662 32.4149 127.438 32.8284 127.308 33.2196C127.628 33.0845 128.02 32.959 128.482 32.8431C128.954 32.7164 129.434 32.6342 129.922 32.5965C130.69 32.5372 131.272 32.6679 131.668 32.9883C132.073 33.2981 132.297 33.7321 132.34 34.2905C132.368 34.6494 132.282 35.0321 132.083 35.4387C131.893 35.8345 131.631 36.2108 131.297 36.5675C130.964 36.9242 130.6 37.2181 130.207 37.449C129.814 37.6899 129.433 37.8246 129.064 37.8531ZM134.709 37.3121C134.489 37.3291 134.27 37.2758 134.05 37.1524C133.839 37.0282 133.722 36.8066 133.697 36.4875C133.677 36.2283 133.726 36.0139 133.843 35.8444C133.961 35.6749 134.101 35.5487 134.265 35.4658C134.429 35.3729 134.575 35.3215 134.705 35.3115C134.834 35.3015 134.981 35.3203 135.145 35.3678C135.32 35.4145 135.472 35.508 135.603 35.6484C135.734 35.7787 135.81 35.9835 135.831 36.2626C135.853 36.5418 135.751 36.7804 135.525 36.9783C135.3 37.1762 135.028 37.2875 134.709 37.3121Z" fill="#5C4033"/>
</svg>
