<svg width="123" height="55" viewBox="0 0 123 55" fill="none" xmlns="http://www.w3.org/2000/svg">
<path d="M4.88382 26.109C6.132 26.5614 7.55258 28.4731 8.66615 30.2907C10.1051 32.6303 11.1728 35.1897 11.7208 37.8791C12.1315 39.8955 12.3748 42.2477 11.7912 43.858M11.7912 43.858C12.3748 42.2477 14.0692 40.5959 15.6759 39.3125C17.8213 37.5993 20.2809 36.3182 22.8813 35.4425C24.9025 34.761 27.2197 34.2039 28.4662 34.6557M11.7912 43.858L18.8117 24.4868C22.8573 13.3239 35.1879 7.55339 46.3508 11.599L54.7731 14.6514" stroke="#5C4033"/>
<path d="M37.9078 32.2585C37.3695 32.3001 36.8513 32.2147 36.3535 32.0024C35.8557 31.7901 35.4399 31.4711 35.1062 31.0456C34.7717 30.61 34.5802 30.0782 34.5317 29.45C34.4909 28.9216 34.577 28.3483 34.7901 27.7301C35.0123 27.1011 35.309 26.4614 35.68 25.8109C36.0603 25.1497 36.4781 24.5206 36.9335 23.9238C37.3882 23.317 37.8379 22.7758 38.2826 22.3002C38.7265 21.8146 39.1229 21.4279 39.4718 21.1402C39.8207 20.8525 40.0699 20.7029 40.2195 20.6913C40.4089 20.6767 40.5777 20.7189 40.7257 20.8178C40.883 20.9059 40.9747 21.0543 41.0008 21.2629C41.0085 21.3626 40.9824 21.48 40.9227 21.615C40.8621 21.74 40.7371 21.875 40.5477 22.02C40.3391 22.1765 40.0761 22.4075 39.7587 22.7128C39.4413 23.0181 39.1031 23.3802 38.7443 23.7991C38.3847 24.208 38.0328 24.6514 37.6885 25.1293C37.3435 25.5972 37.0296 26.0778 36.7467 26.571C36.463 27.0543 36.2434 27.5226 36.0879 27.9759C35.9323 28.4292 35.8691 28.8453 35.8984 29.2242C35.9438 29.8124 36.1429 30.2484 36.4958 30.5321C36.8487 30.8158 37.3143 30.9353 37.8925 30.8907C38.1916 30.8676 38.539 30.7555 38.9347 30.5545C39.3304 30.3534 39.7319 30.0968 40.1391 29.7845C40.5562 29.4715 40.9515 29.135 41.3249 28.7752C41.6976 28.4055 42.0108 28.0453 42.2645 27.6947C42.5283 27.3434 42.6946 27.0296 42.7636 26.7535C42.5189 26.8326 42.2099 26.9216 41.8364 27.0207C41.4629 27.1197 41.0741 27.2149 40.6699 27.3063C40.2757 27.3969 39.9157 27.4748 39.5897 27.5401C39.2638 27.6054 39.026 27.6438 38.8765 27.6553C38.5674 27.6792 38.3169 27.6183 38.1252 27.4726C37.9434 27.3262 37.8463 27.1732 37.834 27.0137C37.8255 26.904 37.8623 26.7958 37.9443 26.6892C38.0264 26.5826 38.161 26.507 38.3481 26.4625C38.5651 26.4156 38.8508 26.3484 39.2051 26.2609C39.5686 26.1627 39.9475 26.0682 40.3417 25.9776C40.7451 25.8763 41.1144 25.7876 41.4495 25.7116C41.7946 25.6348 42.0569 25.5895 42.2364 25.5756C42.7548 25.5356 43.1506 25.6605 43.4237 25.9503C43.6961 26.2302 43.8538 26.6493 43.8969 27.2076C43.9177 27.4768 43.8085 27.8163 43.5693 28.2259C43.3301 28.6355 42.9974 29.0674 42.571 29.5215C42.1539 29.965 41.6801 30.3877 41.1494 30.7897C40.6288 31.191 40.0881 31.5286 39.5276 31.8025C38.9662 32.0665 38.4263 32.2185 37.9078 32.2585ZM47.1137 31.9241C46.9541 31.9364 46.8145 31.882 46.6949 31.7608C46.5752 31.6397 46.5065 31.4644 46.4888 31.2351C46.4757 31.0656 46.4891 30.7838 46.5288 30.3895C46.5778 29.9846 46.6268 29.5144 46.6757 28.979C46.7346 28.4429 46.7771 27.888 46.803 27.3143C46.8281 26.7306 46.8203 26.1746 46.7795 25.6462C46.7595 25.3869 46.8097 25.1925 46.9301 25.0629C47.0597 24.9225 47.2092 24.8457 47.3787 24.8326C47.5382 24.8203 47.6656 24.9108 47.7607 25.1041C47.8559 25.2973 47.9016 25.695 47.8979 26.297C48.2781 25.2447 48.7185 24.3882 49.2191 23.7277C49.729 23.0565 50.2477 22.5651 50.7753 22.2536C51.3021 21.9321 51.7849 21.7544 52.2236 21.7206C52.5127 21.6982 52.7267 21.7419 52.8655 21.8515C53.0136 21.9504 53.093 22.0697 53.1038 22.2093C53.1184 22.3987 53.0502 22.5544 52.8991 22.6764C52.7573 22.7876 52.5023 22.9277 52.1342 23.0965C51.7086 23.2999 51.3202 23.5304 50.969 23.7882C50.627 24.0353 50.3053 24.351 50.004 24.7353C49.7126 25.1189 49.434 25.6018 49.168 26.1839C48.9012 26.7562 48.6445 27.458 48.3978 28.2895C48.151 29.1209 47.897 30.1184 47.6358 31.282C47.5929 31.506 47.5251 31.6666 47.4323 31.7641C47.3495 31.8607 47.2433 31.9141 47.1137 31.9241ZM55.3831 31.1504C54.7949 31.1958 54.314 31.0072 53.9403 30.5847C53.5667 30.1622 53.3522 29.592 53.2968 28.8742C53.2768 28.6149 53.2905 28.3381 53.338 28.0435C53.3947 27.7383 53.4736 27.4614 53.5747 27.2129C53.4996 27.1485 53.4374 27.058 53.3883 26.9414C53.3384 26.8149 53.3062 26.6569 53.2915 26.4674C53.2461 25.8792 53.3043 25.3331 53.466 24.8292C53.6277 24.3252 53.8592 23.8811 54.1605 23.4968C54.461 23.1025 54.803 22.7902 55.1864 22.56C55.5798 22.3291 55.9859 22.1974 56.4047 22.1651C57.0926 22.112 57.6702 22.3182 58.1374 22.7836C58.6038 23.239 58.8759 23.9703 58.9537 24.9773C58.9944 25.5057 58.9562 26.0503 58.839 26.6109C58.7318 27.1708 58.5632 27.7154 58.3333 28.2447C58.1133 28.7732 57.8442 29.2503 57.526 29.6761C57.2178 30.1011 56.8785 30.4482 56.5082 30.7175C56.147 30.9761 55.772 31.1203 55.3831 31.1504ZM54.5226 26.6282C54.5885 26.7033 54.6265 26.8057 54.6365 26.9353C54.6481 27.0849 54.6297 27.2367 54.5814 27.3909C54.5431 27.5443 54.5041 27.7529 54.4643 28.0168C54.4244 28.2806 54.423 28.6518 54.4599 29.1304C54.4969 29.609 54.7048 29.8337 55.0837 29.8044C55.5024 29.7721 55.8786 29.5776 56.2121 29.2208C56.5449 28.8541 56.8304 28.3958 57.0688 27.8458C57.3072 27.2959 57.4781 26.716 57.5815 26.1062C57.694 25.4857 57.7296 24.9063 57.688 24.3679C57.6611 24.0189 57.5774 23.7796 57.437 23.6501C57.2959 23.5105 57.0558 23.4538 56.7168 23.48C56.3678 23.5069 56.0131 23.6546 55.6527 23.9232C55.3015 24.181 55.0167 24.5189 54.7982 24.9369C54.5797 25.355 54.4898 25.8133 54.5282 26.3118C54.5367 26.4215 54.5348 26.5269 54.5226 26.6282ZM65.7492 30.5608C65.5797 30.5739 65.4294 30.5103 65.2982 30.37C65.167 30.2297 65.0903 30.0149 65.0679 29.7258C65.0418 29.3868 65.0543 28.8994 65.1055 28.2636C65.1667 27.627 65.262 26.7821 65.3913 25.7291C65.1714 26.3879 64.9188 27.0142 64.6337 27.6079C64.3585 28.2009 64.0553 28.6907 63.724 29.0773C63.3928 29.4639 63.0378 29.6719 62.6589 29.7011C62.29 29.7296 61.9498 29.6104 61.6383 29.3436C61.3369 29.076 61.158 28.5783 61.1018 27.8505C61.0703 27.4417 61.0698 26.9804 61.1003 26.4665C61.1301 25.9426 61.1802 25.4222 61.2506 24.9053C61.321 24.3883 61.3957 23.9262 61.4746 23.5189C61.5527 23.1017 61.6293 22.7949 61.7044 22.5985C61.7619 22.4336 61.8236 22.3235 61.8896 22.2683C61.9548 22.2031 62.0472 22.1659 62.1668 22.1566C62.3064 22.1458 62.4606 22.1941 62.6293 22.3015C62.7981 22.4088 62.8932 22.602 62.9148 22.8812C62.9202 22.951 62.898 23.1182 62.8482 23.3828C62.8076 23.6367 62.7517 23.9519 62.6805 24.3285C62.6185 24.6944 62.5537 25.0905 62.4864 25.517C62.419 25.9434 62.3666 26.3687 62.3291 26.7929C62.3016 27.2163 62.3013 27.6024 62.3282 27.9514C62.3429 28.1408 62.3747 28.2938 62.4239 28.4104C62.473 28.5269 62.5773 28.5791 62.7368 28.5668C62.8764 28.556 63.0401 28.4029 63.2279 28.1076C63.4257 27.8115 63.6316 27.4245 63.8454 26.9466C64.0685 26.458 64.2927 25.9192 64.518 25.3301C64.7533 24.7402 64.9775 24.1362 65.1905 23.5179C65.4136 22.8989 65.614 22.3118 65.7918 21.7565C65.8577 21.5708 65.934 21.4546 66.0206 21.4078C66.1065 21.351 66.2043 21.3184 66.3139 21.3099C66.4934 21.2961 66.6587 21.3586 66.8098 21.4973C66.9702 21.6254 67.0592 21.8041 67.0769 22.0334C67.0884 22.1829 67.0785 22.4445 67.0472 22.818C67.0258 23.1907 66.9845 23.6302 66.9233 24.1364C66.8713 24.6319 66.8066 25.1584 66.7293 25.716C66.6619 26.2729 66.5942 26.8247 66.5261 27.3716C66.4572 27.9085 66.3898 28.4001 66.324 28.8465C66.2681 29.2921 66.2207 29.6519 66.1816 29.9257C66.151 30.1788 66.0935 30.3437 66.0092 30.4204C65.9356 30.5063 65.8489 30.5531 65.7492 30.5608ZM70.6732 29.4737C70.384 29.496 70.1121 29.3515 69.8574 29.0402C69.6027 28.7288 69.4553 28.314 69.4153 27.7955C69.3714 27.2272 69.3992 26.6132 69.4988 25.9536C69.6083 25.2932 69.7519 24.6202 69.9297 23.9345C70.1066 23.2388 70.2806 22.5684 70.4514 21.9233C70.4913 21.7899 70.5538 21.6898 70.6389 21.623C70.7332 21.5455 70.8801 21.4991 71.0795 21.4837C71.4384 21.456 71.6313 21.6166 71.6583 21.9656C71.6644 22.0454 71.6384 22.2279 71.5802 22.5132C71.522 22.7985 71.4438 23.1506 71.3458 23.5694C71.2577 23.9874 71.1673 24.4407 71.0746 24.9293C70.9812 25.4079 70.9031 25.8903 70.8403 26.3766C70.7775 26.8629 70.742 27.312 70.7337 27.7238C70.8801 27.542 71.0396 27.2689 71.212 26.9046C71.3945 26.5395 71.5884 26.1283 71.7938 25.6711C71.9985 25.204 72.2131 24.7361 72.4377 24.2674C72.6616 23.7888 72.8885 23.35 73.1184 22.9511C73.3576 22.5415 73.593 22.2124 73.8246 21.9639C74.0653 21.7046 74.2954 21.5665 74.5147 21.5495C74.8338 21.5249 75.1107 21.6038 75.3454 21.7863C75.5893 21.958 75.79 22.2836 75.9473 22.7629C76.1139 23.2314 76.231 23.9044 76.2988 24.7818C76.3349 25.2504 76.4137 25.6856 76.5349 26.0875C76.6662 26.4886 76.8461 26.8057 77.0748 27.0388C77.3126 27.2611 77.601 27.3592 77.94 27.3331C78.4485 27.2938 78.8952 27.1691 79.2801 26.9588C79.6643 26.7386 79.9922 26.5027 80.2636 26.251C80.5442 25.9887 80.7773 25.76 80.9629 25.5652C81.1477 25.3604 81.2949 25.2537 81.4046 25.2452C81.6339 25.2275 81.7578 25.3383 81.7763 25.5776C81.784 25.6773 81.7215 25.8426 81.5889 26.0735C81.4654 26.2937 81.2845 26.5483 81.0461 26.8376C80.8168 27.116 80.5473 27.3926 80.2375 27.6672C79.9369 27.9312 79.6083 28.1571 79.2518 28.3451C78.9051 28.5323 78.5474 28.6402 78.1785 28.6687C77.4905 28.7218 76.9168 28.6307 76.4573 28.3953C76.0078 28.1592 75.6545 27.7402 75.3974 27.1382C75.1503 26.5354 74.9867 25.7156 74.9067 24.6786C74.8628 24.1103 74.796 23.6993 74.7062 23.4454C74.6256 23.1808 74.4971 23.0102 74.3207 22.9336C74.2172 23.1522 74.0857 23.4632 73.9263 23.8667C73.7661 24.2602 73.5795 24.7008 73.3664 25.1887C73.1633 25.6758 72.9456 26.169 72.7133 26.6683C72.4903 27.157 72.2595 27.6111 72.0211 28.0307C71.7827 28.4502 71.5485 28.7943 71.3185 29.0628C71.0877 29.3213 70.8726 29.4583 70.6732 29.4737ZM86.1774 21.0555C86.3966 20.3866 86.5993 19.699 86.7855 18.9926C86.9816 18.2854 87.1517 17.5652 87.2957 16.8319C87.3401 16.6279 87.4175 16.4614 87.5279 16.3326C87.6476 16.1929 87.7921 16.1166 87.9616 16.1035C88.0812 16.0943 88.1844 16.1314 88.2711 16.215C88.3678 16.2978 88.4219 16.414 88.4334 16.5636C88.448 16.753 88.3986 17.0878 88.2853 17.5679C88.1819 18.0473 88.0482 18.6544 87.8842 19.3892C87.7303 20.1232 87.5798 20.9673 87.4328 21.9215C87.295 22.8649 87.1948 23.9057 87.1322 25.0438C87.0796 26.1813 87.1025 27.3881 87.201 28.6643C87.2226 28.9435 87.1805 29.1774 87.0747 29.3661C86.9696 29.5648 86.8324 29.6706 86.6629 29.6837C86.5632 29.6914 86.4665 29.6738 86.373 29.6309C86.2794 29.588 86.1904 29.4745 86.106 29.2904C86.0323 29.1156 85.9605 28.8353 85.8906 28.4495C85.8199 28.0538 85.7584 27.5169 85.7061 26.8389C85.6661 26.3205 85.6525 25.7548 85.6654 25.142C85.2706 26.005 84.8279 26.7663 84.3372 27.426C83.8557 28.075 83.3784 28.5832 82.9053 28.9507C82.4422 29.3175 82.0361 29.5143 81.6872 29.5412C81.2584 29.5743 80.8983 29.4567 80.6068 29.1883C80.326 28.9292 80.1641 28.5204 80.121 27.9621C80.0833 27.4735 80.1591 26.9612 80.3484 26.425C80.5377 25.8889 80.8025 25.3569 81.1429 24.8291C81.4825 24.2914 81.8643 23.7805 82.2883 23.2964C82.7123 22.8124 83.1406 22.3831 83.5731 22.0088C84.0147 21.6236 84.4277 21.3209 84.8118 21.1007C85.1953 20.8705 85.5116 20.7458 85.7609 20.7266C85.8606 20.7189 85.953 20.7469 86.0381 20.8105C86.1233 20.8741 86.1697 20.9558 86.1774 21.0555ZM86.0188 21.5341C85.9544 21.6093 85.875 21.6856 85.7807 21.7631C85.6864 21.8406 85.5825 21.9239 85.469 22.0129C85.0542 22.3558 84.5983 22.7521 84.1014 23.2016C83.6138 23.6405 83.1491 24.1176 82.7075 24.6332C82.275 25.1379 81.9293 25.6611 81.6702 26.2026C81.4111 26.7442 81.3027 27.2891 81.345 27.8375C81.3635 28.0768 81.4924 28.1872 81.7317 28.1687C82.0607 28.1433 82.4077 27.9611 82.7727 27.622C83.1469 27.2722 83.5218 26.8019 83.8974 26.2113C84.2723 25.6106 84.6399 24.9153 85.0002 24.1252C85.3597 23.3252 85.6992 22.4615 86.0188 21.5341ZM91.3065 27.881C91.0174 27.9033 90.7454 27.7588 90.4907 27.4475C90.236 27.1362 90.0886 26.7213 90.0486 26.2028C90.0048 25.6345 90.0326 25.0206 90.1321 24.3609C90.2416 23.7006 90.3853 23.0275 90.563 22.3418C90.74 21.6461 90.9139 20.9757 91.0848 20.3307C91.1246 20.1972 91.1871 20.0971 91.2722 20.0304C91.3665 19.9529 91.5134 19.9064 91.7128 19.891C92.0717 19.8633 92.2647 20.024 92.2916 20.3729C92.2978 20.4527 92.2717 20.6352 92.2135 20.9206C92.1553 21.2059 92.0772 21.5579 91.9791 21.9767C91.891 22.3948 91.8006 22.8481 91.708 23.3366C91.6145 23.8152 91.5364 24.2977 91.4737 24.784C91.4109 25.2702 91.3754 25.7193 91.367 26.1312C91.5135 25.9493 91.6729 25.6763 91.8454 25.3119C92.0278 24.9468 92.2218 24.5356 92.4272 24.0785C92.6318 23.6113 92.8465 23.1434 93.0711 22.6748C93.2949 22.1961 93.5218 21.7574 93.7518 21.3585C93.991 20.9488 94.2263 20.6198 94.4579 20.3712C94.6987 20.1119 94.9287 19.9738 95.1481 19.9569C95.4671 19.9322 95.744 20.0112 95.9787 20.1936C96.2227 20.3654 96.4233 20.6909 96.5807 21.1702C96.7472 21.6388 96.8644 22.3118 96.9321 23.1891C96.9683 23.6578 97.047 24.093 97.1683 24.4948C97.2996 24.8959 97.4795 25.213 97.7081 25.4461C97.9459 25.6685 98.2343 25.7666 98.5733 25.7404C99.0818 25.7012 99.5285 25.5764 99.9135 25.3662C100.298 25.1459 100.626 24.91 100.897 24.6584C101.178 24.396 101.411 24.1674 101.596 23.9725C101.781 23.7677 101.928 23.661 102.038 23.6526C102.267 23.6349 102.391 23.7457 102.41 23.985C102.417 24.0847 102.355 24.25 102.222 24.4809C102.099 24.701 101.918 24.9557 101.679 25.2449C101.45 25.5234 101.181 25.7999 100.871 26.0746C100.57 26.3385 100.242 26.5645 99.8851 26.7525C99.5385 26.9397 99.1807 27.0475 98.8118 27.076C98.1239 27.1291 97.5502 27.038 97.0907 26.8027C96.6412 26.5666 96.2879 26.1475 96.0308 25.5455C95.7837 24.9427 95.6201 24.1229 95.54 23.086C95.4962 22.5177 95.4293 22.1066 95.3395 21.8527C95.2589 21.5882 95.1304 21.4175 94.954 21.3409C94.8505 21.5595 94.7191 21.8705 94.5596 22.274C94.3995 22.6675 94.2128 23.1082 93.9997 23.596C93.7966 24.0831 93.5789 24.5763 93.3467 25.0757C93.1236 25.5643 92.8929 26.0184 92.6545 26.438C92.416 26.8576 92.1818 27.2016 91.9518 27.4701C91.721 27.7287 91.5059 27.8656 91.3065 27.881ZM106.344 27.4274C106.175 27.4405 106.024 27.3768 105.893 27.2365C105.762 27.0962 105.685 26.8815 105.663 26.5923C105.637 26.2533 105.649 25.7659 105.7 25.1301C105.762 24.4935 105.857 23.6487 105.986 22.5956C105.766 23.2545 105.514 23.8808 105.229 24.4745C104.953 25.0674 104.65 25.5572 104.319 25.9438C103.988 26.3305 103.633 26.5384 103.254 26.5677C102.885 26.5961 102.545 26.477 102.233 26.2101C101.932 25.9425 101.753 25.4448 101.697 24.717C101.665 24.3082 101.665 23.8469 101.695 23.333C101.725 22.8092 101.775 22.2888 101.845 21.7718C101.916 21.2549 101.991 20.7927 102.069 20.3855C102.148 19.9682 102.224 19.6614 102.299 19.465C102.357 19.3001 102.418 19.1901 102.484 19.1348C102.55 19.0696 102.642 19.0324 102.762 19.0231C102.901 19.0124 103.055 19.0607 103.224 19.168C103.393 19.2753 103.488 19.4686 103.51 19.7477C103.515 19.8175 103.493 19.9847 103.443 20.2493C103.402 20.5032 103.347 20.8185 103.275 21.1951C103.213 21.5609 103.149 21.9571 103.081 22.3835C103.014 22.81 102.961 23.2353 102.924 23.6594C102.896 24.0828 102.896 24.4689 102.923 24.8179C102.938 25.0073 102.97 25.1603 103.019 25.2769C103.068 25.3935 103.172 25.4456 103.332 25.4333C103.471 25.4225 103.635 25.2695 103.823 24.9741C104.021 24.678 104.226 24.291 104.44 23.8132C104.663 23.3246 104.888 22.7857 105.113 22.1966C105.348 21.6068 105.572 21.0027 105.785 20.3845C106.008 19.7655 106.209 19.1783 106.387 18.623C106.453 18.4374 106.529 18.3211 106.615 18.2743C106.701 18.2176 106.799 18.1849 106.909 18.1765C107.088 18.1626 107.254 18.2251 107.405 18.3639C107.565 18.4919 107.654 18.6706 107.672 18.8999C107.683 19.0495 107.673 19.311 107.642 19.6845C107.621 20.0573 107.579 20.4967 107.518 21.003C107.466 21.4984 107.401 22.025 107.324 22.5826C107.257 23.1394 107.189 23.6913 107.121 24.2381C107.052 24.775 106.985 25.2667 106.919 25.7131C106.863 26.1587 106.816 26.5184 106.776 26.7922C106.746 27.0453 106.688 27.2102 106.604 27.2869C106.53 27.3729 106.444 27.4197 106.344 27.4274ZM108.808 22.0619C108.537 22.0627 108.399 21.8978 108.393 21.5673C108.397 21.4867 108.445 21.3878 108.536 21.2704C108.626 21.1431 108.736 21.0694 108.865 21.0494C109.172 20.9957 109.547 20.9216 109.991 20.8271C110.444 20.7219 110.942 20.6033 111.483 20.4712C111.545 19.975 111.625 19.4523 111.723 18.9031C111.821 18.3539 111.935 17.8186 112.066 17.297C112.195 16.7655 112.338 16.283 112.496 15.8496C112.653 15.4162 112.827 15.0718 113.018 14.8164C113.119 14.6982 113.213 14.6158 113.299 14.569C113.385 14.5122 113.463 14.4811 113.533 14.4757C113.672 14.4649 113.787 14.5163 113.876 14.6298C113.975 14.7425 114.03 14.8736 114.042 15.0232C114.048 15.103 114.039 15.1839 114.015 15.2659C113.859 15.8397 113.698 16.5442 113.531 17.3794C113.365 18.2147 113.19 19.1259 113.005 20.113C113.911 19.8927 114.816 19.6624 115.72 19.4221C116.624 19.1818 117.4 18.9664 118.047 18.776C118.23 18.6817 118.376 18.6855 118.484 18.7874C118.603 18.8886 118.666 18.9941 118.674 19.1038C118.685 19.2433 118.653 19.3511 118.579 19.4271C118.514 19.5022 118.444 19.5678 118.368 19.6238L118.355 19.6399C118.161 19.7351 117.87 19.8529 117.479 19.9934C117.088 20.1239 116.638 20.2689 116.129 20.4286C115.619 20.5783 115.074 20.7307 114.494 20.8857C113.924 21.0401 113.359 21.184 112.797 21.3176C112.636 22.2127 112.471 23.1331 112.303 24.0788C112.145 25.0138 111.985 25.9338 111.824 26.8389C111.752 27.2055 111.655 27.4387 111.532 27.5384C111.42 27.6474 111.295 27.7072 111.155 27.718C110.995 27.7303 110.851 27.6813 110.722 27.5708C110.603 27.4597 110.57 27.2165 110.621 26.8415L111.319 21.6574C110.728 21.7933 110.204 21.8989 109.749 21.9742C109.303 22.0487 108.989 22.0779 108.808 22.0619Z" fill="#5C4033"/>
</svg>
