<svg width="109" height="91" viewBox="0 0 109 91" fill="none" xmlns="http://www.w3.org/2000/svg">
<path d="M14.2062 24.2946C15.4592 24.7335 17.7686 24.1508 19.7806 23.4469C22.3747 22.5444 24.8203 21.2367 26.9454 19.4998C28.5387 18.1974 30.2145 16.5291 30.7807 14.9126M30.7807 14.9126C30.2145 16.5291 30.4827 18.8802 30.9158 20.8904C31.4945 23.5742 32.5898 26.122 34.0506 28.4447C35.1854 30.2507 36.6283 32.1476 37.8796 32.5858M30.7807 14.9126L23.9701 34.3586C20.0454 45.5645 25.9489 57.8321 37.1548 61.7568L45.6096 64.7179" stroke="#5C4033"/>
<path d="M54.5625 59.2776C54.142 59.3679 53.8459 59.3701 53.6741 59.2842C53.512 59.1963 53.4194 59.0985 53.3963 58.991C53.3628 58.8345 53.4106 58.676 53.5397 58.5153C53.6786 58.3525 53.8602 58.2215 54.0843 58.1222C54.3553 58.0027 54.6849 57.8706 55.0732 57.7259C55.4691 57.5693 55.8819 57.4194 56.3114 57.276C56.7387 57.1229 57.1595 56.9866 57.5736 56.867C57.9878 56.7474 58.3513 56.6541 58.6641 56.5869C59.0748 56.4988 59.4044 56.5098 59.6531 56.6201C59.9095 56.7185 60.0513 56.8313 60.0786 56.9584C60.0807 56.9681 60.0849 56.9877 60.0912 57.017C60.108 57.0952 60.108 57.1668 60.0912 57.2318C60.0745 57.2967 59.9893 57.3764 59.8357 57.4707C59.6898 57.5532 59.4324 57.6647 59.0637 57.8052C58.7027 57.9338 58.1862 58.1009 57.5144 58.3065C57.3796 58.3457 57.2312 58.3929 57.0692 58.4481C57.0868 58.7205 57.1026 59.0802 57.1167 59.5271C57.1308 59.9741 57.1457 60.4721 57.1612 61.0211C57.1768 61.57 57.1906 62.1347 57.2027 62.7151C57.2126 63.2857 57.2174 63.8319 57.2168 64.3536C57.2261 64.8732 57.2325 65.3321 57.2362 65.7302C57.2496 66.1262 57.2577 66.4262 57.2606 66.6301C57.7543 66.4526 58.1946 66.312 58.5815 66.2085C58.9761 66.0932 59.2418 66.0208 59.3787 65.9914C59.7405 65.9137 59.9507 66.0118 60.0095 66.2856C60.0263 66.3638 59.8842 66.5119 59.5832 66.7299C59.2823 66.9479 58.8895 67.1908 58.4049 67.4584C57.9203 67.7261 57.414 67.9882 56.8861 68.2447C56.4496 68.4509 56.0128 68.6316 55.5756 68.7868C55.1483 68.9399 54.8368 69.0374 54.6412 69.0794C54.4261 69.1255 54.2662 69.119 54.1614 69.0596C54.0587 69.0101 53.9927 68.9169 53.9633 68.78C53.9339 68.6431 53.9437 68.4978 53.9925 68.3442C54.0511 68.1884 54.1475 68.0654 54.2815 67.9753C54.5245 67.8208 54.799 67.6699 55.1048 67.5224C55.4086 67.3652 55.7193 67.2166 56.0371 67.0769C56.0266 67.028 56.014 66.9693 55.9993 66.9009C55.9699 66.764 55.9387 66.4996 55.9058 66.1078C55.8826 65.7139 55.8583 65.2435 55.833 64.6967C55.8056 64.14 55.7837 63.5617 55.7675 62.9618C55.7491 62.3521 55.7321 61.7727 55.7166 61.2238C55.6989 60.665 55.6872 60.1817 55.6815 59.7738C55.6737 59.3562 55.6746 59.0747 55.6844 58.9294C55.4462 59.0112 55.2315 59.0829 55.0401 59.1444C54.8488 59.2059 54.6896 59.2504 54.5625 59.2776ZM65.305 66.0234C64.8259 66.1262 64.3873 66.1079 63.9892 65.9683C63.5987 65.8169 63.2728 65.5851 63.0115 65.273C62.7502 64.9609 62.5796 64.6191 62.4999 64.2475C62.332 63.4654 62.3157 62.7222 62.4509 62.0182C62.5841 61.3043 62.8025 60.654 63.1061 60.0672C63.4174 59.4686 63.7552 58.946 64.1197 58.4996C64.4939 58.0511 64.843 57.7 65.167 57.4464C65.4986 57.1808 65.7427 57.0313 65.8991 56.9977C66.212 56.9306 66.402 57.0534 66.4692 57.3663C66.5006 57.513 66.4396 57.705 66.286 57.9426C66.1303 58.1703 65.9282 58.4438 65.6797 58.7631C65.4312 59.0823 65.1704 59.44 64.8975 59.8361C64.6224 60.2225 64.3764 60.6486 64.1593 61.1145C63.9402 61.5707 63.7853 62.0642 63.6947 62.595C63.602 63.1161 63.6175 63.665 63.7413 64.2419C63.8673 64.8285 64.1698 65.0704 64.6488 64.9676C65.0888 64.8731 65.5207 64.6935 65.9446 64.4287C66.3782 64.1617 66.7916 63.848 67.1847 63.4874C67.5855 63.115 67.9646 62.7371 68.322 62.3535C68.6795 61.9699 69.001 61.6094 69.2866 61.272C69.57 60.9248 69.8112 60.6429 70.0102 60.4263C70.2092 60.2097 70.3576 60.0909 70.4553 60.07C70.6509 60.028 70.7717 60.1145 70.8179 60.3296C70.8536 60.4959 70.7884 60.74 70.6222 61.062C70.4561 61.3841 70.217 61.7473 69.905 62.1518C69.5929 62.5563 69.2379 62.9751 68.8399 63.4083C68.4399 63.8317 68.0297 64.2317 67.6094 64.6083C67.1869 64.9751 66.7736 65.2888 66.3693 65.5495C65.9727 65.7983 65.6179 65.9562 65.305 66.0234ZM75.5686 56.9934C75.6357 57.3062 75.6041 57.6352 75.4736 57.9803C75.341 58.3156 75.1427 58.6547 74.8789 58.9977C74.6129 59.331 74.3095 59.6569 73.9688 59.9755C73.6281 60.2941 73.281 60.5834 72.9277 60.8433C72.5744 61.1032 72.248 61.3216 71.9484 61.4984C71.952 61.8965 71.9853 62.2422 72.0483 62.5356C72.0882 62.7213 72.1605 62.8439 72.2653 62.9032C72.3701 62.9625 72.5153 62.9723 72.7011 62.9324C73.1117 62.8443 73.5311 62.6775 73.9591 62.4322C74.3872 62.1869 74.8156 61.8956 75.2443 61.5581C75.673 61.2206 76.0791 60.8726 76.4624 60.5142C76.8457 60.1558 77.193 59.8204 77.5044 59.5081C77.8256 59.1937 78.0927 58.9369 78.3056 58.7378C78.5186 58.5387 78.6642 58.4307 78.7424 58.4139C78.8597 58.3887 78.9561 58.409 79.0315 58.4746C79.1147 58.5283 79.1667 58.6041 79.1877 58.7019C79.2045 58.7801 79.1148 58.9579 78.9187 59.2352C78.7323 59.5105 78.4712 59.8427 78.1354 60.2318C77.7974 60.6112 77.4128 61.0108 76.9813 61.4307C76.5498 61.8506 76.0945 62.2552 75.6155 62.6443C75.1463 63.0314 74.6802 63.3616 74.2173 63.6348C73.7641 63.906 73.342 64.0835 72.9509 64.1675C72.4424 64.2766 72.0055 64.1709 71.6401 63.8505C71.2748 63.53 71.006 62.9689 70.8339 62.1672C70.7185 61.6295 70.6705 61.0721 70.6898 60.4952C70.719 59.9162 70.8022 59.3511 70.9396 58.8C71.0847 58.2371 71.2668 57.7275 71.486 57.2713C71.7128 56.8033 71.9732 56.4201 72.2671 56.1218C72.559 55.8137 72.8662 55.625 73.1889 55.5558C73.8048 55.4235 74.3255 55.4908 74.751 55.7574C75.1764 56.0241 75.4489 56.4361 75.5686 56.9934ZM72.014 60.303C72.2772 60.0522 72.5481 59.7895 72.8267 59.5149C73.1053 59.2404 73.3584 58.9661 73.586 58.6923C73.8136 58.4184 73.9853 58.1463 74.1011 57.876C74.2246 57.5938 74.2591 57.3256 74.2046 57.0714C74.1269 56.7096 73.8925 56.5707 73.5014 56.6546C73.257 56.7071 73.0315 56.9191 72.8249 57.2908C72.626 57.6505 72.4567 58.1011 72.3172 58.6424C72.1777 59.1837 72.0767 59.7373 72.014 60.303Z" fill="#5C4033"/>
</svg>
