<svg width="174" height="86" viewBox="0 0 174 86" fill="none" xmlns="http://www.w3.org/2000/svg">
<path d="M9.55223 72.4822C10.7989 72.0255 13.1163 72.5752 15.1382 73.2504C17.7449 74.1158 20.2088 75.3885 22.3585 77.0949C23.9702 78.3744 25.6697 80.0187 26.2588 81.627M26.2588 81.627C25.6697 80.0187 25.9043 77.664 26.3086 75.6479C26.8491 72.956 27.9079 70.3929 29.3354 68.0497C30.4444 66.2276 31.8601 64.3104 33.105 63.8544M26.2588 81.627L19.1717 62.2801C15.0876 51.1312 20.8156 38.7807 31.9645 34.6967L40.3762 31.6153" stroke="#5C4033"/>
<path d="M47.9749 23.4377C47.7256 23.457 47.4913 23.4099 47.2719 23.2964C47.0533 23.1929 46.8515 22.9829 46.6666 22.6661C46.4809 22.3395 46.3197 21.8755 46.183 21.2742C46.0556 20.6622 45.9537 19.8627 45.8775 18.8756C45.866 18.7261 45.8545 18.5765 45.8429 18.427C45.8306 18.2674 45.8233 18.1075 45.8209 17.9472C45.5987 18.5762 45.3396 19.1829 45.0437 19.7674C44.7578 20.3512 44.4469 20.8716 44.1111 21.3288C43.7853 21.7853 43.4475 22.1524 43.0979 22.4301C42.7582 22.7071 42.4238 22.8582 42.0948 22.8836C41.5065 22.929 41.0106 22.7417 40.6071 22.3215C40.2135 21.9005 39.9771 21.1765 39.8979 20.1496C39.8509 19.5414 39.8458 18.8899 39.8824 18.195C39.929 17.4993 40.0067 16.8163 40.1154 16.146C40.2241 15.4756 40.3474 14.8643 40.4853 14.3121C40.6332 13.7591 40.7896 13.3157 40.9544 12.982C41.1192 12.6484 41.2764 12.4758 41.4259 12.4642C41.6752 12.445 41.8646 12.4955 41.9943 12.6159C42.1331 12.7256 42.2103 12.8801 42.2256 13.0795C42.2364 13.2191 42.202 13.4875 42.1223 13.8848C42.0427 14.2821 41.9442 14.7611 41.827 15.3218C41.7091 15.8725 41.5892 16.4635 41.4674 17.0947C41.3556 17.7252 41.2683 18.3488 41.2056 18.9654C41.1421 19.5721 41.1296 20.1247 41.1681 20.6233C41.2073 21.1317 41.4313 21.3702 41.8401 21.3387C42.3187 21.3017 42.7516 21.0627 43.1388 20.6216C43.5252 20.1705 43.8714 19.5871 44.1772 18.8715C44.483 18.1558 44.7528 17.3627 44.9865 16.4921C45.2294 15.6108 45.4412 14.7169 45.622 13.8103C45.6051 13.7213 45.5924 13.622 45.5839 13.5123C45.5755 13.4026 45.5647 13.2631 45.5516 13.0936C45.5347 12.8742 45.5764 12.6353 45.6768 12.3768C45.7864 12.1076 45.9236 11.8713 46.0885 11.668C46.2533 11.4647 46.4255 11.3562 46.6049 11.3423C46.9439 11.3161 47.1319 11.5423 47.1688 12.0209C47.1781 12.1406 47.1632 12.3373 47.1241 12.6111C47.0951 12.8842 47.0603 13.278 47.0197 13.7926C46.9892 14.3065 46.976 14.9795 46.98 15.8117C46.994 16.6431 47.0492 17.6819 47.1454 18.9282C47.2269 19.9851 47.3391 20.7236 47.4819 21.1439C47.6338 21.5534 47.8245 21.7493 48.0538 21.7316C48.3529 21.7085 48.6286 21.5117 48.8808 21.1412C49.143 20.7699 49.3745 20.2606 49.5753 19.6132C49.786 18.9651 49.9588 18.2146 50.0935 17.3617C50.2375 16.498 50.3462 15.5669 50.4195 14.5683C50.5021 13.559 50.5471 12.5174 50.5545 11.4437C50.5704 11.0011 50.6409 10.6797 50.7659 10.4795C50.8908 10.2793 51.0281 10.1734 51.1777 10.1619C51.2674 10.155 51.369 10.1722 51.4825 10.2136C51.6053 10.2442 51.7119 10.3263 51.8024 10.4597C51.893 10.5931 51.9498 10.8094 51.9729 11.1085C52.0922 12.6539 52.086 14.0686 51.9544 15.3525C51.8321 16.6257 51.6237 17.7601 51.3295 18.7557C51.0345 19.7413 50.693 20.5801 50.3051 21.272C49.9164 21.9539 49.5158 22.4813 49.1033 22.8542C48.7 23.2163 48.3238 23.4108 47.9749 23.4377ZM55.5654 23.0775C55.3461 23.0944 55.1716 23.0427 55.0419 22.9223C54.913 22.8119 54.8297 22.5125 54.792 22.0239C54.7574 21.5752 54.7921 20.9858 54.8962 20.2556C54.9996 19.5155 55.1516 18.6913 55.3523 17.7832C55.553 16.8751 55.7863 15.9343 56.0522 14.961C56.3173 13.9777 56.5989 13.0131 56.897 12.0674C57.2043 11.1109 57.5028 10.2353 57.7925 9.44067C57.9006 9.1515 58.0202 8.94668 58.1513 8.82624C58.2824 8.70579 58.4427 8.63825 58.6321 8.62363C58.7617 8.61363 58.8745 8.64504 58.9704 8.71788C59.0755 8.77997 59.1346 8.89577 59.1476 9.06527C59.1523 9.12509 59.1025 9.32451 58.9982 9.66354C58.904 10.0018 58.768 10.4486 58.5902 11.0039C58.4224 11.5585 58.2346 12.1798 58.027 12.8678C57.8193 13.5558 57.6093 14.2791 57.3971 15.0377C57.1848 15.7963 56.9879 16.5587 56.8064 17.3249C56.624 18.0812 56.4743 18.8049 56.3571 19.496C56.2399 20.187 56.1722 20.8041 56.154 21.3471C56.3709 21.0395 56.6166 20.6494 56.8911 20.1769C57.1655 19.7044 57.4572 19.1954 57.7662 18.65C58.0751 18.1046 58.3894 17.5638 58.7091 17.0276C59.0288 16.4914 59.347 16.0005 59.6636 15.5548C59.9802 15.1091 60.2785 14.7501 60.5584 14.4777C60.8474 14.1947 61.1066 14.0443 61.336 14.0266C61.7148 13.9973 62.0282 14.0935 62.2759 14.3151C62.5329 14.5259 62.6818 14.8956 62.7226 15.424C62.7457 15.7231 62.7136 16.0867 62.6263 16.5146C62.5489 16.9419 62.4532 17.3906 62.339 17.8607C62.2249 18.3309 62.1241 18.78 62.0368 19.208C61.9594 19.6352 61.9323 19.9984 61.9554 20.2975C61.987 20.7063 62.1573 20.8987 62.4664 20.8749C62.9449 20.8379 63.4154 20.6963 63.8778 20.45C64.3502 20.2029 64.7938 19.9079 65.2087 19.5649C65.6227 19.212 66.0019 18.8618 66.3462 18.5143C66.6897 18.1568 66.9822 17.8534 67.2237 17.6041C67.4837 17.3332 67.7084 17.1905 67.8978 17.1759C68.1371 17.1574 68.2663 17.2728 68.2856 17.5221C68.291 17.5919 68.2822 17.6728 68.2592 17.7648C68.2362 17.8569 68.1653 17.9777 68.0464 18.1273C67.9008 18.3191 67.6895 18.5711 67.4127 18.8833C67.1459 19.1948 66.8308 19.53 66.4673 19.889C66.1139 20.2473 65.724 20.5883 65.2976 20.9121C64.8812 21.2351 64.4461 21.5094 63.9921 21.735C63.5473 21.9499 63.1055 22.0742 62.6669 22.1081C62.0686 22.1543 61.5919 22.0206 61.2367 21.707C60.8908 21.3826 60.6943 20.9164 60.6473 20.3082C60.6181 19.9293 60.6425 19.4661 60.7206 18.9184C60.7987 18.3708 60.9044 17.7909 61.0377 17.1789C61.1802 16.5561 61.3238 15.9482 61.4686 15.3553C61.1665 15.5993 60.8429 15.9552 60.4979 16.4232C60.1621 16.8804 59.811 17.3989 59.4445 17.9789C59.0773 18.5488 58.7108 19.1287 58.3451 19.7186C57.9894 20.3077 57.6406 20.8562 57.2987 21.364C56.9659 21.8611 56.6512 22.2665 56.3545 22.5803C56.0577 22.8941 55.7947 23.0598 55.5654 23.0775ZM72.9144 14.5771C72.939 14.8962 72.8635 15.2179 72.688 15.5424C72.5117 15.8569 72.2698 16.1664 71.9623 16.471C71.6541 16.7656 71.3098 17.0479 70.9294 17.318C70.5491 17.5881 70.1664 17.8282 69.7815 18.0385C69.3965 18.2488 69.0438 18.4214 68.7232 18.5565C68.6735 18.9515 68.6601 19.2985 68.6832 19.5976C68.6978 19.7871 68.7531 19.9182 68.849 19.9911C68.9449 20.0639 69.0875 20.093 69.277 20.0784C69.6957 20.0461 70.1336 19.937 70.5907 19.7513C71.0478 19.5656 71.5113 19.3342 71.9814 19.0572C72.4515 18.7802 72.9005 18.4898 73.3283 18.186C73.7562 17.8821 74.1454 17.5963 74.4958 17.3286C74.8562 17.06 75.1553 16.8414 75.393 16.6726C75.6307 16.5038 75.7895 16.4163 75.8692 16.4102C75.9889 16.4009 76.0817 16.4339 76.1477 16.509C76.2228 16.5734 76.2643 16.6555 76.272 16.7552C76.2781 16.8349 76.1654 16.9991 75.9339 17.2477C75.7123 17.4955 75.409 17.7897 75.0241 18.1303C74.6384 18.461 74.2036 18.8054 73.7198 19.1637C73.2359 19.522 72.7306 19.8619 72.2037 20.1834C71.6869 20.5042 71.1808 20.7689 70.6854 20.9777C70.1999 21.1856 69.7578 21.305 69.359 21.3358C68.8405 21.3758 68.4217 21.2126 68.1026 20.846C67.7834 20.4795 67.5923 19.8875 67.5292 19.0699C67.4868 18.5215 67.5139 17.9628 67.6104 17.3937C67.7169 16.8238 67.8751 16.275 68.0851 15.7473C68.3043 15.2088 68.5531 14.7282 68.8314 14.3055C69.1189 13.8721 69.4282 13.5273 69.7595 13.2711C70.09 13.0048 70.4198 12.859 70.7488 12.8336C71.3769 12.7851 71.8839 12.9215 72.2698 13.2428C72.6556 13.564 72.8705 14.0088 72.9144 14.5771ZM68.9484 17.3807C69.2428 17.1674 69.5465 16.9433 69.8594 16.7086C70.1722 16.4738 70.4598 16.236 70.722 15.9951C70.9842 15.7542 71.1909 15.5075 71.3419 15.2552C71.5021 14.992 71.5722 14.7309 71.5522 14.4716C71.5237 14.1027 71.3101 13.9337 70.9113 13.9645C70.662 13.9837 70.4101 14.1636 70.1556 14.5042C69.9102 14.8341 69.6822 15.2579 69.4714 15.7757C69.2606 16.2934 69.0863 16.8284 68.9484 17.3807ZM76.6938 20.4236C76.4047 20.4459 76.1328 20.3014 75.878 19.9901C75.6233 19.6788 75.476 19.2639 75.4359 18.7454C75.3921 18.1771 75.4199 17.5632 75.5194 16.9035C75.6289 16.2432 75.7726 15.5701 75.9503 14.8844C76.1273 14.1887 76.3012 13.5183 76.4721 12.8733C76.5119 12.7398 76.5744 12.6397 76.6595 12.573C76.7538 12.4955 76.9007 12.449 77.1001 12.4336C77.459 12.4059 77.652 12.5666 77.6789 12.9155C77.6851 12.9953 77.659 13.1778 77.6008 13.4632C77.5426 13.7485 77.4645 14.1005 77.3664 14.5193C77.2783 14.9373 77.1879 15.3906 77.0953 15.8792C77.0018 16.3578 76.9237 16.8403 76.861 17.3266C76.7982 17.8128 76.7627 18.2619 76.7543 18.6738C76.9008 18.4919 77.0602 18.2189 77.2327 17.8545C77.4151 17.4894 77.6091 17.0782 77.8145 16.6211C78.0192 16.1539 78.2338 15.686 78.4584 15.2174C78.6822 14.7387 78.9091 14.3 79.1391 13.9011C79.3783 13.4914 79.6137 13.1624 79.8452 12.9138C80.086 12.6545 80.316 12.5164 80.5354 12.4995C80.8544 12.4748 81.1313 12.5538 81.3661 12.7362C81.61 12.908 81.8106 13.2335 81.968 13.7128C82.1346 14.1814 82.2517 14.8543 82.3194 15.7317C82.3556 16.2003 82.4343 16.6356 82.5556 17.0374C82.6869 17.4385 82.8668 17.7556 83.0954 17.9887C83.3332 18.2111 83.6216 18.3092 83.9606 18.283C84.4691 18.2437 84.9158 18.119 85.3008 17.9087C85.685 17.6885 86.0128 17.4526 86.2842 17.201C86.5649 16.9386 86.798 16.71 86.9835 16.5151C87.1683 16.3103 87.3156 16.2036 87.4252 16.1952C87.6545 16.1775 87.7784 16.2883 87.7969 16.5276C87.8046 16.6273 87.7421 16.7926 87.6095 17.0234C87.4861 17.2436 87.3052 17.4983 87.0667 17.7875C86.8375 18.066 86.5679 18.3425 86.2582 18.6172C85.9576 18.8811 85.629 19.107 85.2724 19.295C84.9258 19.4823 84.568 19.5901 84.1991 19.6186C83.5112 19.6717 82.9375 19.5806 82.478 19.3453C82.0285 19.1091 81.6752 18.6901 81.4181 18.0881C81.171 17.4853 81.0074 16.6655 80.9273 15.6286C80.8835 15.0603 80.8166 14.6492 80.7268 14.3953C80.6462 14.1308 80.5177 13.9601 80.3413 13.8835C80.2378 14.1021 80.1064 14.4131 79.947 14.8166C79.7868 15.2101 79.6001 15.6508 79.387 16.1386C79.1839 16.6257 78.9662 17.1189 78.734 17.6183C78.5109 18.1069 78.2802 18.561 78.0418 18.9806C77.8033 19.4002 77.5691 19.7442 77.3391 20.0127C77.1083 20.2712 76.8932 20.4082 76.6938 20.4236ZM96.4043 23.1147C95.9058 23.1531 95.4445 23.1537 95.0203 23.1162C94.6069 23.0879 94.1954 23.0194 93.7858 22.9106C93.377 22.8117 92.9302 22.6757 92.4454 22.5025C92.3005 22.4435 92.1693 22.3684 92.0519 22.2771C91.9353 22.1959 91.8724 22.0954 91.8632 21.9758C91.8516 21.8262 91.934 21.6594 92.1104 21.4753C92.2775 21.3019 92.4409 21.209 92.6004 21.1967C92.7699 21.1836 92.9839 21.2273 93.2424 21.3277C93.5109 21.4273 93.8207 21.5438 94.1721 21.6772C94.5241 21.8205 94.9092 21.9362 95.3272 22.0243C95.7552 22.1116 96.2085 22.1368 96.687 22.0999C97.2055 22.0599 97.6775 21.8078 98.103 21.3437C98.5286 20.8796 98.8548 20.2325 99.0816 19.4026C99.3091 18.5827 99.3794 17.6094 99.2925 16.4827C99.2663 16.1437 99.2275 15.7706 99.176 15.3634C99.1337 14.9454 99.0799 14.5082 99.0146 14.0519C98.8153 14.5888 98.5857 15.1231 98.3259 15.6547C98.076 16.1855 97.8073 16.6676 97.5198 17.101C97.2423 17.5336 96.9436 17.8877 96.6239 18.1631C96.3133 18.4278 95.9886 18.5732 95.6496 18.5994C95.2208 18.6325 94.9033 18.5466 94.6969 18.3419C94.4906 18.1372 94.3697 17.8055 94.3343 17.3469C94.2973 16.8683 94.2922 16.3471 94.3189 15.7834C94.3456 15.2197 94.3918 14.6494 94.4577 14.0727C94.5327 13.4851 94.6299 12.926 94.7494 12.3952C94.8689 11.8645 95.0038 11.4027 95.154 11.01C95.2383 10.8029 95.3802 10.6916 95.5796 10.6762C95.7192 10.6655 95.8596 10.7299 96.0007 10.8694C96.1511 10.9982 96.2351 11.1773 96.2528 11.4066C96.2667 11.5861 96.2464 11.8434 96.192 12.1786C96.1377 12.5137 96.0668 12.8953 95.9795 13.3233C95.8922 13.7513 95.8064 14.1992 95.7222 14.6671C95.6371 15.125 95.5717 15.5764 95.5258 16.0212C95.4791 16.4561 95.4696 16.853 95.4973 17.212C95.5089 17.3615 95.6144 17.4286 95.8138 17.4132C95.9234 17.4047 96.0703 17.2931 96.2543 17.0783C96.4475 16.8528 96.6561 16.5659 96.8799 16.2176C97.113 15.8586 97.3437 15.4697 97.5722 15.0509C97.8098 14.6213 98.0379 14.1975 98.2564 13.7794C98.4741 13.3514 98.6596 12.961 98.8129 12.6081C98.7967 12.5291 98.786 12.4548 98.7806 12.385C98.7752 12.3152 98.7702 12.2504 98.7656 12.1905C98.7279 11.702 98.7543 11.3941 98.8447 11.2667C98.9444 11.1286 99.079 11.053 99.2485 11.04C99.5376 11.0176 99.747 11.0667 99.8767 11.1871C100.006 11.3074 100.083 11.5272 100.108 11.8462C100.117 11.9658 100.112 12.0966 100.093 12.2385C100.073 12.3704 100.038 12.5637 99.9875 12.8184C100.128 13.5999 100.248 14.3028 100.346 14.927C100.454 15.5506 100.533 16.1814 100.582 16.8195C100.675 18.0259 100.562 19.0878 100.241 20.0051C99.931 20.9217 99.4457 21.6513 98.7855 22.1937C98.1352 22.7353 97.3415 23.0423 96.4043 23.1147ZM105.225 18.7178C104.636 18.7632 104.155 18.5747 103.782 18.1522C103.408 17.7297 103.194 17.1595 103.138 16.4416C103.118 16.1824 103.132 15.9055 103.179 15.611C103.236 15.3057 103.315 15.0288 103.416 14.7803C103.341 14.7159 103.279 14.6254 103.23 14.5089C103.18 14.3823 103.148 14.2243 103.133 14.0349C103.088 13.4466 103.146 12.9005 103.307 12.3966C103.469 11.8927 103.701 11.4485 104.002 11.0642C104.303 10.6699 104.645 10.3577 105.028 10.1275C105.421 9.89651 105.827 9.76487 106.246 9.73255C106.934 9.67945 107.512 9.88561 107.979 10.351C108.445 10.8065 108.717 11.5377 108.795 12.5447C108.836 13.0731 108.798 13.6177 108.681 14.1784C108.573 14.7383 108.405 15.2829 108.175 15.8122C107.955 16.3407 107.686 16.8178 107.368 17.2435C107.059 17.6685 106.72 18.0156 106.35 18.2849C105.988 18.5435 105.613 18.6878 105.225 18.7178ZM104.364 14.1956C104.43 14.2708 104.468 14.3732 104.478 14.5028C104.49 14.6523 104.471 14.8042 104.423 14.9584C104.385 15.1118 104.346 15.3204 104.306 15.5842C104.266 15.8481 104.264 16.2193 104.301 16.6979C104.338 17.1764 104.546 17.4011 104.925 17.3719C105.344 17.3395 105.72 17.145 106.054 16.7883C106.386 16.4216 106.672 15.9633 106.91 15.4133C107.149 14.8633 107.32 14.2834 107.423 13.6737C107.536 13.0532 107.571 12.4737 107.529 11.9353C107.503 11.5864 107.419 11.3471 107.278 11.2175C107.137 11.078 106.897 11.0213 106.558 11.0474C106.209 11.0744 105.855 11.2221 105.494 11.4906C105.143 11.7484 104.858 12.0863 104.64 12.5044C104.421 12.9225 104.331 13.3807 104.37 13.8793C104.378 13.9889 104.376 14.0944 104.364 14.1956ZM115.591 18.1283C115.421 18.1414 115.271 18.0778 115.14 17.9374C115.008 17.7971 114.932 17.5824 114.909 17.2932C114.883 16.9543 114.896 16.4668 114.947 15.831C115.008 15.1944 115.103 14.3496 115.233 13.2965C115.013 13.9554 114.76 14.5817 114.475 15.1754C114.2 15.7683 113.897 16.2581 113.566 16.6448C113.234 17.0314 112.879 17.2393 112.5 17.2686C112.131 17.2971 111.791 17.1779 111.48 16.9111C111.178 16.6435 111 16.1458 110.943 15.4179C110.912 15.0091 110.911 14.5478 110.942 14.0339C110.972 13.5101 111.022 12.9897 111.092 12.4727C111.163 11.9558 111.237 11.4937 111.316 11.0864C111.394 10.6691 111.471 10.3623 111.546 10.166C111.603 10.0011 111.665 9.89097 111.731 9.83574C111.796 9.77053 111.889 9.7333 112.008 9.72407C112.148 9.7133 112.302 9.76157 112.471 9.8689C112.64 9.97623 112.735 10.1695 112.756 10.4487C112.762 10.5184 112.739 10.6857 112.69 10.9503C112.649 11.2041 112.593 11.5194 112.522 11.896C112.46 12.2618 112.395 12.658 112.328 13.0844C112.26 13.5109 112.208 13.9362 112.171 14.3603C112.143 14.7837 112.143 15.1699 112.17 15.5188C112.184 15.7083 112.216 15.8613 112.265 15.9778C112.314 16.0944 112.419 16.1465 112.578 16.1342C112.718 16.1234 112.882 15.9704 113.069 15.6751C113.267 15.379 113.473 14.992 113.687 14.5141C113.91 14.0255 114.134 13.4866 114.359 12.8975C114.595 12.3077 114.819 11.7036 115.032 11.0854C115.255 10.4664 115.455 9.87924 115.633 9.32391C115.699 9.13828 115.775 9.02207 115.862 8.97526C115.948 8.91848 116.046 8.88586 116.155 8.8774C116.335 8.86354 116.5 8.92601 116.651 9.06479C116.812 9.19283 116.901 9.37151 116.918 9.60083C116.93 9.75038 116.92 10.0119 116.889 10.3854C116.867 10.7582 116.826 11.1977 116.765 11.7039C116.713 12.1994 116.648 12.7259 116.571 13.2835C116.503 13.8403 116.436 14.3922 116.368 14.939C116.299 15.4759 116.231 15.9676 116.165 16.414C116.11 16.8596 116.062 17.2193 116.023 17.4931C115.992 17.7462 115.935 17.9112 115.851 17.9879C115.777 18.0738 115.69 18.1206 115.591 18.1283ZM128.456 17.2104C128.107 17.2374 127.806 17.1052 127.553 16.8138C127.309 16.5117 127.156 15.9568 127.094 15.1492C127.028 14.3017 126.98 13.478 126.948 12.6781C126.916 11.8682 126.915 11.1411 126.945 10.4968C126.986 9.8518 127.066 9.33408 127.186 8.94366C127.307 8.55324 127.486 8.3488 127.726 8.33033C127.895 8.31725 128.052 8.40042 128.196 8.57985C128.34 8.74931 128.423 8.9836 128.446 9.28271C128.47 9.59179 128.472 10.0079 128.452 10.5309C128.432 11.054 128.401 11.6181 128.357 12.2233C128.323 12.8177 128.297 13.3964 128.28 13.9593C128.263 14.5123 128.269 14.9782 128.298 15.3571C128.31 15.5166 128.325 15.6459 128.343 15.7448C128.37 15.833 128.403 15.8756 128.443 15.8725C128.593 15.8609 128.742 15.719 128.892 15.4467C129.05 15.1636 129.213 14.8001 129.379 14.3559C129.545 13.9019 129.717 13.4071 129.897 12.8717C130.075 12.3264 130.259 11.7856 130.448 11.2494C130.638 10.7133 130.835 10.2216 131.042 9.77442C131.247 9.31725 131.459 8.94982 131.679 8.67212C131.897 8.38445 132.121 8.23176 132.35 8.21406C132.62 8.19328 132.879 8.30366 133.128 8.54519C133.387 8.77597 133.534 9.12567 133.57 9.59428C133.581 9.73386 133.58 9.97968 133.567 10.3317C133.553 10.6738 133.533 11.0665 133.507 11.5098C133.482 11.9531 133.456 12.3964 133.43 12.8397C133.403 13.2731 133.383 13.6608 133.369 14.0028C133.354 14.3349 133.353 14.5708 133.363 14.7104C133.403 15.2288 133.473 15.4842 133.573 15.4765C133.852 15.455 134.133 15.2578 134.415 14.885C134.706 14.5014 134.99 14.0181 135.266 13.4352C135.551 12.8415 135.828 12.2033 136.096 11.5206C136.373 10.8272 136.638 10.1649 136.89 9.53358C137.005 9.20375 137.103 8.98054 137.185 8.86394C137.275 8.7366 137.37 8.66908 137.47 8.66138C137.61 8.65061 137.745 8.71538 137.876 8.8557C138.017 8.99525 138.098 9.19464 138.118 9.45387C138.125 9.54361 138.127 9.63372 138.124 9.72423C138.12 9.80476 138.102 9.89642 138.07 9.9992C137.8 10.9227 137.5 11.7833 137.171 12.581C136.84 13.3688 136.493 14.0626 136.128 14.6625C135.772 15.2516 135.412 15.7207 135.048 16.0698C134.683 16.4089 134.336 16.5911 134.007 16.6165C133.439 16.6604 132.983 16.5351 132.639 16.2407C132.305 15.9355 132.116 15.5087 132.074 14.9604C132.056 14.731 132.048 14.4308 132.049 14.0596C132.061 13.6876 132.075 13.2853 132.092 12.8527C132.118 12.4194 132.146 12.001 132.175 11.5976C132.204 11.1941 132.227 10.8413 132.244 10.5391C132.271 10.2362 132.285 10.0295 132.286 9.91904C132.286 9.77869 132.265 9.71005 132.225 9.71313C132.186 9.71621 132.116 9.85198 132.016 10.1204C131.926 10.3782 131.816 10.7076 131.686 11.1088C131.566 11.4992 131.437 11.9053 131.299 12.3272C131.144 12.7905 130.963 13.3009 130.755 13.8586C130.557 14.4055 130.336 14.929 130.094 15.4291C129.862 15.9285 129.608 16.3442 129.333 16.6764C129.057 17.0086 128.765 17.1866 128.456 17.2104ZM141.34 15.4938C140.961 15.5231 140.634 15.3728 140.357 15.0431C140.09 14.7026 139.935 14.2483 139.891 13.6799C139.853 13.1814 139.94 12.6932 140.154 12.2154C140.367 11.7275 140.662 11.2534 141.037 10.7932C141.423 10.3321 141.856 9.9025 142.337 9.50432C142.817 9.09617 143.305 8.72253 143.8 8.3834C144.305 8.0435 144.784 7.75078 145.237 7.50523C145.699 7.25891 146.096 7.06783 146.426 6.93199C146.756 6.78618 146.986 6.70827 147.115 6.69827C147.335 6.68134 147.453 6.79251 147.472 7.0318C147.488 7.24118 147.418 7.43217 147.26 7.60478C147.113 7.77662 146.929 7.92623 146.708 8.0536C146.306 8.2953 145.846 8.5815 145.33 8.9122C144.823 9.23216 144.309 9.58778 143.788 9.97907C143.276 10.3596 142.8 10.7624 142.362 11.1874C141.933 11.6117 141.596 12.0489 141.35 12.4992C141.103 12.9395 140.996 13.379 141.03 13.8177C141.04 13.9473 141.073 14.0451 141.128 14.111C141.193 14.1762 141.296 14.2034 141.435 14.1926C141.615 14.1788 141.837 14.0763 142.103 13.8853C142.379 13.6835 142.675 13.425 142.991 13.1097C143.317 12.7836 143.636 12.428 143.947 12.0429C144.268 11.6571 144.564 11.2681 144.835 10.8761C145.105 10.4742 145.322 10.1014 145.486 9.75774C145.582 9.56981 145.695 9.41063 145.825 9.28021C145.955 9.13982 146.099 9.06347 146.259 9.05116C146.478 9.03423 146.598 9.15538 146.618 9.41461C146.624 9.49437 146.61 9.70107 146.575 10.0347C146.551 10.3676 146.527 10.7706 146.503 11.2438C146.479 11.7071 146.486 12.193 146.525 12.7015C146.609 13.7882 146.911 14.3116 147.429 14.2716C147.718 14.2493 148.009 14.1165 148.301 13.8733C148.603 13.6293 148.891 13.3263 149.164 12.9642C149.446 12.5914 149.701 12.2006 149.931 11.7917C150.16 11.3829 150.351 10.997 150.503 10.6342C150.656 10.2714 150.759 9.9826 150.812 9.76783C150.886 8.63884 151.048 7.81891 151.3 7.30805C151.561 6.79641 151.846 6.52867 152.155 6.50481C152.355 6.48942 152.518 6.53194 152.647 6.63238C152.774 6.72285 152.851 6.94256 152.878 7.29153C152.896 7.53081 152.829 7.89706 152.677 8.39026C152.524 8.88346 152.311 9.42652 152.035 10.0195C151.985 10.5349 151.976 11.0622 152.007 11.6013C152.039 12.1405 152.132 12.6298 152.286 13.0692C152.535 12.9196 152.776 12.6653 153.009 12.3063C153.242 11.9373 153.475 11.5131 153.708 11.0337C153.942 10.5543 154.17 10.0603 154.391 9.55176C154.623 9.04243 154.852 8.57337 155.08 8.14458C155.317 7.70504 155.55 7.34604 155.779 7.06757C156.019 6.78833 156.263 6.63909 156.512 6.61985C156.831 6.59523 157.103 6.67454 157.328 6.85778C157.552 7.03106 157.737 7.35774 157.885 7.83782C158.031 8.30793 158.139 8.98168 158.206 9.85907C158.243 10.3277 158.321 10.7629 158.443 11.1648C158.574 11.5659 158.754 11.8829 158.982 12.116C159.22 12.3384 159.509 12.4365 159.848 12.4103C160.356 12.3711 160.803 12.2463 161.188 12.0361C161.572 11.8159 161.9 11.5799 162.171 11.3283C162.452 11.0659 162.685 10.8373 162.871 10.6424C163.055 10.4376 163.203 10.331 163.312 10.3225C163.542 10.3048 163.665 10.4156 163.684 10.6549C163.692 10.7546 163.629 10.9199 163.496 11.1508C163.373 11.3709 163.192 11.6256 162.954 11.9148C162.724 12.1933 162.455 12.4698 162.145 12.7445C161.845 13.0084 161.516 13.2344 161.159 13.4224C160.813 13.6096 160.455 13.7175 160.086 13.7459C159.398 13.799 158.824 13.7079 158.365 13.4726C157.915 13.2365 157.562 12.8174 157.305 12.2154C157.058 11.6127 156.894 10.7928 156.814 9.7559C156.77 9.18759 156.719 8.77536 156.659 8.51921C156.598 8.25308 156.484 8.08131 156.318 8.00389C156.215 8.22251 156.078 8.53393 155.909 8.93817C155.749 9.33166 155.562 9.77233 155.349 10.2602C155.146 10.7473 154.923 11.2409 154.681 11.741C154.438 12.2311 154.187 12.6868 153.929 13.1079C153.67 13.5191 153.405 13.8604 153.135 14.132C152.865 14.3936 152.6 14.5344 152.34 14.5544C152.171 14.5675 151.989 14.4913 151.796 14.3256C151.602 14.1501 151.434 13.9173 151.291 13.6275C151.147 13.3276 151.062 13.0032 151.035 12.6542C151.018 12.4249 151.006 12.2102 151.001 12.01C150.636 12.6198 150.249 13.1913 149.839 13.7245C149.428 14.2477 149.01 14.6761 148.584 15.0099C148.159 15.3436 147.751 15.5255 147.363 15.5555C147.054 15.5794 146.756 15.492 146.47 15.2934C146.183 15.0849 145.934 14.718 145.723 14.1927C145.521 13.6566 145.374 12.9207 145.282 11.9851C144.891 12.6371 144.469 13.2212 144.018 13.7375C143.566 14.2538 143.112 14.67 142.655 14.9861C142.197 15.2923 141.759 15.4615 141.34 15.4938ZM160.988 9.4488C160.717 9.44964 160.579 9.28478 160.573 8.95422C160.577 8.87369 160.625 8.77473 160.716 8.65736C160.806 8.53002 160.916 8.45637 161.045 8.43639C161.352 8.38262 161.727 8.30851 162.171 8.21406C162.624 8.10886 163.122 7.99024 163.663 7.85817C163.725 7.36193 163.805 6.83922 163.903 6.29005C164.001 5.74088 164.115 5.20551 164.246 4.68394C164.375 4.1524 164.518 3.66994 164.676 3.23656C164.833 2.80318 165.007 2.45877 165.198 2.20332C165.299 2.08518 165.393 2.00271 165.479 1.9559C165.565 1.89912 165.643 1.86804 165.713 1.86265C165.852 1.85188 165.967 1.90323 166.056 2.01672C166.155 2.12944 166.21 2.26057 166.222 2.41013C166.228 2.48989 166.219 2.57081 166.195 2.65288C166.039 3.22661 165.878 3.93111 165.711 4.76638C165.545 5.60165 165.37 6.51285 165.185 7.49998C166.091 7.27963 166.996 7.0493 167.9 6.809C168.804 6.5687 169.58 6.35336 170.227 6.16298C170.411 6.0686 170.556 6.07239 170.664 6.17437C170.783 6.27558 170.846 6.38102 170.854 6.49069C170.865 6.63028 170.833 6.73805 170.759 6.81399C170.695 6.88917 170.624 6.95477 170.548 7.01078L170.535 7.02689C170.341 7.12204 170.05 7.23985 169.659 7.38031C169.268 7.51079 168.818 7.65587 168.309 7.81553C167.799 7.96522 167.254 8.11761 166.674 8.27269C166.104 8.427 165.539 8.57096 164.977 8.70456C164.816 9.59965 164.651 10.52 164.483 11.4658C164.325 12.4007 164.165 13.3208 164.004 14.2258C163.932 14.5924 163.835 14.8256 163.712 14.9254C163.6 15.0343 163.475 15.0942 163.335 15.1049C163.175 15.1172 163.031 15.0682 162.902 14.9578C162.783 14.8466 162.75 14.6035 162.801 14.2284L163.499 9.04433C162.908 9.18024 162.384 9.28583 161.929 9.36112C161.483 9.43563 161.169 9.46486 160.988 9.4488ZM50.5081 45.2324C50.0595 45.2671 49.6503 45.1632 49.2805 44.921C48.92 44.668 48.6265 44.3095 48.4002 43.8455C48.1738 43.3816 48.0363 42.8355 47.9879 42.2074C47.9371 41.5494 47.9607 40.8806 48.0587 40.201C48.1566 39.5215 48.2988 38.8937 48.485 38.3176C48.6712 37.7416 48.8713 37.2798 49.0851 36.9323C49.2983 36.5749 49.4995 36.3888 49.689 36.3742C49.8286 36.3634 49.9467 36.3994 50.0433 36.4822C50.14 36.5651 50.1949 36.6912 50.208 36.8607C50.211 36.9006 50.1819 37.0432 50.1206 37.2887C50.0586 37.5242 49.982 37.831 49.8908 38.2091C49.7989 38.5773 49.71 38.9853 49.6242 39.4333C49.5384 39.8812 49.4734 40.3375 49.429 40.8023C49.3846 41.2671 49.3782 41.7039 49.4098 42.1127C49.4637 42.8106 49.5666 43.2992 49.7185 43.5783C49.8796 43.8467 50.1098 43.9693 50.4089 43.9463C51.1367 43.8901 51.8001 43.6483 52.3989 43.2209C53.007 42.7828 53.556 42.229 54.0459 41.5593C54.5451 40.8788 54.9943 40.1371 55.3937 39.3339C55.0486 39.4107 54.7127 39.4768 54.3859 39.5321C54.0585 39.5774 53.7455 39.6166 53.4472 39.6497C53.1588 39.682 52.9667 39.6617 52.8708 39.5889C52.7749 39.516 52.7204 39.3949 52.7074 39.2254C52.6858 39.0766 52.7353 38.9374 52.8557 38.8077C52.986 38.6773 53.1256 38.6013 53.2744 38.5798C53.7199 38.5053 54.1747 38.42 54.6387 38.324C55.1027 38.2281 55.5609 38.1225 56.0134 38.0073C56.2173 37.5302 56.4108 37.0489 56.594 36.5633C56.7772 36.0778 56.942 35.6138 57.0883 35.1712C57.2477 34.5069 57.4205 33.8868 57.6067 33.3108C57.7922 32.7248 57.9861 32.2484 58.1885 31.8818C58.3901 31.5051 58.5906 31.3091 58.79 31.2937C59.129 31.2676 59.3116 31.424 59.3377 31.763C59.3431 31.8327 59.3132 32.0306 59.2481 32.3566C59.183 32.6826 59.0903 33.106 58.9701 33.6268C58.8598 34.1468 58.7299 34.7386 58.5805 35.402C58.4304 36.0555 58.2779 36.7443 58.1232 37.4683C59.0067 37.2196 59.8108 36.982 60.5355 36.7556C61.2694 36.5184 61.8714 36.3265 62.3416 36.1799C62.8109 36.0233 63.0904 35.9415 63.1802 35.9346C63.3098 35.9246 63.4195 35.9813 63.5092 36.1048C63.5982 36.2183 63.647 36.3299 63.6554 36.4395C63.6624 36.5293 63.5071 36.6616 63.1896 36.8366C62.8821 37.0107 62.4511 37.2095 61.8967 37.4328C61.3514 37.6454 60.7268 37.8692 60.0228 38.104C59.3279 38.3282 58.6025 38.5447 57.8463 38.7535C57.6624 39.6202 57.4878 40.4762 57.3224 41.3214C57.1569 42.1666 57.021 42.9394 56.9146 43.6397C56.8587 44.0853 56.6563 44.3216 56.3073 44.3485C56.1278 44.3624 55.9898 44.3279 55.8931 44.2451C55.8064 44.1615 55.7546 44.01 55.7377 43.7907C55.7354 43.7608 55.7488 43.6093 55.7778 43.3362C55.8161 43.0525 55.8643 42.7027 55.9225 42.287C55.9799 41.8613 56.0412 41.4203 56.1062 40.9639C56.1705 40.4976 56.2326 40.0666 56.2923 39.6708C55.8362 40.6488 55.3187 41.5463 54.7399 42.3632C54.161 43.1802 53.5154 43.8469 52.8031 44.3632C52.1006 44.8788 51.3357 45.1686 50.5081 45.2324ZM49.8899 34.8843C49.6506 34.9028 49.4454 34.8434 49.2744 34.7062C49.1133 34.5681 49.0243 34.3895 49.0073 34.1701C48.9866 33.9009 49.064 33.6693 49.2395 33.4752C49.4243 33.2704 49.6463 33.1579 49.9056 33.1379C50.1947 33.1156 50.4206 33.1834 50.5832 33.3414C50.7451 33.4894 50.836 33.693 50.856 33.9522C50.8722 34.1616 50.7875 34.3637 50.602 34.5585C50.4164 34.7534 50.1791 34.862 49.8899 34.8843ZM69.8087 43.6524C69.6491 43.6647 69.5095 43.6103 69.3899 43.4891C69.2702 43.368 69.2015 43.1927 69.1838 42.9634C69.1707 42.7939 69.1841 42.5121 69.2238 42.1178C69.2728 41.7129 69.3218 41.2427 69.3707 40.7073C69.4296 40.1712 69.472 39.6163 69.498 39.0426C69.5231 38.4589 69.5153 37.9029 69.4745 37.3745C69.4545 37.1152 69.5047 36.9208 69.6251 36.7912C69.7547 36.6508 69.9042 36.574 70.0737 36.5609C70.2332 36.5486 70.3606 36.6391 70.4557 36.8323C70.5509 37.0256 70.5966 37.4233 70.5929 38.0253C70.9731 36.973 71.4135 36.1165 71.9141 35.456C72.424 34.7848 72.9427 34.2934 73.4703 33.9819C73.9971 33.6604 74.4799 33.4827 74.9186 33.4489C75.2077 33.4265 75.4217 33.4702 75.5605 33.5798C75.7086 33.6787 75.788 33.798 75.7988 33.9376C75.8134 34.127 75.7452 34.2827 75.5941 34.4047C75.4523 34.5159 75.1973 34.656 74.8292 34.8248C74.4036 35.0282 74.0152 35.2587 73.664 35.5165C73.322 35.7636 73.0003 36.0793 72.699 36.4636C72.4076 36.8472 72.129 37.3301 71.863 37.9122C71.5962 38.4845 71.3395 39.1863 71.0928 40.0178C70.846 40.8492 70.592 41.8467 70.3308 43.0103C70.2879 43.2343 70.2201 43.3949 70.1273 43.4924C70.0445 43.589 69.9383 43.6424 69.8087 43.6524ZM77.0727 42.881C76.8832 42.8957 76.7084 42.839 76.548 42.7109C76.3869 42.5729 76.2945 42.3494 76.2706 42.0403C76.2537 41.8209 76.2601 41.5145 76.2899 41.1211C76.3189 40.7176 76.3652 40.2778 76.4288 39.8015C76.4923 39.3252 76.5612 38.8535 76.6355 38.3864C76.7189 37.9085 76.8063 37.4805 76.8974 37.1024C76.9886 36.7243 77.0721 36.442 77.148 36.2556C77.217 36.1099 77.2848 36.0144 77.3516 35.9691C77.4282 35.923 77.5015 35.8973 77.5713 35.8919C77.7109 35.8812 77.834 35.9168 77.9406 35.9988C78.0572 36.0801 78.1255 36.2504 78.1455 36.5096C78.1571 36.6591 78.1464 36.9107 78.1135 37.2643C78.0898 37.6071 78.0508 38.0113 77.9965 38.4769C77.9513 38.9317 77.8974 39.4023 77.8346 39.8885C77.7811 40.3641 77.726 40.8197 77.6693 41.2553C77.6127 41.691 77.5706 42.0553 77.5431 42.3483C77.5155 42.5109 77.4553 42.6409 77.3626 42.7383C77.279 42.825 77.1824 42.8726 77.0727 42.881ZM77.8999 34.4975C77.6706 34.5152 77.4459 34.4624 77.2257 34.3389C77.0156 34.2147 76.8985 33.9981 76.8747 33.689C76.8547 33.4298 76.8983 33.2158 77.0057 33.047C77.123 32.8775 77.2637 32.7513 77.4278 32.6684C77.6011 32.5748 77.7525 32.523 77.8822 32.513C78.0118 32.503 78.1586 32.5217 78.3228 32.5693C78.4961 32.606 78.6484 32.6946 78.7796 32.8349C78.91 32.9652 78.986 33.17 79.0075 33.4492C79.0222 33.6386 78.9704 33.8131 78.8524 33.9727C78.7335 34.1223 78.5825 34.2442 78.3992 34.3386C78.2259 34.4322 78.0595 34.4852 77.8999 34.4975ZM81.6963 46.4207C80.9286 46.48 80.3595 46.4487 79.989 46.3268C79.6185 46.205 79.4236 46.0194 79.4044 45.7702C79.3921 45.6106 79.4319 45.4772 79.5239 45.3698C79.6259 45.2616 79.7567 45.2014 79.9162 45.1891C80.0857 45.176 80.3319 45.182 80.6548 45.2073C80.9785 45.2425 81.2948 45.2481 81.6039 45.2243C82.6309 45.145 83.4499 44.7759 84.061 44.1169C84.6721 43.4579 85.1036 42.4868 85.3556 41.2036C85.6068 39.9105 85.7165 38.2772 85.6845 36.3038C85.4323 36.9351 85.1403 37.5694 84.8084 38.2068C84.4856 38.8335 84.1291 39.4127 83.7389 39.9443C83.3579 40.4652 82.9545 40.8925 82.529 41.2262C82.1034 41.56 81.6713 41.7438 81.2326 41.7776C80.8138 41.81 80.4966 41.7291 80.2811 41.5351C80.0755 41.3404 79.9542 41.0037 79.9173 40.5251C79.8842 40.0964 79.9688 39.6335 80.1712 39.1365C80.3727 38.6295 80.6541 38.1163 81.0152 37.597C81.3763 37.0776 81.7792 36.5801 82.2239 36.1045C82.6678 35.6189 83.116 35.1881 83.5684 34.8122C84.03 34.4255 84.4625 34.1163 84.8659 33.8846C85.2693 33.6529 85.6005 33.527 85.8598 33.507C86.119 33.487 86.3253 33.5613 86.4788 33.73C86.6322 33.8987 86.7282 34.2323 86.7667 34.7308C86.8567 35.8974 86.9046 37.0371 86.9102 38.1499C86.9251 39.252 86.8594 40.2852 86.7132 41.2493C86.5669 42.2134 86.3018 43.0663 85.9177 43.8081C85.5444 44.559 85.0142 45.1616 84.3271 45.6159C83.64 46.0701 82.7631 46.3384 81.6963 46.4207ZM85.3022 34.8589C84.8283 35.2164 84.3425 35.615 83.8449 36.0546C83.3472 36.4942 82.8864 36.9561 82.4624 37.4401C82.0484 37.9234 81.7202 38.4151 81.478 38.9153C81.2358 39.4154 81.1331 39.9047 81.1701 40.3833C81.1816 40.5329 81.2821 40.6003 81.4715 40.5857C81.6211 40.5742 81.8166 40.4437 82.0582 40.1944C82.3089 39.9343 82.5838 39.5972 82.8828 39.1829C83.181 38.7587 83.4815 38.2992 83.7844 37.8045C84.0964 37.2989 84.3831 36.7904 84.6445 36.2787C84.9059 35.7671 85.1251 35.2938 85.3022 34.8589ZM90.5071 42.4458C90.2877 42.4628 90.1132 42.4111 89.9836 42.2907C89.8547 42.1803 89.7714 41.8808 89.7337 41.3922C89.6991 40.9436 89.7338 40.3542 89.8379 39.624C89.9413 38.8838 90.0933 38.0597 90.294 37.1515C90.4947 36.2434 90.728 35.3027 90.9939 34.3293C91.259 33.346 91.5406 32.3815 91.8387 31.4357C92.146 30.4792 92.4445 29.6037 92.7342 28.809C92.8423 28.5198 92.9619 28.315 93.093 28.1946C93.2241 28.0741 93.3844 28.0066 93.5738 27.992C93.7034 27.982 93.8162 28.0134 93.9121 28.0862C94.0172 28.1483 94.0762 28.2641 94.0893 28.4336C94.0939 28.4934 94.0441 28.6928 93.9399 29.0319C93.8457 29.3701 93.7097 29.8169 93.5319 30.3723C93.364 30.9268 93.1763 31.5481 92.9686 32.2361C92.761 32.9241 92.551 33.6475 92.3388 34.406C92.1265 35.1646 91.9296 35.927 91.748 36.6933C91.5657 37.4496 91.416 38.1732 91.2988 38.8643C91.1816 39.5554 91.1139 40.1724 91.0957 40.7154C91.3126 40.4078 91.5583 40.0177 91.8328 39.5452C92.1072 39.0727 92.3989 38.5637 92.7079 38.0183C93.0168 37.4729 93.3311 36.9322 93.6508 36.396C93.9705 35.8598 94.2886 35.3688 94.6053 34.9231C94.9219 34.4774 95.2202 34.1184 95.5001 33.8461C95.7891 33.563 96.0483 33.4126 96.2776 33.3949C96.6565 33.3657 96.9698 33.4618 97.2176 33.6834C97.4746 33.8943 97.6235 34.2639 97.6643 34.7923C97.6874 35.0914 97.6553 35.455 97.5679 35.883C97.4906 36.3102 97.3948 36.7589 97.2807 37.2291C97.1665 37.6993 97.0658 38.1483 96.9785 38.5763C96.9011 39.0036 96.874 39.3667 96.8971 39.6658C96.9286 40.0746 97.099 40.2671 97.408 40.2432C97.8866 40.2063 98.3571 40.0646 98.8195 39.8183C99.2919 39.5712 99.7355 39.2762 100.15 38.9333C100.564 38.5804 100.944 38.2302 101.288 37.8826C101.631 37.5251 101.924 37.2217 102.165 36.9724C102.425 36.7016 102.65 36.5589 102.839 36.5442C103.079 36.5258 103.208 36.6412 103.227 36.8904C103.233 36.9602 103.224 37.0411 103.201 37.1332C103.178 37.2252 103.107 37.346 102.988 37.4956C102.842 37.6874 102.631 37.9394 102.354 38.2516C102.088 38.5631 101.772 38.8983 101.409 39.2574C101.056 39.6156 100.666 39.9567 100.239 40.2804C99.8229 40.6034 99.3877 40.8777 98.9338 41.1033C98.489 41.3182 98.0472 41.4426 97.6085 41.4764C97.0103 41.5226 96.5336 41.3889 96.1784 41.0753C95.8324 40.751 95.636 40.2847 95.589 39.6765C95.5598 39.2977 95.5842 38.8344 95.6623 38.2868C95.7404 37.7391 95.8461 37.1593 95.9794 36.5472C96.1218 35.9244 96.2655 35.3165 96.4103 34.7236C96.1082 34.9676 95.7846 35.3236 95.4396 35.7915C95.1038 36.2487 94.7526 36.7673 94.3862 37.3472C94.019 37.9171 93.6525 38.4971 93.2868 39.087C92.9311 39.6761 92.5823 40.2246 92.2404 40.7324C91.9076 41.2295 91.5929 41.6349 91.2962 41.9486C90.9994 42.2624 90.7364 42.4281 90.5071 42.4458ZM101.042 36.1414C100.771 36.1422 100.633 35.9774 100.628 35.6468C100.631 35.5663 100.679 35.4673 100.77 35.35C100.861 35.2226 100.97 35.149 101.099 35.129C101.406 35.0752 101.781 35.0011 102.225 34.9066C102.679 34.8015 103.176 34.6828 103.717 34.5508C103.779 34.0545 103.859 33.5318 103.957 32.9826C104.055 32.4335 104.17 31.8981 104.3 31.3765C104.429 30.845 104.573 30.3625 104.73 29.9291C104.887 29.4958 105.061 29.1514 105.252 28.8959C105.353 28.7778 105.447 28.6953 105.534 28.6485C105.619 28.5917 105.697 28.5606 105.767 28.5552C105.907 28.5445 106.021 28.5958 106.11 28.7093C106.209 28.822 106.264 28.9532 106.276 29.1027C106.282 29.1825 106.273 29.2634 106.249 29.3455C106.093 29.9192 105.932 30.6237 105.766 31.459C105.599 32.2942 105.424 33.2054 105.239 34.1926C106.145 33.9722 107.05 33.7419 107.954 33.5016C108.858 33.2613 109.634 33.0459 110.281 32.8556C110.465 32.7612 110.61 32.765 110.719 32.867C110.837 32.9682 110.9 33.0736 110.909 33.1833C110.919 33.3229 110.888 33.4306 110.813 33.5066C110.749 33.5818 110.679 33.6474 110.603 33.7034L110.589 33.7195C110.396 33.8146 110.104 33.9324 109.713 34.0729C109.322 34.2034 108.872 34.3485 108.363 34.5081C107.853 34.6578 107.308 34.8102 106.728 34.9653C106.158 35.1196 105.593 35.2635 105.031 35.3971C104.87 36.2922 104.705 37.2126 104.538 38.1584C104.379 39.0933 104.219 40.0133 104.059 40.9184C103.987 41.285 103.889 41.5182 103.766 41.6179C103.655 41.7269 103.529 41.7867 103.389 41.7975C103.23 41.8098 103.085 41.7608 102.957 41.6504C102.838 41.5392 102.804 41.2961 102.855 40.921L103.553 35.7369C102.962 35.8728 102.439 35.9784 101.983 36.0537C101.537 36.1282 101.224 36.1574 101.042 36.1414ZM117.967 40.0404C117.588 40.0696 117.261 39.9194 116.985 39.5897C116.718 39.2492 116.562 38.7948 116.518 38.2265C116.478 37.6981 116.567 37.1646 116.786 36.6262C117.015 36.0869 117.331 35.5611 117.732 35.0486C118.134 34.5362 118.579 34.0606 119.067 33.6217C119.553 33.1729 120.045 32.779 120.54 32.4398C121.045 32.0999 121.511 31.8283 121.936 31.625C122.362 31.4216 122.704 31.3099 122.964 31.2899C123.103 31.2791 123.22 31.3002 123.315 31.3531C123.408 31.396 123.46 31.4873 123.471 31.6269C123.478 31.7166 123.45 31.804 123.386 31.8892C123.396 31.8884 123.406 31.8876 123.416 31.8869C123.635 31.8699 123.755 31.9911 123.775 32.2503C123.782 32.34 123.761 32.5272 123.713 32.8117C123.664 33.0863 123.61 33.4315 123.552 33.8472C123.494 34.2629 123.449 34.7227 123.418 35.2266C123.386 35.7205 123.39 36.2218 123.429 36.7302C123.462 37.159 123.643 37.3606 123.972 37.3352C124.341 37.3068 124.708 37.1932 125.074 36.9944C125.44 36.7957 125.793 36.5628 126.133 36.2958C126.473 36.0188 126.783 35.7492 127.064 35.4868C127.344 35.2145 127.582 34.9855 127.778 34.7998C127.974 34.6141 128.117 34.5178 128.207 34.5109C128.287 34.5048 128.359 34.5243 128.422 34.5695C128.486 34.6148 128.522 34.6922 128.53 34.8019C128.538 34.9016 128.452 35.0888 128.273 35.3634C128.094 35.638 127.852 35.9525 127.548 36.3069C127.245 36.6614 126.9 37.0089 126.516 37.3495C126.131 37.6902 125.732 37.9767 125.318 38.2092C124.905 38.4417 124.504 38.573 124.115 38.603C123.816 38.6261 123.535 38.5575 123.272 38.3973C123.018 38.2263 122.799 37.9223 122.614 37.4852C122.44 37.0473 122.323 36.4345 122.262 35.6468L122.233 35.2729C121.807 36.1183 121.35 36.8957 120.863 37.6053C120.387 38.3141 119.899 38.8883 119.402 39.3279C118.914 39.7667 118.436 40.0042 117.967 40.0404ZM122.763 32.3886C122.714 32.4124 122.647 32.4477 122.56 32.4945C122.118 32.7393 121.659 33.0355 121.184 33.383C120.72 33.7298 120.268 34.1107 119.828 34.5258C119.399 34.9401 119.016 35.3658 118.678 35.8031C118.341 36.2403 118.079 36.6768 117.892 37.1125C117.705 37.5482 117.627 37.9654 117.657 38.3643C117.667 38.4939 117.7 38.5917 117.755 38.6576C117.82 38.7228 117.923 38.75 118.062 38.7392C118.262 38.7238 118.511 38.5792 118.811 38.3053C119.11 38.0214 119.433 37.6555 119.78 37.2075C120.136 36.7587 120.489 36.2651 120.839 35.7266C121.188 35.1881 121.518 34.6461 121.827 34.1007C122.146 33.5546 122.418 33.0521 122.643 32.5934C122.678 32.5206 122.717 32.4523 122.763 32.3886ZM129.302 39.2106C128.953 39.2375 128.652 39.1053 128.399 38.8139C128.155 38.5118 128.002 37.9569 127.94 37.1493C127.874 36.3019 127.826 35.4782 127.794 34.6782C127.762 33.8683 127.761 33.1412 127.791 32.497C127.832 31.8519 127.912 31.3342 128.032 30.9438C128.153 30.5534 128.332 30.3489 128.572 30.3305C128.741 30.3174 128.898 30.4006 129.042 30.58C129.186 30.7495 129.269 30.9837 129.292 31.2828C129.316 31.5919 129.318 32.008 129.298 32.5311C129.278 33.0542 129.247 33.6183 129.203 34.2234C129.169 34.8178 129.143 35.3965 129.127 35.9595C129.109 36.5124 129.115 36.9784 129.144 37.3572C129.156 37.5168 129.171 37.646 129.189 37.7449C129.216 37.8331 129.249 37.8757 129.289 37.8726C129.439 37.8611 129.588 37.7191 129.738 37.4468C129.896 37.1638 130.059 36.8002 130.225 36.3561C130.391 35.902 130.563 35.4072 130.743 34.8719C130.921 34.3265 131.105 33.7857 131.294 33.2496C131.484 32.7134 131.681 32.2217 131.888 31.7746C132.093 31.3174 132.305 30.95 132.525 30.6723C132.743 30.3846 132.967 30.2319 133.196 30.2142C133.466 30.1934 133.725 30.3038 133.974 30.5453C134.233 30.7761 134.38 31.1258 134.416 31.5944C134.427 31.734 134.426 31.9798 134.413 32.3319C134.399 32.6739 134.379 33.0666 134.354 33.5099C134.328 33.9532 134.302 34.3966 134.276 34.8399C134.249 35.2732 134.229 35.6609 134.215 36.003C134.2 36.3351 134.199 36.5709 134.209 36.7105C134.249 37.229 134.319 37.4843 134.419 37.4767C134.698 37.4551 134.979 37.2579 135.261 36.8851C135.552 36.5015 135.836 36.0183 136.112 35.4353C136.397 34.8416 136.674 34.2034 136.942 33.5207C137.219 32.8273 137.484 32.165 137.736 31.5337C137.851 31.2039 137.95 30.9807 138.031 30.8641C138.121 30.7367 138.216 30.6692 138.316 30.6615C138.456 30.6507 138.591 30.7155 138.722 30.8558C138.863 30.9954 138.944 31.1948 138.964 31.454C138.971 31.5437 138.973 31.6339 138.97 31.7244C138.966 31.8049 138.948 31.8966 138.916 31.9993C138.646 32.9228 138.346 33.7834 138.017 34.5812C137.686 35.3689 137.339 36.0627 136.974 36.6626C136.618 37.2517 136.258 37.7208 135.894 38.0699C135.529 38.409 135.182 38.5912 134.853 38.6166C134.285 38.6605 133.829 38.5352 133.485 38.2408C133.151 37.9356 132.962 37.5089 132.92 36.9605C132.902 36.7312 132.894 36.4309 132.895 36.0597C132.907 35.6877 132.921 35.2854 132.938 34.8529C132.964 34.4195 132.992 34.0011 133.021 33.5977C133.05 33.1943 133.073 32.8415 133.09 32.5393C133.117 32.2363 133.131 32.0296 133.132 31.9192C133.132 31.7788 133.111 31.7102 133.071 31.7133C133.032 31.7163 132.962 31.8521 132.862 32.1206C132.772 32.3783 132.662 32.7077 132.532 33.1089C132.412 33.4993 132.283 33.9055 132.145 34.3273C131.99 34.7906 131.809 35.3011 131.601 35.8587C131.403 36.4056 131.182 36.9291 130.94 37.4293C130.708 37.9286 130.454 38.3444 130.179 38.6765C129.904 39.0087 129.611 39.1867 129.302 39.2106ZM141.463 38.2268C141.084 38.256 140.757 38.1058 140.481 37.776C140.214 37.4356 140.058 36.9812 140.014 36.4129C139.974 35.8845 140.063 35.351 140.282 34.8125C140.511 34.2733 140.827 33.7475 141.228 33.235C141.63 32.7226 142.075 32.2469 142.563 31.8081C143.049 31.3593 143.541 30.9653 144.036 30.6262C144.541 30.2863 145.007 30.0147 145.432 29.8113C145.858 29.608 146.2 29.4963 146.46 29.4763C146.599 29.4655 146.716 29.4866 146.811 29.5395C146.904 29.5824 146.956 29.6736 146.967 29.8132C146.974 29.903 146.946 29.9904 146.882 30.0756C146.892 30.0748 146.902 30.074 146.912 30.0732C147.131 30.0563 147.251 30.1775 147.271 30.4367C147.278 30.5264 147.257 30.7136 147.209 30.9981C147.16 31.2727 147.106 31.6179 147.048 32.0336C146.99 32.4493 146.945 32.9091 146.914 33.413C146.882 33.9069 146.885 34.4081 146.925 34.9166C146.958 35.3453 147.139 35.547 147.468 35.5216C147.837 35.4931 148.204 35.3795 148.57 35.1808C148.936 34.9821 149.289 34.7492 149.629 34.4822C149.969 34.2052 150.279 33.9356 150.56 33.6732C150.84 33.4008 151.078 33.1718 151.274 32.9862C151.47 32.8005 151.613 32.7042 151.703 32.6973C151.783 32.6911 151.855 32.7107 151.918 32.7559C151.982 32.8011 152.018 32.8786 152.026 32.9883C152.034 33.088 151.948 33.2751 151.769 33.5498C151.589 33.8244 151.348 34.1389 151.044 34.4933C150.741 34.8477 150.396 35.1953 150.012 35.5359C149.627 35.8765 149.227 36.1631 148.814 36.3956C148.401 36.6281 148 36.7594 147.611 36.7894C147.312 36.8125 147.031 36.7439 146.768 36.5837C146.514 36.4127 146.295 36.1087 146.11 35.6715C145.936 35.2336 145.819 34.6209 145.758 33.8332L145.729 33.4593C145.303 34.3046 144.846 35.0821 144.359 35.7916C143.883 36.5004 143.395 37.0746 142.898 37.5142C142.41 37.9531 141.932 38.1906 141.463 38.2268ZM146.259 30.575C146.21 30.5988 146.143 30.6341 146.056 30.6809C145.614 30.9257 145.155 31.2219 144.68 31.5694C144.216 31.9162 143.764 32.2971 143.324 32.7122C142.895 33.1264 142.512 33.5522 142.174 33.9895C141.837 34.4267 141.575 34.8632 141.388 35.2989C141.201 35.7346 141.123 36.1518 141.153 36.5506C141.163 36.6802 141.196 36.778 141.251 36.844C141.316 36.9091 141.419 36.9363 141.558 36.9256C141.758 36.9102 142.007 36.7655 142.307 36.4917C142.606 36.2078 142.929 35.8419 143.276 35.3939C143.632 34.9451 143.985 34.4515 144.335 33.913C144.684 33.3745 145.014 32.8325 145.323 32.2871C145.641 31.741 145.914 31.2385 146.139 30.7798C146.173 30.707 146.213 30.6387 146.259 30.575ZM153.411 40.7799C152.912 40.8183 152.451 40.8188 152.027 40.7814C151.613 40.7531 151.202 40.6846 150.792 40.5758C150.383 40.4769 149.937 40.3409 149.452 40.1677C149.307 40.1087 149.176 40.0336 149.058 39.9423C148.942 39.8611 148.879 39.7606 148.87 39.641C148.858 39.4914 148.94 39.3246 149.117 39.1405C149.284 38.9671 149.447 38.8742 149.607 38.8619C149.776 38.8488 149.99 38.8925 150.249 38.9929C150.517 39.0925 150.827 39.209 151.178 39.3424C151.53 39.4857 151.916 39.6014 152.334 39.6895C152.762 39.7768 153.215 39.802 153.693 39.7651C154.212 39.7251 154.684 39.473 155.109 39.0089C155.535 38.5447 155.861 37.8977 156.088 37.0678C156.315 36.2479 156.386 35.2746 156.299 34.1479C156.273 33.8089 156.234 33.4358 156.182 33.0286C156.14 32.6106 156.086 32.1734 156.021 31.7171C155.822 32.254 155.592 32.7883 155.332 33.3198C155.082 33.8507 154.814 34.3328 154.526 34.7662C154.249 35.1988 153.95 35.5528 153.63 35.8283C153.32 36.093 152.995 36.2384 152.656 36.2645C152.227 36.2976 151.91 36.2118 151.703 36.0071C151.497 35.8024 151.376 35.4707 151.341 35.0121C151.304 34.5335 151.299 34.0123 151.325 33.4486C151.352 32.8849 151.398 32.3146 151.464 31.7379C151.539 31.1503 151.636 30.5912 151.756 30.0604C151.875 29.5297 152.01 29.0679 152.16 28.6752C152.245 28.4681 152.387 28.3568 152.586 28.3414C152.726 28.3307 152.866 28.395 153.007 28.5346C153.157 28.6634 153.241 28.8425 153.259 29.0718C153.273 29.2513 153.253 29.5086 153.198 29.8438C153.144 30.1789 153.073 30.5605 152.986 30.9885C152.899 31.4165 152.813 31.8644 152.728 32.3323C152.643 32.7902 152.578 33.2416 152.532 33.6864C152.485 34.1213 152.476 34.5182 152.504 34.8771C152.515 35.0267 152.621 35.0938 152.82 35.0784C152.93 35.0699 153.077 34.9583 153.261 34.7435C153.454 34.518 153.662 34.2311 153.886 33.8828C154.119 33.5238 154.35 33.1349 154.579 32.7161C154.816 32.2865 155.044 31.8627 155.263 31.4446C155.48 31.0166 155.666 30.6262 155.819 30.2733C155.803 30.1943 155.792 30.1199 155.787 30.0502C155.782 29.9804 155.777 29.9156 155.772 29.8557C155.734 29.3672 155.761 29.0592 155.851 28.9319C155.951 28.7938 156.085 28.7182 156.255 28.7052C156.544 28.6828 156.753 28.7319 156.883 28.8522C157.013 28.9726 157.09 29.1923 157.114 29.5114C157.124 29.631 157.119 29.7618 157.1 29.9037C157.08 30.0356 157.044 30.2289 156.994 30.4836C157.134 31.2651 157.254 31.9679 157.352 32.5922C157.461 33.2157 157.539 33.8466 157.589 34.4847C157.682 35.6911 157.568 36.753 157.248 37.6703C156.937 38.5869 156.452 39.3164 155.792 39.8589C155.142 40.4005 154.348 40.7075 153.411 40.7799ZM160.513 36.5908C160.294 36.6077 160.074 36.5545 159.854 36.4311C159.644 36.3069 159.526 36.0853 159.502 35.7662C159.482 35.507 159.53 35.2926 159.648 35.1231C159.765 34.9535 159.906 34.8273 160.07 34.7445C160.233 34.6516 160.38 34.6002 160.509 34.5902C160.639 34.5802 160.786 34.5989 160.95 34.6464C161.124 34.6932 161.277 34.7867 161.408 34.927C161.538 35.0574 161.614 35.2621 161.636 35.5413C161.657 35.8205 161.555 36.059 161.33 36.257C161.105 36.4549 160.832 36.5662 160.513 36.5908Z" fill="#5C4033"/>
</svg>
