<svg width="186" height="66" viewBox="0 0 186 66" fill="none" xmlns="http://www.w3.org/2000/svg">
<path d="M184.345 50.8354C183.018 50.8022 180.998 52.0654 179.299 53.3528C177.107 55.0078 175.181 57.0028 173.691 59.308C172.575 61.0365 171.492 63.1386 171.449 64.8509M171.449 64.8509C171.492 63.1386 170.515 60.9832 169.486 59.2029C168.112 56.8261 166.287 54.7374 164.184 52.975C162.55 51.6043 160.595 50.2418 159.269 50.2086M171.449 64.8509L171.964 44.2531C172.26 32.3835 162.877 22.5193 151.008 22.2226L142.052 21.9988" stroke="#EFE5D5"/>
<path d="M24.3614 17.7805C23.9526 17.812 23.6619 17.8144 23.4894 17.7876C23.316 17.7509 23.2063 17.6941 23.1603 17.6174C23.1242 17.54 23.1031 17.4614 23.0969 17.3816C23.0885 17.2719 23.1356 17.168 23.2384 17.0698C23.3503 16.9609 23.5834 16.8626 23.9378 16.7751C24.3887 16.64 24.9194 16.4987 25.5299 16.3513C26.1495 16.1932 26.8098 16.0419 27.5108 15.8975C28.211 15.7432 28.912 15.5988 29.6137 15.4644C30.3254 15.3292 31.0038 15.2167 31.6488 15.1268C32.303 15.0261 32.8843 14.9562 33.3928 14.9169C34.0708 14.8646 34.534 14.889 34.7826 14.9902C35.041 15.0906 35.1757 15.2106 35.1865 15.3502C35.1965 15.4798 35.1359 15.6048 35.0048 15.7253C34.8836 15.845 34.6635 15.9171 34.3445 15.9417C34.2149 15.9517 33.9181 16.0047 33.4541 16.1007C32.9893 16.1868 32.4214 16.3008 31.7504 16.4429C31.0885 16.5742 30.3875 16.7186 29.6475 16.876C29.6238 17.2188 29.5836 17.6733 29.527 18.2393C29.4696 18.7954 29.4015 19.4074 29.3227 20.0755C29.2539 20.7428 29.1804 21.4154 29.1024 22.0934C29.0335 22.7607 28.9662 23.3827 28.9004 23.9595C28.8446 24.5355 28.796 25.0106 28.7547 25.3849C28.7133 25.7592 28.6904 25.9817 28.6858 26.0522C28.6698 26.3644 28.5981 26.6056 28.4709 26.7759C28.3528 26.9355 28.214 27.0214 28.0545 27.0337C27.865 27.0483 27.6994 26.9809 27.5574 26.8314C27.4247 26.6711 27.3422 26.3816 27.3098 25.9628C27.2991 25.8233 27.3082 25.5518 27.3372 25.1483C27.3655 24.7349 27.4079 24.2452 27.4646 23.6792C27.5212 23.1131 27.585 22.5114 27.6562 21.8741C27.7274 21.2367 27.7997 20.6143 27.8731 20.0068C27.9458 19.3894 28.0132 18.8326 28.0752 18.3363C28.1364 17.8301 28.1812 17.4355 28.2095 17.1525C27.4287 17.303 26.6921 17.4401 25.9996 17.5638C25.3162 17.6767 24.7702 17.7489 24.3614 17.7805ZM35.6263 27.2316C35.4069 27.2485 35.2324 27.1968 35.1028 27.0764C34.9739 26.966 34.8906 26.6665 34.8529 26.178C34.8182 25.7293 34.853 25.1399 34.9571 24.4097C35.0604 23.6696 35.2125 22.8454 35.4132 21.9373C35.6139 21.0291 35.8472 20.0884 36.113 19.115C36.3782 18.1317 36.6598 17.1672 36.9579 16.2214C37.2652 15.265 37.5637 14.3894 37.8534 13.5947C37.9614 13.3056 38.081 13.1007 38.2121 12.9803C38.3433 12.8599 38.5035 12.7923 38.693 12.7777C38.8226 12.7677 38.9353 12.7991 39.0312 12.8719C39.1363 12.934 39.1954 13.0498 39.2085 13.2193C39.2131 13.2792 39.1633 13.4786 39.0591 13.8176C38.9648 14.1559 38.8288 14.6027 38.651 15.158C38.4832 15.7125 38.2955 16.3338 38.0878 17.0219C37.8801 17.7099 37.6702 18.4332 37.4579 19.1918C37.2457 19.9504 37.0488 20.7128 36.8672 21.479C36.6849 22.2353 36.5351 22.959 36.418 23.65C36.3008 24.3411 36.2331 24.9581 36.2148 25.5012C36.4318 25.1935 36.6775 24.8035 36.952 24.331C37.2264 23.8584 37.5181 23.3495 37.827 22.8041C38.136 22.2587 38.4503 21.7179 38.77 21.1817C39.0897 20.6455 39.4078 20.1546 39.7245 19.7089C40.0411 19.2632 40.3394 18.9042 40.6192 18.6318C40.9083 18.3487 41.1675 18.1983 41.3968 18.1806C41.7757 18.1514 42.089 18.2476 42.3368 18.4691C42.5938 18.68 42.7427 19.0496 42.7835 19.5781C42.8066 19.8772 42.7744 20.2407 42.6871 20.6687C42.6098 21.0959 42.514 21.5446 42.3999 22.0148C42.2857 22.485 42.185 22.9341 42.0976 23.3621C42.0203 23.7893 41.9932 24.1524 42.0163 24.4516C42.0478 24.8603 42.2181 25.0528 42.5272 25.0289C43.0058 24.992 43.4763 24.8504 43.9387 24.6041C44.4111 24.357 44.8547 24.062 45.2695 23.719C45.6836 23.3661 46.0628 23.0159 46.407 22.6684C46.7505 22.3109 47.0431 22.0074 47.2846 21.7581C47.5445 21.4873 47.7692 21.3446 47.9586 21.33C48.1979 21.3115 48.3272 21.4269 48.3464 21.6762C48.3518 21.746 48.343 21.8269 48.32 21.9189C48.2971 22.011 48.2261 22.1318 48.1073 22.2814C47.9616 22.4731 47.7504 22.7251 47.4736 23.0374C47.2068 23.3488 46.8916 23.6841 46.5282 24.0431C46.1747 24.4014 45.7848 24.7424 45.3585 25.0662C44.9421 25.3892 44.5069 25.6635 44.0529 25.8891C43.6081 26.1039 43.1664 26.2283 42.7277 26.2622C42.1295 26.3084 41.6528 26.1746 41.2976 25.861C40.9516 25.5367 40.7551 25.0705 40.7082 24.4623C40.679 24.0834 40.7034 23.6201 40.7815 23.0725C40.8595 22.5249 40.9652 21.945 41.0985 21.3329C41.241 20.7101 41.3847 20.1023 41.5295 19.5094C41.2273 19.7533 40.9038 20.1093 40.5588 20.5772C40.223 21.0344 39.8718 21.553 39.5054 22.1329C39.1381 22.7029 38.7717 23.2828 38.406 23.8727C38.0503 24.4618 37.7015 25.0103 37.3595 25.5181C37.0268 26.0152 36.7121 26.4206 36.4153 26.7344C36.1186 27.0481 35.8556 27.2139 35.6263 27.2316ZM52.9752 18.7312C52.9999 19.0502 52.9244 19.372 52.7489 19.6965C52.5725 20.011 52.3306 20.3205 52.0232 20.6251C51.7149 20.9197 51.3706 21.202 50.9903 21.4721C50.6099 21.7422 50.2273 21.9823 49.8423 22.1926C49.4574 22.4028 49.1046 22.5755 48.7841 22.7105C48.7343 23.1055 48.721 23.4526 48.7441 23.7517C48.7587 23.9411 48.8139 24.0723 48.9098 24.1451C49.0057 24.218 49.1484 24.2471 49.3378 24.2324C49.7566 24.2001 50.1945 24.0911 50.6515 23.9054C51.1086 23.7196 51.5722 23.4883 52.0423 23.2113C52.5123 22.9343 52.9613 22.6439 53.3892 22.34C53.8171 22.0362 54.2062 21.7504 54.5567 21.4826C54.9171 21.2141 55.2161 20.9954 55.4539 20.8267C55.6916 20.6579 55.8503 20.5704 55.9301 20.5642C56.0497 20.555 56.1425 20.5879 56.2085 20.6631C56.2837 20.7275 56.3251 20.8095 56.3328 20.9093C56.339 20.989 56.2263 21.1532 55.9947 21.4017C55.7731 21.6495 55.4699 21.9437 55.0849 22.2844C54.6992 22.615 54.2645 22.9595 53.7806 23.3178C53.2968 23.6761 52.7914 24.016 52.2646 24.3375C51.7477 24.6582 51.2416 24.923 50.7462 25.1317C50.2608 25.3397 49.8187 25.4591 49.4198 25.4899C48.9014 25.5299 48.4826 25.3666 48.1634 25.0001C47.8443 24.6336 47.6531 24.0415 47.59 23.224C47.5477 22.6756 47.5748 22.1169 47.6713 21.5477C47.7777 20.9779 47.936 20.429 48.146 19.9013C48.3652 19.3629 48.6139 18.8823 48.8922 18.4596C49.1797 18.0262 49.4891 17.6814 49.8204 17.4251C50.1509 17.1589 50.4806 17.0131 50.8096 16.9877C51.4378 16.9392 51.9448 17.0756 52.3306 17.3968C52.7165 17.7181 52.9314 18.1629 52.9752 18.7312ZM49.0092 21.5347C49.3037 21.3214 49.6074 21.0974 49.9202 20.8626C50.2331 20.6279 50.5206 20.39 50.7829 20.1491C51.0451 19.9082 51.2517 19.6616 51.4028 19.4092C51.563 19.1461 51.6331 18.8849 51.6131 18.6257C51.5846 18.2568 51.371 18.0877 50.9721 18.1185C50.7229 18.1378 50.471 18.3177 50.2164 18.6583C49.9711 18.9882 49.743 19.412 49.5323 19.9297C49.3215 20.4475 49.1471 20.9825 49.0092 21.5347ZM63.8784 24.8101C63.5294 24.8371 63.2283 24.7048 62.9752 24.4135C62.7312 24.1113 62.578 23.5565 62.5157 22.7489C62.4503 21.9014 62.4018 21.0777 62.3701 20.2778C62.3377 19.4678 62.3367 18.7408 62.3672 18.0965C62.4077 17.4515 62.4881 16.9338 62.6084 16.5433C62.7287 16.1529 62.9085 15.9485 63.1478 15.93C63.3173 15.9169 63.4742 16.0001 63.6184 16.1795C63.7619 16.349 63.8451 16.5833 63.8682 16.8824C63.8921 17.1915 63.8941 17.6075 63.8743 18.1306C63.8545 18.6537 63.8228 19.2178 63.7793 19.823C63.7449 20.4174 63.7194 20.996 63.7027 21.559C63.6852 22.112 63.691 22.5779 63.7203 22.9568C63.7326 23.1163 63.7476 23.2455 63.7652 23.3445C63.7921 23.4327 63.8255 23.4752 63.8654 23.4721C64.0149 23.4606 64.1644 23.3187 64.3139 23.0464C64.4726 22.7633 64.6351 22.3997 64.8014 21.9556C64.967 21.5015 65.1394 21.0068 65.3187 20.4714C65.4973 19.926 65.6812 19.3853 65.8705 18.8491C66.0598 18.313 66.2576 17.8213 66.4638 17.3741C66.6692 16.9169 66.8815 16.5495 67.1008 16.2718C67.3193 15.9841 67.5432 15.8314 67.7726 15.8137C68.0418 15.793 68.301 15.9033 68.5504 16.1449C68.8089 16.3756 68.9562 16.7253 68.9924 17.194C69.0032 17.3335 69.0021 17.5793 68.9892 17.9314C68.9754 18.2735 68.9556 18.6662 68.9296 19.1095C68.9037 19.5528 68.8777 19.9961 68.8518 20.4394C68.825 20.8727 68.8048 21.2605 68.7911 21.6025C68.7766 21.9346 68.7748 22.1705 68.7855 22.31C68.8255 22.8285 68.8954 23.0839 68.9951 23.0762C69.2743 23.0546 69.5549 22.8575 69.8371 22.4846C70.1284 22.1011 70.4121 21.6178 70.688 21.0348C70.9732 20.4411 71.2499 19.803 71.5181 19.1203C71.7956 18.4269 72.0604 17.7645 72.3126 17.1333C72.4275 16.8034 72.5257 16.5802 72.6069 16.4636C72.6974 16.3363 72.7925 16.2688 72.8922 16.2611C73.0318 16.2503 73.1671 16.3151 73.2983 16.4554C73.4395 16.5949 73.5201 16.7943 73.5401 17.0535C73.547 17.1433 73.549 17.2334 73.5459 17.3239C73.5421 17.4044 73.5241 17.4961 73.4919 17.5989C73.2222 18.5224 72.9225 19.383 72.5929 20.1807C72.2626 20.9685 71.915 21.6623 71.55 22.2621C71.1943 22.8513 70.8344 23.3204 70.4701 23.6694C70.1052 24.0085 69.7582 24.1908 69.4291 24.2162C68.8608 24.26 68.4048 24.1348 68.0611 23.8403C67.7267 23.5352 67.5383 23.1084 67.4959 22.56C67.4782 22.3307 67.4701 22.0305 67.4715 21.6592C67.483 21.2873 67.497 20.885 67.5138 20.4524C67.5405 20.0191 67.5684 19.6007 67.5974 19.1973C67.6265 18.7938 67.6494 18.441 67.6662 18.1388C67.693 17.8359 67.7071 17.6292 67.7086 17.5187C67.7078 17.3784 67.6874 17.3097 67.6476 17.3128C67.6077 17.3159 67.5379 17.4517 67.4383 17.7201C67.3479 17.9778 67.2379 18.3073 67.1084 18.7084C66.9881 19.0989 66.8589 19.505 66.721 19.9269C66.5662 20.3902 66.3849 20.9006 66.1772 21.4583C65.9787 22.0052 65.7584 22.5287 65.5161 23.0288C65.2839 23.5281 65.0301 23.9439 64.7549 24.2761C64.4796 24.6082 64.1875 24.7863 63.8784 24.8101ZM76.0394 23.8263C75.6605 23.8555 75.3329 23.7053 75.0568 23.3756C74.7898 23.0351 74.6343 22.5807 74.5905 22.0124C74.5497 21.484 74.6389 20.9505 74.8581 20.4121C75.0873 19.8728 75.4027 19.347 75.8045 18.8346C76.2062 18.3221 76.651 17.8465 77.1386 17.4077C77.6255 16.9588 78.1167 16.5649 78.612 16.2258C79.1174 15.8859 79.5829 15.6142 80.0085 15.4109C80.4341 15.2075 80.7765 15.0958 81.0357 15.0758C81.1753 15.065 81.2923 15.0861 81.3866 15.139C81.4802 15.1819 81.5324 15.2732 81.5432 15.4128C81.5501 15.5025 81.5217 15.5899 81.4581 15.6751C81.4681 15.6743 81.4781 15.6735 81.488 15.6728C81.7074 15.6558 81.827 15.777 81.8471 16.0362C81.854 16.126 81.8333 16.3131 81.7851 16.5977C81.7361 16.8722 81.6825 17.2174 81.6243 17.6331C81.5661 18.0488 81.5214 18.5086 81.4901 19.0125C81.458 19.5065 81.4616 20.0077 81.5008 20.5162C81.5339 20.9449 81.715 21.1465 82.044 21.1212C82.4129 21.0927 82.7802 20.9791 83.146 20.7803C83.5118 20.5816 83.8649 20.3487 84.2054 20.0817C84.5451 19.8048 84.8553 19.5351 85.1359 19.2727C85.4158 19.0004 85.6538 18.7714 85.8501 18.5857C86.0464 18.4001 86.1894 18.3038 86.2792 18.2968C86.3589 18.2907 86.4307 18.3102 86.4943 18.3555C86.558 18.4007 86.5941 18.4781 86.6025 18.5878C86.6102 18.6875 86.5244 18.8747 86.345 19.1493C86.1656 19.4239 85.9241 19.7384 85.6204 20.0929C85.3168 20.4473 84.9725 20.7948 84.5876 21.1354C84.2027 21.4761 83.8036 21.7626 83.3902 21.9951C82.9769 22.2276 82.5758 22.3589 82.187 22.3889C81.8879 22.412 81.6067 22.3434 81.3436 22.1832C81.0897 22.0122 80.8707 21.7082 80.6865 21.2711C80.5123 20.8332 80.3948 20.2204 80.334 19.4327L80.3051 19.0589C79.8789 19.9042 79.4224 20.6816 78.9355 21.3912C78.4587 22.1 77.9714 22.6742 77.4738 23.1138C76.9861 23.5526 76.508 23.7901 76.0394 23.8263ZM80.8347 16.1745C80.7864 16.1983 80.7189 16.2336 80.6322 16.2804C80.1898 16.5252 79.7312 16.8214 79.2565 17.169C78.7919 17.5157 78.3398 17.8967 77.9005 18.3117C77.4711 18.726 77.0877 19.1517 76.7504 19.589C76.413 20.0263 76.1508 20.4627 75.9638 20.8984C75.7768 21.3341 75.6987 21.7514 75.7294 22.1502C75.7394 22.2798 75.7721 22.3776 75.8273 22.4435C75.8925 22.5087 75.9949 22.5359 76.1345 22.5251C76.3339 22.5097 76.5835 22.3651 76.8833 22.0912C77.1824 21.8073 77.5052 21.4414 77.8517 20.9934C78.2082 20.5446 78.5613 20.051 78.9109 19.5125C79.2605 18.974 79.5897 18.4321 79.8987 17.8867C80.2176 17.3405 80.4897 16.8381 80.7151 16.3794C80.7496 16.3065 80.7895 16.2382 80.8347 16.1745ZM87.9867 26.3794C87.4882 26.4179 87.0269 26.4184 86.6028 26.3809C86.1893 26.3526 85.7779 26.2841 85.3683 26.1753C84.9594 26.0765 84.5127 25.9405 84.0279 25.7673C83.8829 25.7082 83.7517 25.6331 83.6344 25.5419C83.5178 25.4606 83.4549 25.3601 83.4456 25.2405C83.4341 25.0909 83.5165 24.9241 83.6928 24.74C83.86 24.5666 84.0233 24.4738 84.1829 24.4615C84.3523 24.4484 84.5663 24.492 84.8248 24.5924C85.0933 24.6921 85.4032 24.8086 85.7545 24.9419C86.1066 25.0853 86.4916 25.201 86.9096 25.2891C87.3376 25.3764 87.7909 25.4016 88.2695 25.3646C88.7879 25.3246 89.2599 25.0725 89.6855 24.6084C90.111 24.1443 90.4372 23.4973 90.664 22.6673C90.8916 21.8474 90.9619 20.8741 90.8749 19.7474C90.8487 19.4085 90.8099 19.0353 90.7584 18.6281C90.7161 18.2101 90.6623 17.773 90.597 17.3166C90.3977 17.8536 90.1682 18.3878 89.9083 18.9194C89.6584 19.4502 89.3897 19.9323 89.1022 20.3657C88.8247 20.7984 88.5261 21.1524 88.2063 21.4278C87.8958 21.6925 87.571 21.8379 87.232 21.8641C86.8033 21.8972 86.4857 21.8114 86.2794 21.6066C86.073 21.4019 85.9521 21.0702 85.9167 20.6116C85.8798 20.133 85.8746 19.6119 85.9013 19.0481C85.928 18.4844 85.9743 17.9142 86.0401 17.3374C86.1151 16.7499 86.2124 16.1907 86.3319 15.66C86.4514 15.1292 86.5862 14.6674 86.7365 14.2747C86.8208 14.0676 86.9626 13.9564 87.162 13.941C87.3016 13.9302 87.442 13.9946 87.5831 14.1341C87.7335 14.2629 87.8175 14.442 87.8352 14.6713C87.8491 14.8508 87.8288 15.1081 87.7745 15.4433C87.7201 15.7785 87.6493 16.1601 87.5619 16.588C87.4746 17.016 87.3888 17.464 87.3046 17.9318C87.2196 18.3897 87.1541 18.8411 87.1082 19.286C87.0616 19.7208 87.0521 20.1178 87.0798 20.4767C87.0913 20.6262 87.1968 20.6933 87.3962 20.6779C87.5059 20.6695 87.6527 20.5578 87.8367 20.343C88.03 20.1175 88.2385 19.8306 88.4624 19.4823C88.6954 19.1233 88.9262 18.7344 89.1546 18.3156C89.3923 17.886 89.6203 17.4622 89.8388 17.0442C90.0565 16.6161 90.242 16.2257 90.3953 15.8729C90.3792 15.7939 90.3684 15.7195 90.363 15.6497C90.3576 15.5799 90.3526 15.5151 90.348 15.4553C90.3103 14.9667 90.3367 14.6588 90.4272 14.5314C90.5268 14.3934 90.6614 14.3178 90.8309 14.3047C91.12 14.2824 91.3294 14.3314 91.4591 14.4518C91.5887 14.5722 91.6659 14.7919 91.6905 15.1109C91.6997 15.2306 91.6948 15.3613 91.6757 15.5032C91.6557 15.6352 91.6205 15.8284 91.57 16.0831C91.7105 16.8646 91.83 17.5675 91.9283 18.1918C92.0366 18.8153 92.1154 19.4461 92.1647 20.0842C92.2578 21.2906 92.1442 22.3525 91.8238 23.2699C91.5134 24.1865 91.0281 24.916 90.3679 25.4584C89.7177 26.0001 88.924 26.3071 87.9867 26.3794ZM104.545 21.6109C104.096 21.6456 103.687 21.5417 103.317 21.2995C102.957 21.0465 102.663 20.688 102.437 20.2241C102.211 19.7601 102.073 19.2141 102.025 18.5859C101.974 17.9279 101.997 17.2591 102.095 16.5795C102.193 15.9 102.336 15.2722 102.522 14.6961C102.708 14.1201 102.908 13.6583 103.122 13.3108C103.335 12.9534 103.536 12.7673 103.726 12.7527C103.865 12.7419 103.983 12.7779 104.08 12.8608C104.177 12.9436 104.232 13.0697 104.245 13.2392C104.248 13.2791 104.219 13.4218 104.157 13.6672C104.095 13.9027 104.019 14.2095 103.928 14.5876C103.836 14.9558 103.747 15.3638 103.661 15.8118C103.575 16.2597 103.51 16.7161 103.466 17.1808C103.421 17.6456 103.415 18.0824 103.447 18.4912C103.5 19.1891 103.603 19.6777 103.755 19.9568C103.916 20.2252 104.147 20.3478 104.446 20.3248C105.173 20.2686 105.837 20.0268 106.436 19.5995C107.044 19.1614 107.593 18.6075 108.083 17.9378C108.582 17.2573 109.031 16.5156 109.43 15.7124C109.085 15.7892 108.749 15.8553 108.423 15.9106C108.095 15.9559 107.782 15.9951 107.484 16.0282C107.196 16.0605 107.003 16.0402 106.908 15.9674C106.812 15.8945 106.757 15.7734 106.744 15.6039C106.723 15.4551 106.772 15.3159 106.892 15.1862C107.023 15.0558 107.162 14.9798 107.311 14.9583C107.757 14.8838 108.212 14.7985 108.676 14.7026C109.139 14.6066 109.598 14.501 110.05 14.3858C110.254 13.9087 110.448 13.4274 110.631 12.9419C110.814 12.4563 110.979 11.9923 111.125 11.5497C111.284 10.8854 111.457 10.2653 111.643 9.68927C111.829 9.10326 112.023 8.62692 112.225 8.26026C112.427 7.88363 112.627 7.68762 112.827 7.67222C113.166 7.64606 113.348 7.80247 113.375 8.14146C113.38 8.21125 113.35 8.40914 113.285 8.73512C113.22 9.06109 113.127 9.48448 113.007 10.0053C112.897 10.5253 112.767 11.1171 112.617 11.7805C112.467 12.434 112.315 13.1228 112.16 13.8469C113.043 13.5981 113.848 13.3605 114.572 13.1341C115.306 12.8969 115.908 12.705 116.378 12.5584C116.848 12.4018 117.127 12.32 117.217 12.3131C117.347 12.3031 117.456 12.3598 117.546 12.4833C117.635 12.5968 117.684 12.7084 117.692 12.818C117.699 12.9078 117.544 13.0401 117.226 13.2151C116.919 13.3893 116.488 13.588 115.933 13.8113C115.388 14.0239 114.764 14.2477 114.06 14.4825C113.365 14.7067 112.639 14.9232 111.883 15.132C111.699 15.9987 111.525 16.8547 111.359 17.6999C111.194 18.5452 111.058 19.3179 110.951 20.0182C110.895 20.4638 110.693 20.7001 110.344 20.727C110.165 20.7409 110.027 20.7064 109.93 20.6236C109.843 20.54 109.791 20.3885 109.774 20.1692C109.772 20.1393 109.786 19.9878 109.815 19.7148C109.853 19.431 109.901 19.0812 109.959 18.6655C110.017 18.2398 110.078 17.7988 110.143 17.3424C110.207 16.8761 110.269 16.4451 110.329 16.0493C109.873 17.0273 109.356 17.9248 108.777 18.7417C108.198 19.5587 107.552 20.2254 106.84 20.7417C106.137 21.2573 105.372 21.5471 104.545 21.6109ZM103.927 11.2628C103.687 11.2813 103.482 11.2219 103.311 11.0847C103.15 10.9467 103.061 10.768 103.044 10.5486C103.023 10.2794 103.101 10.0478 103.276 9.85369C103.461 9.64887 103.683 9.53645 103.942 9.51644C104.231 9.49412 104.457 9.56194 104.62 9.71989C104.782 9.86787 104.873 10.0715 104.893 10.3307C104.909 10.5401 104.824 10.7422 104.639 10.9371C104.453 11.1319 104.216 11.2405 103.927 11.2628ZM115.786 14.3342C115.557 14.3519 115.433 14.2362 115.413 13.9869C115.402 13.8373 115.434 13.6644 115.509 13.468C115.594 13.2709 115.686 13.0381 115.786 12.7696C115.885 12.5012 115.967 12.194 116.03 11.8481C116.104 11.5014 116.124 11.1137 116.091 10.6849C116.08 10.5453 116.06 10.4065 116.029 10.2685C116.007 10.1197 115.992 9.9805 115.982 9.85089C115.941 9.32246 115.975 8.97885 116.083 8.82006C116.19 8.6513 116.353 8.55845 116.573 8.54152C116.772 8.52613 116.948 8.60278 117.102 8.77147C117.255 8.94016 117.351 9.26878 117.389 9.75733C117.435 10.3555 117.404 10.9296 117.296 11.4796C117.187 12.0195 117.039 12.5024 116.851 12.9281C116.663 13.3538 116.469 13.6948 116.268 13.951C116.076 14.1965 115.916 14.3242 115.786 14.3342ZM121.715 20.2404C121.496 20.2574 121.321 20.2057 121.192 20.0853C121.073 19.9741 121.007 19.8387 120.995 19.6792C120.984 19.5396 121.034 19.4054 121.144 19.2765C121.264 19.1369 121.43 19.0088 121.641 18.8921C122.024 18.652 122.382 18.4137 122.714 18.1774C123.057 17.9403 123.329 17.6937 123.53 17.4375C123.731 17.1813 123.821 16.9185 123.8 16.6493C123.782 16.42 123.694 16.2513 123.535 16.1432C123.376 16.0252 123.166 15.9761 122.907 15.9961C122.758 16.0077 122.55 16.0537 122.286 16.1343C122.021 16.205 121.731 16.2875 121.417 16.3819C121.113 16.4656 120.813 16.5489 120.519 16.6318C120.224 16.7047 119.971 16.7493 119.762 16.7655C119.383 16.7947 119.092 16.7269 118.889 16.5621C118.685 16.3872 118.57 16.1403 118.546 15.8213C118.533 15.6617 118.61 15.4151 118.774 15.0815C118.939 14.7478 119.161 14.3746 119.44 13.9619C119.729 13.5385 120.047 13.1127 120.395 12.6847C120.743 12.2566 121.098 11.8581 121.461 11.4891C121.834 11.1193 122.181 10.8166 122.504 10.5811C122.837 10.3448 123.118 10.2178 123.347 10.2001C123.577 10.1824 123.757 10.2437 123.888 10.384C124.019 10.5243 124.094 10.7091 124.111 10.9384C124.125 11.1179 124.107 11.2748 124.057 11.409C124.007 11.5333 123.89 11.6376 123.706 11.722C123.531 11.8057 123.255 11.8671 122.877 11.9063C122.512 12.2454 122.126 12.6313 121.718 13.064C121.319 13.4859 120.957 13.9201 120.63 14.3665C120.313 14.8023 120.089 15.2157 119.958 15.6069C120.279 15.4718 120.67 15.3463 121.133 15.2304C121.605 15.1037 122.085 15.0215 122.573 14.9838C123.341 14.9246 123.923 15.0552 124.319 15.3757C124.724 15.6854 124.948 16.1195 124.991 16.6778C125.018 17.0367 124.933 17.4195 124.733 17.826C124.543 18.2218 124.281 18.5981 123.948 18.9548C123.614 19.3115 123.251 19.6054 122.857 19.8363C122.465 20.0773 122.084 20.212 121.715 20.2404ZM7.33962 51.1946C6.96075 51.2238 6.63322 51.0736 6.35702 50.7439C6.09003 50.4034 5.9346 49.949 5.89073 49.3807C5.84994 48.8523 5.93915 48.3188 6.15836 47.7804C6.38754 47.2411 6.70301 46.7153 7.10476 46.2029C7.50652 45.6904 7.95123 45.2148 8.43891 44.7759C8.92581 44.3271 9.41695 43.9332 9.91232 43.594C10.4177 43.2541 10.8831 42.9825 11.3087 42.7792C11.7344 42.5758 12.0768 42.4641 12.336 42.4441C12.4756 42.4333 12.5926 42.4544 12.6869 42.5073C12.7805 42.5502 12.8327 42.6415 12.8434 42.7811C12.8504 42.8708 12.822 42.9582 12.7584 43.0434C12.7683 43.0426 12.7783 43.0418 12.7883 43.0411C13.0076 43.0241 13.1273 43.1453 13.1473 43.4045C13.1543 43.4943 13.1336 43.6814 13.0853 43.966C13.0363 44.2405 12.9827 44.5857 12.9246 45.0014C12.8664 45.4171 12.8216 45.8769 12.7903 46.3808C12.7582 46.8748 12.7618 47.376 12.8011 47.8845C12.8342 48.3132 13.0152 48.5148 13.3442 48.4894C13.7131 48.461 14.0805 48.3474 14.4463 48.1486C14.8121 47.9499 15.1652 47.717 15.5057 47.45C15.8454 47.1731 16.1555 46.9034 16.4362 46.641C16.716 46.3687 16.9541 46.1397 17.1504 45.954C17.3467 45.7683 17.4897 45.6721 17.5794 45.6651C17.6592 45.659 17.7309 45.6785 17.7946 45.7237C17.8583 45.769 17.8943 45.8464 17.9028 45.9561C17.9105 46.0558 17.8246 46.243 17.6452 46.5176C17.4659 46.7922 17.2243 47.1067 16.9207 47.4612C16.6171 47.8156 16.2728 48.1631 15.8879 48.5037C15.503 48.8444 15.1038 49.1309 14.6905 49.3634C14.2772 49.5959 13.8761 49.7272 13.4872 49.7572C13.1881 49.7803 12.907 49.7117 12.6439 49.5515C12.39 49.3805 12.1709 49.0765 11.9868 48.6394C11.8125 48.2015 11.695 47.5887 11.6342 46.801L11.6054 46.4272C11.1792 47.2725 10.7226 48.0499 10.2358 48.7595C9.75894 49.4683 9.27169 50.0425 8.77404 50.4821C8.28637 50.9209 7.80823 51.1584 7.33962 51.1946ZM12.135 43.5428C12.0867 43.5666 12.0192 43.6019 11.9325 43.6487C11.49 43.8935 11.0315 44.1897 10.5568 44.5372C10.0921 44.884 9.6401 45.265 9.20074 45.68C8.77135 46.0943 8.38798 46.52 8.05063 46.9573C7.71328 47.3946 7.4511 47.831 7.26407 48.2667C7.07705 48.7024 6.99893 49.1197 7.02971 49.5185C7.03972 49.6481 7.07234 49.7459 7.12758 49.8118C7.19279 49.877 7.29518 49.9042 7.43477 49.8934C7.63417 49.878 7.88378 49.7334 8.18359 49.4595C8.48264 49.1756 8.80543 48.8097 9.15198 48.3617C9.5085 47.9129 9.86156 47.4193 10.2112 46.8808C10.5607 46.3423 10.89 45.8003 11.199 45.255C11.5179 44.7088 11.79 44.2064 12.0154 43.7477C12.0499 43.6748 12.0897 43.6065 12.135 43.5428ZM19.9845 50.4292C19.2168 50.4884 18.5944 50.2857 18.1172 49.8211C17.6492 49.3457 17.3802 48.6543 17.3102 47.747C17.2671 47.1887 17.2915 46.5299 17.3833 45.7705C17.4843 45.0005 17.6222 44.1875 17.7968 43.3315C17.9807 42.4648 18.1852 41.6065 18.4105 40.7566C18.6357 39.9068 18.8557 39.1175 19.0702 38.3888C19.294 37.6494 19.4921 37.0323 19.6645 36.5376C19.7634 36.2592 19.9225 36.1115 20.1418 36.0945C20.4409 36.0715 20.6047 36.2444 20.6332 36.6133C20.6424 36.7329 20.6065 36.9814 20.5253 37.3588C20.4441 37.7362 20.3349 38.2059 20.1978 38.7682C20.0598 39.3204 19.9116 39.9336 19.753 40.6079C19.5944 41.2821 19.4324 41.9766 19.2669 42.6914C19.1107 43.3956 18.9689 44.0935 18.8418 44.7854C18.7139 45.4672 18.6178 46.1065 18.5536 46.7032C18.4893 47.3 18.4733 47.8077 18.5056 48.2264C18.5264 48.4956 18.6128 48.7046 18.7647 48.8534C18.9258 48.9914 19.1309 49.0508 19.3802 49.0315C19.8388 48.9961 20.2905 48.871 20.7353 48.6561C21.1893 48.4305 21.6203 48.1666 22.0282 47.8643C22.4354 47.552 22.8031 47.2478 23.1313 46.9517C23.4686 46.6448 23.755 46.392 23.9904 46.1933C24.2251 45.9846 24.3922 45.8764 24.4919 45.8687C24.7113 45.8518 24.8302 45.963 24.8487 46.2023C24.8548 46.282 24.7866 46.4378 24.644 46.6694C24.5007 46.8911 24.3055 47.1569 24.0587 47.4668C23.8118 47.7768 23.5208 48.1001 23.1857 48.4369C22.8598 48.7629 22.5129 49.0756 22.1448 49.3748C21.7859 49.6633 21.4182 49.9023 21.0417 50.0918C20.6759 50.2905 20.3235 50.403 19.9845 50.4292ZM25.9023 49.8069C25.5533 49.8338 25.2523 49.7016 24.9991 49.4102C24.7551 49.1081 24.602 48.5532 24.5396 47.7456C24.4742 46.8982 24.4257 46.0745 24.394 45.2745C24.3616 44.4646 24.3606 43.7375 24.3911 43.0933C24.4316 42.4482 24.512 41.9305 24.6323 41.5401C24.7526 41.1497 24.9324 40.9452 25.1717 40.9268C25.3412 40.9137 25.4981 40.9969 25.6423 41.1763C25.7858 41.3458 25.8691 41.58 25.8921 41.8792C25.916 42.1882 25.918 42.6043 25.8982 43.1274C25.8784 43.6505 25.8467 44.2146 25.8032 44.8197C25.7688 45.4141 25.7433 45.9928 25.7266 46.5558C25.7091 47.1088 25.7149 47.5747 25.7442 47.9536C25.7565 48.1131 25.7715 48.2423 25.7892 48.3412C25.816 48.4294 25.8494 48.472 25.8893 48.4689C26.0388 48.4574 26.1884 48.3154 26.3378 48.0431C26.4965 47.7601 26.659 47.3965 26.8253 46.9524C26.9909 46.4983 27.1633 46.0036 27.3427 45.4682C27.5212 44.9228 27.7051 44.3821 27.8944 43.8459C28.0837 43.3097 28.2815 42.8181 28.4877 42.3709C28.6931 41.9137 28.9055 41.5463 29.1247 41.2686C29.3433 40.9809 29.5672 40.8282 29.7965 40.8105C30.0657 40.7897 30.3249 40.9001 30.5743 41.1416C30.8328 41.3724 30.9802 41.7221 31.0163 42.1907C31.0271 42.3303 31.026 42.5761 31.0131 42.9282C30.9994 43.2702 30.9795 43.6629 30.9536 44.1062C30.9276 44.5495 30.9016 44.9929 30.8757 45.4362C30.8489 45.8695 30.8287 46.2572 30.815 46.5993C30.8005 46.9314 30.7987 47.1672 30.8094 47.3068C30.8495 47.8253 30.9193 48.0807 31.019 48.073C31.2982 48.0514 31.5789 47.8542 31.861 47.4814C32.1523 47.0978 32.436 46.6146 32.7119 46.0316C32.9971 45.4379 33.2738 44.7997 33.5421 44.1171C33.8195 43.4236 34.0843 42.7613 34.3365 42.13C34.4515 41.8002 34.5496 41.577 34.6308 41.4604C34.7213 41.333 34.8164 41.2655 34.9161 41.2578C35.0557 41.2471 35.1911 41.3118 35.3223 41.4521C35.4634 41.5917 35.544 41.7911 35.564 42.0503C35.5709 42.1401 35.5729 42.2302 35.5698 42.3207C35.566 42.4012 35.548 42.4929 35.5158 42.5956C35.2461 43.5191 34.9464 44.3798 34.6169 45.1775C34.2865 45.9652 33.9389 46.6591 33.574 47.2589C33.2182 47.848 32.8583 48.3171 32.4941 48.6662C32.1291 49.0053 31.7821 49.1875 31.453 49.2129C30.8847 49.2568 30.4287 49.1315 30.0851 48.8371C29.7506 48.5319 29.5622 48.1052 29.5199 47.5568C29.5022 47.3275 29.494 47.0272 29.4955 46.656C29.5069 46.284 29.5209 45.8818 29.5377 45.4492C29.5644 45.0158 29.5923 44.5975 29.6214 44.194C29.6504 43.7906 29.6733 43.4378 29.6901 43.1356C29.7169 42.8326 29.731 42.6259 29.7325 42.5155C29.7317 42.3751 29.7114 42.3065 29.6715 42.3096C29.6316 42.3127 29.5618 42.4484 29.4622 42.7169C29.3718 42.9746 29.2618 43.3041 29.1323 43.7052C29.012 44.0956 28.8829 44.5018 28.7449 44.9236C28.5901 45.3869 28.4089 45.8974 28.2012 46.455C28.0027 47.0019 27.7823 47.5254 27.5401 48.0256C27.3078 48.5249 27.054 48.9407 26.7788 49.2728C26.5035 49.605 26.2114 49.783 25.9023 49.8069ZM38.0633 48.8231C37.6844 48.8523 37.3569 48.7021 37.0807 48.3723C36.8137 48.0319 36.6582 47.5775 36.6144 47.0092C36.5736 46.4808 36.6628 45.9473 36.882 45.4088C37.1112 44.8696 37.4267 44.3438 37.8284 43.8313C38.2302 43.3189 38.6749 42.8433 39.1626 42.4044C39.6495 41.9556 40.1406 41.5617 40.636 41.2225C41.1413 40.8826 41.6068 40.611 42.0324 40.4076C42.458 40.2043 42.8004 40.0926 43.0597 40.0726C43.1992 40.0618 43.3162 40.0829 43.4106 40.1358C43.5041 40.1787 43.5563 40.27 43.5671 40.4095C43.574 40.4993 43.5457 40.5867 43.482 40.6719C43.492 40.6711 43.502 40.6703 43.5119 40.6696C43.7313 40.6526 43.851 40.7738 43.871 41.033C43.8779 41.1227 43.8572 41.3099 43.809 41.5944C43.76 41.869 43.7064 42.2142 43.6482 42.6299C43.59 43.0456 43.5453 43.5054 43.514 44.0093C43.4819 44.5032 43.4855 45.0044 43.5247 45.5129C43.5578 45.9417 43.7389 46.1433 44.0679 46.1179C44.4368 46.0894 44.8041 45.9758 45.1699 45.7771C45.5357 45.5784 45.8888 45.3455 46.2293 45.0785C46.569 44.8015 46.8792 44.5319 47.1598 44.2695C47.4397 43.9971 47.6778 43.7681 47.8741 43.5825C48.0703 43.3968 48.2134 43.3005 48.3031 43.2936C48.3829 43.2875 48.4546 43.307 48.5182 43.3522C48.5819 43.3975 48.618 43.4749 48.6264 43.5846C48.6341 43.6843 48.5483 43.8715 48.3689 44.1461C48.1895 44.4207 47.948 44.7352 47.6444 45.0896C47.3407 45.444 46.9965 45.7916 46.6115 46.1322C46.2266 46.4728 45.8275 46.7594 45.4141 46.9919C45.0008 47.2244 44.5997 47.3557 44.2109 47.3857C43.9118 47.4088 43.6307 47.3402 43.3676 47.18C43.1136 47.009 42.8946 46.705 42.7104 46.2678C42.5362 45.8299 42.4187 45.2172 42.3579 44.4295L42.329 44.0556C41.9028 44.9009 41.4463 45.6784 40.9595 46.3879C40.4826 47.0968 39.9953 47.671 39.4977 48.1106C39.01 48.5494 38.5319 48.7869 38.0633 48.8231ZM42.8586 41.1713C42.8103 41.1951 42.7428 41.2304 42.6562 41.2772C42.2137 41.522 41.7551 41.8182 41.2805 42.1657C40.8158 42.5125 40.3638 42.8934 39.9244 43.3085C39.495 43.7227 39.1116 44.1485 38.7743 44.5858C38.4369 45.023 38.1747 45.4595 37.9877 45.8952C37.8007 46.3309 37.7226 46.7481 37.7534 47.1469C37.7634 47.2766 37.796 47.3743 37.8512 47.4403C37.9164 47.5055 38.0188 47.5327 38.1584 47.5219C38.3578 47.5065 38.6074 47.3619 38.9072 47.088C39.2063 46.8041 39.5291 46.4382 39.8756 45.9902C40.2321 45.5414 40.5852 45.0478 40.9348 44.5093C41.2844 43.9708 41.6137 43.4288 41.9226 42.8834C42.2415 42.3373 42.5137 41.8348 42.739 41.3761C42.7735 41.3033 42.8134 41.235 42.8586 41.1713ZM50.0107 51.3762C49.5121 51.4146 49.0508 51.4151 48.6267 51.3777C48.2133 51.3494 47.8018 51.2809 47.3922 51.1721C46.9834 51.0732 46.5366 50.9372 46.0518 50.764C45.9068 50.705 45.7757 50.6299 45.6583 50.5386C45.5417 50.4574 45.4788 50.3569 45.4695 50.2373C45.458 50.0877 45.5404 49.9209 45.7168 49.7368C45.8839 49.5634 46.0472 49.4705 46.2068 49.4582C46.3763 49.4451 46.5903 49.4888 46.8488 49.5892C47.1172 49.6888 47.4271 49.8053 47.7784 49.9387C48.1305 50.082 48.5155 50.1977 48.9336 50.2858C49.3615 50.3731 49.8148 50.3983 50.2934 50.3614C50.8119 50.3214 51.2839 50.0693 51.7094 49.6052C52.1349 49.1411 52.4611 48.494 52.6879 47.6641C52.9155 46.8442 52.9858 45.8709 52.8988 44.7442C52.8727 44.4052 52.8338 44.0321 52.7823 43.6249C52.74 43.2069 52.6862 42.7697 52.6209 42.3134C52.4217 42.8503 52.1921 43.3846 51.9322 43.9162C51.6823 44.447 51.4137 44.9291 51.1262 45.3625C50.8486 45.7951 50.55 46.1492 50.2302 46.4246C49.9197 46.6893 49.5949 46.8347 49.2559 46.8609C48.8272 46.8939 48.5097 46.8081 48.3033 46.6034C48.0969 46.3987 47.976 46.067 47.9406 45.6084C47.9037 45.1298 47.8986 44.6086 47.9253 44.0449C47.952 43.4812 47.9982 42.9109 48.064 42.3342C48.139 41.7466 48.2363 41.1875 48.3558 40.6567C48.4753 40.126 48.6102 39.6642 48.7604 39.2715C48.8447 39.0644 48.9865 38.9531 49.186 38.9377C49.3255 38.927 49.4659 38.9914 49.6071 39.1309C49.7574 39.2597 49.8415 39.4388 49.8592 39.6681C49.873 39.8476 49.8528 40.1049 49.7984 40.4401C49.744 40.7752 49.6732 41.1568 49.5859 41.5848C49.4985 42.0128 49.4128 42.4607 49.3285 42.9286C49.2435 43.3865 49.178 43.8379 49.1321 44.2827C49.0855 44.7176 49.076 45.1145 49.1037 45.4735C49.1152 45.623 49.2207 45.6901 49.4201 45.6747C49.5298 45.6662 49.6766 45.5546 49.8607 45.3398C50.0539 45.1143 50.2624 44.8274 50.4863 44.4791C50.7193 44.1201 50.9501 43.7312 51.1785 43.3124C51.4162 42.8828 51.6442 42.459 51.8627 42.0409C52.0804 41.6129 52.2659 41.2225 52.4192 40.8696C52.4031 40.7906 52.3923 40.7163 52.387 40.6465C52.3816 40.5767 52.3766 40.5119 52.3719 40.452C52.3342 39.9635 52.3606 39.6556 52.4511 39.5282C52.5508 39.3901 52.6853 39.3145 52.8548 39.3015C53.144 39.2791 53.3534 39.3282 53.483 39.4486C53.6127 39.5689 53.6898 39.7887 53.7144 40.1077C53.7237 40.2273 53.7187 40.3581 53.6996 40.5C53.6797 40.6319 53.6444 40.8252 53.5939 41.0799C53.7344 41.8614 53.8539 42.5643 53.9522 43.1885C54.0605 43.8121 54.1393 44.4429 54.1886 45.081C54.2817 46.2874 54.1681 47.3493 53.8477 48.2666C53.5374 49.1832 53.0521 49.9128 52.3918 50.4552C51.7416 50.9968 50.9479 51.3038 50.0107 51.3762ZM58.8574 47.1578C58.6381 47.1747 58.4636 47.123 58.334 47.0026C58.215 46.8915 58.1494 46.7561 58.1371 46.5966C58.1263 46.457 58.1762 46.3228 58.2866 46.1939C58.4062 46.0543 58.5718 45.9261 58.7835 45.8095C59.1661 45.5693 59.5238 45.3311 59.8566 45.0948C60.1994 44.8577 60.4712 44.6111 60.6721 44.3548C60.873 44.0986 60.963 43.8359 60.9423 43.5667C60.9246 43.3374 60.8363 43.1687 60.6775 43.0606C60.518 42.9425 60.3086 42.8935 60.0493 42.9135C59.8998 42.925 59.6927 42.9711 59.4281 43.0517C59.1628 43.1223 58.8733 43.2049 58.5596 43.2993C58.2552 43.383 57.9557 43.4663 57.6612 43.5492C57.3659 43.6221 57.1136 43.6667 56.9042 43.6828C56.5253 43.7121 56.2343 43.6443 56.031 43.4794C55.8269 43.3046 55.7126 43.0577 55.6879 42.7386C55.6756 42.5791 55.7519 42.3325 55.9167 41.9988C56.0815 41.6652 56.3034 41.292 56.5825 40.8793C56.8708 40.4558 57.189 40.0301 57.537 39.602C57.8851 39.174 58.2405 38.7754 58.6032 38.4064C58.9758 38.0366 59.3236 37.734 59.6464 37.4984C59.9792 37.2621 60.2603 37.1351 60.4896 37.1174C60.7189 37.0997 60.8992 37.161 61.0303 37.3013C61.1615 37.4417 61.236 37.6265 61.2537 37.8558C61.2675 38.0353 61.2495 38.1921 61.1997 38.3264C61.1491 38.4506 61.0318 38.555 60.8478 38.6394C60.6737 38.723 60.3976 38.7844 60.0195 38.8237C59.6545 39.1628 59.2681 39.5486 58.8602 39.9813C58.4614 40.4032 58.0988 40.8374 57.7722 41.2839C57.4548 41.7196 57.2309 42.1331 57.1006 42.5243C57.4212 42.3892 57.8127 42.2637 58.2751 42.1478C58.7468 42.0211 59.2269 41.9389 59.7154 41.9012C60.4832 41.8419 61.0649 41.9725 61.4608 42.293C61.8658 42.6028 62.0899 43.0368 62.133 43.5952C62.1607 43.9541 62.0749 44.3368 61.8756 44.7434C61.6855 45.1392 61.4237 45.5154 61.0901 45.8722C60.7566 46.2289 60.3931 46.5227 59.9997 46.7537C59.6071 46.9946 59.2264 47.1293 58.8574 47.1578ZM73.0524 45.7462C72.6237 45.7793 72.313 45.718 72.1205 45.5624C71.9279 45.4067 71.819 45.1644 71.7936 44.8354C71.6658 43.1803 71.8314 41.4273 72.2903 39.5765C72.7485 37.7157 73.4455 35.8315 74.3815 33.9238C74.5034 33.6837 74.6019 33.5307 74.677 33.4647C74.7621 33.398 74.8645 33.36 74.9842 33.3507C75.1238 33.34 75.2522 33.3802 75.3696 33.4714C75.487 33.5627 75.5522 33.693 75.5653 33.8625C75.5722 33.9523 75.5013 34.2035 75.3526 34.6161C75.2032 35.0188 75.0127 35.54 74.7813 36.1797C74.5498 36.8195 74.3042 37.5355 74.0444 38.3278C73.7938 39.1094 73.5609 39.9248 73.3456 40.7739C73.1303 41.623 72.9695 42.4628 72.8631 43.2935C73.0662 42.9368 73.3123 42.5517 73.6014 42.1382C73.9004 41.724 74.2193 41.3082 74.5582 40.8909C74.8971 40.4736 75.2437 40.0908 75.5979 39.7425C75.9621 39.3934 76.3164 39.1103 76.6607 38.8932C77.005 38.676 77.3267 38.5559 77.6258 38.5328C78.0147 38.5028 78.3664 38.6411 78.6809 38.9478C79.0046 39.2438 79.1915 39.7158 79.2415 40.3639C79.2839 40.9123 79.1778 41.4871 78.9233 42.0885C78.6681 42.6799 78.2702 43.2422 77.7296 43.7754C77.1982 44.2978 76.5403 44.7398 75.7558 45.1012C74.9705 45.4527 74.0694 45.6677 73.0524 45.7462ZM73.0245 44.6049C73.852 44.5411 74.594 44.3434 75.2504 44.0119C75.9069 43.6804 76.4578 43.2818 76.9033 42.8161C77.358 42.3397 77.6969 41.8572 77.9199 41.3686C78.1522 40.8692 78.2533 40.4251 78.2233 40.0363C78.2017 39.7571 78.0963 39.6248 77.9068 39.6395C77.6775 39.6572 77.3918 39.7895 77.0498 40.0366C76.7078 40.2837 76.3413 40.6028 75.9503 40.9941C75.5692 41.3845 75.1904 41.8049 74.814 42.2553C74.4367 42.6956 74.0886 43.1236 73.7697 43.5394C73.4607 43.9544 73.2123 44.3096 73.0245 44.6049ZM86.2078 37.5394C86.244 38.008 86.1463 38.497 85.9148 39.0063C85.6826 39.5057 85.2846 40.0028 84.721 40.4976C84.1667 40.9817 83.4244 41.4352 82.4941 41.858C82.5894 42.5728 82.8131 43.067 83.1652 43.3408C83.5173 43.6145 84.0773 43.7217 84.845 43.6624C85.4432 43.6163 86.0134 43.4669 86.5556 43.2145C87.1077 42.9612 87.6092 42.6367 88.0601 42.2408C87.9488 41.9685 87.8556 41.6698 87.7803 41.3447C87.7051 41.0195 87.6532 40.6725 87.6247 40.3036C87.5632 39.5059 87.6155 38.8199 87.7818 38.2454C87.9481 37.6709 88.1846 37.2263 88.4913 36.9118C88.8079 36.5965 89.1408 36.4254 89.4897 36.3984C89.9384 36.3638 90.3146 36.4952 90.6184 36.7927C90.9314 37.0795 91.1129 37.5469 91.1629 38.195C91.2191 38.9228 91.0897 39.6499 90.7747 40.3763C90.4596 41.1027 90.0299 41.7728 89.4855 42.3865C89.6889 42.6817 89.9159 42.8949 90.1668 43.026C90.4276 43.1563 90.7026 43.2103 90.9917 43.188C91.3407 43.161 91.7122 43.0371 92.1064 42.8161C92.5105 42.5943 92.92 42.312 93.3348 41.969C93.7497 41.6261 94.1476 41.2594 94.5287 40.8689C94.909 40.4684 95.2452 40.0814 95.5373 39.7078C95.6094 39.602 95.6842 39.531 95.7616 39.4949C95.8383 39.4489 95.9115 39.4232 95.9813 39.4178C96.1907 39.4016 96.3043 39.5082 96.322 39.7375C96.335 39.907 96.2649 40.103 96.1116 40.3255C95.8118 40.7297 95.4491 41.1639 95.0236 41.6281C94.608 42.0914 94.1606 42.5322 93.6814 42.9503C93.2121 43.3676 92.7374 43.7152 92.2574 43.993C91.7873 44.27 91.3429 44.4246 90.9241 44.4569C90.4855 44.4908 90.0625 44.4031 89.6551 44.1938C89.2578 43.9838 88.9072 43.6648 88.6034 43.2369C88.0382 43.7118 87.4213 44.1005 86.7526 44.4028C86.0839 44.7052 85.4155 44.8821 84.7475 44.9337C83.6508 45.0184 82.8201 44.7816 82.2555 44.2234C81.6908 43.6652 81.3689 42.8726 81.2896 41.8457C81.228 41.048 81.2812 40.3068 81.4489 39.6218C81.6259 38.9261 81.8746 38.3152 82.1951 37.789C82.5148 37.2528 82.8782 36.8285 83.2854 36.5163C83.6926 36.204 84.1005 36.0321 84.5093 36.0005C85.0377 35.9598 85.4439 36.0889 85.7277 36.3879C86.0116 36.687 86.1716 37.0708 86.2078 37.5394ZM82.4593 40.8226C82.9386 40.5349 83.3838 40.1946 83.7947 39.8018C84.2149 39.3983 84.5446 38.9917 84.7838 38.5821C85.033 38.1717 85.1452 37.807 85.1206 37.4879C85.1098 37.3483 85.0718 37.246 85.0066 37.1808C84.9406 37.1056 84.8279 37.0742 84.6684 37.0865C84.4291 37.105 84.1883 37.2339 83.946 37.4733C83.7029 37.7027 83.4752 38.0011 83.2629 38.3685C83.0497 38.726 82.8696 39.121 82.7225 39.5536C82.5853 39.9854 82.4976 40.4084 82.4593 40.8226ZM88.9917 41.2512C89.3651 40.761 89.651 40.2424 89.8495 39.6955C90.048 39.1486 90.1273 38.6159 90.0872 38.0975C90.0534 37.6588 89.9268 37.4479 89.7074 37.4648C89.3983 37.4887 89.1515 37.7334 88.9667 38.199C88.7912 38.6539 88.7304 39.2303 88.7843 39.9282C88.822 40.4167 88.8911 40.8577 88.9917 41.2512ZM96.2294 43.5961C95.9403 43.6184 95.6684 43.4739 95.4137 43.1626C95.159 42.8513 95.0116 42.4364 94.9716 41.9179C94.9277 41.3496 94.9555 40.7357 95.0551 40.076C95.1646 39.4157 95.3082 38.7426 95.4859 38.0569C95.6629 37.3612 95.8369 36.6908 96.0077 36.0458C96.0476 35.9123 96.11 35.8122 96.1952 35.7455C96.2895 35.668 96.4363 35.6215 96.6357 35.6061C96.9947 35.5784 97.1876 35.7391 97.2145 36.088C97.2207 36.1678 97.1947 36.3503 97.1365 36.6356C97.0782 36.921 97.0001 37.273 96.9021 37.6918C96.814 38.1098 96.7236 38.5631 96.6309 39.0517C96.5375 39.5303 96.4594 40.0128 96.3966 40.499C96.3338 40.9853 96.2983 41.4344 96.29 41.8462C96.4364 41.6644 96.5959 41.3914 96.7683 41.027C96.9508 40.6619 97.1447 40.2507 97.3501 39.7936C97.5548 39.3264 97.7694 38.8585 97.994 38.3899C98.2178 37.9112 98.4447 37.4724 98.6747 37.0736C98.9139 36.6639 99.1493 36.3348 99.3808 36.0863C99.6216 35.827 99.8517 35.6889 100.071 35.6719C100.39 35.6473 100.667 35.7262 100.902 35.9087C101.146 36.0805 101.346 36.406 101.504 36.8853C101.67 37.3539 101.787 38.0268 101.855 38.9042C101.891 39.3728 101.97 39.8081 102.091 40.2099C102.222 40.611 102.402 40.9281 102.631 41.1612C102.869 41.3836 103.157 41.4817 103.496 41.4555C104.005 41.4162 104.451 41.2915 104.836 41.0812C105.221 40.861 105.548 40.6251 105.82 40.3735C106.101 40.1111 106.334 39.8825 106.519 39.6876C106.704 39.4828 106.851 39.3761 106.961 39.3677C107.19 39.35 107.314 39.4608 107.333 39.7C107.34 39.7998 107.278 39.965 107.145 40.1959C107.022 40.4161 106.841 40.6708 106.602 40.96C106.373 41.2384 106.104 41.515 105.794 41.7897C105.493 42.0536 105.165 42.2795 104.808 42.4675C104.461 42.6548 104.104 42.7626 103.735 42.7911C103.047 42.8442 102.473 42.7531 102.014 42.5177C101.564 42.2816 101.211 41.8626 100.954 41.2606C100.707 40.6578 100.543 39.838 100.463 38.8011C100.419 38.2328 100.352 37.8217 100.262 37.5678C100.182 37.3033 100.053 37.1326 99.8769 37.056C99.7735 37.2746 99.642 37.5856 99.4826 37.9891C99.3224 38.3826 99.1358 38.8233 98.9227 39.3111C98.7195 39.7982 98.5019 40.2914 98.2696 40.7908C98.0465 41.2794 97.8158 41.7335 97.5774 42.1531C97.339 42.5727 97.1048 42.9167 96.8747 43.1852C96.644 43.4437 96.4289 43.5807 96.2294 43.5961ZM118.772 34.6347C118.991 33.9658 119.193 33.2782 119.38 32.5718C119.576 31.8646 119.746 31.1443 119.89 30.4111C119.934 30.2071 120.012 30.0406 120.122 29.9117C120.242 29.7721 120.386 29.6958 120.556 29.6827C120.675 29.6734 120.779 29.7106 120.865 29.7942C120.962 29.877 121.016 29.9932 121.028 30.1427C121.042 30.3322 120.993 30.667 120.879 31.1471C120.776 31.6265 120.642 32.2336 120.478 32.9684C120.324 33.7024 120.174 34.5465 120.027 35.5006C119.889 36.444 119.789 37.4848 119.726 38.623C119.674 39.7605 119.697 40.9673 119.795 42.2435C119.817 42.5226 119.775 42.7566 119.669 42.9453C119.564 43.1439 119.427 43.2498 119.257 43.2629C119.157 43.2706 119.061 43.253 118.967 43.2101C118.874 43.1671 118.785 43.0537 118.7 42.8696C118.626 42.6948 118.555 42.4144 118.485 42.0287C118.414 41.6329 118.353 41.0961 118.3 40.4181C118.26 39.8996 118.247 39.334 118.26 38.7212C117.865 39.5841 117.422 40.3455 116.931 41.0052C116.45 41.6542 115.973 42.1624 115.499 42.5299C115.036 42.8966 114.63 43.0935 114.281 43.1204C113.853 43.1535 113.492 43.0359 113.201 42.7675C112.92 42.5084 112.758 42.0996 112.715 41.5413C112.677 41.0527 112.753 40.5404 112.943 40.0042C113.132 39.468 113.397 38.9361 113.737 38.4083C114.077 37.8706 114.458 37.3597 114.882 36.8756C115.306 36.3916 115.735 35.9623 116.167 35.5879C116.609 35.2028 117.022 34.9001 117.406 34.6799C117.789 34.4497 118.106 34.325 118.355 34.3058C118.455 34.2981 118.547 34.326 118.632 34.3897C118.717 34.4533 118.764 34.535 118.772 34.6347ZM118.613 35.1133C118.549 35.1885 118.469 35.2648 118.375 35.3423C118.281 35.4198 118.177 35.503 118.063 35.592C117.648 35.935 117.192 36.3312 116.696 36.7808C116.208 37.2196 115.743 37.6968 115.302 38.2123C114.869 38.7171 114.523 39.2403 114.264 39.7818C114.005 40.3234 113.897 40.8683 113.939 41.4167C113.958 41.656 114.087 41.7664 114.326 41.7479C114.655 41.7225 115.002 41.5403 115.367 41.2012C115.741 40.8513 116.116 40.3811 116.492 39.7904C116.866 39.1898 117.234 38.4945 117.594 37.7044C117.954 36.9043 118.293 36.0407 118.613 35.1133ZM131.931 41.728C131.642 41.7503 131.43 41.6713 131.296 41.4911C131.162 41.3109 131.077 40.9915 131.041 40.5329C131.013 40.164 131.022 39.7019 131.07 39.1466C131.127 38.5905 131.2 37.9781 131.289 37.3093C131.377 36.6305 131.468 35.9314 131.563 35.2119C131.019 36.0864 130.397 36.8014 129.698 37.3569C129.008 37.9016 128.225 38.283 127.349 38.501C127.177 39.0057 126.972 39.4679 126.734 39.8875C126.495 40.3071 126.226 40.6488 125.925 40.9127C125.625 41.1767 125.3 41.3221 124.951 41.349C124.522 41.3821 124.145 41.2357 123.819 40.9098C123.503 40.5832 123.319 40.0859 123.267 39.4179C123.232 38.9592 123.26 38.5458 123.352 38.1777C123.443 37.7995 123.558 37.5249 123.695 37.3538C123.527 36.9957 123.424 36.5774 123.387 36.0988C123.342 35.5105 123.437 34.9817 123.671 34.5122C123.905 34.0328 124.237 33.6512 124.666 33.3673C125.095 33.0734 125.568 32.9065 126.087 32.8665C126.505 32.8341 126.894 32.9997 127.253 33.3632C127.612 33.7266 127.82 34.2722 127.876 35.0001C127.928 35.6781 127.867 36.4401 127.692 37.2861C128.224 37.0344 128.747 36.673 129.263 36.2019C129.788 35.7301 130.287 35.1751 130.759 34.5368C131.231 33.8986 131.649 33.1994 132.011 32.4392C132.107 32.2513 132.255 32.1496 132.454 32.1343C132.634 32.1204 132.777 32.1645 132.886 32.2664C133.003 32.3577 133.069 32.493 133.082 32.6725C133.086 32.7223 133.069 32.8942 133.032 33.1879C133.004 33.4809 132.963 33.8552 132.908 34.3108C132.863 34.7656 132.811 35.2661 132.753 35.8122C132.695 36.3582 132.637 36.9093 132.58 37.4654C132.532 38.0207 132.497 38.5349 132.473 39.0082C132.669 38.5518 132.891 38.0532 133.14 37.5124C133.389 36.9716 133.644 36.4404 133.905 35.9188C134.175 35.3865 134.433 34.9002 134.68 34.4599C134.937 34.0188 135.165 33.6652 135.365 33.399C135.574 33.122 135.744 32.9786 135.874 32.9686C136.113 32.9501 136.328 33.0137 136.52 33.1594C136.712 33.305 136.814 33.4626 136.827 33.6321C136.845 33.8614 136.847 34.2123 136.833 34.6848C136.819 35.1473 136.799 35.6703 136.774 36.254C136.749 36.8377 136.724 37.4213 136.699 38.005C136.673 38.5887 136.654 39.1167 136.64 39.5892C136.627 40.0617 136.629 40.4125 136.646 40.6419C136.658 40.7914 136.603 40.931 136.483 41.0607C136.363 41.1903 136.223 41.2613 136.063 41.2736C135.954 41.2821 135.856 41.2545 135.771 41.1908C135.697 41.1364 135.631 41.0011 135.574 40.7848C135.517 40.5685 135.471 40.2311 135.436 39.7724C135.401 39.3238 135.378 38.8341 135.368 38.3033C135.356 37.7626 135.355 37.2261 135.364 36.6939C135.382 36.1508 135.409 35.6623 135.446 35.2282C135.246 35.6247 135.017 36.0988 134.759 36.6503C134.51 37.201 134.248 37.7679 133.972 38.3509C133.696 38.9338 133.427 39.4811 133.166 39.9928C132.905 40.5044 132.666 40.919 132.45 41.2366C132.233 41.5542 132.061 41.718 131.931 41.728ZM126.394 37.6269C126.484 37.2388 126.548 36.8277 126.585 36.3936C126.63 35.9488 126.636 35.507 126.603 35.0683C126.583 34.8091 126.517 34.6035 126.405 34.4517C126.293 34.2999 126.152 34.2305 125.982 34.2436C125.723 34.2636 125.475 34.358 125.237 34.5268C124.998 34.6856 124.804 34.9012 124.655 35.1735C124.515 35.445 124.46 35.7603 124.487 36.1192C124.522 36.5679 124.721 36.9386 125.085 37.2315C125.457 37.5137 125.894 37.6455 126.394 37.6269ZM126.07 38.69C125.389 38.7125 124.826 38.5554 124.378 38.2188C124.369 38.35 124.358 38.4761 124.348 38.5973C124.336 38.7085 124.335 38.819 124.343 38.9286C124.367 39.2377 124.436 39.4781 124.549 39.6499C124.672 39.8109 124.843 39.883 125.062 39.8661C125.242 39.8522 125.418 39.7383 125.593 39.5242C125.767 39.3102 125.926 39.0321 126.07 38.69ZM145.574 33.649C145.599 33.9681 145.523 34.2898 145.348 34.6143C145.172 34.9288 144.93 35.2383 144.622 35.5429C144.314 35.8375 143.97 36.1198 143.589 36.3899C143.209 36.66 142.826 36.9001 142.441 37.1104C142.056 37.3206 141.704 37.4933 141.383 37.6284C141.333 38.0234 141.32 38.3704 141.343 38.6695C141.358 38.859 141.413 38.9901 141.509 39.063C141.605 39.1358 141.747 39.1649 141.937 39.1503C142.356 39.118 142.793 39.0089 143.251 38.8232C143.708 38.6375 144.171 38.4061 144.641 38.1291C145.111 37.8521 145.56 37.5617 145.988 37.2579C146.416 36.954 146.805 36.6682 147.156 36.4005C147.516 36.1319 147.815 35.9133 148.053 35.7445C148.291 35.5757 148.449 35.4882 148.529 35.4821C148.649 35.4728 148.742 35.5058 148.807 35.5809C148.883 35.6453 148.924 35.7274 148.932 35.8271C148.938 35.9068 148.825 36.071 148.594 36.3196C148.372 36.5674 148.069 36.8616 147.684 37.2022C147.298 37.5329 146.863 37.8773 146.38 38.2356C145.896 38.5939 145.39 38.9338 144.864 39.2553C144.347 39.5761 143.841 39.8408 143.345 40.0496C142.86 40.2575 142.418 40.3769 142.019 40.4077C141.5 40.4477 141.082 40.2845 140.762 39.9179C140.443 39.5514 140.252 38.9594 140.189 38.1418C140.147 37.5934 140.174 37.0347 140.27 36.4656C140.377 35.8957 140.535 35.3469 140.745 34.8192C140.964 34.2807 141.213 33.8001 141.491 33.3774C141.779 32.944 142.088 32.5992 142.419 32.343C142.75 32.0767 143.08 31.9309 143.409 31.9055C144.037 31.857 144.544 31.9934 144.93 32.3147C145.315 32.6359 145.53 33.0807 145.574 33.649ZM141.608 36.4526C141.903 36.2393 142.206 36.0152 142.519 35.7805C142.832 35.5457 143.12 35.3079 143.382 35.067C143.644 34.8261 143.851 34.5794 144.002 34.3271C144.162 34.0639 144.232 33.8028 144.212 33.5435C144.184 33.1746 143.97 33.0056 143.571 33.0364C143.322 33.0556 143.07 33.2355 142.815 33.5761C142.57 33.906 142.342 34.3298 142.131 34.8476C141.92 35.3653 141.746 35.9003 141.608 36.4526Z" fill="#EFE5D5"/>
</svg>
