<svg width="104" height="72" viewBox="0 0 104 72" fill="none" xmlns="http://www.w3.org/2000/svg">
<path d="M9.55223 57.8691C10.7989 57.4125 13.1163 57.9622 15.1382 58.6374C17.7449 59.5028 20.2088 60.7754 22.3585 62.4818C23.9702 63.7614 25.6697 65.4057 26.2588 67.014M26.2588 67.014C25.6697 65.4057 25.9043 63.051 26.3086 61.0348C26.8491 58.343 27.9079 55.7799 29.3354 53.4366C30.4444 51.6146 31.8601 49.6974 33.105 49.2413M26.2588 67.014L19.1717 47.667C15.0876 36.5182 20.8156 24.1677 31.9645 20.0837L40.3762 17.0023" stroke="#5C4033"/>
<path d="M53.5777 27.8202C53.3982 27.8341 53.2375 27.7662 53.0956 27.6167C52.9637 27.4664 52.8823 27.1919 52.8515 26.7931C52.8338 26.5638 52.8579 26.2911 52.9238 25.9751C53.0747 25.3316 53.2271 24.6428 53.3811 23.9088C53.545 23.174 53.6929 22.4254 53.8246 21.663C53.9663 20.8998 54.07 20.1646 54.1358 19.4575C54.2008 18.7403 54.2106 18.0877 54.1652 17.4994C54.1498 17.3 54.1248 17.1063 54.0902 16.9185C54.0656 16.7298 54.0268 16.5522 53.9739 16.3858C53.0408 17.4207 52.209 18.7938 51.4785 20.5051C50.7572 22.2056 50.1315 24.1696 49.6014 26.397C49.5071 26.7353 49.3753 26.9761 49.2058 27.1196C49.0364 27.2631 48.8719 27.341 48.7123 27.3533C48.5727 27.3641 48.4339 27.3196 48.2958 27.2199C48.157 27.1103 48.0783 26.9358 48.0599 26.6965C48.0475 26.537 48.0701 26.3096 48.1276 26.0143C48.1842 25.709 48.3026 25.4241 48.4828 25.1594C48.5417 24.4929 48.5776 23.7881 48.5904 23.0449C48.6132 22.3009 48.6004 21.6149 48.5519 20.9867C48.5296 20.6976 48.4938 20.4296 48.4447 20.1826C48.4047 19.9249 48.3525 19.7033 48.288 19.5177C47.8119 20.1061 47.3815 20.8314 46.9967 21.6935C46.6211 22.545 46.3004 23.4574 46.0345 24.4307C45.7678 25.3941 45.5545 26.3333 45.3944 27.2483C45.265 27.9102 45.0008 28.2566 44.602 28.2874C44.4425 28.2997 44.3014 28.2253 44.1786 28.0643C44.0658 27.9025 43.9963 27.6521 43.9702 27.3131C43.9448 26.9841 43.9903 26.5343 44.1067 25.9636C44.2232 25.393 44.3902 24.7632 44.6078 24.0744C44.8354 23.3849 45.0933 22.698 45.3815 22.0138C45.6789 21.3188 45.9909 20.6829 46.3175 20.1061C46.6533 19.5185 46.9875 19.0414 47.3203 18.6747C47.6531 18.308 47.964 18.1135 48.2532 18.0911C48.4426 18.0765 48.6148 18.0983 48.7697 18.1566C48.9247 18.2148 49.0654 18.3494 49.192 18.5603C49.3179 18.7612 49.4227 19.0791 49.5064 19.5139C49.5993 19.938 49.6735 20.509 49.7289 21.2269C49.7389 21.3565 49.7504 21.506 49.7635 21.6755C49.9911 20.8556 50.2654 20.0571 50.5866 19.2801C50.9169 18.4923 51.2734 17.7828 51.6559 17.1515C52.0385 16.5202 52.4307 16.0135 52.8324 15.6314C53.2342 15.2494 53.6246 15.0437 54.0034 15.0145C54.4322 14.9814 54.7992 15.1888 55.1046 15.6366C55.4092 16.0744 55.5996 16.7869 55.6758 17.774C55.7481 18.7112 55.7437 19.6292 55.6627 20.5281C55.5816 21.427 55.4568 22.2792 55.2883 23.0845C55.1298 23.8891 54.9559 24.6247 54.7666 25.2912C54.5865 25.947 54.4295 26.5108 54.2954 26.9825C54.2072 27.2701 54.108 27.4784 53.9976 27.6073C53.8871 27.7362 53.7472 27.8071 53.5777 27.8202ZM59.5231 27.3312C59.3337 27.3458 59.1588 27.2891 58.9985 27.1611C58.8374 27.0231 58.7449 26.7995 58.721 26.4905C58.7041 26.2711 58.7106 25.9647 58.7404 25.5712C58.7694 25.1678 58.8157 24.7279 58.8792 24.2516C58.9427 23.7753 59.0116 23.3036 59.0859 22.8365C59.1694 22.3587 59.2567 21.9307 59.3479 21.5526C59.4391 21.1744 59.5226 20.8922 59.5985 20.7058C59.6674 20.56 59.7353 20.4645 59.802 20.4193C59.8787 20.3732 59.9519 20.3475 60.0217 20.3421C60.1613 20.3313 60.2844 20.367 60.391 20.449C60.5076 20.5303 60.576 20.7005 60.596 20.9598C60.6075 21.1093 60.5968 21.3609 60.5639 21.7145C60.5403 22.0573 60.5013 22.4615 60.4469 22.9271C60.4018 23.3819 60.3478 23.8524 60.2851 24.3387C60.2315 24.8142 60.1764 25.2698 60.1198 25.7055C60.0631 26.1411 60.0211 26.5054 59.9935 26.7984C59.966 26.961 59.9058 27.0911 59.813 27.1885C59.7294 27.2752 59.6328 27.3228 59.5231 27.3312ZM60.3504 18.9477C60.1211 18.9654 59.8963 18.9125 59.6762 18.7891C59.466 18.6649 59.349 18.4483 59.3251 18.1392C59.3051 17.88 59.3488 17.666 59.4561 17.4972C59.5734 17.3277 59.7141 17.2015 59.8782 17.1186C60.0515 17.025 60.203 16.9732 60.3326 16.9632C60.4622 16.9532 60.6091 16.9719 60.7732 17.0194C60.9466 17.0562 61.0989 17.1447 61.23 17.2851C61.3605 17.4154 61.4364 17.6202 61.458 17.8993C61.4726 18.0888 61.4209 18.2633 61.3028 18.4228C61.184 18.5724 61.0329 18.6944 60.8496 18.7888C60.6763 18.8824 60.5099 18.9354 60.3504 18.9477ZM65.9411 27.3624C65.1734 27.4216 64.551 27.2189 64.0738 26.7543C63.6058 26.2789 63.3368 25.5875 63.2668 24.6802C63.2237 24.1219 63.248 23.4631 63.3399 22.7038C63.4409 21.9337 63.5788 21.1207 63.7534 20.2647C63.9372 19.398 64.1418 18.5397 64.3671 17.6898C64.5923 16.84 64.8122 16.0507 65.0268 15.322C65.2505 14.5826 65.4486 13.9656 65.6211 13.4708C65.7199 13.1924 65.8791 13.0447 66.0984 13.0278C66.3975 13.0047 66.5613 13.1776 66.5898 13.5465C66.599 13.6661 66.563 13.9146 66.4818 14.292C66.4006 14.6694 66.2915 15.1392 66.1543 15.7014C66.0164 16.2536 65.8682 16.8669 65.7096 17.5411C65.551 18.2153 65.389 18.9098 65.2235 19.6247C65.0672 20.3288 64.9255 21.0268 64.7984 21.7186C64.6705 22.4005 64.5744 23.0397 64.5101 23.6365C64.4459 24.2332 64.4299 24.7409 64.4622 25.1597C64.483 25.4289 64.5693 25.6378 64.7212 25.7866C64.8823 25.9246 65.0875 25.984 65.3368 25.9647C65.7954 25.9293 66.2471 25.8042 66.6919 25.5893C67.1459 25.3637 67.5768 25.0998 67.9848 24.7975C68.392 24.4852 68.7596 24.181 69.0878 23.8849C69.4252 23.578 69.7116 23.3252 69.947 23.1265C70.1817 22.9179 70.3488 22.8097 70.4485 22.802C70.6679 22.785 70.7868 22.8962 70.8053 23.1355C70.8114 23.2153 70.7432 23.371 70.6006 23.6026C70.4572 23.8243 70.2621 24.0901 70.0152 24.4001C69.7683 24.71 69.4774 25.0333 69.1423 25.3701C68.8164 25.6962 68.4695 26.0088 68.1014 26.308C67.7425 26.5965 67.3748 26.8355 66.9983 27.025C66.6325 27.2238 66.2801 27.3362 65.9411 27.3624ZM77.3506 26.6773C76.7025 26.7273 76.0924 26.6189 75.5201 26.3522C74.9579 26.0847 74.4386 25.7236 73.9622 25.2689C73.4957 24.8134 73.0715 24.3196 72.6894 23.7874C72.3165 23.2445 71.9912 22.733 71.7134 22.253C71.6062 23.0737 71.522 23.7371 71.4608 24.2433C71.4096 24.7488 71.364 25.1334 71.3242 25.3973C71.2944 25.6603 71.258 25.8387 71.2151 25.9323C71.1721 26.0258 71.1108 26.0757 71.031 26.0819C70.8117 26.0988 70.5931 25.9953 70.3752 25.7714C70.1573 25.5475 70.0338 25.2461 70.0045 24.8673C69.9737 24.4685 70.0027 23.9346 70.0915 23.2658C70.1795 22.587 70.307 21.835 70.474 21.0097C70.6502 20.1737 70.8594 19.31 71.1015 18.4187C71.3428 17.5175 71.5961 16.6404 71.8612 15.7874C72.1356 14.9238 72.4157 14.1349 72.7016 13.4207C72.8449 13.0687 72.9726 12.8382 73.0845 12.7292C73.2064 12.6195 73.3571 12.5577 73.5366 12.5439C73.8257 12.5216 73.9807 12.645 74.0015 12.9142C74.0092 13.0139 73.9877 13.1259 73.9371 13.2502C73.8965 13.3736 73.8521 13.5125 73.8038 13.6667C73.6582 14.1192 73.4969 14.6281 73.3198 15.1934C73.1528 15.758 72.9827 16.3478 72.8095 16.9629C72.6463 17.5773 72.4927 18.186 72.3487 18.7888C72.2046 19.3917 72.0821 19.9478 71.981 20.4571C72.3866 20.1249 72.867 19.7869 73.4222 19.4432C73.9774 19.0994 74.5548 18.784 75.1545 18.497C75.7535 18.2001 76.3213 17.9556 76.8581 17.7637C77.395 17.5719 77.8429 17.4621 78.2018 17.4344C78.3912 17.4197 78.5404 17.4684 78.6493 17.5803C78.7675 17.6816 78.8319 17.802 78.8427 17.9415C78.8512 18.0512 78.8248 18.1636 78.7634 18.2786C78.7113 18.383 78.5886 18.4827 78.3954 18.5779C77.755 18.858 77.12 19.1427 76.4904 19.432C75.8601 19.7113 75.2013 20.0129 74.5142 20.3368C73.8363 20.6499 73.0974 21.0178 72.2976 21.4406C72.5907 21.8593 72.9313 22.3094 73.3195 22.791C73.707 23.2626 74.1174 23.7073 74.5509 24.1252C74.9836 24.5331 75.4204 24.8655 75.8615 25.1223C76.3018 25.3691 76.7313 25.4764 77.1501 25.4441C77.6985 25.4017 78.218 25.2463 78.7088 24.9777C79.1996 24.7091 79.6467 24.3938 80.05 24.0317C80.4633 23.6688 80.8225 23.3201 81.1277 22.9856C81.4321 22.6412 81.6721 22.3719 81.8477 22.1778C81.9404 22.0804 82.0255 22.0137 82.103 21.9776C82.1897 21.9308 82.2679 21.9047 82.3377 21.8993C82.4773 21.8885 82.5777 21.956 82.6391 22.1017C82.7097 22.2367 82.6718 22.3951 82.5254 22.5769C82.4165 22.7257 82.2486 22.9543 82.0217 23.2627C81.7947 23.571 81.5153 23.9136 81.1833 24.2902C80.8605 24.6562 80.497 25.0152 80.0929 25.3673C79.6988 25.7187 79.2651 26.013 78.792 26.2501C78.3296 26.4964 77.8491 26.6388 77.3506 26.6773Z" fill="#5C4033"/>
</svg>
