<svg width="18" height="18" viewBox="0 0 18 18" fill="none" xmlns="http://www.w3.org/2000/svg">
<path d="M13.675 3.08449C13.4635 3.08449 13.2567 3.14718 13.0807 3.26476C12.9048 3.38233 12.7677 3.5494 12.6867 3.74483C12.6057 3.94033 12.5846 4.15539 12.6259 4.36294C12.6672 4.57042 12.769 4.76107 12.9186 4.91063C13.0682 5.06027 13.2589 5.16215 13.4663 5.20339C13.6739 5.2447 13.8889 5.22355 14.0844 5.14252C14.2799 5.06156 14.4469 4.92443 14.5645 4.74856C14.682 4.57262 14.7448 4.36582 14.7448 4.15425C14.7448 3.87051 14.6321 3.59837 14.4315 3.39779C14.2309 3.19714 13.9588 3.08449 13.675 3.08449ZM17.7758 5.24182C17.7585 4.50219 17.62 3.77038 17.3657 3.07555C17.139 2.48109 16.7863 1.94272 16.3316 1.49767C15.8902 1.04072 15.3507 0.690126 14.7537 0.472491C14.0608 0.21051 13.3281 0.0688307 12.5874 0.0535181C11.6425 8.47184e-09 11.3394 0 8.91463 0C6.48987 0 6.18673 8.47184e-09 5.24182 0.0535181C4.50113 0.0688307 3.76856 0.21051 3.07555 0.472491C2.4798 0.692324 1.94068 1.04262 1.49767 1.49767C1.04072 1.93908 0.690126 2.47866 0.472491 3.07555C0.21051 3.76856 0.0688307 4.50113 0.0535181 5.24182C8.47184e-09 6.18673 0 6.48987 0 8.91463C0 11.3394 8.47184e-09 11.6425 0.0535181 12.5874C0.0688307 13.3281 0.21051 14.0608 0.472491 14.7537C0.690126 15.3507 1.04072 15.8902 1.49767 16.3316C1.94068 16.7867 2.4798 17.1369 3.07555 17.3568C3.76856 17.6187 4.50113 17.7604 5.24182 17.7758C6.18673 17.8293 6.48987 17.8293 8.91463 17.8293C11.3394 17.8293 11.6425 17.8293 12.5874 17.7758C13.3281 17.7604 14.0608 17.6187 14.7537 17.3568C15.3507 17.1391 15.8902 16.7885 16.3316 16.3316C16.7882 15.8882 17.1413 15.3494 17.3657 14.7537C17.62 14.0589 17.7585 13.3272 17.7758 12.5874C17.7758 11.6425 17.8293 11.3394 17.8293 8.91463C17.8293 6.48987 17.8293 6.18673 17.7758 5.24182ZM16.1711 12.4805C16.1647 13.0464 16.0622 13.607 15.8681 14.1386C15.7257 14.5266 15.4971 14.8771 15.1995 15.1638C14.9103 15.4584 14.5604 15.6866 14.1743 15.8324C13.6427 16.0266 13.0821 16.129 12.5161 16.1355C11.6247 16.1801 11.2948 16.189 8.95026 16.189C6.6057 16.189 6.27587 16.189 5.38441 16.1355C4.79685 16.1465 4.21179 16.056 3.655 15.8681C3.28576 15.7148 2.95199 15.4872 2.67439 15.1995C2.37852 14.9131 2.1527 14.5622 2.01474 14.1743C1.79703 13.6351 1.67635 13.0616 1.65815 12.4805C1.65815 11.589 1.60463 11.2592 1.60463 8.91463C1.60463 6.57007 1.60463 6.24024 1.65815 5.34878C1.66209 4.77032 1.76769 4.197 1.97016 3.655C2.12708 3.27871 2.36799 2.94335 2.67439 2.67439C2.94524 2.36791 3.27992 2.12443 3.655 1.96122C4.19837 1.76511 4.77107 1.66262 5.34878 1.65815C6.24024 1.65815 6.57007 1.60463 8.91463 1.60463C11.2592 1.60463 11.589 1.60463 12.4805 1.65815C13.0464 1.6646 13.607 1.76708 14.1386 1.96122C14.5437 2.11154 14.9073 2.35601 15.1995 2.67439C15.4916 2.9482 15.7199 3.28303 15.8681 3.655C16.0662 4.19784 16.1688 4.77092 16.1711 5.34878C16.2157 6.24024 16.2246 6.57007 16.2246 8.91463C16.2246 11.2592 16.2157 11.589 16.1711 12.4805ZM8.91463 4.34141C8.01051 4.34323 7.12724 4.61294 6.37631 5.11652C5.62547 5.62009 5.04071 6.33492 4.69588 7.17075C4.35112 8.00649 4.26182 8.92578 4.43928 9.81224C4.61681 10.6988 5.05307 11.5128 5.69293 12.1516C6.33288 12.7902 7.14778 13.2249 8.03469 13.4006C8.92153 13.5764 9.84059 13.4853 10.6757 13.1389C11.5109 12.7925 12.2246 12.2063 12.7266 11.4544C13.2288 10.7026 13.4968 9.81876 13.4968 8.91463C13.4979 8.31297 13.3801 7.71707 13.1501 7.16112C12.9202 6.60517 12.5827 6.10016 12.1568 5.67512C11.7309 5.25008 11.2252 4.91351 10.6689 4.68458C10.1124 4.45573 9.5163 4.33906 8.91463 4.34141ZM8.91463 11.8832C8.32753 11.8832 7.75361 11.7091 7.26543 11.3829C6.77725 11.0567 6.39671 10.5931 6.17202 10.0506C5.94733 9.50826 5.88859 8.91138 6.00313 8.33549C6.11767 7.75967 6.40034 7.23063 6.81553 6.81553C7.23063 6.40042 7.75967 6.11767 8.33549 6.00313C8.91138 5.88859 9.50826 5.94733 10.0506 6.17202C10.5931 6.39671 11.0567 6.77725 11.3829 7.26543C11.7091 7.75361 11.8832 8.32753 11.8832 8.91463C11.8832 9.3045 11.8064 9.6905 11.6572 10.0506C11.5081 10.4109 11.2894 10.738 11.0137 11.0137C10.738 11.2894 10.4109 11.5081 10.0506 11.6572C9.6905 11.8064 9.3045 11.8832 8.91463 11.8832Z" fill="#5C4033"/>
</svg>
