<svg width="410" height="371" viewBox="0 0 410 371" fill="none" xmlns="http://www.w3.org/2000/svg">
<g clip-path="url(#clip0_79_379)">
<path d="M64.9838 308.115C64.7423 308.671 65.0392 310.6 63.9335 311.422L65.5054 309.967L65.7832 311.408C65.1077 313.481 64.7465 315.651 64.019 317.706C63.7342 318.507 61.2134 320.54 62.7827 321.412C64.0587 322.122 66.1412 316.94 66.5503 315.99C68.5789 311.297 68.2689 304.718 73.5315 303.016C75.1293 305.087 73.0887 308.897 73.747 310.456C74.216 311.562 75.8204 312.792 77.0873 311.997C78.6027 311.044 76.5529 309.049 76.43 308.01C75.8928 303.369 78.1029 300.785 79.785 296.911C79.2473 295.845 74.686 296.966 73.4819 297.023C72.4813 297.068 72.5242 297.756 72.2165 296.07C73.1348 295.035 78.6225 292.136 77.0156 290.687C75.1489 289.006 71.0388 296.173 70.8427 297.636C70.7765 298.128 70.9944 301.58 71.1538 301.694C72.8697 297.144 80.4668 299.137 73.9177 301.939C72.8958 302.378 71.765 302.013 70.8345 302.772C69.2873 304.034 67.7339 307.611 67.0488 309.533C65.7798 308.802 66.8824 307.127 67.0941 306.187C66.5444 306.457 65.7542 306.842 65.4201 307.331C65.2694 307.574 65.1125 307.865 64.9794 308.123L64.9838 308.115Z" fill="#CE9C7D"/>
<path d="M179.597 193.396C175.103 193.724 170.379 192.478 165.898 193.297C163.686 193.701 156.974 195.65 154.8 196.443C142.957 200.769 136.701 217.709 137.229 229.494C124.669 225.296 114.667 228.43 106.246 238.461C97.8012 248.524 95.9074 261.893 91.4793 273.859C90.6978 274.275 80.5432 267.104 77.8526 268.565C71.4954 269.632 65.5246 282.244 63.1601 287.653C56.9986 301.746 51.1023 328.852 57.0367 343.388C59.9529 350.524 73.1648 355.602 80.3803 353.664C84.9073 352.445 91.3305 344.972 93.9568 341.089C95.1871 339.278 95.8957 333.721 98.8666 336.281C103.167 339.995 105.907 343.967 112.163 345.022C130.073 348.054 141.74 329.629 148.183 315.729C148.741 314.53 152.842 302.491 153.503 302.869C160.411 318.408 173.588 329.911 191.374 328.537C204.476 327.526 212.032 324.256 221.846 315.695C229.251 309.235 229.431 302.923 232.817 294.269C237.006 295.981 240.765 299.269 245.066 301.022C249.82 302.96 255.672 303.651 260.796 303.522C295.044 302.679 326.586 295.74 359.341 286.881C408.071 273.691 448.668 255.787 487.12 222.466C509.426 203.14 519.293 180.042 524.284 151.307C528.406 127.587 529.396 108.175 522.039 84.7037C521.347 82.4875 519.153 79.0527 518.645 76.8507C518.411 75.844 519.27 75.0454 518.889 73.6872C517.53 68.8541 509.679 64.0531 508.035 57.588C504.671 44.3722 509.798 38.1753 511.189 26.7835C511.789 21.878 510.969 19.6115 506.972 16.6315C496.998 9.22898 480.589 12.9039 468.882 10.4831C458.616 11.525 465.085 20.3611 466.616 25.8451C472.485 46.8342 454.613 57.4674 441.691 69.6021C434.782 76.0943 429.883 82.5995 421.618 88.0115C412.368 94.0642 399.542 101.298 389.715 106.588C369.34 117.562 346.827 119.545 325.293 127.836C305.07 135.626 287.987 149.795 267.572 156.96C248.417 163.679 231.079 164.285 212.278 168.715C200.082 171.588 181.074 179.245 179.591 193.397L179.597 193.396ZM473.97 21.3999C473.932 21.4043 473.843 20.7895 473.796 20.7895C472.505 20.8912 471.176 20.6503 469.925 21.2206L470.194 24.4777L468.433 18.3057C469.851 19.0214 471.626 17.2279 472.334 17.2061C472.691 17.1974 477.079 20.3529 479.08 18.275C475.153 16.3616 471.464 15.3272 467.023 15.7009L466.262 14.2509L467.918 13.0651C475.625 13.8067 483.897 13.5868 491.521 14.552C493.508 14.8055 495.806 14.8433 497.638 15.6806C500.221 16.8573 506.465 23.6904 507.333 26.2634C508.5 29.7242 506.171 31.8689 505.673 34.3515C504.383 29.832 501.17 27.5216 497.628 24.9715L499.065 22.9014L501 25.0097L497.709 19.2943C495.65 23.8356 496.333 28.5883 496.025 33.397L504.43 39.3669C502.466 36.4598 500.715 33.359 497.149 32.3828C497.609 31.7514 496.582 26.1901 498.264 27.1304C499.278 29.1415 500.755 30.8339 502.344 32.4074C503.164 33.2268 504.349 35.0891 505.673 34.3515C505.067 37.3713 504.596 40.7929 505.046 43.865C504.198 45.2871 498.87 38.9995 499.233 37.5155L497.445 38.0724L497.914 41.7726L502.414 45.3429L504.789 45.2785L505.179 57.1625C496.372 50.5539 485.764 47.5196 474.744 47.5299L473.173 44.2909C479.376 42.1475 484.054 45.8738 489.339 48.3399L492.277 43.4942L488.138 40.4613C484.049 39.9209 485.035 43.0267 488.773 42.8536L488.691 44.8775L486.919 45.703L485.52 43.5351C482.383 45.0436 481.217 42.7559 478.793 42.1139C476.111 41.4057 471.57 43.0679 471.898 38.6537C474.339 38.9575 478.501 40.5769 480.735 40.5063C482.692 40.448 483.167 38.3722 481.159 37.8317C478.24 37.0442 473.398 36.5722 470.443 37.0617C469.948 36.1429 470.686 34.6389 471.436 34.205C472.058 33.8405 481.541 33.9821 482.826 34.8624L483.299 33.0606L471.683 32.034L472.654 29.8034L483.395 28.6992L482.155 26.7391L470.197 26.8037L470.812 24.9614C474.667 22.4878 473.788 24.6392 475.408 24.8502C475.866 24.9129 478.64 24.5616 478.858 24.3459L478.914 19.9827C478.597 19.8065 475.038 21.3087 473.981 21.3902L474.024 22.7113L472.743 21.75L473.976 21.3981L473.97 21.3999ZM467.439 49.9274C467.015 49.7018 469.593 41.6052 470.874 40.953L472.904 48.3017C471.165 49.5711 469.535 49.8163 467.439 49.9274ZM504.817 197.294C504.192 195.079 501.623 194.185 500.358 192.719C498.884 191.012 497.873 187.493 495.138 186.72C496.144 189.614 499.51 194.634 501.812 196.624C502.946 197.608 503.206 198.027 504.815 197.288C504.556 197.735 504.664 199.025 504.192 199.779C495.62 213.58 482.304 223.514 469.109 232.706L460.209 225.657L452.737 229.803C451.945 230.908 452.59 230.551 453.107 231.03C455.02 232.805 456.892 234.271 458.361 236.519L462.43 238.045L458.402 240.241C456.467 238.693 454.702 236.923 452.736 235.41C452.028 234.866 452.304 233.873 450.819 234.697C450.404 235.742 455.059 241.495 456.621 241.056C456.384 243.544 453.824 244.108 451.671 244.342L446.192 238.838L443.943 238.666C443.451 239.466 449.175 244.127 449.929 245.179C450.506 245.988 450.934 245.806 449.888 246.905L447.086 247.464C445.866 247.065 443.917 241.707 441.123 242.804L445.515 248.872L438.475 252.221L435.461 246.147L433.456 246.319L437.85 252.393C429.018 256.473 420.738 262.182 411.941 266.266C397.456 272.993 381.38 277.579 366.247 282.737L365.367 282.455L360.629 264.19L364.037 260.124L358.891 261.559C356.738 262.753 364.287 280.189 363.34 283.6C356.386 286.644 356.839 273.833 355.82 269.256C355.567 268.115 355.729 267.348 354.297 266.91C352.668 267.068 353.828 268.351 354.02 269.33C355.079 274.702 356.054 280.011 357.867 285.221L353.232 285.43C352.765 281.923 351.58 278.307 350.998 274.912C350.763 273.526 351.121 271.977 350.909 270.697C350.329 267.142 347.953 268.54 348.23 270.281C348.587 272.513 352.556 285.07 351.414 286.302L347.825 287.42C346.684 282.764 346.155 277.874 345.13 273.206C344.954 272.403 344.804 270.472 343.564 271.293L346.592 287.771L342.886 288.829C340.896 283.609 339.999 277.657 338.223 272.463C337.75 271.085 337.641 271.662 336.423 271.996L341.169 289.705L336.107 290.756L337.06 289.397C335.571 284.342 332.952 279.088 333.887 273.72L331.646 274.02C331.98 274.958 331.542 277.116 331.704 277.684L335.046 289.399L333.828 291.253C316.07 295.646 298.039 297.63 279.902 299.458L290.201 289.838L291.804 289.708C293.542 291.032 294.584 293.702 297.251 292.508L291.888 285.376L294.212 285.387L298.657 288.112L293.45 283.277C295.884 276.102 297.662 271.047 297.386 263.278C296.844 248.077 289.381 235.991 281.387 223.562C270.186 206.155 255.436 189.12 236.531 180.145L213.455 171.74C223.498 169.148 234.043 168.48 244.216 166.318C249.239 165.251 255.582 163.781 260.48 162.344C285.481 155.011 304.91 137.472 329.647 129.214C345.16 124.035 364.004 121.552 378.561 115.945C389.677 111.667 400.326 102.247 411.249 97.2239L412.099 97.1881C413.266 98.4022 421.141 104.243 422.307 102.137C421.154 98.7255 416.218 98.3266 413.863 95.8914L417.466 94.45C420.649 94.7822 423.112 98.6002 426.367 97.6448C427.013 96.5204 421.352 92.1279 419.679 92.8786C422.93 87.5169 428.478 92.5884 431.716 95.0318C433.771 96.5791 435.434 94.7644 434.176 93.4165L426.028 87.0864L429.607 85.6987C432.966 87.3073 436.013 90.7652 440.117 89.7212C438.552 85.5468 433.615 87.1956 430.704 84.7321C429.732 83.4961 433.176 82.1999 434.156 82.2003C435.37 82.2007 444.149 88.1707 444.693 87.0885L434.761 80.254C435.74 78.4947 437.969 77.1453 439.911 77.9914L449.72 83.6474C450.756 81.4582 441.075 77.2793 439.606 76.1981C443.467 69.3755 448.005 79.576 452.981 78.7164L445.103 71.8827C444.307 71.0096 446.253 70.0009 446.852 69.81C449.491 68.9636 454.216 74.75 457.12 75.5551L456.079 80.1795L457.244 80.8272L473.954 58.737C467.42 59.1144 462.278 73.9301 458.328 75.2305C456.999 75.6695 457.532 75.151 457.07 74.6092C455.879 73.2154 455.074 71.8914 453.618 70.5733C452.576 69.6305 448.44 68.5502 450.141 66.4978C451.843 64.4454 456.868 67.6592 457.706 69.5671L459.677 69.4648L453.876 63.132C457.774 59.7328 461.153 63.6295 464.842 65.3174L459.522 59.5274C468.731 52.3992 477.062 49.1821 488.628 52.4166C518.106 60.6819 525.879 100.778 525.047 127.359C524.209 153.915 517.829 174.772 504.819 197.3L504.817 197.294ZM208.788 171.745L210.632 171.219L210.804 171.823L208.961 172.349L208.788 171.745ZM212.354 171.388L212.53 172.004C212.071 171.915 212.011 171.705 212.354 171.388ZM189.577 183.874C190.737 179.529 200.364 175.429 204.401 174.69C212.334 173.234 233.584 178.719 238.438 185.775L241.544 186.076L240.694 187.746L241.809 191.655L243.7 187.788C250.668 190.754 247.04 192.576 247.626 197.996L250.576 193.167L252.959 194.461C253.001 197.343 249.494 199.87 254.571 201.349L254.448 197.39L258.57 201.808C258.704 203.424 254.781 205.123 256.342 207.511L260.001 202.547C262.057 202.04 262.859 203.265 263.479 205.062L260.702 211.808L261.538 214.037L265.028 206.38C265.813 205.949 266.24 206.534 266.73 207.015C268.497 208.744 270.791 212.81 272.44 214.92L268.566 210.691C267.527 210.041 264.071 215.574 264.493 216.867L266.621 217.921L268.648 213.342L270.825 217.441C272.29 216.523 275.461 220.392 276.214 221.698C277.051 223.159 277.485 224.916 275.437 225.4C274.471 222.015 270.35 221.571 270.672 218.098L268.534 219.788L271.74 224.155L270.676 225.098L275.517 225.731C276.222 226.963 274.737 226.64 274.574 227.8C274.222 230.281 275.705 231.551 277.487 229.409L278.442 226.563L280.469 227.098L281.458 230.33L279.842 231.491L283.096 230.956C284.855 232.421 292.797 250.838 293.564 253.9C294.793 258.817 294.656 266.937 294.576 272.101C294.508 276.374 292.777 275.568 291.944 277.392C291.482 278.411 292.086 280.879 291.746 282.47C290.781 287.012 285.409 291.812 282.077 294.763L280.493 294.215L279.374 288.307L283.342 290.502L284.481 289.843C284.106 287.01 281.263 286.348 278.813 287.087L277.71 298.016L275.046 298.87L273.986 290.504L272.143 291.03L272.981 298.759L269.319 299.83C268.957 299.66 270.269 292.431 267.514 292.357C266.573 292.332 265.776 292.953 265.75 293.961L267.295 299.748L264.205 300.629L262.887 293.671L260.809 295.364L261.909 300.644C261.401 302.276 256.167 301.389 254.803 301.212C249.719 300.548 243.529 298.44 239.144 295.784C236.095 293.934 231.308 291.132 232.626 286.962L235.631 286.158L237.173 283.011C238.201 283.691 237.844 291.601 241.308 290.493C239.448 286.449 238.81 283.651 238.751 279.24L236.576 279.821L236.97 282.369L233.298 283.45C230.225 267.398 228.609 251.523 222.478 236.203C215.419 218.567 203.85 199.591 184.665 194.076C183.926 193.867 183.174 193.782 182.419 193.937C181.659 193.354 184.359 185.709 185.596 186.376L185.679 193.281L187.402 193.876L188.668 192.514L185.501 185.81L188.76 183.467L192.114 190.804C192.139 192.177 187.649 192.918 188.85 195.443L196.512 191.916C194.355 189.545 193.061 183.886 189.555 183.893L189.577 183.874ZM163.505 195.333C164.702 195.485 168.201 193.793 168.342 195.947L163.505 195.333ZM145.982 235.231C144.852 234.474 139.616 232.087 139.165 231.182C139.532 221.416 142.997 207.452 150.988 201.078C161.568 192.632 175.574 201.851 183.007 210.185C203.66 233.351 216.996 277.64 209.139 308.112C207.819 313.23 203.943 321.403 198.737 323.235C197.559 319.338 193.909 321.179 196.693 323.432C197.742 324.28 199.254 323.201 199.66 324.366C189.993 327.504 181.694 326.091 172.69 322.039C164.411 318.313 160.319 311.38 156.336 303.401L170.748 299.343L170.346 296.39C165.363 298.486 159.457 298.87 155.549 302.959C151.726 294.302 162.802 295.049 168.164 292.599L168.144 288.697L157.219 292.474L156.693 290.631L166.935 286.655C166.19 281.894 163.083 286.967 161.408 287.826C159.423 288.839 157.684 287.888 156.53 290.011L156.703 283.374L160.314 282.263L159.788 280.42L156.453 280.371L160.439 269.239C157.057 266.197 159.665 260.705 158.723 255.7C156.791 245.423 154.465 240.892 145.996 235.234L145.982 235.231ZM170.193 195.425C172.793 195.19 176.167 195.094 177.016 198.093L178.827 197.616L178.605 195.692L181.376 197.249C182.195 198.342 180.34 198.618 179.994 199.556C179.018 202.235 181.197 203.887 182.017 201.2C182.46 199.74 182.976 198.486 183.474 197.077L185.971 196.924L185.364 204.099C187.913 204.151 186.434 198.779 188.196 198.97L195.385 204.233C192.515 203.685 191.047 205.411 188.895 206.118C187.031 206.737 185.034 205.56 184.145 208.074C183.719 208.195 178.813 203.294 177.958 202.471C177.25 201.786 177.061 200.66 176.22 200C175.1 199.113 170.359 198.132 169.239 196.684L168.977 195.766L170.867 196.546L170.199 195.423L170.193 195.425ZM191.428 192.7L192.655 192.35L192.828 192.954L191.6 193.305L191.428 192.7ZM195.895 206.088L196.308 203.983L199.336 206.44L196.032 207.436L195.28 206.27L194.056 208.946C196.659 210.031 199.482 209.219 201.819 208.038L203.181 210.897L202.51 212.095C201.305 213.366 197.527 214.124 198.281 216.742C201.365 216.309 202.7 211.641 205.879 212.941C206.652 216.048 200.863 218.64 199.608 221.371C200.942 222.331 200.882 222.095 201.898 221.098C204.367 218.673 205.084 214.855 209.725 217.144C208.122 219.262 204.444 220.605 205.677 223.967L210.607 217.9L216.503 229.473C214.459 230.463 210.579 234.604 215.152 233.665L217.114 231.379L220.486 238.665C220.492 240.997 214.809 240.665 213.142 241.32C212.512 241.567 211.178 242.267 211.833 243.207C213.161 244.682 218.717 242.257 220.227 241.192L221.968 244.676L208.739 248.771C209.169 250.208 210.226 249.867 211.324 249.72C215.283 249.197 219.945 248.314 223.36 246.259C224.867 247.263 230.332 277.802 230.633 281.683C231.1 287.738 226.785 303.885 223.349 309.279C220.467 313.808 212.365 321.147 207.515 323.311C206.728 323.663 204.039 324.756 204.26 323.053C222.005 298.607 214.699 265.5 203.401 239.712C198.429 228.362 191.85 218.931 184.709 208.953C188.404 208.092 192.051 204.491 195.888 206.09L195.895 206.088ZM110.526 297.122C109.663 297.648 108.046 297.87 107.572 298.312C106.331 299.479 106.533 303.669 103.939 302.009C103.995 300.966 104.641 299.048 104.516 298.19C104.405 297.402 103.904 296.698 103.637 294.594C103.391 292.657 101.903 291.041 104.698 289.43L109.818 289.989L109.053 287.634L104.373 287.216L109.038 280.217L101.965 286.956L99.539 286.588L106.061 277.733L104.646 274.129L105.909 275.096L106.019 272.137C100.84 269.854 98.7097 276.53 95.3607 279.119L95.0618 279.917C105.12 299.465 102.835 324.293 89.5578 341.75L88.6751 342.022C87.9667 340.404 86.5788 339.653 84.8838 340.444L87.2579 344.114C88.1243 347.314 79.1348 351.472 76.4528 351.397C75.5588 351.372 75.0093 350.849 74.9286 349.958L85.0704 338.69L87.6152 338.331C87.3284 337.512 87.1455 336.684 87.2753 335.807C89.1228 323.445 94.3932 308.939 94.8386 296.43C95.1262 288.487 92.6496 283.406 94.4452 275.466C96.9679 264.325 103.625 242.969 112.319 235.601C119.878 229.19 130.863 228.636 139.165 233.963C142.209 235.914 145.258 238.025 148.239 240.035C151.988 242.566 154.622 248.289 155.849 252.546C156.106 253.446 157.038 258.768 157.022 259.412C156.954 262.072 153.049 260.446 151.503 260.754L156.374 263.685C156.587 266.304 154.084 266.832 152.029 267.271L153.204 268.423C159.86 268.564 156.46 272.635 151.41 272.115L155.123 273.816L155.596 277.295L151.93 278.634C151.887 280.774 153.457 279.779 154.005 281.023C154.81 282.84 154.106 283.501 154.128 284.002L153.468 282.856L150.693 283.648L151.397 286.114L154.122 284.003C154.331 288.778 152.66 296.056 150.468 300.388C149.726 301.853 148.805 304.75 146.888 303.056C146.406 301.881 150.575 297.024 147.561 297.21L145.221 306.539C146.124 305.962 145.739 304.098 147.45 303.903C149.912 303.627 146.954 308.919 146.4 309.524L144.195 308.832L145.739 311.719C141.272 320.555 137.282 332.888 128.642 338.574C122.258 342.775 112.983 344.928 106.618 339.563C125.146 342.892 134.155 324.172 139.017 309.59C143.253 296.906 151.699 255.41 147.681 243.595C147.005 241.6 144.686 238.028 142.202 238.717C142.107 240.491 143.649 239.631 144.584 241.878C149.094 252.753 142.201 286.978 139.269 299.349C137.209 308.045 133.843 318.287 129.015 325.812C123.439 334.504 117.578 339.53 106.664 337.13C104.288 336.608 102.027 335.439 100.151 333.887C97.7298 330.918 101.643 322.36 102.702 318.451C103.067 317.113 103.262 313.497 103.589 312.843C104.034 311.949 105.51 311.909 106.301 311.129C108.45 309.009 110.736 305.383 111.018 302.329C111.078 301.719 111.139 299.481 109.981 299.931L108.599 305.653L106.536 304.241C107.914 307.109 106.682 308.727 104.714 310.755C101.477 306.985 106.283 302.84 108.617 299.894L111.2 299.577C110.933 298.78 110.813 297.893 110.496 297.11C110.809 296.921 111.641 297.031 111.634 296.352L110.178 293.494C108.076 292.553 106.815 292.06 104.774 293.415L106.133 295.675L108.5 294.693L109.992 295.694C110.317 296.108 110.307 296.658 110.492 297.118L110.526 297.122ZM207.404 214.806L207.58 215.423C207.121 215.334 207.061 215.124 207.404 214.806ZM67.0989 306.178C67.1412 306 67.9473 305.716 67.8436 305.026L66.1366 300.445L61.3874 302.474C61.014 302.194 61.6957 298.085 61.888 297.31C63.2713 291.641 71.3059 276.587 75.9736 273.502C80.7269 270.365 86.2175 273.553 88.8415 277.818C97.8922 292.525 88.005 330.278 78.4455 343.867C75.9108 347.464 73.2874 350.68 68.6998 349.488C62.4484 347.865 58.4796 343.023 57.907 336.599C57.942 334.875 61.2489 333.938 58.7946 332.558L57.1311 332.033C56.8566 331.071 57.0416 324.357 57.3353 323.446C57.7656 322.103 61.215 317.552 62.0613 315.564C63.2876 312.687 63.4477 311.074 64.9903 308.114C65.119 307.817 65.2468 307.587 65.431 307.321C65.4813 307.24 65.0886 306.659 65.2905 306.221L66.4466 305.038L67.0989 306.178ZM90.1014 276.952L91.8171 277.123L92.4711 278.27L90.7554 278.099L90.1014 276.952ZM98.8177 281.793C96.6162 280.481 102.481 275.934 103.748 275.725C103.913 277.192 99.6605 282.293 98.8177 281.793ZM100.618 289.294L101.799 289.951L101.592 290.323C101.14 290.025 100.123 289.875 100.618 289.294ZM60.8661 306.35C62.0835 304.049 62.4081 302.849 65.0625 301.425L65.4108 302.646C61.553 306.934 61.3483 314.374 58.88 319.512C58.4242 320.462 58.1172 321.63 56.8674 321.76C58.0021 316.622 58.3566 311.086 60.8661 306.35ZM455.921 229.254C460.63 227.364 463.535 230.909 466.565 233.885L462.883 237.269C461.282 233.832 456.262 233.651 455.921 229.254Z" fill="#CE9C7D"/>
<path d="M441.608 115.986C441.179 116.936 446.105 125.599 447.094 127.103C448.29 128.909 451.827 130.814 450.167 132.941C446.786 134.579 445.12 137.548 442.22 139.936C435.216 145.701 425.528 148.159 419.337 153.152C418.237 154.039 416.664 155.282 417.28 156.926C429.585 149.148 442.891 143.551 452.934 132.658C452.874 129.901 450.428 128.272 449.2 126.116C447.756 123.58 446.528 120.257 444.887 118.011C444.131 116.974 443.175 115.306 441.608 115.986Z" fill="#CE9C7D"/>
<path d="M293.93 234.126C292.184 234.971 292.817 233.917 292.223 233.053C290.164 230.066 287.956 226.956 286.888 223.467L285.044 223.993C286.499 229.539 290.764 233.149 293.463 238.24C295.137 241.396 299.338 253.853 301.419 254.72C302.282 255.08 302.949 255.01 303.787 254.651C296.847 245.169 296.065 232.797 291.139 222.381L289.278 222.451L293.925 234.134L293.93 234.126Z" fill="#CE9C7D"/>
<path d="M426.227 239.727C420.534 242.631 414.62 247.565 408.746 249.975C402.347 252.601 394.475 253.547 388.043 256.622C387.268 256.99 386.475 257.716 386.938 258.591C387.816 260.241 393.123 256.639 394.57 256.1C404.372 252.476 417.881 249.809 425.378 242.102C426.094 241.365 426.804 240.862 426.227 239.727Z" fill="#CE9C7D"/>
<path d="M301.336 232.013L300.722 229.861C298.468 229.418 298.783 234.122 299.042 235.661C299.643 239.264 302.211 246.159 303.711 249.665C305.557 253.986 306.222 254.283 310.657 255.358C310.18 253.313 310.598 251.201 310.217 249.142C309.72 246.444 308.345 239.682 307.468 237.358C305.985 233.421 304.699 234.127 302.128 232.454C306.415 235.652 308.471 247.487 309.249 252.739L308.008 253.133C303.273 247.429 302.484 239.567 300.186 232.681L301.336 232.013Z" fill="#CE9C7D"/>
<path d="M302.128 232.454L301.336 232.013C301.52 232.334 301.923 232.319 302.128 232.454Z" fill="#CE9C7D"/>
<path d="M375.438 171.538C369.962 172.914 365.03 176.708 359.783 178.652C353.783 180.877 347.887 181.506 341.858 182.906C340.882 183.131 340.18 182.351 339.681 184.061C340.502 184.673 341.384 184.795 342.381 184.784C349.598 184.745 368.575 178.43 374.212 173.695C374.836 173.17 375.486 172.385 375.442 171.53L375.438 171.538Z" fill="#CE9C7D"/>
<path d="M287.799 165.871C287.766 167.461 289.368 167.21 290.509 167.025C298.349 165.755 311.396 160.439 318.702 156.854C320.048 156.197 326.718 153.12 326.452 151.836C325.142 150.703 325.111 151.672 324.143 152.088C317.627 154.887 311.51 158.666 304.741 161.024C299.215 162.948 293.342 164.03 287.791 165.867L287.799 165.871Z" fill="#CE9C7D"/>
<path d="M439.886 224.494C436.06 226.113 432.852 228.868 429.142 230.707C426.368 232.085 406.209 239.33 406.771 241.604C407.881 242.527 408.53 242.135 409.703 241.714C412.69 240.635 416.119 238.023 419.198 236.591C425.92 233.46 432.935 230.958 439.243 226.985L439.894 224.499L439.886 224.494Z" fill="#CE9C7D"/>
<path d="M314.653 187.54L349.115 177.395L349.094 175.054L339.309 179.206C332.189 181.364 322.248 182.093 315.665 185.265C314.663 185.751 314.13 186.43 314.649 187.548L314.653 187.54Z" fill="#CE9C7D"/>
<path d="M297.885 259.675C297.132 260.75 298.267 260.78 299.156 260.646C301.124 260.345 303.054 259.374 305.22 259.089C312.147 258.173 320.462 261.515 327.745 259.157C329.326 256.752 318.144 258.135 317.226 258.024C315.174 257.776 313.916 256.708 311.743 256.688C307.176 256.644 301.906 257.501 297.887 259.681L297.885 259.675Z" fill="#CE9C7D"/>
<path d="M316.298 265.757L319.545 267.837C328.425 266.264 338.276 266.854 346.77 263.764C347.804 263.389 348.829 263.243 349.234 262.021C338.315 263.836 327.417 265.932 316.298 265.757Z" fill="#CE9C7D"/>
<path d="M326.787 241.754C326.752 241.631 327.053 241.165 326.832 240.695L325.449 239.496L322.12 239.419L324.84 250.845C325.952 252.148 327.73 252.374 329.371 252.025C331.352 251.607 329.495 251.27 329.418 250.998C328.544 247.934 327.804 244.758 326.779 241.75L326.787 241.754Z" fill="#CE9C7D"/>
<path d="M354.545 144.868C355.462 152.407 353.727 160.183 353.841 167.572C353.886 170.466 353.755 171.83 356.725 169.429L356.329 144.319L354.545 144.868Z" fill="#CE9C7D"/>
<path d="M331.832 175.298L334.257 174.213L335.032 154.002C334.894 152.934 341.293 150.915 339.239 149.861L336.015 150.388L333.905 152.857L331.826 175.3L331.832 175.298Z" fill="#CE9C7D"/>
<path d="M361.572 141.522C362.271 149.744 360.426 158.305 358.608 166.332C359.349 166.707 361.176 164.206 361.513 163.543C362.815 160.977 364.191 145.302 364.231 141.704C364.245 140.093 362.446 141.313 361.572 141.522Z" fill="#CE9C7D"/>
<path d="M350.536 149.398C350.364 149.614 350.242 153.09 350.012 154.035C348.762 159.166 346.646 164.371 347.325 169.698C347.461 170.779 347.07 171.397 348.527 171.875L352.512 149.708C352.651 148.375 350.956 148.885 350.536 149.398Z" fill="#CE9C7D"/>
<path d="M253.795 172.899C256.201 172.426 257.577 169.933 259.736 169.157C261.431 168.554 263.163 168.9 264.827 168.445C269.665 167.125 274.604 165.829 279.248 163.97C278.261 163.152 277.31 163.557 276.236 163.79C270.23 165.083 261.769 166.584 256.29 168.834C254.433 169.597 252.737 170.687 253.798 172.885L253.795 172.899Z" fill="#CE9C7D"/>
<path d="M343.39 152.678C343.869 159.895 337.74 165.738 338.443 172.758C340.005 173.886 346.546 155.537 344.887 153.251L343.391 152.684L343.39 152.678Z" fill="#CE9C7D"/>
<path d="M385.537 227.993L371.646 211.466C371.387 210.42 370.325 210.763 369.747 211.168C368.597 211.976 369.501 212.385 369.792 212.915C371.205 215.506 377.184 222.135 379.504 224.4C380.337 225.216 384.435 229.834 385.543 227.991L385.537 227.993Z" fill="#CE9C7D"/>
<path d="M427.456 99.7812C423.13 103.809 415.978 107.63 410.424 109.548L411.126 112.008L429.273 100.823C429.189 100.06 428.939 99.6514 428.445 99.0655C427.2 97.6004 427.528 99.7073 427.456 99.7812Z" fill="#CE9C7D"/>
<path d="M377.975 210.814C377.293 212.002 386.6 226.389 389.988 226.042C390.895 225.763 390.456 224.949 389.939 224.303C386.4 219.892 381.775 217.917 381.256 210.978L377.976 210.82L377.975 210.814Z" fill="#CE9C7D"/>
<path d="M315.009 179.438L316.804 178.532L318.888 160.335C317.942 160.478 317.207 161.221 316.739 161.988C315.625 163.786 313.941 178.896 315.009 179.438Z" fill="#CE9C7D"/>
<path d="M322.697 159.335L319.94 178.024L322.365 176.939L324.672 159.645C324.683 158.235 323.509 158.91 322.695 159.329L322.697 159.335Z" fill="#CE9C7D"/>
<path d="M367.425 159.815L369.269 159.289C367.59 152.634 370.122 145.944 372.367 139.743C370.305 138.917 368.066 145.911 367.736 147.278C366.783 151.231 366.63 155.815 367.423 159.809L367.425 159.815Z" fill="#CE9C7D"/>
<path d="M326.291 176.886C328.887 171.518 328.646 163.965 329.547 157.961C327.792 156.928 326.525 164.55 326.402 165.286C325.783 168.889 325.321 173.369 326.292 176.892L326.291 176.886Z" fill="#CE9C7D"/>
<path d="M310.848 237.307L314.534 254.925L318.111 254.558C313.916 250.467 315.488 243.051 313.132 238.323C312.632 237.318 311.984 236.776 310.854 237.305L310.848 237.307Z" fill="#CE9C7D"/>
<path d="M315.076 238.101C317.698 239.767 318.046 253.77 319.031 254.302L321.492 253.6L317.075 237.911L315.068 238.097L315.076 238.101Z" fill="#CE9C7D"/>
<path d="M364.058 213.457C363.57 214.27 375.143 226.457 376.656 227.646C377.429 228.252 377.792 229.175 379.018 228.519C379.546 227.401 367.263 216.744 366.739 213.759L364.058 213.457Z" fill="#CE9C7D"/>
<path d="M306.648 166.494C303.582 165.282 302.723 178.236 302.654 180.096C302.629 180.71 301.884 182.236 303.43 182.068C305.708 181.825 305.728 168.831 306.648 166.494Z" fill="#CE9C7D"/>
<path d="M387.048 212.232C387.165 213.366 387.749 214.106 388.358 214.999C389.441 216.577 395.817 224.806 396.829 225.644C397.485 226.19 398.821 226.29 399.63 225.972C397.264 222.773 394.528 219.893 392.039 216.776C390.701 215.104 389.985 211.541 387.054 212.231L387.048 212.232Z" fill="#CE9C7D"/>
<path d="M357.1 214.776L367.288 226.765L370.616 228.236C371.588 226.852 371.148 227.344 370.5 226.615C368.773 224.654 366.451 223.176 364.619 221.312C362.69 219.342 361.063 216.772 359.331 214.979C358.33 213.945 358.484 214.348 357.107 214.781L357.1 214.776Z" fill="#CE9C7D"/>
<path d="M357.383 229.184C357.972 229.543 359.229 229.578 359.904 229.305C360.191 228.743 353.823 220.118 352.851 219.142C350.948 217.218 348.807 217.709 350.739 220.131C351.976 221.685 356.9 228.895 357.383 229.184Z" fill="#CE9C7D"/>
<path d="M395.064 209.945C397.156 212.602 399.233 214.53 400.943 217.576C402.045 219.549 401.704 223.867 406.062 222.803L397.705 210.319L395.064 209.945Z" fill="#CE9C7D"/>
<path d="M388.667 124.417C392.187 121.706 395.528 120.886 399.325 119.189C399.94 118.914 402.124 118.13 401.263 117.169C399.188 114.854 391.394 120.325 389.651 122.116C388.949 122.836 388 123.133 388.667 124.417Z" fill="#CE9C7D"/>
<path d="M373.248 152.153C375.135 151.008 379.013 138.727 377.917 138.159C376.338 138.303 376.412 138.749 375.824 139.843C374.359 142.608 372.946 148.945 373.248 152.153Z" fill="#CE9C7D"/>
<path d="M310.712 166.668C310.402 170.371 309.303 174.678 309.798 178.398C309.92 179.316 309.608 180.399 311.005 180.574C312.257 180.73 311.805 179.239 311.88 178.497C312.093 176.416 312.592 167.999 312.019 166.622L310.704 166.664L310.712 166.668Z" fill="#CE9C7D"/>
<path d="M409.538 134.465C409.422 136.091 414.993 147.717 417.015 144.333L411.514 134.354L409.54 134.471L409.538 134.465Z" fill="#CE9C7D"/>
<path d="M402.816 209.067C405.451 212.063 407.187 215.881 409.447 219.057C409.935 219.738 410.656 221.073 411.738 220.517C412.822 219.154 412.205 219.164 411.532 218.115C409.632 215.17 406.914 212.725 405.448 209.456L402.816 209.067Z" fill="#CE9C7D"/>
<path d="M404.869 139.137L408.381 149.13L410.01 148.999C412.267 147.161 406.023 136.588 404.869 139.137Z" fill="#CE9C7D"/>
<path d="M329.946 287.86L331.411 286.382C329.751 282.548 327.55 278.809 327.481 274.568L325.468 275.789L329.952 287.858L329.946 287.86Z" fill="#CE9C7D"/>
<path d="M341.497 241.891L342.93 249.064L345.287 249.451C346.902 246.417 345.512 244.093 343.47 241.795L341.497 241.891Z" fill="#CE9C7D"/>
<path d="M329.519 241.981L333.226 251.632L337.435 251.051C332.995 249.511 332.215 245.54 331.981 241.286L329.521 241.988L329.519 241.981Z" fill="#CE9C7D"/>
<path d="M350.744 229.918C349.235 226.968 348.183 222.461 345.166 220.861C343.385 221.329 347.466 227.92 348.057 228.704C348.721 229.582 349.526 230.512 350.746 229.924L350.744 229.918Z" fill="#CE9C7D"/>
<path d="M408.101 208.893C409.08 210.36 416.554 219.029 418.312 216.634C415.335 214.476 412.313 212.345 411.072 208.672L408.107 208.891L408.101 208.893Z" fill="#CE9C7D"/>
<path d="M367.291 276.205C367.49 276.668 368.481 277.292 368.569 278.114C369.564 277.93 370.791 278.027 370.12 276.725C367.328 273.694 366.062 268.928 366.064 264.893L364.036 264.798C365.401 268.296 365.833 272.847 367.291 276.205Z" fill="#CE9C7D"/>
<path d="M297.621 275.086C301.344 277.338 305.479 280.612 309.946 280.891C310.316 280.292 299.44 273.447 297.621 275.086Z" fill="#CE9C7D"/>
<path d="M334.627 241.184C335.194 243.103 335.623 245.074 336.351 246.947C336.621 247.636 337.831 251.245 338.969 250.607C340.298 247.481 336.519 244.078 336.469 240.652L334.625 241.178L334.627 241.184Z" fill="#CE9C7D"/>
<path d="M400.017 143.189L397.895 144.841L401.566 152.075L402.584 150.291L400.017 143.189Z" fill="#CE9C7D"/>
<path d="M407.967 100.914C408.193 104.324 411.512 105.344 414.205 106.462L411.839 101.863C410.711 100.878 409.468 100.213 407.961 100.916L407.967 100.914Z" fill="#CE9C7D"/>
<path d="M302.026 271.829L308.854 275.869L311.97 276.32C312.402 275.57 305.712 271.798 304.997 271.608C303.853 271.314 303.121 271.343 302.026 271.829Z" fill="#CE9C7D"/>
<path d="M304.054 267.25L312.457 272.187L313.899 271.442C313.447 269.857 306.124 266.046 304.054 267.25Z" fill="#CE9C7D"/>
<path d="M399.971 133C400.483 133.274 402.268 133.525 402.484 133.137L399.076 128.135L400.988 126.982L404.152 129.68C406.544 130.445 405.769 125.485 404.2 124.939C401.357 123.95 394.356 129.961 399.976 132.992L399.971 133Z" fill="#CE9C7D"/>
<path d="M412.533 121.615L411.08 124.677L407.019 122.015L404.622 124.199L411.429 125.971L412.533 121.615Z" fill="#CE9C7D"/>
<path d="M298.631 282.599C299.285 283.046 304.422 285.228 304.918 284.326C305.343 281.771 297.174 279.481 297.007 279.922C297.227 280.953 297.75 281.99 298.631 282.599Z" fill="#CE9C7D"/>
<path d="M403.154 193.682C402.391 194.513 404.38 200.433 404.757 201.846L406.6 201.32L404.93 193.128L403.154 193.682Z" fill="#CE9C7D"/>
<path d="M408.818 192.686L410.046 201.663C412.964 200.484 410.108 195.571 410.732 193.106L408.824 192.684L408.818 192.686Z" fill="#CE9C7D"/>
<path d="M396.477 196.2C396.264 196.574 398.637 204.165 401.049 202.897L398.321 195.674L396.477 196.2Z" fill="#CE9C7D"/>
<path d="M369.058 266.039C370.046 268.191 369.799 270.015 369.485 272.232L372.213 272.467L371.356 267.057L369.057 266.033L369.058 266.039Z" fill="#CE9C7D"/>
<path d="M381.141 180.426L381.492 178.806L378.488 178.656L376.487 182.227C377.354 183.887 380.397 181.045 381.141 180.426Z" fill="#CE9C7D"/>
<path d="M395.499 204.48C395.081 203.366 394.085 197.583 392.649 197.972L392.795 204.165L393.548 204.724L395.497 204.474L395.499 204.48Z" fill="#CE9C7D"/>
<path d="M321.662 286.896L323.506 286.37C322.816 284.514 322.523 282.55 322.075 280.631C321.846 279.663 322.636 278.951 320.921 278.453C319.871 278.793 321.24 285.697 321.669 286.895L321.662 286.896Z" fill="#CE9C7D"/>
<path d="M294.751 178.55C298.18 178.065 296.716 173.729 296.07 171.513C294.373 170.357 294.158 178.226 294.751 178.55Z" fill="#CE9C7D"/>
<path d="M387.872 133.319C387.638 133.712 392.068 138.582 393.317 138.426C392.582 136.222 390.825 131.983 387.872 133.319Z" fill="#CE9C7D"/>
<path d="M396.139 136.141L396.987 136.052L397.637 134.893C396.431 134.617 394.781 130.047 393.568 131.033C391.754 132.504 395.33 135.105 396.147 136.145L396.139 136.141Z" fill="#CE9C7D"/>
<path d="M398.805 106.195C398.232 107.226 403.936 111.019 404.521 109.892C403.711 107.543 401.462 105.551 398.805 106.195Z" fill="#CE9C7D"/>
<path d="M285.071 158.648L287.338 160.562L290.865 157.989C289.04 156.736 286.935 158.31 285.065 158.65L285.071 158.648Z" fill="#CE9C7D"/>
<path d="M386.351 205.09L388.188 204.566L386.781 199.633C384.192 200.492 385.511 203.456 386.351 205.09Z" fill="#CE9C7D"/>
<path d="M334.911 225.774L335.97 229.719L337.974 229.568L336.741 225.245L334.911 225.774Z" fill="#CE9C7D"/>
<path d="M388.131 141.239L391.477 138.964L387.701 137.368L388.131 141.239Z" fill="#CE9C7D"/>
<path d="M285.763 175.679L287.206 179.127L284.722 180.167L283.279 176.718L285.763 175.679Z" fill="#CE9C7D"/>
<path d="M299.309 217.922L298.575 215.512L295.012 216.815L299.309 217.922Z" fill="#CE9C7D"/>
<path d="M390.948 151.11L392.751 153.923L394.286 153.485L392.483 150.672L390.948 151.11Z" fill="#CE9C7D"/>
<path d="M373.912 205.972L373.839 203.332L370.414 205.303L373.912 205.972Z" fill="#CE9C7D"/>
<path d="M394.75 110.68L397.216 109.976L397.92 112.442L395.453 113.146L394.75 110.68Z" fill="#CE9C7D"/>
<path d="M303.365 222.766L305.145 221.945L305.124 219.604L303.344 220.425L303.365 222.766Z" fill="#CE9C7D"/>
<path d="M300.434 289.619L301.313 292.702L303.155 292.17L302.149 289.79L300.434 289.619Z" fill="#CE9C7D"/>
<path d="M371.053 123.448C371.597 125.52 371.322 126.519 373.519 125.338L373.513 122.746L371.053 123.448Z" fill="#CE9C7D"/>
<path d="M345.77 130.662L347.095 132.944L348.934 130.086L345.77 130.662Z" fill="#CE9C7D"/>
<path d="M272.638 178.198L271.109 178.634L270.458 179.813L272.595 181.531C273.532 180.443 273.086 179.464 272.64 178.204L272.638 178.198Z" fill="#CE9C7D"/>
<path d="M355.987 129.074L358.367 128.068L358.538 126.352L356.157 127.358L355.987 129.074Z" fill="#CE9C7D"/>
<path d="M378.332 202.717C377.578 204.259 381.256 204.13 381.935 203.683L380.474 202.046L378.334 202.724L378.332 202.717Z" fill="#CE9C7D"/>
<path d="M352.772 244.015L354.135 246.22L355.934 245.773L355.496 244.238L354.717 243.774L352.772 244.015Z" fill="#CE9C7D"/>
<path d="M380.341 240.143L381.252 239.877L381.919 238.686L379.773 236.985L379.106 238.175L380.341 240.143Z" fill="#CE9C7D"/>
<path d="M263.997 180.61C263.337 180.799 262.648 180.416 262.46 179.755C262.271 179.095 262.654 178.406 263.315 178.218C263.975 178.029 264.664 178.412 264.852 179.073C265.041 179.733 264.658 180.422 263.997 180.61Z" fill="#CE9C7D"/>
<path d="M377.291 157.001L379.056 156.43L379.05 153.838C377.799 153.942 377.576 155.146 377.031 156.088L377.291 157.001Z" fill="#CE9C7D"/>
<path d="M364.493 207.993L364.145 206.772L362.344 206.725L361.165 207.942L362.359 208.575L364.493 207.993Z" fill="#CE9C7D"/>
<path d="M396.109 236.978L397.953 236.452L397.692 235.539L395.709 234.432L396.109 236.978Z" fill="#CE9C7D"/>
<path d="M342.832 211.513L343.358 213.356L345.822 212.646L343.744 211.252L342.832 211.513Z" fill="#CE9C7D"/>
<path d="M363.958 243.491L364.309 244.717L366.023 244.882L366.675 243.709L365.494 243.052L363.958 243.491Z" fill="#CE9C7D"/>
<path d="M325.817 229.029L325.557 228.116L323.276 227.087L323.714 228.622L324.903 229.283L325.817 229.029Z" fill="#CE9C7D"/>
<path d="M385.759 116.575L386.47 119.045L385.237 119.4L384.526 116.929L385.759 116.575Z" fill="#CE9C7D"/>
<path d="M355.511 209.225L355.866 210.458L353.394 211.169L353.04 209.937L355.511 209.225Z" fill="#CE9C7D"/>
<path d="M312.854 288.743L313.38 290.586L315.223 290.06C315.107 288.88 313.963 288.213 312.854 288.743Z" fill="#CE9C7D"/>
<path d="M382.495 144.854C381.869 145.84 386.093 147.955 384.338 144.328L382.495 144.854Z" fill="#CE9C7D"/>
<path d="M313.228 229.287L314.455 228.937L314.017 227.402L312.828 226.741L313.228 229.287Z" fill="#CE9C7D"/>
<path d="M245.548 278.755C243.585 279.122 243.111 281.69 242.914 283.36C244.225 291.788 254.051 295.445 257.316 286.112L252.701 278.888C250.518 280.024 246.952 278.488 245.546 278.749L245.548 278.755ZM253.302 290.391C247.482 291.238 241.504 281.922 248.287 279.827C248.746 281.27 247.543 281.659 248.084 283.345C248.367 284.218 249.842 286.771 250.456 287.59C251.384 288.832 252.942 288.894 253.302 290.391ZM249.262 280.882L252.295 280.084L255.592 286.731L254.662 289.337C253.82 289.963 251.939 286.946 251.645 286.383C250.715 284.595 250.815 282.399 249.258 280.89L249.262 280.882Z" fill="#CE9C7D"/>
<path d="M240.303 207.413L237.584 200.195C239.426 200.062 239.627 204.506 241.633 202.7L234.897 194.307C234.075 194.488 235.079 200.296 235.3 201.26C235.915 203.951 236.588 208.787 240.303 207.413Z" fill="#CE9C7D"/>
<path d="M258.778 258.164L259.544 259.333C263.768 259.854 267.189 264.812 271.281 264.592L262.129 258.202L265.733 256.833L263.896 254.997L258.776 258.158L258.778 258.164Z" fill="#CE9C7D"/>
<path d="M229.561 202.484C228.068 198.816 225.388 195.5 225.609 191.343L223.584 190.86C223.606 194.955 224.936 199.103 227.234 202.508L229.563 202.49L230.227 203.647C232.93 202.909 230.621 192.267 227.935 190.939L226.48 191.708C228.794 193.881 231.246 199.623 229.563 202.49L229.561 202.484Z" fill="#CE9C7D"/>
<path d="M217.06 191.388L220.172 202.062L222.244 202.571L219.032 191.266L217.06 191.388Z" fill="#CE9C7D"/>
<path d="M198.298 188.733C201.191 190.248 197.81 181.998 197.518 181.441C197.456 181.319 195.39 180.015 194.912 180.371L198.292 188.735L198.298 188.733Z" fill="#CE9C7D"/>
<path d="M197.688 179.586C200.856 180.942 201.033 183.152 203.01 185.382C204.62 182.822 201.484 180.316 200.583 178.093L197.695 179.584L197.688 179.586Z" fill="#CE9C7D"/>
<path d="M263.257 285.551C262.008 284.28 258.918 277.587 257.408 277.905C256.181 279.401 257.321 279.143 257.792 279.975C258.063 280.458 262.074 287.902 263.251 285.552L263.257 285.551Z" fill="#CE9C7D"/>
<path d="M241.355 225.123L243.224 223.516L245.837 224.984C246.472 225.763 245.265 228.941 247.199 228.123L248.915 221.399L245.851 219.846C245.75 220.475 248.967 224.458 246.779 224.242L244.839 222.982C243.951 221.482 245.375 219.275 243.169 218.624L241.355 225.123Z" fill="#CE9C7D"/>
<path d="M243.035 209.975C244.397 210.799 245.677 203.506 245.588 202.585L243.21 204.63L243.035 209.975Z" fill="#CE9C7D"/>
<path d="M249.813 208.047C248.708 207.329 246.067 213.03 249.073 213.586C250.94 213.447 250.466 209.075 249.813 208.047Z" fill="#CE9C7D"/>
<path d="M259.613 265.067C259.871 265.247 263.606 266.275 263.705 266.087C262.547 263.57 258.28 263.547 258.687 260.184C256.991 261.368 258.303 264.167 259.613 265.067Z" fill="#CE9C7D"/>
<path d="M239.581 242.298C239.105 240.42 237.197 239.578 235.456 239.481L235.673 241.48L236.619 242.483L239.587 242.297L239.581 242.298Z" fill="#CE9C7D"/>
<path d="M237.845 218.523C237.604 219.059 236.159 219.624 237.783 220.808L240.513 217.708L238.586 216.585C238.272 217.215 238.129 217.882 237.839 218.525L237.845 218.523Z" fill="#CE9C7D"/>
<path d="M211.245 194.381C210.635 195.422 213.578 197.182 214.449 197.454C216.1 195.689 212.144 192.857 211.245 194.381Z" fill="#CE9C7D"/>
<path d="M285.11 282.656L285.932 284.436L286.742 284.845L288.273 284.414L287.571 281.954L285.11 282.656Z" fill="#CE9C7D"/>
<path d="M250.107 263.979L249.6 265.777L251.156 267.653L251.659 265.863L250.107 263.979Z" fill="#CE9C7D"/>
<path d="M262.828 277.012C262.495 277.574 264.558 280.432 265.72 280.181L264.662 276.475L262.826 277.006L262.828 277.012Z" fill="#CE9C7D"/>
<path d="M207.015 179.579L204.869 175.537C203.503 175.893 205.783 179.863 207.015 179.579Z" fill="#CE9C7D"/>
<path d="M234.824 262.998C234.979 264.501 235.952 265.083 237.235 265.631L237.726 263.844L235.738 262.744L234.826 263.005L234.824 262.998Z" fill="#CE9C7D"/>
<path d="M268.826 255.964L269.093 256.875L271.076 257.983L272.335 256.623L269.74 255.71L268.826 255.964Z" fill="#CE9C7D"/>
<path d="M230.07 255.687C230.723 259.141 234.199 258.003 231.908 255.162L230.07 255.687Z" fill="#CE9C7D"/>
<path d="M258.088 237.025L258.354 237.936L259.545 238.603L260.808 237.235L260.548 236.323L258.088 237.025Z" fill="#CE9C7D"/>
<path d="M261.873 243.279L262.527 244.426L264.242 244.597L264.037 242.662C263.081 241.788 263.022 243.031 261.879 243.277L261.873 243.279Z" fill="#CE9C7D"/>
<path d="M224.812 181.162L221.033 179.58L222.457 181.207L224.812 181.162Z" fill="#CE9C7D"/>
<path d="M263.456 248.828L264.911 250.4L266.442 249.97L264.991 248.39L263.456 248.828Z" fill="#CE9C7D"/>
<path d="M226.832 213.931L228.67 213.406L228.41 212.494L226.434 211.39L225.782 212.563L226.832 213.931Z" fill="#CE9C7D"/>
<path d="M242.749 267.405L243.948 268.963L245.736 268.546L245.475 267.634L244.285 266.967L242.749 267.405Z" fill="#CE9C7D"/>
<path d="M227.145 181.183C228.411 183.049 231.575 183.88 233.698 184.308L227.145 181.183Z" fill="#CE9C7D"/>
<path d="M293.128 257.025L292.778 255.798L291.064 255.634L290.416 256.799L291.597 257.455L293.128 257.025Z" fill="#CE9C7D"/>
<path d="M272.354 244.956L273.008 246.103L274.723 246.274L274.069 245.127L272.354 244.956Z" fill="#CE9C7D"/>
<path d="M265.472 272.257L265.822 273.484L268.287 272.774L267.008 271.819L265.472 272.257Z" fill="#CE9C7D"/>
<path d="M255.18 233.847L257.024 233.321L256.764 232.408L255.581 231.746L254.926 232.933L255.18 233.847Z" fill="#CE9C7D"/>
<path d="M235.275 215.522L235.015 214.61L233.832 213.947L233.18 215.12L234.361 215.777L235.275 215.522Z" fill="#CE9C7D"/>
<path d="M219.606 211.998L219.873 212.909L221.359 213.492L220.833 211.648L219.606 211.998Z" fill="#CE9C7D"/>
<path d="M208.16 199.928L208.427 200.839L209.913 201.422L209.387 199.578L208.16 199.928Z" fill="#CE9C7D"/>
<path d="M214.334 179.497L215.606 180.448L216.264 179.274L214.334 179.497Z" fill="#CE9C7D"/>
<path d="M236.784 185.754L236.434 184.527L234.719 184.356L234.511 184.729L236.784 185.754Z" fill="#CE9C7D"/>
<path d="M162.609 229.587C162.487 227.268 160.537 229.525 159.081 229.96C156.101 230.851 152.888 231.254 150.117 232.478L147.993 229.757C149.362 229.34 150.807 229.661 152.187 229.287C155.566 228.369 163.565 225.787 166.254 224.087C166.972 223.635 167.917 223.092 167.809 222.103L146.492 229.192L149.84 233.891C150.565 233.93 151.008 232.89 151.199 232.836L162.607 229.581L162.609 229.587Z" fill="#CE9C7D"/>
<path d="M145.525 221.126L148.337 221.658L148.496 218.265C154.078 215.626 159.797 213.82 166.034 213.688C168.224 213.063 166.564 210.916 164.321 211.116C161.246 211.394 146.902 216.886 145.67 219.391C145.336 220.067 145.108 220.345 145.523 221.12L145.525 221.126Z" fill="#CE9C7D"/>
<path d="M145.611 223.769L146.139 225.618C149.121 225.341 151.654 223.445 154.256 222.609C157.585 221.539 162.927 221.002 165.514 219.53C166.547 218.942 167.347 219.434 166.583 217.785L145.618 223.767L145.611 223.769Z" fill="#CE9C7D"/>
<path d="M163.457 312.025L174.644 306.826L174.123 305.001C170.263 304.982 167.699 308.501 163.831 309.385L163.465 312.029L163.457 312.025Z" fill="#CE9C7D"/>
<path d="M187.692 309.951L187.937 313.708L191.123 313.119L194.289 315.85L196.745 314.196L189.269 308.981L187.692 309.951Z" fill="#CE9C7D"/>
<path d="M178.657 211.02C178.238 212.639 177.092 215.307 176.284 216.704C175.689 217.727 170.345 225.033 171.507 225.715L179.168 215.195C179.616 214.053 181.436 209.894 178.665 211.024L178.657 211.02Z" fill="#CE9C7D"/>
<path d="M188.917 305.434C193.592 307.094 196.693 311.444 201.59 312.48L192.914 305.234L188.917 305.434Z" fill="#CE9C7D"/>
<path d="M175.024 272.799C175.794 276.547 181.313 278.386 183.272 274.033C181.474 272.452 178.062 275.593 176.593 273.925C175.666 272.876 178.139 272.497 178.971 271.626C179.356 271.223 179.901 269.954 179.939 269.317L175.023 272.793L175.024 272.799Z" fill="#CE9C7D"/>
<path d="M164.896 237.603L164.97 247.283C165.473 249.207 170.666 249.319 170.088 246.476L166.407 245.446L166.743 237.089L164.899 237.615L164.896 237.603Z" fill="#CE9C7D"/>
<path d="M195.959 303.985C198.925 304.519 199.641 307.029 202.877 307.852C204.035 308.149 204.067 308.986 204.757 307.243L197.631 300.941C195.798 301.157 194.895 302.362 195.959 303.985Z" fill="#CE9C7D"/>
<path d="M177.317 227.385C179.758 227.735 184.205 218.712 183.915 217.834L181.878 217.729L177.316 227.378L177.317 227.385Z" fill="#CE9C7D"/>
<path d="M184.686 313.976L187.237 317.309L192.868 316.969L187.048 313.469L184.686 313.976Z" fill="#CE9C7D"/>
<path d="M167.008 315.052L167.509 316.856L169.835 316.686C170.364 313.095 173.625 314.124 175.337 311.642C174.683 309.349 168.025 314.762 167.008 315.052Z" fill="#CE9C7D"/>
<path d="M177.038 266.137L170.759 259.274C169.773 260.468 170.29 260.714 170.898 261.748C171.443 262.679 175.612 268.431 177.038 266.137Z" fill="#CE9C7D"/>
<path d="M156.908 202.549C157.687 205.748 153.204 204.36 152.839 207.031L156.446 208.009L154.78 206.824L156.657 205.221L162.341 207.66L158.111 202.206L156.902 202.551L156.908 202.549Z" fill="#CE9C7D"/>
<path d="M170.66 219.056C170.576 219.346 168.867 220.274 170.577 221.313L174.15 211.632C172.092 210.613 171.001 217.818 170.66 219.056Z" fill="#CE9C7D"/>
<path d="M203.747 302.07C204.463 302.519 204.935 304.011 205.522 304.037L206.979 303.275L199.898 298.301C197.503 299.417 203.38 301.834 203.754 302.068L203.747 302.07Z" fill="#CE9C7D"/>
<path d="M183.823 264.208C182.546 263.845 182.817 262.508 181.54 262.212L179.811 263.539L179.551 265.713L184.525 266.668C184.315 265.841 184.03 265.029 183.821 264.202C184.372 264.358 184.937 264.443 185.52 264.384C187.052 262.413 185.2 261.488 183.301 262.356C183.451 262.974 183.671 263.584 183.827 264.2L183.823 264.208Z" fill="#CE9C7D"/>
<path d="M170.873 253.9C170.641 252.2 169.437 251.276 167.807 251.428C163.532 253.274 168.043 255.575 170.873 253.9Z" fill="#CE9C7D"/>
<path d="M166.19 305.244C167.494 305.979 169.11 300.824 170.944 300.894C169.734 299.272 164.051 304.034 166.19 305.244Z" fill="#CE9C7D"/>
<path d="M183.573 228.273C185.656 228.073 187.464 226.136 187.005 223.967C186.111 223.522 182.582 226.716 183.573 228.273Z" fill="#CE9C7D"/>
<path d="M203.366 295.311L206.564 298.385L206.34 295.076L203.366 295.311Z" fill="#CE9C7D"/>
<path d="M175.956 318.46L175.254 316L171.042 317.528C172.53 318.491 174.205 319.173 175.956 318.46Z" fill="#CE9C7D"/>
<path d="M159.498 305.16L161.422 305.898L161.609 307.885L164.24 305.467L159.498 305.16Z" fill="#CE9C7D"/>
<path d="M159.951 276.366L163.553 277.325L162.851 274.865L159.951 276.366Z" fill="#CE9C7D"/>
<path d="M147.293 213.301C148.499 214.77 151.055 213.281 152.568 213.116C151.159 211.778 148.664 212.17 147.293 213.301Z" fill="#CE9C7D"/>
<path d="M189.648 233.208L191.492 232.682L190.79 230.221L189.878 230.482L189.216 231.671L189.648 233.208Z" fill="#CE9C7D"/>
<path d="M191.311 264.745L188.056 265L188.494 266.535L189.669 267.194L191.311 264.745Z" fill="#CE9C7D"/>
<path d="M186.797 321.375L187.145 322.596L190.404 322.333L189.182 320.808L186.797 321.375Z" fill="#CE9C7D"/>
<path d="M203.636 279.898C204.477 280.811 205.393 282.337 206.799 281.656L206.361 280.121L205.581 279.656L203.636 279.898Z" fill="#CE9C7D"/>
<path d="M181.437 286.232C180.458 288.151 184.885 289.082 183.547 286.636C183.282 286.152 181.655 285.803 181.437 286.232Z" fill="#CE9C7D"/>
<path d="M202.318 272.94L202.844 274.783C203.844 275.391 205.942 271.199 202.318 272.94Z" fill="#CE9C7D"/>
<path d="M194.05 243.96L194.576 245.804L196.42 245.278C196.303 244.098 195.159 243.431 194.05 243.96Z" fill="#CE9C7D"/>
<path d="M205.218 290.115L205.872 291.262L207.588 291.432L206.934 290.285L205.218 290.115Z" fill="#CE9C7D"/>
<path d="M181.088 280.331L181.438 281.558L183.286 281.024L182 280.07L181.088 280.331Z" fill="#CE9C7D"/>
<path d="M153.633 212.152L156.094 211.45L156.266 212.054L153.806 212.756L153.633 212.152Z" fill="#CE9C7D"/>
<path d="M181.152 320.312L180.324 318.554L179.673 319.733L181.152 320.312Z" fill="#CE9C7D"/>
<path d="M198.08 314.155L198.684 313.982L199.034 315.209L198.43 315.382L198.08 314.155Z" fill="#CE9C7D"/>
<path d="M191.752 263.952L192.979 263.602L193.151 264.207L191.924 264.557L191.752 263.952Z" fill="#CE9C7D"/>
<path d="M126.377 301.261C129.215 299.918 129.439 296.613 133.249 297.3L132.989 294.82C137.443 291.923 135.613 297.826 134.127 299.63L130.192 299.532C129.817 304.18 123.002 301.304 123.741 306.02L128.494 304.004L126.618 308.44L125.116 308.689L123.302 306.819L124.711 311.758L127.672 310.566L129.196 305.064L134.57 303.004L137.747 292.029L128.932 294.651L126.379 301.267L126.377 301.261ZM129.156 295.807L129.332 296.424C128.873 296.335 128.813 296.125 129.156 295.807ZM132.324 302.238L132.5 302.854C132.041 302.765 131.981 302.556 132.324 302.238Z" fill="#CE9C7D"/>
<path d="M123.646 322.05C124.742 321.004 124.332 318.187 125.208 316.957C125.98 315.877 127.31 315.63 128.217 314.745C129.564 315.467 122.609 325.166 124.437 327.158C125.439 327.913 134.353 307.76 133.508 305.241L129.393 314.122L124.505 313.443L123.645 322.044L123.646 322.05Z" fill="#CE9C7D"/>
<path d="M123.444 268.519C123.156 269.521 121.363 271.02 122.331 273.057L124.609 273.141L126.299 270.625L126.823 272.463L128.233 270.393L126.906 273.339L123.613 274.045L123.747 275.681L128.271 275.083L130.793 265.342C127.99 265.195 127.67 267.767 126.07 268.677C122.679 270.605 125.537 266.788 125.598 266.604C126.269 264.586 126.369 262.364 128.05 260.404L131.402 260.488L128.503 259.655L131.053 254.593C129.623 255.001 127.863 256.01 127.135 257.338C125.85 259.705 124.246 265.697 123.43 268.517L123.444 268.519Z" fill="#CE9C7D"/>
<path d="M116.174 274.848L117.595 278.029C116.343 280.467 115.439 282.625 116.52 285.41C122.387 282.903 121.614 279.283 118.148 274.731L116.174 274.848Z" fill="#CE9C7D"/>
<path d="M87.7881 338.961L89.2276 340.524C90.5543 340.126 91.3164 332.981 91.7529 331.543C92.0017 330.732 92.9179 330.297 93.1172 329.593C93.777 327.231 94.7127 324.177 94.209 321.781C93.3578 324.804 91.1974 328.567 90.3745 331.316C89.5772 333.99 90.6945 337.579 87.7819 338.963L87.7881 338.961Z" fill="#CE9C7D"/>
<path d="M110.931 265.702L111.946 269.379C113.29 266.469 115.747 266.128 117.756 264.055C115.191 262.966 113.213 264.891 110.932 265.708L110.931 265.702Z" fill="#CE9C7D"/>
<path d="M123.448 330.774C124.16 327.704 122 325.767 123.82 322.68C122.347 321.934 118.613 331.987 123.448 330.774Z" fill="#CE9C7D"/>
<path d="M117.292 267.965L118.233 269.516L111.771 273.439L110.829 271.888L117.292 267.965Z" fill="#CE9C7D"/>
<path d="M132.729 286.127C132.106 287.264 137.224 290.545 137.817 287.669C137.132 287.071 133.199 285.252 132.729 286.127Z" fill="#CE9C7D"/>
<path d="M111.842 275.557L110.702 279.063L115.541 275.015C115.338 273.859 112.14 275.245 111.836 275.559L111.842 275.557Z" fill="#CE9C7D"/>
<path d="M115.652 258.994L110.993 261.317C111.465 262.902 115.926 260.516 115.652 258.994Z" fill="#CE9C7D"/>
<path d="M130.01 250.89L132.459 247.858C130.681 246.158 128.774 250.109 130.01 250.89Z" fill="#CE9C7D"/>
<path d="M106.643 316.233L109.544 314.738L109.284 313.826L107.489 313.331L106.389 315.319L106.643 316.233Z" fill="#CE9C7D"/>
<path d="M142.863 253.891L142.339 252.053C138.717 251.607 139.584 255.16 142.863 253.891Z" fill="#CE9C7D"/>
<path d="M137.141 264.198L137.408 265.109L138.597 265.77L140.128 265.339L139.602 263.496L137.141 264.198Z" fill="#CE9C7D"/>
<path d="M95.8852 316.435L96.6904 316.887L94.2547 321.226L93.4495 320.774L95.8852 316.435Z" fill="#CE9C7D"/>
<path d="M138.663 239.1L138.556 241.11L141.464 239.614C140.833 238.501 139.664 238.588 138.663 239.1Z" fill="#CE9C7D"/>
<path d="M103.297 327.856C104.444 326.988 104.879 325.571 104.255 324.248C103.237 325.026 102.916 326.777 103.297 327.856Z" fill="#CE9C7D"/>
<path d="M137.577 277.409L139.649 278.805L140.563 278.551L140.303 277.638L139.112 276.971L137.577 277.409Z" fill="#CE9C7D"/>
<path d="M105.471 318.338L106.4 318.586L105.438 322.192L104.509 321.944L105.471 318.338Z" fill="#CE9C7D"/>
<path d="M105.758 331.828L107.037 332.783L108.573 332.345L107.287 331.391L105.758 331.828Z" fill="#CE9C7D"/>
<path d="M112.656 253.168L114.415 252.346L113.234 251.689L112.656 253.168Z" fill="#CE9C7D"/>
<path d="M97.3989 309.542L98.626 309.192L98.7984 309.796L97.5713 310.146L97.3989 309.542Z" fill="#CE9C7D"/>
<path d="M107.704 310.603L108.931 310.252L109.103 310.857L107.876 311.207L107.704 310.603Z" fill="#CE9C7D"/>
<path d="M78.1742 334.13C76.8619 336.098 74.7345 336.752 73.0903 338.281C72.3836 338.936 72.7309 340.504 70.8742 340.447L74.2674 344.16L75.8037 343.701L73.171 339.125L77.5543 338.221L80.7414 330.624C78.8585 330.054 78.7541 333.265 78.1804 334.128L78.1742 334.13Z" fill="#CE9C7D"/>
<path d="M64.0956 342.374C66.0034 342.33 64.8414 340.688 65.2013 339.472L61.6326 338.416L64.1035 342.379L64.0956 342.374Z" fill="#CE9C7D"/>
<path d="M84.078 325.958C83.4173 326.146 82.7289 325.764 82.5404 325.103C82.352 324.443 82.7347 323.754 83.3954 323.566C84.0561 323.377 84.7445 323.76 84.933 324.421C85.1214 325.081 84.7387 325.769 84.078 325.958Z" fill="#CE9C7D"/>
<path d="M75.5666 279.766L78.1932 284.344C77.4282 283.275 77.8405 278.643 75.5666 279.766Z" fill="#CE9C7D"/>
<path d="M66.1244 323.799C66.8937 325.093 68.4239 324.543 69.5497 324.142L69.2894 323.23L68.038 322.653L66.1244 323.799Z" fill="#CE9C7D"/>
<path d="M73.4309 319.048L73.7871 320.273L76.2475 319.571L75.7197 317.721L73.4309 319.048Z" fill="#CE9C7D"/>
<path d="M81.983 313.941L82.3313 315.161L84.9694 315.082L84.621 313.861L81.983 313.941Z" fill="#CE9C7D"/>
<path d="M61.4187 327.149L59.264 330.091C60.1668 330.006 61.9944 328.045 61.4187 327.149Z" fill="#CE9C7D"/>
<path d="M78.3171 287.115C77.8982 287.235 77.4618 286.992 77.3423 286.574C77.2228 286.155 77.4655 285.718 77.8844 285.599C78.3033 285.479 78.7397 285.722 78.8592 286.141C78.9787 286.56 78.736 286.996 78.3171 287.115Z" fill="#CE9C7D"/>
<path d="M58.9443 323.174C58.6016 323.492 58.6614 323.702 59.1203 323.791L58.9443 323.174Z" fill="#CE9C7D"/>
<path d="M221.513 288.799L222.426 291.813L225.556 291.307L223.919 296.108C222.512 297.229 221.668 293.503 221.948 292.683C220.929 292.733 221.737 293.65 221.279 294.241C220.08 295.789 218.544 294.728 220.276 298.487L223.179 296.999C224.401 301.024 220.725 302.14 217.812 303.871L219.4 305.185C220.611 307.513 215.2 312.084 213.712 313.669L213.84 315.659C214.864 316.234 221.14 309.882 221.273 309.411C221.447 308.808 220.715 307.877 220.889 307.154C221.035 306.545 224.249 303.341 224.832 301.808C225.965 298.818 225.959 293.652 228.026 290.615L221.517 288.812L221.513 288.799Z" fill="#CE9C7D"/>
<path d="M224.95 284.485L228.059 289.586L226.792 283.953L224.95 284.485Z" fill="#CE9C7D"/>
<path d="M208.679 225.118C209.554 227.788 212.284 226.956 214.306 226.166L208.679 225.118Z" fill="#CE9C7D"/>
<path d="M224.161 274.709L227.148 275.85L226.622 274.007L224.161 274.709Z" fill="#CE9C7D"/>
<path d="M221.962 264.661L223.189 264.311L222.751 262.776L221.562 262.115L221.962 264.661Z" fill="#CE9C7D"/>
<path d="M224.076 267.398L224.426 268.625L226.274 268.091L224.989 267.138L224.076 267.398Z" fill="#CE9C7D"/>
<path d="M147.96 295.103L150.22 293.512L152.716 288.425C149.372 288.813 148.807 292.534 147.954 295.105L147.96 295.103Z" fill="#CE9C7D"/>
<path d="M62.3867 304.856C62.044 305.174 62.1038 305.383 62.5626 305.473L62.3867 304.856Z" fill="#CE9C7D"/>
</g>
<defs>
<clipPath id="clip0_79_379">
<rect width="525" height="236" fill="white" transform="matrix(-0.961626 0.274365 0.274365 0.961626 504.854 0)"/>
</clipPath>
</defs>
</svg>
