<svg width="123" height="20" viewBox="0 0 123 20" fill="none" xmlns="http://www.w3.org/2000/svg">
<path d="M121.892 12.1339C121.781 12.0659 121.675 11.9857 121.565 11.9177C120.48 11.2539 119.285 10.8526 118.09 10.4604C115.2 9.51258 112.234 8.8426 109.255 8.23745C107.994 7.98118 106.732 7.72492 105.462 7.52423C105.373 7.44087 105.245 7.45631 105.143 7.40382C105.413 7.41617 105.683 7.44087 105.949 7.46248C106.015 7.46866 106.104 7.46866 106.104 7.36986C106.104 7.28032 106.042 7.25253 105.962 7.2618C105.825 7.24018 105.688 7.21548 105.546 7.19387C102.665 6.7431 99.8053 6.15338 96.9238 5.70878C94.8877 5.39386 92.8561 5.0141 90.8112 4.77327C88.4254 4.49231 86.0486 4.11255 83.654 3.88099C82.2243 3.74205 80.799 3.51975 79.365 3.41786C77.6299 3.29436 75.8904 3.18321 74.1597 3.03192C71.4155 2.7911 68.6978 2.31871 65.9623 1.97909C63.4969 1.67342 61.0315 1.37085 58.5617 1.10841C56.2999 0.870674 54.0381 0.669987 51.7674 0.512525C49.9305 0.385937 48.0937 0.253175 46.2568 0.191425C46.1904 0.179075 46.124 0.157462 46.0532 0.154375C46.0001 0.154375 45.9514 0.151287 45.8983 0.1482C45.6415 0.126587 45.3848 0.1235 45.1281 0.1235C43.8356 0.0833624 42.5388 0.0401375 41.2463 0H39.4537C39.4714 0.0154375 39.4935 0.0277875 39.5112 0.03705C39.6086 0.080275 39.7104 0.0524875 39.7989 0.120412C40.0999 0.120412 40.4009 0.188337 40.7063 0.151287C40.755 0.157462 40.8037 0.169812 40.8568 0.1729C43.3133 0.3458 45.7655 0.620587 48.2132 0.892287C51.5815 1.26587 54.941 1.71047 58.3005 2.16742C59.4337 2.3218 60.5668 2.48852 61.6999 2.64907C61.4919 2.7417 61.2794 2.72935 61.0714 2.72626C59.1415 2.70774 57.2073 2.70156 55.2774 2.74479C51.3956 2.83124 47.5227 3.06589 43.6497 3.34067C40.2504 3.5815 36.8555 3.88407 33.4694 4.28545C29.3752 4.77018 25.2898 5.3352 21.2265 6.04532C16.7958 6.8172 12.3962 7.74345 8.10715 9.139C6.18617 9.76576 4.28732 10.445 2.49027 11.3929C1.5165 11.9054 0.755191 12.6217 0.197487 13.5757C-0.103496 14.0913 -0.0636602 14.6533 0.339126 15.0855C0.520602 15.2769 0.702077 15.4684 0.918962 15.6166C3.02585 17.0615 5.3806 17.8766 7.84158 18.4231C7.88584 18.4416 7.9301 18.4663 7.97879 18.4756C10.0016 18.9295 12.0465 19.2289 14.1135 19.4018C16.9685 19.6396 19.8278 19.7569 22.6916 19.797C26.3388 19.8464 29.9904 19.8557 33.6376 19.8835C33.7261 19.9576 33.8279 19.9267 33.9297 19.9267C34.8017 19.9391 35.6781 19.9452 36.5501 19.9576C36.6873 19.9576 36.8334 19.9236 36.9617 20.0008H61.4122C61.4919 19.936 61.5848 19.9607 61.6733 19.9607C62.5453 19.9483 63.4217 19.9391 64.2937 19.9267C64.3999 19.9267 64.515 19.9607 64.6123 19.8804C68.3791 19.8125 72.1502 19.7384 75.9169 19.6056C79.6349 19.4759 83.353 19.3802 87.0666 19.2228C91.2715 19.0468 95.4764 18.8523 99.6813 18.596C100.332 18.5559 100.978 18.4818 101.624 18.4262L101.616 18.4138C101.616 18.42 101.616 18.4231 101.62 18.4293C101.669 18.4355 101.722 18.4478 101.771 18.4416C103.249 18.3058 104.736 18.1977 106.21 18.0217C109.069 17.6759 111.933 17.3425 114.766 16.7806C116.523 16.4317 118.267 16.0365 119.967 15.4715C120.409 15.3233 120.865 15.1874 121.25 14.8941C121.671 14.6841 121.963 14.3198 122.206 13.9462C122.614 13.3195 122.667 12.6093 121.892 12.137V12.1339ZM91.9753 5.38768C92.0859 5.35063 92.2143 5.41238 92.3294 5.36916C92.6436 5.50192 92.98 5.41856 93.3076 5.47105C94.7859 5.69952 96.2687 5.90638 97.7515 6.11633C97.9374 6.14412 98.1012 6.2738 98.3003 6.2244C98.2826 6.25836 98.2561 6.2738 98.2295 6.27997C98.2295 6.27997 98.2295 6.27997 98.2251 6.27997C98.1676 6.29541 98.1012 6.2738 98.0436 6.29541C98.1012 6.30467 98.1587 6.31393 98.2207 6.3232C98.1676 6.33555 98.1012 6.2985 98.0436 6.29541C96.6848 6.10707 95.3259 5.91256 93.9671 5.7304C93.3341 5.64703 92.7012 5.52662 92.0594 5.49575C92.0018 5.49575 91.9487 5.45561 91.8956 5.43708C91.9221 5.41238 91.9487 5.40003 91.9753 5.39077V5.38768ZM101.461 6.79867C101.434 6.7925 101.408 6.78632 101.385 6.78323C101.412 6.78941 101.434 6.7925 101.461 6.79867ZM2.85765 13.4461C3.29584 13.0786 3.82699 12.8749 4.30502 12.5754C4.39797 12.5414 4.49535 12.5105 4.58388 12.4673C5.49568 12.0351 6.41633 11.6306 7.36797 11.3002C10.8204 10.0992 14.3393 9.12047 17.9201 8.38564C21.6647 7.61686 25.4358 7.00862 29.2202 6.48375C31.4024 6.18117 33.5845 5.90638 35.7755 5.67482C38.0948 5.43091 40.4186 5.21787 42.7424 5.00792C45.2255 4.78562 47.713 4.63125 50.205 4.48922C52.8961 4.33485 55.5917 4.21135 58.2828 4.15886C62.5763 4.07859 66.8741 4.09711 71.172 4.15269C71.442 4.15577 71.7164 4.16195 71.9864 4.19591C73.3807 4.38116 74.775 4.58494 76.1692 4.76401C78.7409 5.09437 81.3036 5.51736 83.8708 5.86625C84.6543 5.97431 85.4377 6.12251 86.23 6.16882C86.8763 6.26762 87.5181 6.36951 88.1643 6.46213C89.5984 6.66282 91.0281 6.85733 92.4622 7.05493C94.3035 7.30502 96.1448 7.56128 97.9861 7.8052C99.5618 8.01206 101.129 8.26523 102.696 8.51841C106.4 9.12047 110.087 9.79972 113.739 10.6673C115.549 11.0965 117.36 11.538 119.099 12.208C119.449 12.3438 119.776 12.5167 120.06 12.773C120.361 13.0509 120.343 13.2701 119.984 13.4615C119.259 13.8474 118.466 14.0543 117.683 14.2766C115.2 14.9836 112.659 15.3912 110.105 15.7339C105.072 16.4131 100.009 16.7898 94.9408 17.0862C88.2749 17.4752 81.6002 17.6574 74.9299 17.8766C63.0853 18.2626 51.2363 18.3058 39.3873 18.2595C33.3942 18.2348 27.3966 18.1915 21.4035 18.1391C18.4557 18.1144 15.5122 18.0001 12.5776 17.7284C10.0901 17.4969 7.62912 17.1109 5.23896 16.3545C4.38912 16.0859 3.5924 15.6999 2.88863 15.1411C2.11404 14.5329 2.11404 14.0728 2.8665 13.4368L2.85765 13.4461Z" fill="white"/>
</svg>
