<svg width="360" height="199" viewBox="0 0 360 199" fill="none" xmlns="http://www.w3.org/2000/svg">
<path d="M0.0360827 21.9877L197.673 21.7352L197.655 0.21645L204.329 0.198413L204.599 198.845L220.021 198.809L219.751 0.180375H226.425L226.695 198.809L242.153 198.791L241.883 0.1443H248.557L248.827 198.773L264.267 198.755L263.997 0.126263L270.671 0.108225L270.941 198.755L286.381 198.737L286.111 0.0901875H292.785L293.055 198.719L308.495 198.701L308.225 0.0541125H314.899L315.169 198.701L330.609 198.665L330.339 0.036075L337.013 0.0180375L337.283 198.665L352.741 198.647L352.471 0H359.145H0L0.0360827 21.9877Z" fill="#F3E7D4"/>
</svg>
