<svg width="1440" height="1013" viewBox="0 0 1440 1013" fill="none" xmlns="http://www.w3.org/2000/svg">
<path d="M870.106 711.73L854.666 711.752L854.94 907.928L870.38 907.906L870.106 711.73Z" fill="#F3E7D4"/>
<path d="M1074.56 824.45L876.901 824.726L876.922 839.733L1074.58 839.457L1074.56 824.45Z" fill="#F3E7D4"/>
<path d="M1074.55 846.193L876.91 846.434L876.929 861.441L1074.57 861.2L1074.55 846.193Z" fill="#F3E7D4"/>
<path d="M1074.54 802.769L876.889 803.045L876.91 818.052L1074.56 817.776L1074.54 802.769Z" fill="#F3E7D4"/>
<path d="M1074.51 781.088L876.859 781.364L876.88 796.353L1074.53 796.077L1074.51 781.088Z" fill="#F3E7D4"/>
<path d="M715.421 846.181L517.784 846.422L517.802 861.429L715.439 861.188L715.421 846.181Z" fill="#F3E7D4"/>
<path d="M919.173 979.68L721.518 979.921L721.537 994.928L919.191 994.687L919.173 979.68Z" fill="#F3E7D4"/>
<path d="M1074.47 759.389L876.811 759.665L876.832 774.672L1074.49 774.396L1074.47 759.389Z" fill="#F3E7D4"/>
<path d="M715.5 513.137L517.864 513.413L517.885 528.42L715.521 528.144L715.5 513.137Z" fill="#F3E7D4"/>
<path d="M919.102 936.318L721.447 936.559L721.466 951.566L919.12 951.325L919.102 936.318Z" fill="#F3E7D4"/>
<path d="M919.163 914.511L721.526 914.787L721.547 929.795L919.184 929.519L919.163 914.511Z" fill="#F3E7D4"/>
<path d="M992.399 731.132L1007.82 731.114L1007.57 534.956L992.129 534.974L992.399 731.132Z" fill="#F3E7D4"/>
<path d="M919.221 581.522L721.566 581.797L721.587 596.805L919.242 596.529L919.221 581.522Z" fill="#F3E7D4"/>
<path d="M1051.8 534.872L1036.36 534.893L1036.64 731.051L1052.08 731.029L1051.8 534.872Z" fill="#F3E7D4"/>
<path d="M1074.51 737.654L876.852 737.93L876.873 752.937L1074.53 752.661L1074.51 737.654Z" fill="#F3E7D4"/>
<path d="M715.44 469.775L517.803 470.051L517.824 485.058L715.461 484.782L715.44 469.775Z" fill="#F3E7D4"/>
<path d="M715.349 448.166L517.713 448.407L517.731 463.414L715.368 463.173L715.349 448.166Z" fill="#F3E7D4"/>
<path d="M941.234 535.008L925.794 535.03L926.067 731.187L941.507 731.166L941.234 535.008Z" fill="#F3E7D4"/>
<path d="M560.24 711.676L517.654 711.736L517.681 731.252L560.267 731.193L560.24 711.676Z" fill="#F3E7D4"/>
<path d="M963.366 534.959L947.925 534.981L948.199 731.138L963.639 731.117L963.366 534.959Z" fill="#F3E7D4"/>
<path d="M1029.71 534.866L1014.27 534.888L1014.54 731.046L1029.98 731.024L1029.71 534.866Z" fill="#F3E7D4"/>
<path d="M985.48 534.928L970.039 534.95L970.313 731.107L985.753 731.086L985.48 534.928Z" fill="#F3E7D4"/>
<path d="M715.47 491.456L517.833 491.732L517.854 506.739L715.491 506.463L715.47 491.456Z" fill="#F3E7D4"/>
<path d="M919.128 957.999L721.474 958.24L721.492 973.247L919.147 973.006L919.128 957.999Z" fill="#F3E7D4"/>
<path d="M737.459 711.879L722.019 711.901L722.293 908.077L737.733 908.055L737.459 711.879Z" fill="#F3E7D4"/>
<path d="M759.573 711.849L744.133 711.87L744.406 908.046L759.847 908.024L759.573 711.849Z" fill="#F3E7D4"/>
<path d="M803.8 711.787L788.36 711.808L788.634 907.984L804.074 907.963L803.8 711.787Z" fill="#F3E7D4"/>
<path d="M715.376 824.5L517.74 824.741L517.758 839.748L715.395 839.507L715.376 824.5Z" fill="#F3E7D4"/>
<path d="M781.687 711.836L766.246 711.857L766.52 908.033L781.96 908.011L781.687 711.836Z" fill="#F3E7D4"/>
<path d="M825.914 711.774L810.474 711.796L810.748 907.971L826.188 907.95L825.914 711.774Z" fill="#F3E7D4"/>
<path d="M919.27 690.088L721.615 690.329L721.634 705.336L919.289 705.095L919.27 690.088Z" fill="#F3E7D4"/>
<path d="M715.418 802.747L517.781 803.023L517.802 818.03L715.439 817.754L715.418 802.747Z" fill="#F3E7D4"/>
<path d="M919.296 711.787L876.71 711.839L876.734 731.355L919.32 731.303L919.296 711.787Z" fill="#F3E7D4"/>
<path d="M715.387 781.066L517.751 781.342L517.772 796.331L715.408 796.055L715.387 781.066Z" fill="#F3E7D4"/>
<path d="M715.297 759.438L517.66 759.68L517.678 774.687L715.315 774.446L715.297 759.438Z" fill="#F3E7D4"/>
<path d="M919.146 603.364L721.491 603.605L721.51 618.612L919.164 618.371L919.146 603.364Z" fill="#F3E7D4"/>
<path d="M692.695 534.85L677.255 534.871L677.529 731.029L692.969 731.008L692.695 534.85Z" fill="#F3E7D4"/>
<path d="M848.046 711.725L832.606 711.747L832.88 907.922L848.32 907.901L848.046 711.725Z" fill="#F3E7D4"/>
<path d="M648.467 534.912L633.027 534.933L633.301 731.091L648.741 731.069L648.467 534.912Z" fill="#F3E7D4"/>
<path d="M611.123 731.168L626.599 731.15L626.31 534.974L610.87 534.992L611.123 731.168Z" fill="#F3E7D4"/>
<path d="M604.221 534.973L588.799 534.995L589.073 731.153L604.495 731.131L604.221 534.973Z" fill="#F3E7D4"/>
<path d="M670.581 534.881L655.141 534.902L655.415 731.06L670.855 731.038L670.581 534.881Z" fill="#F3E7D4"/>
<path d="M714.809 534.819L699.369 534.841L699.643 730.998L715.083 730.977L714.809 534.819Z" fill="#F3E7D4"/>
<path d="M919.217 646.744L721.562 646.985L721.581 661.992L919.235 661.751L919.217 646.744Z" fill="#F3E7D4"/>
<path d="M919.226 668.425L721.571 668.666L721.589 683.673L919.244 683.432L919.226 668.425Z" fill="#F3E7D4"/>
<path d="M919.191 625.027L721.536 625.268L721.554 640.275L919.209 640.034L919.191 625.027Z" fill="#F3E7D4"/>
<path d="M715.345 737.668L517.708 737.944L517.729 752.951L715.366 752.675L715.345 737.668Z" fill="#F3E7D4"/>
<path d="M560.095 646.687L362.441 646.963L362.462 661.97L560.116 661.694L560.095 646.687Z" fill="#F3E7D4"/>
<path d="M985.506 889.563L970.066 889.585L970.34 1085.76L985.78 1085.74L985.506 889.563Z" fill="#F3E7D4"/>
<path d="M963.392 889.594L947.952 889.616L948.226 1085.79L963.666 1085.77L963.392 889.594Z" fill="#F3E7D4"/>
<path d="M1007.57 889.591L992.129 889.61L992.399 1085.79L1007.82 1085.77L1007.57 889.591Z" fill="#F3E7D4"/>
<path d="M941.278 889.625L925.838 889.646L926.112 1085.82L941.552 1085.8L941.278 889.625Z" fill="#F3E7D4"/>
<path d="M1029.73 889.501L1014.29 889.523L1014.57 1085.7L1030.01 1085.68L1029.73 889.501Z" fill="#F3E7D4"/>
<path d="M670.607 889.534L655.167 889.555L655.441 1085.73L670.881 1085.71L670.607 889.534Z" fill="#F3E7D4"/>
<path d="M1051.85 889.471L1036.41 889.492L1036.68 1085.67L1052.12 1085.65L1051.85 889.471Z" fill="#F3E7D4"/>
<path d="M648.493 889.565L633.053 889.586L633.327 1085.76L648.767 1085.74L648.493 889.565Z" fill="#F3E7D4"/>
<path d="M714.835 889.472L699.395 889.494L699.669 1085.67L715.109 1085.65L714.835 889.472Z" fill="#F3E7D4"/>
<path d="M692.721 889.503L677.281 889.524L677.555 1085.7L692.995 1085.68L692.721 889.503Z" fill="#F3E7D4"/>
<path d="M781.598 357.302L766.158 357.321L766.398 553.478L781.838 553.459L781.598 357.302Z" fill="#F3E7D4"/>
<path d="M737.37 357.356L721.93 357.375L722.17 553.532L737.61 553.513L737.37 357.356Z" fill="#F3E7D4"/>
<path d="M759.484 357.347L744.044 357.366L744.284 553.523L759.724 553.504L759.484 357.347Z" fill="#F3E7D4"/>
<path d="M510.927 357.164L495.487 357.182L495.727 553.358L511.167 553.339L510.927 357.164Z" fill="#F3E7D4"/>
<path d="M626.31 889.628L610.87 889.646L611.123 1085.82L626.599 1085.8L626.31 889.628Z" fill="#F3E7D4"/>
<path d="M715.367 404.678L517.73 404.954L517.751 419.961L715.388 419.685L715.367 404.678Z" fill="#F3E7D4"/>
<path d="M825.826 357.248L810.386 357.267L810.626 553.442L826.066 553.423L825.826 357.248Z" fill="#F3E7D4"/>
<path d="M870.054 357.194L854.614 357.213L854.853 553.388L870.293 553.369L870.054 357.194Z" fill="#F3E7D4"/>
<path d="M582.353 731.204L582.082 535.028L566.642 535.064L566.931 731.222L582.353 731.204Z" fill="#F3E7D4"/>
<path d="M1074.51 404.646L876.857 404.922L876.877 419.929L1074.53 419.653L1074.51 404.646Z" fill="#F3E7D4"/>
<path d="M1073.98 889.44L1058.54 889.461L1058.81 1085.64L1074.25 1085.62L1073.98 889.44Z" fill="#F3E7D4"/>
<path d="M847.958 357.221L832.518 357.24L832.757 553.415L848.198 553.396L847.958 357.221Z" fill="#F3E7D4"/>
<path d="M803.712 357.275L788.272 357.294L788.512 553.469L803.952 553.45L803.712 357.275Z" fill="#F3E7D4"/>
<path d="M559.976 936.287L362.339 936.529L362.357 951.536L559.994 951.295L559.976 936.287Z" fill="#F3E7D4"/>
<path d="M400.374 711.899L384.934 711.921L385.208 908.096L400.648 908.075L400.374 711.899Z" fill="#F3E7D4"/>
<path d="M560.019 979.641L362.382 979.917L362.403 994.924L560.04 994.648L560.019 979.641Z" fill="#F3E7D4"/>
<path d="M560.228 689.995L362.573 690.271L362.594 705.278L560.249 705.002L560.228 689.995Z" fill="#F3E7D4"/>
<path d="M488.814 357.191L473.373 357.209L473.613 553.385L489.053 553.366L488.814 357.191Z" fill="#F3E7D4"/>
<path d="M560.017 603.307L362.38 603.583L362.401 618.59L560.038 618.314L560.017 603.307Z" fill="#F3E7D4"/>
<path d="M560.077 581.554L362.44 581.83L362.461 596.837L560.098 596.561L560.077 581.554Z" fill="#F3E7D4"/>
<path d="M560.091 1001.35L362.436 1001.59L362.455 1016.6L560.11 1016.36L560.091 1001.35Z" fill="#F3E7D4"/>
<path d="M560.108 668.368L362.453 668.644L362.474 683.651L560.129 683.375L560.108 668.368Z" fill="#F3E7D4"/>
<path d="M560.047 624.988L362.41 625.264L362.431 640.271L560.068 639.995L560.047 624.988Z" fill="#F3E7D4"/>
<path d="M511.016 711.727L495.576 711.748L495.85 907.924L511.29 907.902L511.016 711.727Z" fill="#F3E7D4"/>
<path d="M919.182 889.638L877.101 889.697L877.126 907.86L919.207 907.802L919.182 889.638Z" fill="#F3E7D4"/>
<path d="M378.278 711.93L362.838 711.952L363.112 908.127L378.552 908.106L378.278 711.93Z" fill="#F3E7D4"/>
<path d="M715.341 426.485L517.704 426.726L517.723 441.733L715.359 441.492L715.341 426.485Z" fill="#F3E7D4"/>
<path d="M559.918 535.116L517.837 535.167L517.859 553.331L559.94 553.279L559.918 535.116Z" fill="#F3E7D4"/>
<path d="M582.082 889.682L566.642 889.7L566.931 1085.88L582.353 1085.86L582.082 889.682Z" fill="#F3E7D4"/>
<path d="M1074.49 426.515L876.831 426.756L876.849 441.763L1074.5 441.522L1074.49 426.515Z" fill="#F3E7D4"/>
<path d="M604.248 889.626L588.825 889.648L589.099 1085.82L604.521 1085.8L604.248 889.626Z" fill="#F3E7D4"/>
<path d="M919.218 1001.36L721.563 1001.6L721.581 1016.61L919.236 1016.37L919.218 1001.36Z" fill="#F3E7D4"/>
<path d="M560.038 889.652L517.956 889.711L517.982 907.875L560.063 907.816L560.038 889.652Z" fill="#F3E7D4"/>
<path d="M1073.95 534.787L1058.51 534.808L1058.79 730.966L1074.23 730.944L1073.95 534.787Z" fill="#F3E7D4"/>
<path d="M919.063 535.146L876.981 535.197L877.003 553.361L919.085 553.31L919.063 535.146Z" fill="#F3E7D4"/>
<path d="M559.989 957.96L362.352 958.236L362.373 973.243L560.01 972.967L559.989 957.96Z" fill="#F3E7D4"/>
<path d="M1388.85 534.852L1373.41 534.874L1373.69 731.031L1389.13 731.01L1388.85 534.852Z" fill="#F3E7D4"/>
<path d="M1285.18 376.569L1300.61 376.551L1300.35 180.393L1284.91 180.411L1285.18 376.569Z" fill="#F3E7D4"/>
<path d="M1433.1 534.79L1417.64 534.812L1417.91 730.969L1433.37 730.948L1433.1 534.79Z" fill="#F3E7D4"/>
<path d="M1344.58 180.442L1329.14 180.461L1329.38 376.636L1344.82 376.618L1344.58 180.442Z" fill="#F3E7D4"/>
<path d="M1410.95 534.821L1395.53 534.843L1395.8 731L1411.22 730.979L1410.95 534.821Z" fill="#F3E7D4"/>
<path d="M1322.45 180.451L1307.01 180.47L1307.25 376.645L1322.69 376.627L1322.45 180.451Z" fill="#F3E7D4"/>
<path d="M1278.24 180.317L1236.14 180.376L1236.16 198.54L1278.26 198.481L1278.24 180.317Z" fill="#F3E7D4"/>
<path d="M1433.04 180.316L1417.58 180.335L1417.82 376.51L1433.28 376.491L1433.04 180.316Z" fill="#F3E7D4"/>
<path d="M1410.91 180.361L1395.49 180.38L1395.73 376.555L1411.15 376.537L1410.91 180.361Z" fill="#F3E7D4"/>
<path d="M1388.81 180.388L1373.37 180.407L1373.61 376.582L1389.05 376.564L1388.81 180.388Z" fill="#F3E7D4"/>
<path d="M1366.73 180.176L1351.29 180.197L1351.56 376.373L1367 376.351L1366.73 180.176Z" fill="#F3E7D4"/>
<path d="M1433.12 889.389L1417.67 889.411L1417.94 1085.59L1433.4 1085.56L1433.12 889.389Z" fill="#F3E7D4"/>
<path d="M1344.67 889.513L1329.23 889.534L1329.5 1085.71L1344.94 1085.69L1344.67 889.513Z" fill="#F3E7D4"/>
<path d="M1388.9 889.451L1373.46 889.472L1373.73 1085.65L1389.17 1085.63L1388.9 889.451Z" fill="#F3E7D4"/>
<path d="M1366.78 889.482L1351.34 889.503L1351.62 1085.68L1367.06 1085.66L1366.78 889.482Z" fill="#F3E7D4"/>
<path d="M1285.18 1085.88L1300.61 1085.86L1300.35 889.682L1284.91 889.7L1285.18 1085.88Z" fill="#F3E7D4"/>
<path d="M1344.62 534.914L1329.18 534.935L1329.46 731.093L1344.9 731.071L1344.62 534.914Z" fill="#F3E7D4"/>
<path d="M1322.49 534.927L1307.05 534.948L1307.33 731.106L1322.77 731.084L1322.49 534.927Z" fill="#F3E7D4"/>
<path d="M1366.74 534.865L1351.3 534.886L1351.57 731.044L1367.01 731.022L1366.74 534.865Z" fill="#F3E7D4"/>
<path d="M1285.18 731.222L1300.61 731.204L1300.35 535.028L1284.91 535.064L1285.18 731.222Z" fill="#F3E7D4"/>
<path d="M1278.27 205.379L1080.62 205.62L1080.64 220.627L1278.29 220.386L1278.27 205.379Z" fill="#F3E7D4"/>
<path d="M1410.99 889.42L1395.57 889.442L1395.84 1085.62L1411.27 1085.6L1410.99 889.42Z" fill="#F3E7D4"/>
<path d="M1322.54 889.544L1307.1 889.565L1307.37 1085.74L1322.81 1085.72L1322.54 889.544Z" fill="#F3E7D4"/>
<path d="M19.1881 711.944L3.74804 711.966L4.02195 908.142L19.462 908.12L19.1881 711.944Z" fill="#F3E7D4"/>
<path d="M41.1778 711.921L25.7377 711.94L25.9774 908.116L41.4175 908.097L41.1778 711.921Z" fill="#F3E7D4"/>
<path d="M63.416 711.883L47.9759 711.904L48.2498 908.08L63.6899 908.058L63.416 711.883Z" fill="#F3E7D4"/>
<path d="M85.4056 711.867L69.9655 711.886L70.2052 908.062L85.6453 908.043L85.4056 711.867Z" fill="#F3E7D4"/>
<path d="M129.713 357.137L114.273 357.159L114.547 553.334L129.987 553.313L129.713 357.137Z" fill="#F3E7D4"/>
<path d="M107.6 357.186L92.1775 357.208L92.4514 553.383L107.873 553.362L107.6 357.186Z" fill="#F3E7D4"/>
<path d="M107.52 711.84L92.0975 711.859L92.3372 908.035L107.759 908.016L107.52 711.84Z" fill="#F3E7D4"/>
<path d="M85.4856 357.199L70.0455 357.22L70.3194 553.396L85.7595 553.374L85.4856 357.199Z" fill="#F3E7D4"/>
<path d="M560.02 205.22L362.383 205.496L362.404 220.503L560.041 220.227L560.02 205.22Z" fill="#F3E7D4"/>
<path d="M151.816 357.124L136.376 357.143L136.628 553.318L152.086 553.3L151.816 357.124Z" fill="#F3E7D4"/>
<path d="M919.111 205.349L721.474 205.59L721.492 220.597L919.129 220.356L919.111 205.349Z" fill="#F3E7D4"/>
<path d="M63.3717 357.23L47.9316 357.251L48.2055 553.409L63.6456 553.387L63.3717 357.23Z" fill="#F3E7D4"/>
<path d="M151.816 711.778L136.376 711.796L136.628 907.972L152.086 907.954L151.816 711.778Z" fill="#F3E7D4"/>
<path d="M129.758 711.79L114.318 711.812L114.592 907.987L130.032 907.966L129.758 711.79Z" fill="#F3E7D4"/>
<path d="M19.1439 357.291L3.70378 357.313L3.97767 553.471L19.4178 553.449L19.1439 357.291Z" fill="#F3E7D4"/>
<path d="M41.2578 357.279L25.8177 357.3L26.0916 553.458L41.5317 553.436L41.2578 357.279Z" fill="#F3E7D4"/>
<path d="M560.028 559.873L362.392 560.149L362.413 575.156L560.049 574.88L560.028 559.873Z" fill="#F3E7D4"/>
<path d="M1118.7 711.816L1103.26 711.838L1103.53 908.013L1118.97 907.992L1118.7 711.816Z" fill="#F3E7D4"/>
<path d="M1140.83 711.803L1125.39 711.825L1125.66 908.001L1141.1 907.979L1140.83 711.803Z" fill="#F3E7D4"/>
<path d="M488.902 711.758L473.462 711.779L473.736 907.955L489.176 907.933L488.902 711.758Z" fill="#F3E7D4"/>
<path d="M1081.34 908.134L1096.8 908.116L1096.53 711.958L1081.11 711.976L1081.34 908.134Z" fill="#F3E7D4"/>
<path d="M1118.61 357.377L1103.17 357.396L1103.41 553.554L1118.85 553.535L1118.61 357.377Z" fill="#F3E7D4"/>
<path d="M1081.34 553.481L1096.8 553.463L1096.53 357.305L1081.11 357.323L1081.34 553.481Z" fill="#F3E7D4"/>
<path d="M1191.93 907.99L1207.37 907.972L1207.1 711.796L1191.68 711.832L1191.93 907.99Z" fill="#F3E7D4"/>
<path d="M1162.93 711.754L1147.49 711.776L1147.76 907.952L1163.2 907.93L1162.93 711.754Z" fill="#F3E7D4"/>
<path d="M1169.82 908.026L1185.26 908.008L1185 711.832L1169.55 711.85L1169.82 908.026Z" fill="#F3E7D4"/>
<path d="M559.928 914.598L362.292 914.874L362.313 929.881L559.949 929.605L559.928 914.598Z" fill="#F3E7D4"/>
<path d="M422.56 711.85L407.12 711.872L407.394 908.047L422.834 908.026L422.56 711.85Z" fill="#F3E7D4"/>
<path d="M1074.64 513.123L877.008 513.399L877.029 528.406L1074.67 528.13L1074.64 513.123Z" fill="#F3E7D4"/>
<path d="M444.674 711.819L429.234 711.841L429.508 908.017L444.948 907.995L444.674 711.819Z" fill="#F3E7D4"/>
<path d="M466.788 711.806L451.348 711.828L451.622 908.004L467.062 907.982L466.788 711.806Z" fill="#F3E7D4"/>
<path d="M1074.56 491.54L876.928 491.781L876.946 506.788L1074.58 506.547L1074.56 491.54Z" fill="#F3E7D4"/>
<path d="M1074.69 867.722L877.052 867.998L877.073 883.005L1074.71 882.729L1074.69 867.722Z" fill="#F3E7D4"/>
<path d="M715.544 867.754L517.908 868.03L517.929 883.037L715.565 882.761L715.544 867.754Z" fill="#F3E7D4"/>
<path d="M1074.54 469.859L876.884 470.1L876.902 485.107L1074.56 484.866L1074.54 469.859Z" fill="#F3E7D4"/>
<path d="M1140.74 357.332L1125.3 357.351L1125.54 553.509L1140.98 553.49L1140.74 357.332Z" fill="#F3E7D4"/>
<path d="M1074.51 448.196L876.857 448.437L876.875 463.444L1074.53 463.203L1074.51 448.196Z" fill="#F3E7D4"/>
<path d="M919.155 559.841L721.518 560.116L721.539 575.124L919.176 574.848L919.155 559.841Z" fill="#F3E7D4"/>
<path d="M333.595 889.517L318.155 889.539L318.429 1085.71L333.869 1085.69L333.595 889.517Z" fill="#F3E7D4"/>
<path d="M355.709 889.486L340.269 889.508L340.543 1085.68L355.983 1085.66L355.709 889.486Z" fill="#F3E7D4"/>
<path d="M245.07 535.01L229.63 535.028L229.9 731.186L245.322 731.168L245.07 535.01Z" fill="#F3E7D4"/>
<path d="M267.184 534.974L251.744 534.992L251.996 731.168L267.436 731.15L267.184 534.974Z" fill="#F3E7D4"/>
<path d="M289.248 534.977L273.807 534.996L274.047 731.154L289.487 731.135L289.248 534.977Z" fill="#F3E7D4"/>
<path d="M245.07 889.664L229.63 889.682L229.9 1085.84L245.322 1085.82L245.07 889.664Z" fill="#F3E7D4"/>
<path d="M1162.84 357.305L1147.4 357.324L1147.64 553.5L1163.08 553.481L1162.84 357.305Z" fill="#F3E7D4"/>
<path d="M311.362 534.95L295.921 534.969L296.161 731.127L311.601 731.108L311.362 534.95Z" fill="#F3E7D4"/>
<path d="M267.184 889.628L251.744 889.646L251.996 1085.82L267.436 1085.8L267.184 889.628Z" fill="#F3E7D4"/>
<path d="M289.349 889.579L273.909 889.601L274.183 1085.78L289.623 1085.75L289.349 889.579Z" fill="#F3E7D4"/>
<path d="M311.463 889.548L296.023 889.57L296.297 1085.75L311.737 1085.72L311.463 889.548Z" fill="#F3E7D4"/>
<path d="M1278.36 292.103L1080.71 292.344L1080.72 307.351L1278.38 307.11L1278.36 292.103Z" fill="#F3E7D4"/>
<path d="M1278.31 248.741L1080.65 248.982L1080.67 263.989L1278.33 263.748L1278.31 248.741Z" fill="#F3E7D4"/>
<path d="M333.493 534.923L318.053 534.942L318.293 731.1L333.733 731.081L333.493 534.923Z" fill="#F3E7D4"/>
<path d="M1191.93 553.336L1207.37 553.318L1207.1 357.161L1191.68 357.179L1191.93 553.336Z" fill="#F3E7D4"/>
<path d="M1169.82 553.372L1185.26 553.354L1185 357.179L1169.55 357.197L1169.82 553.372Z" fill="#F3E7D4"/>
<path d="M1278.33 270.422L1080.68 270.663L1080.7 285.67L1278.35 285.429L1278.33 270.422Z" fill="#F3E7D4"/>
<path d="M355.701 534.833L340.261 534.855L340.534 731.013L355.975 730.991L355.701 534.833Z" fill="#F3E7D4"/>
<path d="M715.27 383.122L517.633 383.364L517.652 398.371L715.288 398.13L715.27 383.122Z" fill="#F3E7D4"/>
<path d="M1278.41 313.802L1080.73 314.043L1080.75 329.051L1278.42 328.809L1278.41 313.802Z" fill="#F3E7D4"/>
<path d="M1074.43 383.153L876.778 383.394L876.796 398.401L1074.45 398.16L1074.43 383.153Z" fill="#F3E7D4"/>
<path d="M289.283 180.324L273.843 180.343L274.083 376.519L289.523 376.5L289.283 180.324Z" fill="#F3E7D4"/>
<path d="M1278.31 889.605L1236.21 889.664L1236.23 907.828L1278.33 907.769L1278.31 889.605Z" fill="#F3E7D4"/>
<path d="M1278.19 535.176L1236.09 535.228L1236.11 553.391L1278.21 553.34L1278.19 535.176Z" fill="#F3E7D4"/>
<path d="M1278.42 711.817L1235.84 711.869L1235.86 731.386L1278.45 731.334L1278.42 711.817Z" fill="#F3E7D4"/>
<path d="M670.542 180.327L655.102 180.346L655.341 376.522L670.781 376.503L670.542 180.327Z" fill="#F3E7D4"/>
<path d="M356.374 513.152L158.719 513.428L158.74 528.435L356.395 528.159L356.374 513.152Z" fill="#F3E7D4"/>
<path d="M311.397 180.297L295.957 180.316L296.197 376.492L311.637 376.473L311.397 180.297Z" fill="#F3E7D4"/>
<path d="M222.941 180.405L207.501 180.424L207.741 376.6L223.181 376.581L222.941 180.405Z" fill="#F3E7D4"/>
<path d="M333.529 180.27L318.089 180.289L318.329 376.465L333.769 376.446L333.529 180.27Z" fill="#F3E7D4"/>
<path d="M229.9 376.551L245.322 376.533L245.07 180.357L229.63 180.375L229.9 376.551Z" fill="#F3E7D4"/>
<path d="M251.996 376.515L267.436 376.497L267.184 180.321L251.744 180.339L251.996 376.515Z" fill="#F3E7D4"/>
<path d="M560.011 226.981L362.374 227.223L362.393 242.23L560.029 241.988L560.011 226.981Z" fill="#F3E7D4"/>
<path d="M611.123 376.515L626.599 376.497L626.31 180.321L610.87 180.339L611.123 376.515Z" fill="#F3E7D4"/>
<path d="M648.428 180.336L632.988 180.355L633.227 376.531L648.667 376.512L648.428 180.336Z" fill="#F3E7D4"/>
<path d="M566.931 376.569L582.353 376.551L582.082 180.393L566.642 180.411L566.931 376.569Z" fill="#F3E7D4"/>
<path d="M604.182 180.39L588.76 180.409L588.999 376.585L604.421 376.566L604.182 180.39Z" fill="#F3E7D4"/>
<path d="M355.643 180.225L340.203 180.244L340.443 376.42L355.883 376.401L355.643 180.225Z" fill="#F3E7D4"/>
<path d="M356.162 383.092L158.507 383.334L158.525 398.341L356.18 398.099L356.162 383.092Z" fill="#F3E7D4"/>
<path d="M222.963 535.037L207.523 535.058L207.797 731.216L223.237 731.194L222.963 535.037Z" fill="#F3E7D4"/>
<path d="M1278.5 356.994L1235.92 357.054L1235.94 376.57L1278.53 376.511L1278.5 356.994Z" fill="#F3E7D4"/>
<path d="M356.219 737.682L158.564 737.958L158.585 752.966L356.24 752.69L356.219 737.682Z" fill="#F3E7D4"/>
<path d="M222.971 889.69L207.531 889.711L207.805 1085.89L223.245 1085.87L222.971 889.69Z" fill="#F3E7D4"/>
<path d="M356.418 867.787L158.764 868.063L158.784 883.07L356.439 882.794L356.418 867.787Z" fill="#F3E7D4"/>
<path d="M201.114 711.709L158.527 711.768L158.555 731.285L201.141 731.225L201.114 711.709Z" fill="#F3E7D4"/>
<path d="M201.043 357.073L158.457 357.125L158.481 376.642L201.067 376.59L201.043 357.073Z" fill="#F3E7D4"/>
<path d="M200.792 535.086L158.692 535.137L158.715 553.301L200.814 553.249L200.792 535.086Z" fill="#F3E7D4"/>
<path d="M200.875 889.703L158.776 889.762L158.801 907.925L200.901 907.867L200.875 889.703Z" fill="#F3E7D4"/>
<path d="M517.652 21.9877L715.307 21.7352L715.271 0.21645L721.945 0.198413L722.216 198.845L737.656 198.809L737.385 0.180375H744.059L744.33 198.809L759.77 198.791L759.499 0.1443H766.173L766.444 198.773L781.884 198.755L781.613 0.126263L788.287 0.108225L788.558 198.755L803.998 198.737L803.727 0.0901875H810.419L810.672 198.719L826.13 198.701L825.859 0.0541125H832.533L832.804 198.701L848.244 198.665L847.973 0.036075L854.647 0.0180375L854.918 198.665L870.358 198.647L870.087 0H876.761H517.634L517.652 21.9877Z" fill="#F3E7D4"/>
<path d="M-0.853538 1064.16V1059.94L201.058 1059.69L201.04 1044.68L-0.889613 1044.95L-0.90765 1038.26L201.04 1038L201.022 1023L-0.925688 1023.25V1016.58L201.004 1016.32L200.986 1001.32L-0.943725 1001.57L-0.961763 994.894L200.986 994.624L200.95 979.617L-0.9798 979.887V973.195L200.95 972.943L200.932 957.936L-0.997838 958.206L-1.01588 951.514L200.914 951.262L200.896 936.236L-1.03391 936.507L-1.05195 929.833L200.896 929.562L200.878 914.555L-1.06999 914.826V909.974H-2.72944L-3 709.523V1064.16H-0.853538Z" fill="#F3E7D4"/>
<path d="M-3 0.21645L3.67387 0.198413L3.94444 198.845L19.4026 198.809L19.114 0.180375H25.7878L26.0765 198.809L41.4985 198.791L41.2279 0.1443H47.9018L48.1724 198.773L63.6125 198.755L63.36 0.126263L70.0338 0.108225L70.2864 198.755L85.7445 198.737L85.4559 0.0901875H92.1478L92.4184 198.719L107.84 198.701L107.588 0.0541125H114.262L114.514 198.701L129.954 198.665L129.702 0.036075L136.376 0.0180375L136.628 198.665L152.086 198.647L151.816 0H158.49H-3V0.21645Z" fill="#F3E7D4"/>
<path d="M-0.853538 709.505V705.302L201.058 705.032L201.04 690.025L-0.889613 690.295L-0.90765 683.621L201.04 683.351L201.022 668.343L-0.925688 668.596V661.922L201.004 661.652L200.986 646.662L-0.943725 646.915L-0.961763 640.241L200.986 639.97L200.95 624.963L-0.9798 625.234V618.542L200.95 618.289L200.932 603.282L-0.997838 603.553L-1.01588 596.861L200.914 596.608L200.896 581.583L-1.03391 581.854L-1.05195 575.18L200.896 574.909L200.878 559.902L-1.06999 560.173V555.32H-2.72944L-3 354.852V709.523L-0.853538 709.505Z" fill="#F3E7D4"/>
<path d="M1235.89 0L1235.92 21.9877L1437.85 21.7352V28.4091L1235.92 28.6616L1235.94 43.6688L1437.89 43.3982L1437.91 50.0901L1235.96 50.3607L1235.98 65.3499L1437.93 65.0973V71.7712L1236 72.0418L1236.01 87.049L1437.94 86.7784V93.4523L1236.01 93.7228L1236.03 108.73L1437.98 108.478V115.151L1236.05 115.404L1236.07 130.411L1438 130.159V136.832L1236.09 137.103L1236.1 152.092L1438.03 151.84V158.514L1236.1 158.784L1236.12 173.791L1438.07 173.521V178.391H1439.73L1440 378.842V0H1235.89Z" fill="#F3E7D4"/>
<path d="M200.841 180.397L158.742 180.456L158.767 198.619L200.866 198.561L200.841 180.397Z" fill="#F3E7D4"/>
<path d="M876.797 21.9877L1074.45 21.7352L1074.42 0.21645L1081.09 0.198413L1081.34 198.845L1096.8 198.809L1096.53 0.180375H1103.2L1103.47 198.809L1118.91 198.791L1118.64 0.1443H1125.34L1125.59 198.773L1141.03 198.755L1140.76 0.126263L1147.43 0.108225L1147.7 198.755L1163.14 198.737L1162.87 0.0901875H1169.55L1169.82 198.719L1185.26 198.701L1185 0.0541125H1191.68L1191.93 198.701L1207.37 198.665L1207.1 0.036075L1213.77 0.0180375L1214.04 198.665L1229.48 198.647L1229.21 0H1235.89H876.761L876.797 21.9877Z" fill="#F3E7D4"/>
<path d="M1437.85 383.062L1235.92 383.315L1235.94 398.322L1437.89 398.052L1437.91 404.743L1235.96 404.996L1235.98 420.003L1437.93 419.751V426.425L1236 426.695L1236.01 441.702L1437.94 441.432V448.124L1236.01 448.376L1236.03 463.383L1437.98 463.113V469.805L1236.05 470.057L1236.07 485.064L1438 484.812V491.486L1236.09 491.738L1236.1 506.764L1438.03 506.493V513.167L1236.1 513.437L1236.12 528.445L1438.07 528.174V533.044L1439.73 533.026L1440 733.477V378.842H1437.85V383.062Z" fill="#F3E7D4"/>
<path d="M158.526 21.9877L356.163 21.7352L356.145 0.21645L362.819 0.198413L363.089 198.845L378.511 198.809L378.241 0.180375H384.914L385.185 198.809L400.643 198.791L400.373 0.1443H407.046L407.317 198.773L422.757 198.755L422.487 0.126263L429.16 0.108225L429.431 198.755L444.871 198.737L444.601 0.0901875H451.274L451.545 198.719L466.985 198.701L466.715 0.0541125H473.388L473.659 198.701L489.099 198.665L488.829 0.036075L495.502 0.0180375L495.773 198.665L511.231 198.647L510.96 0H517.634H158.49L158.526 21.9877Z" fill="#F3E7D4"/>
<path d="M-0.853538 354.852V350.649L201.058 350.378L201.04 335.371L-0.889613 335.642L-0.90765 328.95L201.04 328.697L201.022 313.69L-0.925688 313.961V307.269L201.004 307.016L200.986 292.009L-0.943725 292.262L-0.961763 285.588L200.986 285.317L200.95 270.31L-0.9798 270.581V263.907L200.95 263.636L200.932 248.629L-0.997838 248.881L-1.01588 242.208L200.914 241.955L200.896 226.948L-1.03391 227.218L-1.05195 220.526L200.896 220.274L200.878 205.267L-1.06999 205.519V200.667H-2.72944L-3 0.21645V354.852H-0.853538Z" fill="#F3E7D4"/>
<path d="M1437.85 737.698L1235.92 737.968L1235.94 752.975L1437.89 752.705L1437.91 759.379L1235.96 759.649L1235.98 774.657L1437.93 774.404V781.078L1236 781.348L1236.01 796.356L1437.94 796.085V802.759L1236.01 803.03L1236.03 818.037L1437.98 817.784V824.458L1236.05 824.711L1236.07 839.718L1438 839.465V846.139L1236.09 846.392L1236.1 861.399L1438.03 861.146V867.82L1236.1 868.091L1236.12 883.098L1438.07 882.827V887.68H1439.73L1440 1088.13V733.477L1437.85 733.495V737.698Z" fill="#F3E7D4"/>
<path d="M1074.45 28.4996L876.795 28.7411L876.814 43.7483L1074.47 43.5068L1074.45 28.4996Z" fill="#F3E7D4"/>
<path d="M356.179 28.4392L158.524 28.6807L158.543 43.6878L356.198 43.4464L356.179 28.4392Z" fill="#F3E7D4"/>
<path d="M919.112 180.332L877.03 180.391L877.056 198.554L919.137 198.496L919.112 180.332Z" fill="#F3E7D4"/>
<path d="M715.462 136.803L517.825 137.079L517.846 152.086L715.483 151.81L715.462 136.803Z" fill="#F3E7D4"/>
<path d="M1074.62 158.524L876.982 158.8L877.003 173.807L1074.64 173.531L1074.62 158.524Z" fill="#F3E7D4"/>
<path d="M715.432 115.122L517.795 115.398L517.816 130.405L715.452 130.129L715.432 115.122Z" fill="#F3E7D4"/>
<path d="M1074.58 136.905L876.946 137.146L876.964 152.153L1074.6 151.912L1074.58 136.905Z" fill="#F3E7D4"/>
<path d="M715.383 93.4412L517.747 93.7171L517.767 108.724L715.404 108.448L715.383 93.4412Z" fill="#F3E7D4"/>
<path d="M1074.56 115.144L876.903 115.42L876.924 130.427L1074.58 130.151L1074.56 115.144Z" fill="#F3E7D4"/>
<path d="M1074.48 50.0827L876.83 50.3587L876.851 65.3659L1074.51 65.0899L1074.48 50.0827Z" fill="#F3E7D4"/>
<path d="M1074.55 93.4628L876.891 93.7388L876.912 108.746L1074.57 108.47L1074.55 93.4628Z" fill="#F3E7D4"/>
<path d="M1074.52 71.7818L876.861 72.0578L876.882 87.0649L1074.54 86.789L1074.52 71.7818Z" fill="#F3E7D4"/>
<path d="M715.474 158.502L517.837 158.778L517.858 173.785L715.495 173.509L715.474 158.502Z" fill="#F3E7D4"/>
<path d="M356.305 115.137L158.651 115.413L158.671 130.42L356.326 130.144L356.305 115.137Z" fill="#F3E7D4"/>
<path d="M356.336 136.818L158.681 137.094L158.702 152.101L356.357 151.825L356.336 136.818Z" fill="#F3E7D4"/>
<path d="M356.275 93.4556L158.62 93.7316L158.641 108.739L356.296 108.463L356.275 93.4556Z" fill="#F3E7D4"/>
<path d="M356.214 50.0755L158.56 50.3515L158.581 65.3587L356.235 65.0827L356.214 50.0755Z" fill="#F3E7D4"/>
<path d="M715.371 71.7602L517.734 72.0361L517.755 87.0433L715.392 86.7673L715.371 71.7602Z" fill="#F3E7D4"/>
<path d="M356.245 71.7746L158.59 72.0506L158.611 87.0577L356.266 86.7818L356.245 71.7746Z" fill="#F3E7D4"/>
<path d="M356.348 158.517L158.693 158.793L158.714 173.8L356.369 173.524L356.348 158.517Z" fill="#F3E7D4"/>
<path d="M715.288 28.4694L517.651 28.7109L517.669 43.7181L715.306 43.4766L715.288 28.4694Z" fill="#F3E7D4"/>
<path d="M715.341 50.0611L517.704 50.3371L517.725 65.3443L715.362 65.0683L715.341 50.0611Z" fill="#F3E7D4"/>
<path d="M559.936 180.463L517.854 180.514L517.877 198.678L559.958 198.626L559.936 180.463Z" fill="#F3E7D4"/>
<path d="M560.172 313.643L362.517 313.919L362.538 328.926L560.193 328.65L560.172 313.643Z" fill="#F3E7D4"/>
<path d="M919.164 248.711L721.509 248.952L721.527 263.959L919.182 263.718L919.164 248.711Z" fill="#F3E7D4"/>
<path d="M560.214 357.041L517.627 357.101L517.655 376.617L560.241 376.558L560.214 357.041Z" fill="#F3E7D4"/>
<path d="M560.22 335.324L362.565 335.6L362.586 350.607L560.241 350.331L560.22 335.324Z" fill="#F3E7D4"/>
<path d="M919.235 292.091L721.58 292.332L721.598 307.339L919.253 307.098L919.235 292.091Z" fill="#F3E7D4"/>
<path d="M919.208 270.392L721.554 270.633L721.572 285.64L919.227 285.399L919.208 270.392Z" fill="#F3E7D4"/>
<path d="M919.261 313.772L721.607 314.013L721.625 329.02L919.28 328.779L919.261 313.772Z" fill="#F3E7D4"/>
<path d="M1278.32 625.057L1080.66 625.298L1080.68 640.305L1278.34 640.064L1278.32 625.057Z" fill="#F3E7D4"/>
<path d="M1278.29 603.376L1080.64 603.617L1080.65 618.624L1278.31 618.383L1278.29 603.376Z" fill="#F3E7D4"/>
<path d="M919.34 357.063L876.754 357.122L876.781 376.639L919.367 376.579L919.34 357.063Z" fill="#F3E7D4"/>
<path d="M919.288 335.435L721.633 335.676L721.651 350.683L919.306 350.442L919.288 335.435Z" fill="#F3E7D4"/>
<path d="M1278.35 581.489L1080.69 581.765L1080.71 596.772L1278.37 596.496L1278.35 581.489Z" fill="#F3E7D4"/>
<path d="M356.294 491.515L158.639 491.757L158.658 506.764L356.312 506.523L356.294 491.515Z" fill="#F3E7D4"/>
<path d="M356.17 759.408L158.516 759.65L158.534 774.657L356.189 774.415L356.17 759.408Z" fill="#F3E7D4"/>
<path d="M356.261 781.081L158.606 781.357L158.627 796.346L356.282 796.07L356.261 781.081Z" fill="#F3E7D4"/>
<path d="M356.291 802.761L158.637 803.037L158.658 818.045L356.312 817.769L356.291 802.761Z" fill="#F3E7D4"/>
<path d="M356.313 469.79L158.659 470.066L158.68 485.073L356.334 484.797L356.313 469.79Z" fill="#F3E7D4"/>
<path d="M356.253 426.428L158.598 426.704L158.619 441.711L356.274 441.435L356.253 426.428Z" fill="#F3E7D4"/>
<path d="M356.283 448.109L158.628 448.385L158.649 463.392L356.304 463.116L356.283 448.109Z" fill="#F3E7D4"/>
<path d="M560.093 270.281L362.456 270.557L362.477 285.564L560.114 285.288L560.093 270.281Z" fill="#F3E7D4"/>
<path d="M560.063 248.582L362.426 248.858L362.447 263.865L560.084 263.589L560.063 248.582Z" fill="#F3E7D4"/>
<path d="M560.159 291.962L362.505 292.238L362.526 307.245L560.18 306.969L560.159 291.962Z" fill="#F3E7D4"/>
<path d="M356.241 404.71L158.586 404.986L158.607 419.994L356.262 419.718L356.241 404.71Z" fill="#F3E7D4"/>
<path d="M466.7 357.218L451.26 357.236L451.499 553.412L466.939 553.393L466.7 357.218Z" fill="#F3E7D4"/>
<path d="M400.402 357.246L384.962 357.268L385.236 553.425L400.676 553.404L400.402 357.246Z" fill="#F3E7D4"/>
<path d="M422.472 357.272L407.032 357.29L407.271 553.448L422.711 553.429L422.472 357.272Z" fill="#F3E7D4"/>
<path d="M444.586 357.245L429.146 357.263L429.385 553.439L444.825 553.42L444.586 357.245Z" fill="#F3E7D4"/>
<path d="M378.226 357.326L362.786 357.344L363.025 553.502L378.466 553.483L378.226 357.326Z" fill="#F3E7D4"/>
<path d="M1278.27 958.029L1080.62 958.27L1080.64 973.277L1278.29 973.036L1278.27 958.029Z" fill="#F3E7D4"/>
<path d="M1278.37 668.455L1080.7 668.696L1080.72 683.704L1278.39 683.462L1278.37 668.455Z" fill="#F3E7D4"/>
<path d="M1278.25 936.33L1080.59 936.571L1080.61 951.578L1278.26 951.337L1278.25 936.33Z" fill="#F3E7D4"/>
<path d="M1278.31 1001.41L1080.65 1001.65L1080.67 1016.66L1278.33 1016.42L1278.31 1001.41Z" fill="#F3E7D4"/>
<path d="M1278.28 979.71L1080.63 979.951L1080.64 994.958L1278.3 994.717L1278.28 979.71Z" fill="#F3E7D4"/>
<path d="M1278.34 646.756L1080.69 646.997L1080.71 662.005L1278.36 661.763L1278.34 646.756Z" fill="#F3E7D4"/>
<path d="M356.322 824.443L158.667 824.719L158.688 839.726L356.343 839.45L356.322 824.443Z" fill="#F3E7D4"/>
<path d="M992.399 376.479L1007.82 376.461L1007.57 180.303L992.129 180.321L992.399 376.479Z" fill="#F3E7D4"/>
<path d="M1229.25 711.734L1213.81 711.755L1214.08 907.931L1229.52 907.91L1229.25 711.734Z" fill="#F3E7D4"/>
<path d="M1278.33 914.497L1080.67 914.773L1080.69 929.78L1278.35 929.504L1278.33 914.497Z" fill="#F3E7D4"/>
<path d="M1278.5 689.948L1080.83 690.224L1080.85 705.231L1278.52 704.955L1278.5 689.948Z" fill="#F3E7D4"/>
<path d="M1278.32 559.826L1080.66 560.102L1080.68 575.109L1278.34 574.833L1278.32 559.826Z" fill="#F3E7D4"/>
<path d="M1229.22 357.081L1213.78 357.102L1214.06 553.278L1229.5 553.257L1229.22 357.081Z" fill="#F3E7D4"/>
<path d="M1029.67 180.358L1014.23 180.376L1014.47 376.552L1029.91 376.533L1029.67 180.358Z" fill="#F3E7D4"/>
<path d="M941.212 180.466L925.772 180.485L926.012 376.66L941.452 376.641L941.212 180.466Z" fill="#F3E7D4"/>
<path d="M963.326 180.421L947.886 180.44L948.126 376.615L963.566 376.596L963.326 180.421Z" fill="#F3E7D4"/>
<path d="M985.44 180.412L970 180.431L970.24 376.606L985.68 376.587L985.44 180.412Z" fill="#F3E7D4"/>
<path d="M714.769 180.255L699.329 180.274L699.569 376.45L715.009 376.431L714.769 180.255Z" fill="#F3E7D4"/>
<path d="M919.155 226.993L721.5 227.235L721.519 242.242L919.174 242.001L919.155 226.993Z" fill="#F3E7D4"/>
<path d="M1073.91 180.286L1058.47 180.304L1058.71 376.48L1074.15 376.461L1073.91 180.286Z" fill="#F3E7D4"/>
<path d="M1278.28 227.024L1080.63 227.265L1080.65 242.272L1278.3 242.031L1278.28 227.024Z" fill="#F3E7D4"/>
<path d="M1278.43 335.465L1080.76 335.706L1080.78 350.714L1278.45 350.472L1278.43 335.465Z" fill="#F3E7D4"/>
<path d="M692.656 180.3L677.215 180.319L677.455 376.495L692.895 376.476L692.656 180.3Z" fill="#F3E7D4"/>
<path d="M1051.78 180.331L1036.34 180.349L1036.58 376.525L1052.02 376.506L1051.78 180.331Z" fill="#F3E7D4"/>
<path d="M356.294 846.15L158.64 846.392L158.658 861.399L356.313 861.158L356.294 846.15Z" fill="#F3E7D4"/>
</svg>
